<?xml version="1.0" encoding="UTF-8" standalone="no"?>
<svg
   xmlns:osb="http://www.openswatchbook.org/uri/2009/osb"
   xmlns:dc="http://purl.org/dc/elements/1.1/"
   xmlns:cc="http://creativecommons.org/ns#"
   xmlns:rdf="http://www.w3.org/1999/02/22-rdf-syntax-ns#"
   xmlns:svg="http://www.w3.org/2000/svg"
   xmlns="http://www.w3.org/2000/svg"
   xmlns:sodipodi="http://sodipodi.sourceforge.net/DTD/sodipodi-0.dtd"
   xmlns:inkscape="http://www.inkscape.org/namespaces/inkscape"
   width="512"
   height="512"
   viewBox="0 0 135.46667 135.46667"
   version="1.1"
   id="svg8"
   inkscape:version="0.92.4 (5da689c313, 2019-01-14)"
   sodipodi:docname="Drone_EMP.svg">
  <defs
     id="defs2">
    <linearGradient
       id="linearGradient1099-6-5"
       osb:paint="gradient">
      <stop
         style="stop-color:#273839;stop-opacity:0.5"
         offset="0"
         id="stop1151" />
      <stop
         style="stop-color:#273839;stop-opacity:1"
         offset="1"
         id="stop1153" />
    </linearGradient>
  </defs>
  <sodipodi:namedview
     id="base"
     pagecolor="#ffffff"
     bordercolor="#666666"
     borderopacity="1.0"
     inkscape:pageopacity="0.0"
     inkscape:pageshadow="2"
     inkscape:zoom="0.98994949"
     inkscape:cx="147.90255"
     inkscape:cy="323.97596"
     inkscape:document-units="px"
     inkscape:current-layer="g1320"
     inkscape:document-rotation="0"
     showgrid="false"
     inkscape:pagecheckerboard="true"
     inkscape:object-nodes="true"
     fit-margin-top="0"
     fit-margin-left="0"
     fit-margin-right="0"
     fit-margin-bottom="0"
     inkscape:window-width="1920"
     inkscape:window-height="1017"
     inkscape:window-x="-8"
     inkscape:window-y="-8"
     inkscape:window-maximized="1"
     units="px" />
  <metadata
     id="metadata5">
    <rdf:RDF>
      <cc:Work
         rdf:about="">
        <dc:format>image/svg+xml</dc:format>
        <dc:type
           rdf:resource="http://purl.org/dc/dcmitype/StillImage" />
        <dc:title></dc:title>
      </cc:Work>
    </rdf:RDF>
  </metadata>
  <g
     inkscape:label="Layer 1"
     inkscape:groupmode="layer"
     id="layer1"
     transform="translate(-59.62574,-110.15787)">
    <path
       style="fill:#000000;stroke-width:0.264583"
       id="path853"
       d="" />
    <path
       style="fill:#000000;stroke-width:0.264583"
       id="path849"
       d="" />
    <g
       id="g1061"
       transform="translate(9.0714285,1.8898814)">
      <g
         id="g1320"
         transform="translate(7.2162774,44.901282)">
        <g
           id="g917"
           transform="matrix(0.99904435,0,0,0.99904435,0.11476231,0.06359076)">
          <g
             id="g906">
            <g
               id="g1408"
               transform="matrix(1.0844137,0,0,1.0844135,-11.20078,-9.1217032)">
              <path
                 transform="matrix(0.26458334,0,0,0.26458334,43.338034,63.366707)"
                 id="path1366"
                 style="fill:#000000;fill-opacity:1;stroke-width:1.33333004"
                 d="m 263.30664,141.24805 c -80.27578,-0.24102 -144.87909,64.41407 -144.84961,144.96679 0.009,24.24594 4.75134,44.17801 15.54492,65.33399 20.63388,40.44347 60.45371,69.94057 104.39844,77.33594 28.5117,4.79814 60.2063,0.37115 86.55078,-12.0918 31.99782,-15.13739 60.31827,-46.00475 72.90039,-79.45508 35.49298,-94.36017 -34.10001,-195.78824 -134.54492,-196.08984 z m 102,71.03538 h -59.33398 l -11.33204,23.93183 h 84.13477 c 2.40188,5.14427 4.05437,10.52111 5.39844,15.99943 h -94.95008 l -1.7601,3.73381 h 25.81174 l -9.16016,18.9319 h 84.52539 c 1.16325,5.72231 1.00798,10.7293 0,16.14144 H 295.0101 l -13.61362,22.52462 h 104.20704 c -0.76563,5.86536 -2.49171,11.37257 -5,16.66799 H 273.64508 l -14.75988,23.37301 h 110.57183 c -55.82457,77.89065 -163.54497,77.57909 -213.37109,0 h 75.746 l 7.86164,-23.37301 h -94.97874 c -2.725,-3.93195 -5.39506,-11.39705 -5.86505,-16.66799 H 243.1061 l 3.64744,-11.66529 h -37.15301 l 3.28313,-10.85933 h -76.24304 c -0.78491,-5.48199 -0.61789,-10.82586 0.7168,-16.14144 h 79.57936 l 6.13086,-22.66571 h -81.81178 c 1.18982,-5.65634 3.23743,-10.74732 5.41992,-15.99943 h 79.26633 l 6.5664,-23.93183 h -72.53585 c 51.08828,-70.71523 148.77658,-71.2522 205.33398,0 z"
                 inkscape:connector-curvature="0"
                 sodipodi:nodetypes="scscsssccccccccccccccccccccccccccccccccccccc" />
              <path
                 style="fill:#000000;fill-opacity:1;stroke-width:0.35277799"
                 d="m 107.00944,97.64305 5.8278,-27.869472 5.8197,27.869472 c -3.85597,-0.344869 -7.73352,-0.409181 -11.6475,0 z"
                 id="path1380"
                 inkscape:connector-curvature="0"
                 sodipodi:nodetypes="cccc" />
              <path
                 style="fill:#000000;fill-opacity:1;stroke-width:0.35277799"
                 d="m 106.47812,160.20492 4.84729,-20.5604 h -9.31602 l 7.17808,-21.36403 h 12.46009 l -7.46421,14.99303 h 8.16977 l -15.875,26.93143 z"
                 id="path1370"
                 inkscape:connector-curvature="0"
                 sodipodi:nodetypes="ccccccccc" />
              <path
                 style="fill:#000000;fill-opacity:1;stroke-width:0.35277799"
                 d="m 143.24027,167.33111 c 2.91233,-2.92685 5.21627,-6.12409 6.65088,-9.7077 l 20.07122,20.77357 z"
                 id="path1364"
                 inkscape:connector-curvature="0"
                 sodipodi:nodetypes="cccc" />
              <path
                 style="fill:#000000;fill-opacity:1;stroke-width:0.35277799"
                 d="m 75.770053,157.61561 c 1.556172,3.59729 3.81689,6.81027 6.650781,9.71062 L 55.53003,178.42914 Z"
                 id="path1362"
                 inkscape:connector-curvature="0"
                 sodipodi:nodetypes="cccc" />
            </g>
            <path
               transform="matrix(0.26458334,0,0,0.26458334,43.338034,63.366707)"
               style="fill:none;fill-opacity:1;stroke:#000000;stroke-width:2;stroke-miterlimit:4;stroke-dasharray:none;stroke-opacity:0.50196078"
               d="m 437.38867,388.22656 c 14.09871,-27.7779 22.05262,-59.23889 22.05274,-92.57031 C 459.31713,194.37089 385.29409,108.54533 285.65625,94.162109 m -58.2793,0.04883 C 128.05594,108.9313 54.437563,194.63784 54.34375,295.65625 c 1.12e-4,32.42432 7.537536,63.07333 20.925781,90.28906 m 34.621089,49.91407 c 36.91212,39.17261 89.11979,63.60749 147.00196,63.60742 58.08332,7e-5 110.44926,-24.6081 147.38281,-64.01953"
               id="path834"
               inkscape:connector-curvature="0"
               sodipodi:nodetypes="ccccccccc" />
            <path
               transform="matrix(0.26458334,0,0,0.26458334,43.338034,63.366707)"
               style="fill:#000000;fill-opacity:1;stroke:none;stroke-width:3.23036528;stroke-miterlimit:4;stroke-dasharray:none;stroke-opacity:1"
               d="M 223.01758,119.49805 A 178.20116,178.20116 0 0 0 78.150391,294.45898 178.20116,178.20116 0 0 0 93.199219,365.88672 l 3.939453,-4.40625 A 173.34798,173.34798 0 0 1 83.339844,294.16016 173.34798,173.34798 0 0 1 222.16016,124.4707 Z m 67.2207,0.16015 0.82617,4.59961 A 173.34798,173.34798 0 0 1 430.03711,294.16016 173.34798,173.34798 0 0 1 415.625,363.17383 l 3.27539,3.77148 A 178.20116,178.20116 0 0 0 434.55273,294.45898 178.20116,178.20116 0 0 0 290.23828,119.6582 Z m 81.42774,303.94532 A 173.34798,173.34798 0 0 1 256.6875,467.50781 173.34798,173.34798 0 0 1 142.58008,424.47656 l -5.65625,1.96875 a 178.20116,178.20116 0 0 0 119.42773,46.21485 178.20116,178.20116 0 0 0 120.4668,-47.18555 z"
               id="path836"
               inkscape:connector-curvature="0" />
          </g>
        </g>
      </g>
    </g>
  </g>
</svg>
