<?xml version="1.0" encoding="UTF-8" standalone="no"?>
<svg
   xmlns:osb="http://www.openswatchbook.org/uri/2009/osb"
   xmlns:dc="http://purl.org/dc/elements/1.1/"
   xmlns:cc="http://creativecommons.org/ns#"
   xmlns:rdf="http://www.w3.org/1999/02/22-rdf-syntax-ns#"
   xmlns:svg="http://www.w3.org/2000/svg"
   xmlns="http://www.w3.org/2000/svg"
   xmlns:xlink="http://www.w3.org/1999/xlink"
   xmlns:sodipodi="http://sodipodi.sourceforge.net/DTD/sodipodi-0.dtd"
   xmlns:inkscape="http://www.inkscape.org/namespaces/inkscape"
   width="512"
   height="512"
   viewBox="0 0 135.46667 135.46667"
   version="1.1"
   id="svg8"
   inkscape:version="0.92.4 (5da689c313, 2019-01-14)"
   sodipodi:docname="Neurolink.svg">
  <defs
     id="defs2">
    <linearGradient
       inkscape:collect="always"
       id="linearGradient1874">
      <stop
         style="stop-color:#000000;stop-opacity:1"
         offset="0"
         id="stop1870" />
      <stop
         style="stop-color:#000000;stop-opacity:0"
         offset="1"
         id="stop1872" />
    </linearGradient>
    <linearGradient
       inkscape:collect="always"
       id="linearGradient1863">
      <stop
         style="stop-color:#000000;stop-opacity:1"
         offset="0"
         id="stop1859" />
      <stop
         style="stop-color:#000000;stop-opacity:0;"
         offset="1"
         id="stop1861" />
    </linearGradient>
    <linearGradient
       id="linearGradient1099-6-5"
       osb:paint="gradient">
      <stop
         style="stop-color:#273839;stop-opacity:0.5"
         offset="0"
         id="stop1151" />
      <stop
         style="stop-color:#273839;stop-opacity:1"
         offset="1"
         id="stop1153" />
    </linearGradient>
    <radialGradient
       inkscape:collect="always"
       xlink:href="#linearGradient1863"
       id="radialGradient1867"
       cx="110.61862"
       cy="129.49699"
       fx="110.61862"
       fy="129.49699"
       r="1.4037747"
       gradientTransform="matrix(40.311641,0.32278787,-0.32652668,56.56788,-4306.3154,-7233.6428)"
       gradientUnits="userSpaceOnUse" />
    <linearGradient
       inkscape:collect="always"
       xlink:href="#linearGradient1874"
       id="linearGradient1876"
       x1="124.35069"
       y1="140.55321"
       x2="125.96363"
       y2="164.92613"
       gradientUnits="userSpaceOnUse" />
  </defs>
  <sodipodi:namedview
     id="base"
     pagecolor="#ffffff"
     bordercolor="#666666"
     borderopacity="1.0"
     inkscape:pageopacity="0.0"
     inkscape:pageshadow="2"
     inkscape:zoom="0.7"
     inkscape:cx="39.804203"
     inkscape:cy="216.17047"
     inkscape:document-units="px"
     inkscape:current-layer="g1320"
     inkscape:document-rotation="0"
     showgrid="false"
     inkscape:pagecheckerboard="true"
     inkscape:object-nodes="true"
     fit-margin-top="0"
     fit-margin-left="0"
     fit-margin-right="0"
     fit-margin-bottom="0"
     inkscape:window-width="1920"
     inkscape:window-height="1017"
     inkscape:window-x="-8"
     inkscape:window-y="-8"
     inkscape:window-maximized="1"
     units="px" />
  <metadata
     id="metadata5">
    <rdf:RDF>
      <cc:Work
         rdf:about="">
        <dc:format>image/svg+xml</dc:format>
        <dc:type
           rdf:resource="http://purl.org/dc/dcmitype/StillImage" />
        <dc:title></dc:title>
      </cc:Work>
    </rdf:RDF>
  </metadata>
  <g
     inkscape:label="Layer 1"
     inkscape:groupmode="layer"
     id="layer1"
     transform="translate(-59.62574,-110.15787)">
    <path
       style="fill:#000000;stroke-width:0.264583"
       id="path853"
       d="" />
    <path
       style="fill:#000000;stroke-width:0.264583"
       id="path849"
       d="" />
    <g
       id="g1061"
       transform="translate(9.0714285,1.8898814)">
      <g
         id="g1320"
         transform="translate(7.2162774,44.901282)">
        <g
           id="g1891"
           transform="matrix(1.1121764,0,0,1.1121769,-18.019842,-10.716215)">
          <path
             id="path1799"
             style="fill:#000000;fill-opacity:1;stroke-width:1.33333004"
             d="m 208.3457,36.539062 c -1.05839,-0.0035 -2.2546,0.0025 -3.61718,0.01172 -9.48431,0.06435 -12.66897,0.729579 -21.7754,4.539063 -7.1687,2.998904 -13.9473,4.758499 -20.66796,5.365234 -5.50001,0.496536 -11.49864,1.727803 -13.33204,2.736328 -1.83333,1.008526 -7.4946,2.231592 -12.58007,2.71875 -8.56348,0.820328 -9.5488,1.248231 -13.33399,5.792969 -2.24785,2.698919 -8.43724,9.570355 -13.7539,15.269531 -5.31667,5.699176 -9.6819,11.21828 -9.701176,12.265625 -0.01929,1.047345 -2.504339,6.404295 -5.523437,11.904297 -10.79517,19.665971 -12.021006,22.557091 -13.080078,30.890621 -0.590128,4.64352 -2.393157,14.01758 -4.007813,20.83203 -2.446881,10.32681 -3.688205,13.12092 -7.453125,16.77735 -7.168539,6.962 -8.993088,12.84153 -7.933593,25.56054 0.777267,9.33108 0.417061,12.61499 -2.589844,23.65235 l -3.490235,12.81641 6.619141,20.40234 c 8.576481,26.43254 11.646241,38.35436 12.693359,49.28906 0.468034,4.88753 2.071096,13.58621 3.560547,19.33203 1.489448,5.74583 3.859183,16.74727 5.267578,24.44727 4.778155,26.12318 11.040902,39.49287 23.974606,51.17773 2.93599,2.65251 6.00117,4.82227 6.81055,4.82227 0.80938,0 5.75759,4.09722 10.99609,9.10547 5.23851,5.00821 11.47389,10.44937 13.85547,12.08984 2.38159,1.64047 4.68176,4.38223 5.11133,6.09375 0.55224,2.20029 2.01668,3.32872 5.00195,3.84961 2.32219,0.4052 9.02201,1.72113 14.88868,2.92578 5.86667,1.20461 15.16797,2.42527 20.66796,2.71289 5.50006,0.28751 12.09935,1.00625 14.66602,1.5957 7.24573,1.66404 19.32368,1.18205 21.79492,-0.86914 1.49923,-1.24441 2.20508,-3.91155 2.20508,-8.33398 0,-6.17873 -1.42169,-8.26221 -3.42578,-5.01953 -1.05226,1.70256 -32.30418,0.49975 -37.9082,-1.45899 -1.83334,-0.64081 -6.03198,-1.5297 -9.33204,-1.97656 -3.29999,-0.44681 -7.466,-1.93002 -9.25585,-3.29492 l -3.25391,-2.48047 5.25391,-8.07812 c 3.54766,-5.45424 6.14274,-8.09779 7.98828,-8.13672 3.32806,-0.0703 5.93359,-2.48035 5.93359,-5.48828 0,-2.76889 -11.54588,-13.60511 -13.73437,-12.89063 -0.88,0.28732 -2.21212,2.3713 -2.96094,4.63281 -0.74883,2.26156 -3.5258,7.31765 -6.17188,11.23438 -2.64609,3.91669 -5.19553,8.76864 -5.66406,10.7832 l -0.85156,3.66406 -4.5,-2.95117 -4.5,-2.94922 4.21875,-4.92968 c 5.62806,-6.57513 8.84583,-16.03974 8.83789,-26 -0.008,-10.50554 2.02194,-12.64492 8.62695,-9.08789 4.43988,2.391 4.64059,2.39008 7.29883,-0.0156 3.53169,-3.19612 3.47089,-3.65558 -1.13477,-8.58594 -3.50197,-3.74887 -4.6314,-4.14062 -11.92578,-4.14062 -6.58574,0 -8.73832,0.58598 -11.7832,3.20508 -3.44568,2.96383 -3.75502,4.0383 -4.125,14.33203 -0.51385,14.29648 -0.94401,16.10908 -4.9707,20.89453 l -3.3418,3.9707 -7.27539,-3.9414 c -9.23197,-5.00024 -20.70919,-18.57593 -16.89649,-19.98633 1.47361,-0.54512 3.85371,-4.86497 6.1504,-11.16211 3.30536,-9.06274 4.29736,-10.50292 8.41796,-12.22461 3.15355,-1.31773 6.70478,-1.67091 10.92969,-1.08985 5.68699,0.78224 6.45784,0.55229 8.46289,-2.50781 1.68236,-2.56762 1.89647,-4.18356 0.89844,-6.80859 -0.95871,-2.52151 -0.86809,-3.57801 0.3418,-3.94727 12.60715,-3.85009 19.02327,-7.10972 19.42187,-9.86718 0.72947,-5.0462 -2.20903,-7.2432 -8.37109,-6.25977 -2.96872,0.4738 -6.72736,1.73005 -8.35156,2.79297 -1.6242,1.06295 -4.87713,1.93359 -7.22852,1.93359 -5.39986,0 -9.15234,3.33126 -9.15234,8.12696 0,4.64156 -0.28141,4.80291 -10.37891,5.94531 -7.85924,0.88917 -8.28711,0.79195 -8.28711,-1.90039 0,-1.5614 1.26503,-4.10489 2.8125,-5.65235 2.2462,-2.24621 2.65272,-3.82395 2.01367,-7.82031 -0.65872,-4.11946 -0.22286,-5.62789 2.45703,-8.51953 1.79111,-1.93266 4.11103,-3.51367 5.15625,-3.51367 1.04523,0 2.64763,-0.89997 3.56055,-2 2.40341,-2.89591 6.29971,-2.46778 12.93359,1.41992 6.93061,4.06159 11.54767,3.889 12.16407,-0.45508 0.53338,-3.75912 -7.54213,-12.29883 -11.63086,-12.29883 -3.20996,0 -3.94476,-4.98882 -1.14649,-7.78711 1.20448,-1.20464 1.537,-6.80327 1.22266,-20.5996 -0.4276,-18.76742 -0.47474,-19.02379 -5.04297,-27.26172 -7.34945,-13.25337 -12.89224,-14.48951 -14.23242,-3.17383 -1.15104,9.71868 -2.80421,12.15625 -8.23828,12.15625 -5.85025,0 -22.029299,-9.85628 -22.029299,-13.41992 0,-1.35028 0.695235,-3.98085 1.544921,-5.84571 1.287196,-2.82508 1.141786,-3.83613 -0.873046,-6.0625 -3.258271,-3.60037 -5.803952,-3.36429 -10.314454,0.95703 -3.020726,2.89403 -4.250295,3.33925 -6.072265,2.19727 -4.212798,-2.64049 -3.581391,-7.14184 1.601562,-11.41406 3.123545,-2.57469 4.779297,-5.07721 4.779297,-7.22266 0,-1.80574 0.946954,-4.72703 2.103516,-6.49219 1.156558,-1.76511 1.906053,-4.59471 1.666016,-6.28711 -0.376372,-2.6536 -1.124131,-3.03643 -5.435547,-2.7832 -4.67562,0.27443 -5,0.0469 -5,-3.50391 0,-2.0883 0.926092,-4.56596 2.058593,-5.50585 1.728363,-1.43441 2.419403,-1.19245 4.304688,1.5039 1.235323,1.76678 5.161361,5.90031 8.724609,9.18555 8.967636,8.26794 9.667699,9.91331 6.861328,16.13672 -1.950825,4.32616 -2.052956,5.75618 -0.654297,9.13281 2.586023,6.24321 4.762168,7.46441 8.699218,4.88477 2.51414,-1.64735 3.33984,-3.34535 3.33984,-6.86719 0,-2.57333 0.9,-6.83218 2,-9.46485 3.41348,-8.16948 2.68878,-10.34501 -5.93945,-17.8496 -4.36618,-3.79766 -10.126601,-10.08203 -12.800779,-13.96485 l -4.861329,-7.06055 2.94336,-3.98242 c 2.619122,-3.54255 6.937631,-7.29377 11.552738,-10.03711 0.99748,-0.59289 2.77702,1.60784 4.91992,6.08594 3.792,7.92427 6.94003,11.8971 11.25976,14.20899 3.2118,1.71889 3.2641,1.65813 4.83789,-5.5254 0.55497,-2.53307 -0.27976,-5.79991 -2.70898,-10.59375 -2.85652,-5.63705 -3.37379,-8.11107 -2.76563,-13.24609 1.82748,-15.42962 16.89098,-32.47836 34.5918,-39.15039 3.4997,-1.31914 6.63324,-2.12848 6.96289,-1.79883 1.49752,1.49753 -9.30623,14.73791 -17.06054,20.9082 -6.27223,4.99103 -9.32914,8.56046 -11.35157,13.26172 -3.66096,8.51017 -5.5891,24.81271 -5.54882,46.91407 l 0.0332,18.03515 5.63476,9.29297 c 3.09865,5.11166 7.1335,10.09946 8.9668,11.08399 5.29922,2.84572 33.9834,1.27575 41.80859,-2.28907 6.90245,-3.14441 11.72376,-3.48526 15.54688,-1.09765 3.32467,2.07628 6.79305,0.18697 8.51367,-4.63868 2.15248,-6.03677 0.55412,-7.24621 -10.9082,-8.24609 -8.94067,-0.7799 -11.82273,-0.48674 -18.44531,1.87305 -4.31687,1.53823 -12.73388,3.15753 -18.70508,3.59765 l -10.85742,0.79883 -3.33204,-5.1875 c -3.00744,-4.68253 -3.41307,-7.00728 -4.17187,-23.85547 -1.33484,-29.63833 2.1494,-41.29629 15.88672,-53.15625 3.88205,-3.35153 9.93472,-10.01356 13.45117,-14.80273 5.55118,-7.56034 6.9534,-8.70703 10.64063,-8.70703 2.33567,0 6.44627,0.91963 9.13476,2.04297 5.65061,2.36097 7.4375,1.71907 7.4375,-2.66993 0,-3.28089 -6.74785,-10.039051 -10.02344,-10.039057 -3.09199,0 -3.35033,-2.108549 -0.95117,-7.789062 2.06584,-4.891302 2.90129,-5.552281 7.99219,-6.324219 6.75524,-1.024301 12.62718,1.059433 16.36133,5.806641 2.21502,2.815952 2.62052,5.424555 2.61523,16.820307 -0.005,11.73239 -0.43911,14.3389 -3.33398,20.04493 -4.34236,8.55918 -4.20622,11.07387 0.74414,13.83593 3.45133,1.9257 3.95925,2.85546 3.33398,6.10547 -0.4056,2.10834 -0.73828,4.59244 -0.73828,5.52149 0,0.929 -2.82562,4.83244 -6.2793,8.67383 -4.93,5.48333 -9.00472,8.25013 -18.96093,12.87109 -11.4242,5.30218 -13.34858,5.80226 -19.41016,5.04492 -5.763,-0.72004 -7.08983,-0.44165 -9.25,1.94531 -2.11609,2.33828 -2.27392,3.33426 -0.97656,6.18164 1.51902,3.33389 1.75143,3.38309 13.21093,2.78907 16.43005,-0.85168 27.26719,-4.37595 39.53321,-12.85547 5.66102,-3.91344 11.15666,-8.34943 12.21289,-9.85742 1.56404,-2.23284 1.92026,-9.88072 1.92026,-41.19922 0,-23.157805 -0.53319,-39.450821 -1.33823,-40.95508 -0.89371,-1.66989 -0.89371,-2.771883 0,-3.324219 0.77276,-0.477592 1.33823,-7.536041 1.33823,-16.726562 0,-15.683919 -0.0532,-15.960744 -3.89096,-20.25586 -3.34033,-3.738496 -3.97409,-4.266759 -11.38282,-4.291016 z m -4.24023,10.871094 c 1.71788,-0.118583 2.36225,0.532928 3.58789,1.525391 2.76584,2.239642 5.07943,10.187903 5.20117,17.873047 0.063,3.97618 -0.65526,4.335303 -4.36133,2.179687 -3.29965,-1.919221 -30.98825,-3.066153 -37.58008,-1.55664 -2.93333,0.671739 -6.71013,0.882129 -8.39257,0.466797 -5.52072,-1.362853 -0.55433,-4.852569 16.35742,-11.488282 16.47991,-6.466266 22.32436,-8.802362 25.1875,-9 z M 145.2207,62.550781 c 1.14868,0.05737 0.87952,0.636024 -0.3164,1.759766 -2.15077,2.020959 -16.47689,4.0945 -15.31641,2.216797 0.39692,-0.642233 3.74524,-1.816691 7.44141,-2.609375 4.47596,-0.959923 7.04272,-1.424557 8.1914,-1.367188 z m -1.49609,16.052735 c 3.67889,0.03798 7.64546,0.340278 11.89453,0.908203 l 8.66602,1.158203 -15.33204,7.554687 c -18.89792,9.312174 -35.07369,23.215671 -40.5996,34.896481 -2.44422,5.16666 -5.20569,8.4692 -9.625004,11.50977 l -6.197266,4.26367 0.833984,-7.04492 c 0.620217,-5.23677 2.777199,-10.33564 8.404296,-19.875 4.16299,-7.05732 8.9669,-15.648192 10.67578,-19.089844 4.79101,-9.648999 15.33744,-14.445839 31.2793,-14.28125 z M 74.574219,236.16602 c 0.0523,-0.0102 0.116027,-0.009 0.193359,0.006 1.031088,0.19474 4.391969,2.64834 12.875,8.92382 5.512483,4.07792 12.610052,8.27044 15.773442,9.31446 l 5.75195,1.89648 -4.41992,2.08789 c -4.826191,2.27879 -6.10987,5.81221 -7.365238,20.26758 -0.471118,5.42487 -0.0383,8.70664 1.554688,11.78711 1.55427,3.00567 1.94816,5.81081 1.32812,9.48047 -0.89856,5.31874 -1.478874,5.63921 -7.312495,4.02539 -3.107686,-0.85973 -3.387015,-1.63991 -4.105469,-11.5332 -0.647414,-8.91509 -9.140401,-41.92319 -14.023437,-54.49805 -0.398189,-1.02543 -0.616076,-1.68669 -0.25,-1.75781 z m 53.388671,15.64257 c 1.17776,0 0.332,26.43564 -0.88477,27.65235 -0.43579,0.43581 -0.79296,3.0586 -0.79296,5.82812 0,5.13596 -3.46411,9.1875 -7.85743,9.1875 -1.06242,0 -3.03001,0.99339 -4.37109,2.20703 -2.30891,2.08952 -2.43756,1.99982 -2.45117,-1.66797 -0.008,-2.13033 -0.90794,-6.81808 -2,-10.41796 -2.6514,-8.74005 -2.62716,-13.31875 0.0664,-12.28516 6.44815,2.47438 10.21756,-8.96042 4.3164,-13.09375 -2.86129,-2.00417 -2.74667,-2.07617 3.32227,-2.07617 4.84136,0 6.66841,-0.612 7.95117,-2.66602 0.91594,-1.46668 2.1314,-2.66797 2.70117,-2.66797 z M 98.548828,313.9043 c 1.028058,-0.0294 1.070313,1.27693 1.070313,5.26758 0,5.9879 -1.209809,7.41648 -3.644532,4.30468 -2.961656,-3.78531 -2.770518,-7.35435 0.472657,-8.83203 0.963476,-0.43899 1.634263,-0.72687 2.101562,-0.74023 z m -1.175781,25.28906 c 0.8125,0.0305 2.712113,0.17695 4.912113,0.38672 6.09971,0.58171 6.40737,1.51079 2.55859,7.73828 -1.52648,2.46988 -2.97106,4.49023 -3.20898,4.49023 -0.31795,0 -4.681645,-11.74964 -4.681645,-12.60547 0,-0.018 0.149089,-0.0199 0.419922,-0.01 z"
             transform="matrix(0.26458334,0,0,0.26458334,43.338034,63.366707)"
             inkscape:connector-curvature="0"
             sodipodi:nodetypes="cccscscscssccccccssscsccccccccscccccccsccccccccccccscscccssccccccccsssscccscscscscsssccscsscccssccsccsccccccsccccccccccccccccccccsssscscsscccccsccsccsccsccscccsscsccssscsssscccscccsssccccccscccscccscsscccccscsscsccccccsscc" />
          <path
             style="fill:#000000;fill-opacity:1;stroke-width:0.35277799"
             d="M 118.73168,97.36457 V 84.655102 c 8.84829,-0.0061 9.10199,12.668248 0,12.709468 z"
             id="path1850"
             inkscape:connector-curvature="0"
             sodipodi:nodetypes="ccc" />
          <path
             style="fill:#000000;fill-opacity:1;stroke-width:0.35277799"
             d="m 86.147318,104.91848 c -1.124895,-0.88484 -1.169737,-1.49806 -0.181793,-2.48601 0.611265,-0.61127 1.020142,-0.71039 2.240432,-0.54313 2.173418,0.2979 3.222748,-0.88169 3.684443,-4.141843 0.512332,-3.617718 2.327236,-5.114942 4.146126,-3.420388 l 0.721209,0.67191 -0.802848,2.462671 c -0.441565,1.35447 -0.948443,2.75867 -1.126392,3.12045 -0.177948,0.36178 -0.627214,1.2827 -0.998368,2.04648 -1.284718,2.64377 -5.598396,3.92946 -7.682809,2.28986 z"
             id="path1848"
             inkscape:connector-curvature="0" />
          <path
             style="fill:#000000;fill-opacity:1;stroke-width:0.35277799"
             d="m 121.90803,108.42372 c 7.1e-4,-0.26456 0.86897,-1.15109 1.9294,-1.97006 3.82939,-2.95744 5.89083,-7.213755 4.70996,-9.724789 -0.47458,-1.009182 -0.4749,-1.268714 -0.003,-2.368118 2.78917,-7.004089 -3.26715,-13.396045 -9.81271,-13.503833 v -5.546167 c 2.30387,0.08337 6.83585,0.200122 8.40709,1.508543 2.18127,2.820011 4.16194,5.760378 5.94268,8.820701 0.90887,1.724043 1.09627,8.990867 0.30311,11.753393 -1.15308,4.01605 -4.32388,8.68433 -7.02291,10.33963 -1.46462,0.89823 -4.45567,1.3621 -4.4538,0.69071 z"
             id="path1846"
             inkscape:connector-curvature="0"
             sodipodi:nodetypes="cscccccccccc" />
          <path
             style="fill:#000000;fill-opacity:1;stroke-width:0.35277799"
             d="m 97.565021,130.00926 c 0,-1.55846 0.124241,-1.84069 1.157069,-2.62847 0.63639,-0.4854 1.5492,-1.03904 2.02847,-1.23032 0.60177,-0.24016 0.68289,-0.35469 0.26218,-0.37013 -1.249836,-0.0459 -1.660695,-1.40413 -1.555303,-5.14166 0.05465,-1.93807 0.291797,-3.88095 0.526997,-4.31751 0.467016,-0.86685 1.429606,-1.03695 2.096146,-0.37042 0.54443,0.54444 0.5928,8.95529 0.0534,9.28865 -0.25531,0.15779 -0.24863,0.37474 0.0216,0.7003 0.2153,0.25943 0.34207,1.15811 0.28171,1.99707 -0.0885,1.22968 -0.24092,1.52566 -0.78641,1.52687 -0.37216,7e-4 -0.74399,0.20351 -0.82629,0.4504 -0.13038,0.39115 -2.547464,1.84116 -3.069106,1.84116 -0.104743,0 -0.190443,-0.78567 -0.190443,-1.74594 z"
             id="path1844"
             inkscape:connector-curvature="0" />
          <path
             id="path1840"
             style="fill:#000000;fill-opacity:1;stroke-width:1.33333004"
             d="m 357.6543,171.01953 c -0.215,-0.0208 -0.34203,-0.0154 -0.375,0.0176 -0.37108,0.37104 -1.588,9.41229 -2.70508,20.0918 -1.56121,14.92486 -1.69391,21.02937 -0.57422,26.38281 0.80122,3.8307 2.02959,11.27257 2.73047,16.53711 1.53154,11.50412 5.67369,17.78526 13.89844,21.07617 4.53558,1.81478 22.22063,4.80502 53.65625,9.07422 22.97196,3.11981 50.69734,-2.56575 55.5625,-11.39453 2.95547,-5.36327 14.4375,-32.14407 14.4375,-33.67383 0,-3.7892 -11.74384,-11.70428 -24.37891,-16.43164 C 455.82924,197.43233 364.31927,171.6654 357.6543,171.01955 Z m 34.47265,19.45703 56.28516,12.76367 c 9.68907,2.19717 10.98556,5.83635 7.92773,16.8418 -3.04524,10.96018 -10.24477,26.41374 -13.74609,29.50781 -2.9139,2.57477 -9.82532,3.63001 -17.64063,2.69336 -21.78958,-2.61139 -36.10318,-4.59703 -37.77929,-5.24023 -3.39024,-1.30095 -8.88822,-10.92032 -13.54297,-23.69531 -2.44577,-6.71241 -4.83234,-13.1739 -5.30274,-14.35743 -0.61428,-1.54563 1.81606,-4.4555 8.62696,-10.33203 8.41436,-7.26002 10.24827,-9.29816 15.17187,-8.18164 z"
             transform="matrix(0.26458334,0,0,0.26458334,43.338034,63.366707)"
             inkscape:connector-curvature="0"
             sodipodi:nodetypes="cccccccsscccssccccscss" />
          <path
             style="fill:#000000;fill-opacity:1;stroke-width:0.35277799"
             d="m 87.534483,139.53931 c -2.241349,-0.64161 -2.271377,-0.67423 -3.149145,-3.42174 -0.707827,-2.21557 -0.726175,-3.95304 -0.06787,-6.42632 0.73272,-2.75284 2.42122,-4.28605 4.720174,-4.28605 2.331022,0 2.398684,2.37476 0.09393,3.29693 -1.713174,0.68548 -1.75793,0.7593 -1.993216,3.28764 -0.229136,2.46224 0.2044,3.43248 1.993223,4.46078 1.205646,0.69306 1.327838,0.70046 2.486752,0.15052 0.670338,-0.3181 2.322262,-0.67424 3.670939,-0.79142 1.348676,-0.11718 3.120379,-0.38182 3.937123,-0.58809 0.816747,-0.20627 2.784677,-0.43312 3.277627,-0.3094 v 2.96308 c -0.18645,0.11524 -2.47032,0.55092 -4.66071,0.91312 -2.190387,0.36219 -4.429414,0.8329 -4.975624,1.04602 -1.315716,0.51336 -2.795055,0.43152 -5.333266,-0.29507 z"
             id="path1838"
             inkscape:connector-curvature="0"
             sodipodi:nodetypes="cscscsccsscccccc" />
          <path
             style="fill:#000000;fill-opacity:1;stroke-width:0.35277799"
             d="m 129.12817,150.71701 -3.80008,-22.2136 -6.5964,0.86246 v -6.91923 c 0,-5.88747 0.0782,-6.91922 0.52443,-6.91922 0.28844,0 0.74028,-0.51594 1.00409,-1.14653 0.43524,-1.04035 0.68888,-1.18645 2.73876,-1.57767 l 2.25911,-0.43114 3.27927,3.68451 1.80078,-1.6774 -2.08144,-4.52488 c 2.95622,-2.20027 4.8423,-5.54201 6.10196,-9.55194 l 1.66371,1.6637 -4.46088,48.75094 c -0.24788,2.23755 -2.05259,2.24122 -2.43331,0 z"
             id="path1836"
             inkscape:connector-curvature="0"
             sodipodi:nodetypes="cccsscccccccccc" />
          <path
             style="fill:#000000;fill-opacity:1;stroke-width:0.35277799"
             d="m 100.86277,152.32472 c -0.978128,-0.19113 -1.642064,-1.80675 -1.367219,-3.32705 0.192102,-1.06262 0.0901,-1.27386 -0.945797,-1.95862 -0.913895,-0.60411 -1.76203,-0.78368 -3.983344,-0.84337 -1.552223,-0.0417 -3.100391,0.043 -3.440374,0.18822 -0.339982,0.14523 -1.01467,0.16454 -1.499306,0.0429 -0.757424,-0.1901 -0.881154,-0.42088 -0.881154,-1.64355 0,-1.30464 0.107156,-1.46716 1.294479,-1.96325 0.751752,-0.31411 1.676171,-0.44548 2.204862,-0.31334 0.500711,0.12514 2.180382,0.35838 3.732604,0.51829 1.552222,0.15992 3.615972,0.51757 4.586109,0.79478 l 1.94039,0.50401 v 8.00098 z"
             id="path1834"
             inkscape:connector-curvature="0"
             sodipodi:nodetypes="ccccccsccccccc" />
          <path
             style="fill:#000000;fill-opacity:1;stroke-width:0.35277799"
             d="m 99.906005,166.93299 c -0.338321,-0.88588 -0.577095,-2.54808 -0.577095,-4.01736 0,-2.26742 -0.112981,-2.6705 -1.185573,-4.22978 -1.900778,-2.76325 -1.94551,-3.45287 -0.280875,-4.33006 1.294084,-0.68193 2.349408,-0.18149 3.544418,1.68078 l 1.09714,1.70956 v 10.69796 h -1.01052 c -0.86494,0 -1.09348,-0.21754 -1.587495,-1.5111 z"
             id="path1832"
             inkscape:connector-curvature="0"
             sodipodi:nodetypes="sssccccss" />
          <path
             style="fill:url(#linearGradient1876);fill-opacity:1;stroke-width:0.35277799"
             d="m 124.1008,181.85299 c -0.65433,-0.10067 0.27533,-12.97704 0.27533,-14.02911 0,-0.70218 -0.56571,-3.42957 -1.25714,-6.06088 -0.69143,-2.6313 -1.41192,-5.3795 -1.6011,-6.10711 -0.31399,-1.20766 -0.45033,-1.32291 -1.56508,-1.32291 h -1.22112 v -7.36719 c 0,-7.34184 0.003,-7.36792 0.79375,-7.57991 0.43656,-0.11699 1.37645,-0.21488 2.08863,-0.21753 1.13337,-0.004 1.31838,0.1162 1.48319,0.96532 l 2.79501,15.08125 0.4285,2.11667 4.93453,0.35278 -0.0195,2.49308 c -0.0228,2.90493 -0.90458,4.73125 -2.62943,5.44571 -0.70102,0.29037 -1.05683,0.68915 -1.06003,1.18803 -0.0132,2.05004 -0.83797,15.44295 -2.57688,15.17543 z"
             id="path1830"
             sodipodi:nodetypes="ssssscscccccccscss"
             inkscape:connector-curvature="0" />
          <path
             style="fill:url(#radialGradient1867);fill-opacity:1;stroke-width:0.38285601"
             d="m 109.25007,74.957819 h 2.75532 V 179.82821 h -2.75532 z"
             id="path1828"
             inkscape:connector-curvature="0"
             sodipodi:nodetypes="ccccc" />
          <path
             style="fill:#000000;fill-opacity:1;stroke-width:0.35277799"
             d="m 95.448354,174.101 c -1.424284,-0.16944 -1.5875,-0.2828 -1.5875,-1.10263 0,-0.50257 -0.201849,-1.15795 -0.448557,-1.45639 -0.337329,-0.40808 -0.354997,-0.7887 -0.07125,-1.53502 0.585735,-1.5406 0.03773,-4.63481 -1.290521,-7.28671 -1.228104,-2.45194 -1.436024,-3.59543 -0.819446,-4.50672 0.293179,-0.43331 0.795944,-0.0679 2.77549,2.01745 2.78584,2.93467 3.03023,3.66956 2.667688,8.02182 -0.199708,2.39746 -0.146241,2.94483 0.325931,3.33669 0.570427,0.47341 0.789407,2.35429 0.300246,2.57889 -0.145521,0.0668 -0.978959,0.0365 -1.852084,-0.0674 z"
             id="path1826"
             inkscape:connector-curvature="0" />
        </g>
      </g>
    </g>
  </g>
</svg>
