<?xml version="1.0" encoding="UTF-8" standalone="no"?>
<svg
   width="512"
   height="512"
   viewBox="0 0 135.46667 135.46667"
   version="1.1"
   id="svg8"
   inkscape:version="1.2.2 (732a01da63, 2022-12-09)"
   sodipodi:docname="Surveillance_Drone.svg"
   xmlns:inkscape="http://www.inkscape.org/namespaces/inkscape"
   xmlns:sodipodi="http://sodipodi.sourceforge.net/DTD/sodipodi-0.dtd"
   xmlns:xlink="http://www.w3.org/1999/xlink"
   xmlns="http://www.w3.org/2000/svg"
   xmlns:svg="http://www.w3.org/2000/svg"
   xmlns:rdf="http://www.w3.org/1999/02/22-rdf-syntax-ns#"
   xmlns:cc="http://creativecommons.org/ns#"
   xmlns:dc="http://purl.org/dc/elements/1.1/"
   xmlns:osb="http://www.openswatchbook.org/uri/2009/osb">
  <defs
     id="defs2">
    <linearGradient
       inkscape:collect="always"
       id="linearGradient2364">
      <stop
         style="stop-color:#000000;stop-opacity:1;"
         offset="0"
         id="stop2360" />
      <stop
         style="stop-color:#000000;stop-opacity:0;"
         offset="1"
         id="stop2362" />
    </linearGradient>
    <linearGradient
       id="linearGradient1099-6-5"
       osb:paint="gradient">
      <stop
         style="stop-color:#273839;stop-opacity:0.5"
         offset="0"
         id="stop1151" />
      <stop
         style="stop-color:#273839;stop-opacity:1"
         offset="1"
         id="stop1153" />
    </linearGradient>
    <linearGradient
       inkscape:collect="always"
       xlink:href="#linearGradient2364"
       id="linearGradient2366"
       x1="110.63673"
       y1="142.23927"
       x2="110.43572"
       y2="177.79082"
       gradientUnits="userSpaceOnUse"
       gradientTransform="matrix(1.1187547,0,0,1.118754,-12.775763,-12.173386)" />
  </defs>
  <sodipodi:namedview
     id="base"
     pagecolor="#ffffff"
     bordercolor="#666666"
     borderopacity="1.0"
     inkscape:pageopacity="0.0"
     inkscape:pageshadow="2"
     inkscape:zoom="0.7"
     inkscape:cx="129.28571"
     inkscape:cy="233.57143"
     inkscape:document-units="px"
     inkscape:current-layer="g1320"
     inkscape:document-rotation="0"
     showgrid="false"
     inkscape:pagecheckerboard="true"
     inkscape:object-nodes="true"
     fit-margin-top="0"
     fit-margin-left="0"
     fit-margin-right="0"
     fit-margin-bottom="0"
     inkscape:window-width="2560"
     inkscape:window-height="1361"
     inkscape:window-x="-9"
     inkscape:window-y="-9"
     inkscape:window-maximized="1"
     units="px"
     inkscape:showpageshadow="2"
     inkscape:deskcolor="#d1d1d1" />
  <metadata
     id="metadata5">
    <rdf:RDF>
      <cc:Work
         rdf:about="">
        <dc:format>image/svg+xml</dc:format>
        <dc:type
           rdf:resource="http://purl.org/dc/dcmitype/StillImage" />
        <dc:title />
      </cc:Work>
    </rdf:RDF>
  </metadata>
  <g
     inkscape:label="Layer 1"
     inkscape:groupmode="layer"
     id="layer1"
     transform="translate(-59.62574,-110.15787)">
    <path
       style="fill:#000000;stroke-width:0.264583"
       id="path853"
       d="" />
    <path
       style="fill:#000000;stroke-width:0.264583"
       id="path849"
       d="" />
    <g
       id="g1061"
       transform="translate(9.0714285,1.8898814)">
      <g
         id="g1320"
         transform="translate(7.2162774,44.901282)">
        <path
           style="fill:url(#linearGradient2366);fill-opacity:1;stroke-width:0.394672"
           d="m 117.35128,173.92685 -1.13452,-6.30398 -0.87406,-3.04629 c -0.48074,-1.67546 -1.00817,-3.49028 -1.17205,-4.03295 -0.28279,-0.93641 -0.44636,-0.98668 -3.21081,-0.98668 h -2.91281 l -1.15629,4.04537 -1.15629,4.04539 -1.09295,6.27914 0.54627,20.63827 h -2.17406 l -2.20988,-20.63827 c -2.074539,-1.48471 -4.033389,-3.06582 -4.033599,-6.27914 v -2.1534 -2.15341 l 2.8298,-0.11595 c 2.633159,-0.10796 2.849989,-0.18453 3.120409,-1.10265 0.15984,-0.54267 1.04135,-5.2705 1.95892,-10.50629 l 1.66831,-9.51962 h 4.63074 4.63075 l 1.6683,9.51962 c 0.91757,5.23579 1.79909,9.96362 1.95893,10.50629 0.26984,0.91617 0.48981,0.99491 3.07802,1.10178 2.69734,0.11143 2.79214,0.14966 2.93328,1.18403 0.0802,0.58789 0.0549,1.60171 -0.0563,2.25292 -0.0692,2.45001 0.36935,4.91182 -3.82763,7.26582 l -3.43621,20.63827 h -1.76451 z M 96.248431,154.91957 c -0.1297,-1.13962 -1.05186,-10.86334 -2.04925,-21.60827 -0.99741,-10.74493 -2.13993,-22.99949 -2.53893,-27.23234 -0.65538,-6.952427 -0.66646,-7.762841 -0.11462,-8.38677 0.84186,-0.951847 1.14844,-0.868936 1.45943,0.394663 0.45323,1.84155 2.2198,4.527387 4.64262,7.058517 l 2.3175,2.42112 -1.28915,2.61429 -1.28916,2.61427 1.09008,1.08202 1.09009,1.082 2.016149,-2.10543 2.01615,-2.10542 2.52004,0.47549 c 2.32577,0.43885 2.56384,0.58031 3.08814,1.83513 0.50292,1.20367 0.71487,1.34536 1.84772,1.23525 1.04749,-0.1018 1.34277,-0.34599 1.6277,-1.34613 0.32246,-1.13185 0.53869,-1.25689 2.93816,-1.69901 l 2.59007,-0.47723 2.10863,2.08242 2.10863,2.08244 1.06505,-1.06503 1.06504,-1.06504 -1.32663,-2.74227 -1.32663,-2.7423 2.39526,-2.61401 c 1.48682,-1.62259 2.81599,-3.57973 3.50452,-5.160217 0.61009,-1.400414 1.32606,-2.546208 1.59105,-2.546208 1.76209,0 1.63162,2.089698 -3.43136,54.958025 l -0.48191,5.03206 h -1.09262 c -1.2642,0 -0.82599,1.86043 -3.7982,-16.12534 l -1.91474,-11.58662 -3.15875,0.32064 c -4.0056,0.40659 -5.1868,0.40846 -9.10968,0.0144 l -3.18824,-0.32025 -2.30048,13.84859 -2.300479,13.84857 h -1.06769 c -0.99496,0 -1.08376,-0.14116 -1.30351,-2.07202 z M 59.600112,134.84145 c -2.919158,-0.37259 -6.570847,-1.60814 -7.796083,-2.63781 -0.437427,-0.3676 -1.704189,-2.71079 -2.815028,-5.20708 -3.021889,-6.79086 -2.891451,-6.20854 -1.649487,-7.36373 1.586552,-1.47569 4.883869,-3.03433 9.782079,-4.62397 5.615678,-1.82248 29.246857,-8.49997 30.545854,-8.63138 l 1.000214,-0.10113 0.696,6.31473 c 0.51847,4.70418 0.58694,6.56472 0.26841,7.29483 -0.23516,0.53904 -0.59099,2.58146 -0.79074,4.53872 -0.2943,2.8838 -0.568604,3.85135 -1.446536,5.10218 -1.69366,2.41307 -3.12787,2.91751 -11.805278,4.15228 -9.6791,1.37731 -12.626798,1.5916 -15.989405,1.16241 z m 14.065897,-4.12511 c 2.830661,-0.34189 5.538003,-0.87338 6.016315,-1.18109 0.478313,-0.30772 1.317211,-1.32319 1.864226,-2.25659 0.968025,-1.65181 3.768469,-8.61237 3.906602,-9.70994 0.03793,-0.30125 -1.217261,-1.67766 -2.789279,-3.05871 -2.74124,-2.40822 -2.943131,-2.51072 -4.933395,-2.50457 -1.194774,0.003 -5.675196,0.92092 -10.560631,2.16193 -10.883679,2.76471 -10.733464,2.61842 -8.741148,8.51243 1.358929,4.02021 2.573512,6.4731 3.82487,7.72446 0.797502,0.79749 1.322528,0.93368 3.599738,0.93368 1.466332,0 4.982051,-0.27972 7.812702,-0.6216 z m 82.699651,4.30828 c -4.49789,-0.50073 -16.22821,-2.20902 -17.56289,-2.55769 -1.97878,-0.51693 -3.95778,-1.99202 -4.76389,-3.55085 -0.34046,-0.65836 -0.78398,-2.79152 -0.9856,-4.74035 -0.20162,-1.94883 -0.55019,-3.88639 -0.77459,-4.30569 -0.28851,-0.53908 -0.21381,-2.64142 0.25506,-7.17806 0.3647,-3.52862 0.71259,-6.47667 0.77309,-6.55121 0.14061,-0.17321 25.79901,7.06376 31.54428,8.89708 4.90787,1.56611 8.32654,3.23871 9.78611,4.78789 l 0.99247,1.0534 -2.45571,5.5254 c -2.24726,5.05641 -2.58967,5.5999 -4.03416,6.40302 -2.79701,1.55514 -9.01932,2.63506 -12.77417,2.21706 z m 3.34075,-4.62351 c 1.2937,-1.2937 2.68936,-4.17478 3.93174,-8.11635 0.89729,-2.84671 0.981,-3.49642 0.57638,-4.47326 -0.26035,-0.62855 -0.89805,-1.30429 -1.41712,-1.50164 -2.51366,-0.95568 -17.09399,-4.31084 -18.73344,-4.31084 -1.65389,0 -2.12525,0.21747 -4.15535,1.91701 -3.82377,3.20116 -3.81992,3.19433 -2.95254,5.22937 0.40642,0.95356 1.05096,2.71056 1.43228,3.90444 0.97146,3.04142 2.93127,6.20328 4.13772,6.67562 0.86769,0.33971 3.48208,0.75542 8.51152,1.35343 0.65121,0.0774 2.65731,0.16739 4.458,0.19991 2.96153,0.0535 3.36339,-0.0303 4.21081,-0.87769 z m -56.1301,-24.76422 c -3.732939,-1.07768 -9.173489,-9.396697 -9.966019,-15.238803 -0.4439,-3.272163 0.0465,-9.386524 0.88792,-11.070639 0.2948,-0.590062 2.1743,-3.330056 4.17666,-6.08888 3.251219,-4.479493 3.797899,-5.04942 5.110719,-5.328066 2.03663,-0.432273 13.50334,-0.330789 14.60724,0.129279 0.49629,0.206833 2.58557,2.678584 4.64287,5.49278 4.66129,6.376228 5.0519,7.517815 4.8365,14.135022 -0.14149,4.346304 -0.27567,5.072308 -1.43335,7.755237 -2.67756,6.20528 -6.46222,10.07432 -10.29912,10.52875 -2.37046,0.28075 -2.61438,-0.2203 -0.68711,-1.41142 1.70792,-1.05556 5.10608,-4.655777 5.96837,-6.323264 0.98753,-1.909646 1.25606,-5.308947 0.50943,-6.448454 -0.54132,-0.826155 -0.53699,-1.033919 0.0434,-2.084976 0.45176,-0.81809 0.63866,-2.112102 0.62463,-4.324757 -0.0166,-2.618416 -0.19844,-3.50253 -1.0653,-5.179412 -1.33181,-2.576339 -4.13794,-5.050958 -6.68809,-5.897984 -2.65737,-0.882631 -7.37788,-0.627153 -9.60715,0.51995 -1.8114,0.932078 -4.51497,3.70441 -5.533719,5.674438 -1.02412,1.980435 -1.20391,6.117561 -0.37438,8.615038 0.50182,1.510821 0.5677,2.178649 0.24659,2.499754 -0.68264,0.682642 -0.49917,4.254722 0.30833,6.003033 1.034559,2.239937 2.920059,4.461484 5.295709,6.239544 1.12672,0.84331 2.10777,1.69362 2.18012,1.88959 0.16688,0.45194 -2.09964,0.40058 -3.78427,-0.0858 z m 4.89798,-13.157781 c -1.95425,-0.696782 -3.33611,-1.985754 -4.24869,-3.963038 -0.92508,-2.004362 -0.92508,-3.915711 0,-5.920073 2.75003,-5.958514 10.7556,-5.958514 13.50563,0 0.40074,0.868278 0.72861,2.200294 0.72861,2.960036 0,3.060262 -2.44875,6.261064 -5.42165,7.086715 -1.89532,0.526386 -2.71059,0.497153 -4.5639,-0.16364 z"
           id="path2358"
           sodipodi:nodetypes="ccssscccccccccccsscccsscscccccsssssscccccccssssscccccccsssscsscsscccssscssssccsssssccssssscsssssssssssssscssscssssssssssccssssssssssssscsssssssscccsssssss" />
      </g>
    </g>
  </g>
</svg>
