<?xml version="1.0" encoding="UTF-8" standalone="no"?>
<svg
   xmlns:osb="http://www.openswatchbook.org/uri/2009/osb"
   xmlns:dc="http://purl.org/dc/elements/1.1/"
   xmlns:cc="http://creativecommons.org/ns#"
   xmlns:rdf="http://www.w3.org/1999/02/22-rdf-syntax-ns#"
   xmlns:svg="http://www.w3.org/2000/svg"
   xmlns="http://www.w3.org/2000/svg"
   xmlns:sodipodi="http://sodipodi.sourceforge.net/DTD/sodipodi-0.dtd"
   xmlns:inkscape="http://www.inkscape.org/namespaces/inkscape"
   width="512"
   height="512"
   viewBox="0 0 135.46667 135.46667"
   version="1.1"
   id="svg8"
   inkscape:version="0.92.4 (5da689c313, 2019-01-14)"
   sodipodi:docname="Double_Time.svg">
  <defs
     id="defs2">
    <linearGradient
       id="linearGradient1099-6-5"
       osb:paint="gradient">
      <stop
         style="stop-color:#273839;stop-opacity:0.5"
         offset="0"
         id="stop1151" />
      <stop
         style="stop-color:#273839;stop-opacity:1"
         offset="1"
         id="stop1153" />
    </linearGradient>
  </defs>
  <sodipodi:namedview
     id="base"
     pagecolor="#ffffff"
     bordercolor="#666666"
     borderopacity="1.0"
     inkscape:pageopacity="0.0"
     inkscape:pageshadow="2"
     inkscape:zoom="1.979899"
     inkscape:cx="201.46025"
     inkscape:cy="342.78772"
     inkscape:document-units="px"
     inkscape:current-layer="g1320"
     inkscape:document-rotation="0"
     showgrid="false"
     inkscape:pagecheckerboard="true"
     inkscape:object-nodes="true"
     fit-margin-top="0"
     fit-margin-left="0"
     fit-margin-right="0"
     fit-margin-bottom="0"
     inkscape:window-width="1920"
     inkscape:window-height="1017"
     inkscape:window-x="-8"
     inkscape:window-y="-8"
     inkscape:window-maximized="1"
     units="px" />
  <metadata
     id="metadata5">
    <rdf:RDF>
      <cc:Work
         rdf:about="">
        <dc:format>image/svg+xml</dc:format>
        <dc:type
           rdf:resource="http://purl.org/dc/dcmitype/StillImage" />
        <dc:title></dc:title>
      </cc:Work>
    </rdf:RDF>
  </metadata>
  <g
     inkscape:label="Layer 1"
     inkscape:groupmode="layer"
     id="layer1"
     transform="translate(-59.62574,-110.15787)">
    <path
       style="fill:#000000;stroke-width:0.264583"
       id="path853"
       d="" />
    <path
       style="fill:#000000;stroke-width:0.264583"
       id="path849"
       d="" />
    <g
       id="g1061"
       transform="translate(9.0714285,1.8898814)">
      <g
         id="g1320"
         transform="translate(7.2162774,44.901282)">
        <g
           id="g1340"
           transform="matrix(1.0034561,0,0,1.0034561,-3.0947187,-1.1267104)">
          <g
             id="g1298"
             transform="translate(-5.8799298,-41.426778)">
            <path
               id="path1111-1"
               style="fill:#00000f;fill-opacity:0.5;stroke-width:0.352777"
               d="m 123.57932,151.77856 11.10423,-11.30684 h -13.94437 l 0.56689,1.09661 c 0.66379,1.28363 1.45533,7.98086 0.99581,8.42584 l 0.0687,0.86399 c 0.13281,0.0327 0.14962,0.18821 0.1504,0.3607 0.30748,0.22059 0.61363,0.43098 1.05834,0.5597 z"
               sodipodi:nodetypes="cccccccc"
               inkscape:connector-curvature="0" />
            <g
               id="g1280">
              <path
                 style="fill:#000000;fill-opacity:0.5;stroke-width:0.35277799"
                 d="m 126.00317,203.20285 c 0.60305,-0.61682 1.17913,-1.38193 1.28015,-1.70025 0.10104,-0.31832 0.71561,-0.83242 1.36572,-1.14243 l 1.18201,-0.56367 4.48758,4.38792 h -9.41193 z"
                 id="path1125"
                 inkscape:connector-curvature="0"
                 sodipodi:nodetypes="ccccccc" />
              <path
                 style="fill:#000000;fill-opacity:1;stroke-width:0.35277799"
                 d="m 116.11329,225.8495 c -1.29291,-0.31583 -2.6026,-0.78326 -2.91042,-1.03873 -1.39578,-1.15839 0.0413,-2.95837 2.84146,-3.55889 1.12394,-0.24104 2.0775,-0.70834 2.5468,-1.24809 0.4126,-0.47453 0.90998,-0.86278 1.10529,-0.86278 0.65312,0 0.3669,-0.67456 -1.32058,-3.11228 -2.86775,-4.14272 -3.86302,-5.11095 -5.01655,-4.88025 -0.86725,0.17345 -1.03072,0.0731 -1.22937,-0.7544 -0.12601,-0.52495 -0.70359,-1.62449 -1.28351,-2.44341 l -1.0544,-1.48895 0.98462,-0.2236 c 0.54154,-0.12297 2.17525,-0.58652 3.63046,-1.03009 5.39662,-1.64498 8.04655,-1.90137 7.03331,-0.68049 -0.31882,0.38415 -0.21437,0.86594 0.4725,2.17955 0.48498,0.92752 1.20174,2.71553 1.59279,3.97335 0.39105,1.25783 1.58132,4.11258 2.64504,6.3439 2.23574,4.68982 2.63989,6.63011 1.61103,7.73446 -0.47228,0.50694 -1.11922,0.73221 -2.10272,0.73221 -0.78131,0 -1.69471,0.14672 -2.02977,0.32604 -1.13661,0.60829 -5.08884,0.62536 -7.51598,0.0325 z"
                 id="path1107"
                 inkscape:connector-curvature="0" />
              <path
                 style="fill:#00000f;fill-opacity:0.5;stroke-width:0.352777"
                 d="m 102.71185,187.39132 c 0.0676,-0.48507 0.31218,-1.43756 0.54312,-2.11666 0.33472,-0.98416 0.32463,-1.4137 -0.0496,-2.11667 -0.83263,-1.56397 -0.37065,-3.9665 1.09141,-5.67459 1.21066,-1.41438 1.25332,-1.54382 0.7059,-2.14871 -0.67437,-0.74518 -3.6851,-0.85119 -6.64714,-0.23409 -3.742362,0.77967 -7.471222,0.46736 -12.099004,-1.01286 -3.075329,-0.98367 -4.183113,-1.50912 -4.850866,-2.3027 -0.915411,-1.08791 -1.127932,-2.76597 -0.534852,-4.22093 0.181676,-0.4457 0.431371,-1.42963 0.555005,-2.18643 0.134745,-0.8248 0.62733,-1.77868 1.229898,-2.38125 1.367213,-1.36726 3.182815,-1.34607 6.217708,0.0729 1.495565,0.6992 2.451415,0.96464 2.719216,0.75448 0.7313,-0.57391 2.279605,-0.78492 3.198254,-0.43564 1.37373,0.5223 1.411859,-0.0844 0.159163,-2.52956 -1.228739,-2.39837 -1.467686,-4.80977 -0.85421,-8.61911 l 0.29197,-1.81436 -1.130681,-0.24856 c -0.6682,-0.14676 -1.660506,-0.83587 -2.425689,-1.68414 -0.712267,-0.7896 -1.888607,-2.0483 -2.613795,-2.79724 -0.725189,-0.74895 -1.413741,-1.79388 -1.530139,-2.32234 -0.116401,-0.52847 -0.247853,-1.11071 -0.291973,-1.29398 l -31.078723,30.46378 31.766021,31.64176 h 11.884546 l -0.23151,-0.65398 c -0.542999,-1.86371 -0.616805,-3.11159 -0.247015,-4.17236 0.290703,-0.83391 0.290441,-1.4773 -5.29e-4,-2.44843 -0.320622,-1.07014 -0.282303,-1.65625 0.20412,-3.12074 -0.163646,-1.51493 0.696575,-1.96147 1.530265,-2.4357 2.21507,-0.73185 1.88487,-2.54545 2.48913,-3.96189 z"
                 id="path1111-2"
                 sodipodi:nodetypes="cccsssssssccssscccssscccccssccc"
                 inkscape:connector-curvature="0" />
              <g
                 id="g1264">
                <path
                   style="fill:#000000;fill-opacity:1;stroke-width:0.35277799"
                   d="m 122.33557,134.7593 10.82603,-3.00539 -3.0559,2.01919 h 53.883 v 1.75969 h -53.79963 l 2.97253,2.43258 z"
                   id="path1129"
                   inkscape:connector-curvature="0"
                   sodipodi:nodetypes="cccccccc" />
                <g
                   id="g1252">
                  <path
                     style="fill:#000000;fill-opacity:1;stroke-width:0.35277799"
                     d="m 162.44215,170.27572 -3.58506,1.94575 h 25.13161 v 2.11668 h -25.13161 l 3.58506,2.43543 -12.04246,-3.66104 z"
                     id="path1127"
                     inkscape:connector-curvature="0"
                     sodipodi:nodetypes="cccccccc" />
                  <g
                     id="g1242">
                    <path
                       style="fill:#000003;fill-opacity:1;stroke:none;stroke-width:1.00273991px;stroke-linecap:butt;stroke-linejoin:miter;stroke-opacity:1"
                       d="m 151.71652,54.917132 -2.22149,1.76553 28.42489,28.557572 c -0.80929,-0.02338 -2.63706,-0.926234 -4.06445,-2.005859 -5.48801,-4.15095 -24.4904,-0.557556 -32.70117,6.183594 -4.42707,3.634692 -5.62298,14.744381 -2.01563,18.730471 1.47247,1.62708 2.64231,5.25264 2.88281,8.93945 0.22255,3.41166 1.1713,7.42923 2.10938,8.92578 1.04764,1.67134 1.35398,4.26678 0.79297,6.73047 -1.63829,7.19442 -1.38473,8.69141 1.47656,8.69141 1.71808,0 3.2151,1.3342 4.0957,3.65039 0.76315,2.00723 1.79918,3.96304 2.30469,4.3457 0.50549,0.38264 1.59996,1.89649 2.43164,3.36719 0.97276,1.72019 2.64212,2.54471 4.67969,2.30859 6.13234,-0.71071 12.05342,-0.55102 12.95312,0.34961 1.43959,1.44103 0.62764,22.86831 -0.98046,25.87305 -2.51114,4.69211 -1.79536,16.80049 1.2207,20.63476 1.47068,1.86966 2.67578,3.88309 2.67578,4.47461 0,0.59153 2.45971,3.58252 5.4668,6.64649 l 5.46875,5.57226 -11.58203,6.99219 c -9.22267,5.57076 -12.36493,6.83799 -15.44141,6.22266 -2.12458,-0.42492 -4.22449,-0.18976 -4.66406,0.52148 -1.41326,2.28671 -2.76898,1.39688 -4.9961,-3.27344 -2.67082,-5.60077 -6.64978,-7.11048 -11.08398,-4.20507 -3.1057,2.0349 -3.27736,2.00676 -3.27734,-0.55664 0,-2.00973 -0.88041,-2.70508 -3.41993,-2.70508 -2.37356,0 -5.45515,2.12904 -10.08984,6.96289 -5.78982,6.03866 -6.62306,7.58687 -6.27734,11.69726 0.37511,4.45975 1.01985,5.05203 10.9375,10.08594 l 10.53515,5.34766 18.87696,-0.041 c 13.15786,-0.0279 25.05406,-1.00822 39.26171,-3.23633 11.21091,-1.75816 20.82681,-2.75131 21.36914,-2.20898 0.54234,0.54233 0.97219,4.40476 0.95704,8.58398 -0.027,6.87622 -0.63021,8.44952 -6.33008,16.54688 -6.65176,9.44963 -7.5644,12.34033 -4.29297,13.5957 2.77317,1.06416 2.51052,5.94663 -0.87695,16.26563 l -2.88086,8.77734 v -0.13672 h -84.75 l 15.28515,-9.31055 -41.542966,11.9961 41.542966,13.25195 -15.28515,-10.02734 h 83.96875 l -0.52149,3.86719 c -0.36758,0.95788 -1.72028,5.4886 -3.00586,10.07031 -2.15144,7.66782 -2.458,8.08819 -3.85351,5.28906 -2.03065,-4.07307 -5.66527,-4.62524 -6.80469,-1.03516 -0.95839,3.0196 0.56864,8.08885 4.95312,16.44336 2.85686,5.44364 2.44099,7.72782 -0.90234,4.95313 -1.57584,-1.30789 -2.47041,-1.33539 -3.94531,-0.11133 -3.47582,2.88468 0.0575,9.08275 7.74219,13.58203 6.06817,3.55298 7.72328,3.93491 14.2207,3.27734 15.29356,-1.54772 42.62045,-7.75833 47.39453,-10.77148 1.50781,-0.9516 4.84814,-2.16076 7.42188,-2.68555 5.9727,-1.21781 8.27333,-3.09377 7.35156,-5.99804 -1.01157,-3.18715 14.29724,-11.04381 27.10156,-13.90821 9.61938,-2.15189 9.75858,-2.14425 13.75781,0.8125 2.68165,1.98264 4.52822,4.92751 5.49219,8.75586 1.65595,6.57625 5.23473,9.69336 11.13281,9.69336 3.27955,0 4.56654,-0.90393 6.56836,-4.62109 2.30255,-4.2756 2.36204,-5.58905 0.78711,-17.48828 -1.30828,-9.88456 -2.27956,-13.22205 -4.1914,-14.41602 l -1.73438,-5.76562 168.02734,-3.16797 -169.77734,-2.6543 -1.20312,-4 c -1.24167,-6.20813 -3.48013,-7.34289 -10.56446,-5.35937 -3.33362,0.93334 -8.22583,3.41731 -10.87109,5.51953 -4.30767,3.42329 -5.836,3.82024 -14.65235,3.82031 -5.41397,0 -9.84375,-0.22975 -9.84375,-0.51172 0,-0.28193 4.96272,-4.12416 11.0293,-8.53711 17.29353,-12.57963 16.57052,-10.11196 8.92188,-30.39062 -3.60562,-9.55947 -7.18774,-19.31594 -7.19532,-20.47461 3.79919,-15.8774 35.70235,-13.05707 33.13282,-17.21289 l -23.1836,-37.4961 -29.88086,-4.53906 -1.52929,5.93555 c -0.3704,1.43689 5.33502,2.37074 3.76562,6.86523 -0.52116,1.49254 -2.3554,-1.01453 -2.56055,-0.875 -0.80277,0.52088 -1.7273,1.78599 -2.05664,2.81055 -0.51341,1.5978 -10.49804,-13.19995 -10.49804,-15.55859 l -1.81235,-6.9292 10.3538,4.87255 -11.14692,-8.48437 239.57226,-3.73633 -240.33203,-4.85742 11.90669,-6.99609 -13.74262,5.09179 -4.95118,-20.02539 -0.91015,-10.63476 -9.72071,-9.75196 c -5.34635,-5.36375 -10.31655,-9.7539 -11.04492,-9.7539 l -40.5957,-40.109378 -2.31598,1.719842 38.4527,41.547736 z m 41.62723,45.229348 c 0.69754,0.204 3.1702,2.59652 8.45313,7.83204 5.54639,5.4967 10.08398,10.157 10.08398,10.35937 0,0.202 -2.43905,0.36914 -5.41797,0.36914 -5.02372,0 -5.55474,-0.36325 -7.34766,-5.01367 -1.06318,-2.75752 -3.16557,-7.42191 -4.66992,-10.36328 -1.11446,-2.17905 -1.64409,-3.34225 -1.10156,-3.1836 z m 68.58789,220.51368 c 1.51743,0.0383 -1.1519,1.53442 -5.93164,3.32226 -4.77973,1.78785 -8.99174,3.22771 -9.35938,3.20117 -2.0734,-0.14955 13.00249,-6.58104 15.29102,-6.52343 z"
                       transform="matrix(0.26386005,0,0,0.26386005,52.150501,105.62187)"
                       id="path1133"
                       inkscape:connector-curvature="0"
                       sodipodi:nodetypes="ccccccsccscccccccsccccssccsccccccccsccccccccccccccccsccccccccscsccccccccsssccccccccccccccccccccccccccssccccccc" />
                    <g
                       id="g1234">
                      <g
                         id="g1228" />
                    </g>
                  </g>
                </g>
              </g>
            </g>
          </g>
          <path
             style="fill:#00000f;fill-opacity:0.5;stroke:none;stroke-width:0.26458299px;stroke-linecap:butt;stroke-linejoin:miter;stroke-opacity:1"
             d="m 136.14738,99.04494 -11.89349,11.52825 c 1.90904,0.68402 3.41566,1.61873 2.63928,3.97563 l 0.40091,0.46772 c 1.74052,-0.73199 4.15262,0.58037 4.00904,3.17383 l 4.14268,5.81311 c 2.11825,2.55979 1.72374,4.67875 -1.23612,6.34765 l -6.1472,1.9043 3.14041,8.55262 c 4.72555,0.29902 5.03708,3.66865 5.81312,6.71515 l 0.60135,1.33635 c 1.25201,3.75561 3.93857,10.16544 -2.13815,13.89809 h 31.1369 l -31.77167,-31.60472 32.10575,-32.239383 z"
             id="path1300"
             sodipodi:nodetypes="cccccccccccccccc"
             inkscape:connector-curvature="0" />
        </g>
      </g>
    </g>
  </g>
</svg>
