<?xml version="1.0" encoding="UTF-8" standalone="no"?>
<svg
   xmlns:osb="http://www.openswatchbook.org/uri/2009/osb"
   xmlns:dc="http://purl.org/dc/elements/1.1/"
   xmlns:cc="http://creativecommons.org/ns#"
   xmlns:rdf="http://www.w3.org/1999/02/22-rdf-syntax-ns#"
   xmlns:svg="http://www.w3.org/2000/svg"
   xmlns="http://www.w3.org/2000/svg"
   xmlns:sodipodi="http://sodipodi.sourceforge.net/DTD/sodipodi-0.dtd"
   xmlns:inkscape="http://www.inkscape.org/namespaces/inkscape"
   width="512"
   height="512"
   viewBox="0 0 135.46667 135.46667"
   version="1.1"
   id="svg8"
   inkscape:version="0.92.4 (5da689c313, 2019-01-14)"
   sodipodi:docname="Smoke_Launcher.svg">
  <defs
     id="defs2">
    <linearGradient
       id="linearGradient1099-6-5"
       osb:paint="gradient">
      <stop
         style="stop-color:#273839;stop-opacity:0.5"
         offset="0"
         id="stop1151" />
      <stop
         style="stop-color:#273839;stop-opacity:1"
         offset="1"
         id="stop1153" />
    </linearGradient>
  </defs>
  <sodipodi:namedview
     id="base"
     pagecolor="#ffffff"
     bordercolor="#666666"
     borderopacity="1.0"
     inkscape:pageopacity="0.0"
     inkscape:pageshadow="2"
     inkscape:zoom="1.4"
     inkscape:cx="173.12604"
     inkscape:cy="272.71177"
     inkscape:document-units="px"
     inkscape:current-layer="g1320"
     inkscape:document-rotation="0"
     showgrid="false"
     inkscape:pagecheckerboard="true"
     inkscape:object-nodes="true"
     fit-margin-top="0"
     fit-margin-left="0"
     fit-margin-right="0"
     fit-margin-bottom="0"
     inkscape:window-width="1920"
     inkscape:window-height="1017"
     inkscape:window-x="-8"
     inkscape:window-y="-8"
     inkscape:window-maximized="1"
     units="px" />
  <metadata
     id="metadata5">
    <rdf:RDF>
      <cc:Work
         rdf:about="">
        <dc:format>image/svg+xml</dc:format>
        <dc:type
           rdf:resource="http://purl.org/dc/dcmitype/StillImage" />
        <dc:title></dc:title>
      </cc:Work>
    </rdf:RDF>
  </metadata>
  <g
     inkscape:label="Layer 1"
     inkscape:groupmode="layer"
     id="layer1"
     transform="translate(-59.62574,-110.15787)">
    <path
       style="fill:#000000;stroke-width:0.264583"
       id="path853"
       d="" />
    <path
       style="fill:#000000;stroke-width:0.264583"
       id="path849"
       d="" />
    <g
       id="g1061"
       transform="translate(9.0714285,1.8898814)">
      <g
         id="g1320"
         transform="translate(7.2162774,44.901282)">
        <g
           id="g2214"
           transform="matrix(1.0914221,0,0,1.0914223,-5.2947046,-9.6300084)">
          <path
             style="fill:#000000;fill-opacity:1;stroke-width:0.35277799"
             d="m 88.144121,119.19423 v -3.7375 c 0.239293,-2.83081 1.540889,-5.69074 3.046563,-7.09354 1.728066,-1.7844 0.772637,-5.28276 0.833857,-10.239741 l 3.219281,-1.229455 c 3.423201,3.886246 2.634698,4.362576 5.318318,4.407896 h 16.51601 c 2.60934,-4.590981 2.60379,-4.833934 6.54183,-3.598688 -0.0975,2.575138 -0.78892,9.321668 0.6896,10.645238 3.18078,3.3552 2.54797,6.78401 2.6398,10.84589 z"
             id="path2202"
             inkscape:connector-curvature="0"
             sodipodi:nodetypes="ccccccccccc" />
          <g
             id="g2208">
            <path
               style="fill:#000000;fill-opacity:0.50196078;stroke-width:0.35277799"
               d="m 68.725713,109.32975 c 1.708062,-44.52836 68.233377,-39.856637 70.894367,-11.078617 16.24763,-1.965255 24.50841,16.925727 19.5005,28.284867 2.81491,2.70481 5.13662,6.27119 6.64884,9.23884 h -35.6449 c 0.0438,-4.1568 0.47548,-12.0577 -1.65008,-13.82932 1.51574,-1.58539 1.11478,-3.94832 1.11368,-5.8751 -0.0485,-3.4871 -0.42736,-7.34679 -2.94314,-9.71903 -2.40478,-3.84331 1.06927,-9.954019 -3.81116,-12.068907 -3.37793,-1.493877 -4.74482,-1.032315 -7.1732,2.422192 l -1.17795,1.675804 h -13.55302 c -1.428111,-1.481505 -2.698264,-3.622603 -4.605854,-4.478706 -2.08283,-0.544295 -4.961443,0.385291 -6.659457,2.079197 -2.412926,2.886643 1.244665,7.18747 -2.054617,11.03726 -2.961656,3.34624 -3.989097,11.73906 -1.188706,15.02508 -1.277952,3.08777 -1.299021,7.88071 -1.452072,13.73153 H 47.468105 c 0.168939,-14.87898 11.314934,-25.49913 21.257608,-26.44509 z"
               id="path2200"
               inkscape:connector-curvature="0"
               sodipodi:nodetypes="ccccccccccccccccccc" />
            <path
               id="path2192"
               style="fill:#000000;fill-opacity:1;stroke-width:1.33333004"
               d="m 169.34584,229.66814 v 49.99989 h 30.59444 l -25.45078,56.37323 h -5.14366 V 447.00198 H 316.01137 V 336.04126 h -31.70082 l 24.9947,-56.37323 h 6.70612 v -49.99989 z m 75.86705,49.99989 -26.20312,56.37323 h -33.55274 l 26.37109,-56.37323 z m 48.10742,0 -25.59765,56.37323 h -33.04493 l 26,-56.37323 z"
               transform="matrix(0.26458334,0,0,0.26458334,43.338034,63.366707)"
               inkscape:connector-curvature="0"
               sodipodi:nodetypes="ccccccccccccccccccccccc" />
          </g>
        </g>
      </g>
    </g>
  </g>
</svg>
