<?xml version="1.0" encoding="UTF-8" standalone="no"?>
<!-- Created with Inkscape (http://www.inkscape.org/) -->

<svg
   width="512"
   height="512"
   viewBox="0 0 135.46666 135.46667"
   version="1.1"
   id="svg5"
   inkscape:version="1.2.2 (732a01da63, 2022-12-09)"
   sodipodi:docname="Wrecking_Ball.svg"
   xmlns:inkscape="http://www.inkscape.org/namespaces/inkscape"
   xmlns:sodipodi="http://sodipodi.sourceforge.net/DTD/sodipodi-0.dtd"
   xmlns="http://www.w3.org/2000/svg"
   xmlns:svg="http://www.w3.org/2000/svg">
  <sodipodi:namedview
     id="namedview7"
     pagecolor="#ffffff"
     bordercolor="#000000"
     borderopacity="0.25"
     inkscape:pageshadow="2"
     inkscape:pageopacity="0.0"
     inkscape:pagecheckerboard="0"
     inkscape:document-units="px"
     showgrid="false"
     units="px"
     inkscape:zoom="0.22805836"
     inkscape:cx="-304.74656"
     inkscape:cy="598.53101"
     inkscape:window-width="2560"
     inkscape:window-height="1361"
     inkscape:window-x="-9"
     inkscape:window-y="-9"
     inkscape:window-maximized="1"
     inkscape:current-layer="layer1"
     inkscape:showpageshadow="2"
     inkscape:deskcolor="#d1d1d1" />
  <defs
     id="defs2" />
  <g
     inkscape:label="Layer 1"
     inkscape:groupmode="layer"
     id="layer1">
    <g
       id="g17489"
       transform="matrix(1.0421463,0,0,1.0421463,-5.6661967,1.1003354)"
       style="fill:#000000">
      <path
         style="fill:#000000;fill-opacity:1;stroke:none;stroke-width:0.264583;stroke-opacity:1"
         d="m 59.065514,18.355428 -5.973207,2.307247 v 78.830926 l 6.024478,2.281609 z"
         id="path13854" />
      <path
         style="fill:#000000;fill-opacity:1;stroke:none;stroke-width:0.264583;stroke-opacity:1"
         d="m 81.330441,18.355469 5.973207,2.307247 v 78.830926 l -6.024478,2.281608 z"
         id="path13854-7" />
      <path
         style="fill:#000000;fill-opacity:1;stroke:none;stroke-width:0.264583;stroke-opacity:1"
         d="M 8.4836425,79.76074 C 23.976817,91.85532 35.627049,104.71849 59.095459,115.21802 h -46.40625 l 19.795165,-6.23584 z"
         id="path13991"
         sodipodi:nodetypes="ccccc" />
      <path
         style="fill:#000000;fill-opacity:1;stroke:none;stroke-width:0.264583;stroke-opacity:1"
         d="M 132.37873,79.782987 C 116.88555,91.877569 105.23532,104.74074 81.766912,115.24027 h 46.406248 l -19.79517,-6.23584 z"
         id="path13991-2"
         sodipodi:nodetypes="ccccc" />
      <path
         style="fill:#000000;fill-opacity:1;stroke:none;stroke-width:0.264583;stroke-opacity:1"
         d="M 40.677978,28.641357 V 91.072265 C 37.37051,87.983907 38.355562,85.465729 36.109862,82.878662 34.564553,79.846217 30.453294,81.578696 30.889159,73.669921 l 0.01755,-29.78138 c 0.02432,-2.106831 0.35939,-2.262583 1.488584,-3.31304 l 3.787081,-3.523011 c 3.079687,-2.278015 2.68971,-6.151245 4.495604,-8.411133 z"
         id="path14314"
         sodipodi:nodetypes="cccccscc" />
      <path
         style="fill:#000000;fill-opacity:1;stroke:none;stroke-width:0.264583;stroke-opacity:1"
         d="m 100.27112,29.166733 v 62.430908 c 1.74851,-3.559671 2.28617,-6.802947 4.56812,-8.193603 1.07399,-0.639623 5.25776,-2.387612 5.2207,-9.208741 l -0.0175,-29.78138 c -0.0243,-2.106831 -0.35939,-2.262583 -1.48859,-3.31304 l -3.78708,-3.523011 c -3.07968,-2.278015 -2.68971,-6.151245 -4.4956,-8.411133 z"
         id="path14314-0"
         sodipodi:nodetypes="cccccsccc" />
      <circle
         style="fill:#000000;fill-opacity:1;stroke:none;stroke-width:0.275995;stroke-opacity:1"
         id="path16226"
         cx="70.499207"
         cy="59.988415"
         r="7.3019266" />
      <circle
         style="fill:#000000;fill-opacity:1;stroke:none;stroke-width:0.270779;stroke-opacity:1"
         id="path16330"
         cx="46.753368"
         cy="78.657669"
         r="3.1719019" />
      <circle
         style="fill:#000000;fill-opacity:1;stroke:none;stroke-width:0.270779;stroke-opacity:1"
         id="path16330-4"
         cx="46.841309"
         cy="40.532959"
         r="3.1719019" />
      <circle
         style="fill:#000000;fill-opacity:1;stroke:none;stroke-width:0.270779;stroke-opacity:1"
         id="path16330-5"
         cx="93.827637"
         cy="40.460449"
         r="3.1719019" />
      <circle
         style="fill:#000000;fill-opacity:1;stroke:none;stroke-width:0.270779;stroke-opacity:1"
         id="path16330-8"
         cx="93.827637"
         cy="78.745605"
         r="3.1719019" />
      <path
         style="fill:#000000;fill-opacity:1;stroke:none;stroke-width:0.264583;stroke-opacity:1"
         d="m 67.687866,107.16943 c 2.36278,2.30642 3.087366,2.41448 5.692016,-0.0363 4.454047,-5.54275 0.692989,-7.761176 -2.646608,-7.867311 -2.691364,-0.164154 -7.927562,2.331681 -3.045408,7.903611 z"
         id="path16573"
         sodipodi:nodetypes="cccc" />
      <path
         style="fill:#000000;fill-opacity:1;stroke:none;stroke-width:0.264583;stroke-opacity:1"
         d="m 67.907698,14.402108 c 2.36278,-2.30642 3.087366,-2.41448 5.692016,0.0363 4.454047,5.542749 0.692989,7.761175 -2.646608,7.86731 -2.691364,0.164154 -7.927562,-2.331681 -3.045408,-7.90361 z"
         id="path16573-5"
         sodipodi:nodetypes="cccc" />
    </g>
  </g>
</svg>
