<?xml version="1.0" encoding="UTF-8" standalone="no"?>
<svg
   xmlns:osb="http://www.openswatchbook.org/uri/2009/osb"
   xmlns:dc="http://purl.org/dc/elements/1.1/"
   xmlns:cc="http://creativecommons.org/ns#"
   xmlns:rdf="http://www.w3.org/1999/02/22-rdf-syntax-ns#"
   xmlns:svg="http://www.w3.org/2000/svg"
   xmlns="http://www.w3.org/2000/svg"
   xmlns:sodipodi="http://sodipodi.sourceforge.net/DTD/sodipodi-0.dtd"
   xmlns:inkscape="http://www.inkscape.org/namespaces/inkscape"
   width="512"
   height="512"
   viewBox="0 0 135.46667 135.46667"
   version="1.1"
   id="svg8"
   inkscape:version="0.92.4 (5da689c313, 2019-01-14)"
   sodipodi:docname="Nox_Gas_Trap.svg">
  <defs
     id="defs2">
    <linearGradient
       id="linearGradient1099-6-5"
       osb:paint="gradient">
      <stop
         style="stop-color:#273839;stop-opacity:0.5"
         offset="0"
         id="stop1151" />
      <stop
         style="stop-color:#273839;stop-opacity:1"
         offset="1"
         id="stop1153" />
    </linearGradient>
  </defs>
  <sodipodi:namedview
     id="base"
     pagecolor="#ffffff"
     bordercolor="#666666"
     borderopacity="1.0"
     inkscape:pageopacity="0.0"
     inkscape:pageshadow="2"
     inkscape:zoom="3.959798"
     inkscape:cx="215.0838"
     inkscape:cy="328.52453"
     inkscape:document-units="px"
     inkscape:current-layer="g1320"
     inkscape:document-rotation="0"
     showgrid="false"
     inkscape:pagecheckerboard="true"
     inkscape:object-nodes="true"
     fit-margin-top="0"
     fit-margin-left="0"
     fit-margin-right="0"
     fit-margin-bottom="0"
     inkscape:window-width="1920"
     inkscape:window-height="1017"
     inkscape:window-x="-8"
     inkscape:window-y="-8"
     inkscape:window-maximized="1"
     units="px" />
  <metadata
     id="metadata5">
    <rdf:RDF>
      <cc:Work
         rdf:about="">
        <dc:format>image/svg+xml</dc:format>
        <dc:type
           rdf:resource="http://purl.org/dc/dcmitype/StillImage" />
        <dc:title></dc:title>
      </cc:Work>
    </rdf:RDF>
  </metadata>
  <g
     inkscape:label="Layer 1"
     inkscape:groupmode="layer"
     id="layer1"
     transform="translate(-59.62574,-110.15787)">
    <path
       style="fill:#000000;stroke-width:0.264583"
       id="path853"
       d="" />
    <path
       style="fill:#000000;stroke-width:0.264583"
       id="path849"
       d="" />
    <g
       id="g1061"
       transform="translate(9.0714285,1.8898814)">
      <g
         id="g1320"
         transform="translate(7.2162774,44.901282)">
        <g
           id="g1943"
           transform="matrix(1.2059279,0,0,1.2059279,-25.473956,-33.863499)">
          <path
             style="fill:#000000;fill-opacity:0.50196081;stroke-width:0.35277799"
             d="m 77.801079,163.24853 c -4.995452,-1.59692 -8.636912,-5.33078 -10.341437,-10.60384 -0.723878,-2.23937 -0.825,-6.27818 -0.204154,-8.1539 0.396853,-1.19898 0.34748,-1.38765 -0.830862,-3.175 -1.531921,-2.32367 -2.51254,-4.87386 -3.229269,-8.39803 -0.299157,-1.47095 -0.705708,-3.46821 -0.903448,-4.43835 -0.840798,-4.12508 0.478655,-10.01925 3.092446,-13.81436 2.41955,-3.51308 7.081271,-7.01703 10.213859,-7.67718 0.918106,-0.19348 1.149244,-0.081 1.680267,0.81799 0.863032,1.461 2.951878,3.02445 4.940433,3.6978 2.105612,0.71298 3.043013,0.7159 5.533095,0.0172 l 1.975742,-0.55436 3.313466,1.6127 c 1.822404,0.88698 3.540411,1.6127 3.817786,1.6127 0.342967,0 0.422144,0.19752 0.247473,0.61736 -0.141266,0.33955 -0.337199,1.37142 -0.435405,2.29305 -0.136331,1.27943 -0.321861,1.6757 -0.784536,1.6757 -0.946968,0 -4.665846,2.556 -6.018957,4.13685 -1.542704,1.80235 -3.730216,5.48256 -4.35532,7.32726 -2.046863,6.04037 -2.127405,6.41752 -1.685477,7.89254 0.23489,0.78399 0.794455,1.86916 1.243475,2.41148 0.619788,0.74857 0.83476,1.4861 0.892616,3.06245 0.06579,1.7925 -0.04454,2.20252 -0.806888,2.99861 -2.712785,2.83289 -3.523906,10.40402 -1.771195,16.53261 0.215699,0.75423 0.13274,0.79281 -1.666226,0.77478 -1.041275,-0.0104 -2.804143,-0.31016 -3.917484,-0.66607 z m 68.322431,-7.16447 c -0.03,-3.63143 -0.95146,-6.92629 -2.50692,-8.96405 -0.9719,-1.27327 -1.1732,-1.84317 -1.1732,-3.32151 0,-1.58246 0.13981,-1.91638 1.23472,-2.94902 1.11658,-1.05307 1.23407,-1.34616 1.22785,-3.06311 -0.0136,-3.76953 -3.22279,-11.21777 -6.4422,-14.95203 -0.66941,-0.77646 -2.27592,-2.03095 -3.57002,-2.78778 -1.29411,-0.75682 -2.41086,-1.47091 -2.48166,-1.58687 l -1.68807,-4.26778 c 0.27897,0 3.56026,-0.72571 5.38267,-1.6127 l 3.31346,-1.61269 1.97575,0.55436 c 2.49331,0.69959 3.35232,0.6953 5.59167,-0.0279 2.47068,-0.79794 4.40048,-2.55467 5.63739,-5.13182 l 1.03244,-2.15114 1.68228,1.72777 c 3.46161,3.55522 5.0315,8.95235 4.08058,14.02867 -0.38361,2.04779 -0.37404,2.0927 0.87736,4.12013 1.44264,2.33726 2.95784,6.25992 2.96349,7.67209 0.002,0.52475 0.25703,1.74784 0.56651,2.71798 0.78854,2.47183 0.78568,7.55952 -0.006,10.23056 -2.03945,6.88306 -7.30676,12.0081 -14.13245,13.7507 -3.6196,0.92409 -3.5382,0.97828 -3.5659,-2.37383 z m -46.08019,-51.67955 c -0.06515,-0.33834 0.17762,-1.48928 0.53951,-2.55764 1.28307,-3.787888 0.0114,-7.714674 -3.259505,-10.064543 -0.921716,-0.662185 -1.870512,-1.631224 -2.10844,-2.153419 -0.504567,-1.107406 -0.600032,-1.014095 2.855137,-2.79074 10.735478,-5.520176 23.134608,-4.611653 33.217468,2.433949 l 2.07325,1.448733 -1.01021,0.711219 c -3.90708,2.750705 -5.38219,7.429332 -3.51957,11.163051 0.41901,0.83992 0.41878,2.42456 -3.5e-4,2.42456 -0.0687,0 -0.85702,-0.51594 -1.75179,-1.14653 l -1.62687,-1.14653 h -11.00972 -11.00971 l -1.44742,1.14653 c -1.67501,1.32681 -1.7829,1.35634 -1.94178,0.53136 z"
             id="path1939"
             sodipodi:nodetypes="sssssssscsccsssssssssscscsscssscssccscscscssscscsccssssscsccssccscs"
             inkscape:connector-curvature="0" />
          <path
             style="fill:#000000;fill-opacity:1;stroke-width:0.35277799"
             d="m 107.342,189.99234 c -3.63646,-0.39586 -4.28248,-0.69023 -4.48091,-2.04221 -0.0919,-0.62617 10e-4,-1.10421 0.22048,-1.129 l 22.09307,0.0431 c 0.41612,-5e-5 0.51238,0.29242 0.40342,1.22572 -0.15819,1.35502 0.0321,1.23275 -4.8305,1.90242 z m -0.88194,-5.97225 c -4.38119,-0.40686 -8.715204,-1.38214 -9.746307,-2.1932 -2.755953,-2.16784 -4.537629,-5.83916 -3.10123,-6.39036 h 41.766567 c -0.0112,0.93117 -2.08043,5.10718 -3.58572,6.24303 -2.78212,2.09931 -15.3887,3.26402 -25.33331,2.34053 z M 92.340237,173.10582 v -2.82217 h 43.753153 v 2.82217 z m -1.232091,-5.99828 c -6.425082,-3.62093 -6.431231,-14.33313 -1.852101,-19.4017 h 49.880345 c 4.48906,3.39765 4.46907,19.06543 -1.71935,19.41335 z M 89.526622,142.06128 H 138.9562 v 3.08918 H 89.526622 Z m -2.173432,-4.42214 0.739006,-2.8944 c 1.016272,-3.98034 1.231205,-4.48302 3.210758,-7.50922 1.323138,-2.02272 2.193914,-2.93208 3.656446,-3.81847 3.528282,-2.13836 3.814057,-2.16958 19.85706,-2.16958 h 14.59427 l 2.19481,1.09665 c 2.80445,1.40128 5.09028,3.81901 6.88079,7.27784 1.48271,2.86423 3.06629,7.61335 2.78397,8.34907 -0.44583,1.16179 -2.75231,1.2681 -27.51136,1.2681 H 89.213292 Z m 12.91603,-18.86105 0.30187,-2.28399 c 0.19107,-1.27613 0.48823,-1.55728 1.38244,-1.73612 8.9903,0.009 15.14301,0 24.6512,0 0.60631,0.002 0.97976,0.41285 1.19243,0.95277 l 0.96439,3.06734 z m -10.918884,-12.26931 -1.442107,0.84295 c -2.525014,1.47595 -5.673393,0.8695 -7.296091,-1.4054 -0.602722,-0.84496 -0.789434,-1.60621 -0.798051,-3.25372 -0.0094,-1.79868 -0.163227,-2.3313 -0.939823,-3.254229 -1.297407,-1.541881 -1.799285,-3.318272 -1.623621,-5.746795 0.3446,-4.76405 5.022209,-7.953737 9.730726,-6.635434 2.29742,0.643238 4.745165,3.114243 5.311027,5.361497 0.283676,1.126566 0.604238,1.665927 0.990128,1.665927 1.024724,0 2.859465,1.396105 3.438588,2.616515 0.745631,1.571302 0.699188,3.233299 -0.138832,4.968209 -0.912184,1.88844 -0.891367,2.10162 0.485789,4.97527 1.69007,3.52658 1.819131,4.02456 1.03729,4.00234 z m 41.373674,3.9601 c -0.10743,-0.10742 0.41928,-1.57592 1.17046,-3.26325 1.58058,-3.5504 1.61693,-3.85983 0.67114,-5.71372 -0.38805,-0.76065 -0.70555,-1.873461 -0.70555,-2.47291 0,-2.033281 1.78287,-4.365699 3.73644,-4.888166 0.73433,-0.19639 1.06467,-0.54915 1.22182,-1.304738 0.29528,-1.419825 1.16219,-3.00062 2.15197,-3.924096 1.23955,-1.156519 3.82166,-2.211262 5.41338,-2.211262 1.59139,0 4.17306,1.054405 5.41419,2.211262 2.93188,2.732802 3.06057,7.725064 0.27753,10.765882 -0.61987,0.677278 -0.7321,1.173618 -0.63818,2.822218 0.13448,2.3606 -0.74076,3.96908 -2.76048,5.07309 -1.54798,0.84615 -4.21193,0.68805 -5.59139,-0.33183 l -0.96001,-0.70976 z m -26.32941,-4.31981 h 19.29871 c 0.80075,0.20098 2.59798,2.62336 2.301,3.10389 h -23.03265 c 0.0465,-1.80863 0.47214,-2.3605 1.43294,-3.10389 z"
             id="path1937"
             inkscape:connector-curvature="0"
             sodipodi:nodetypes="cccccccccccscccccccccccccccccsscsccscsccccccccccccccsscsscccccccscccsscsscccccccc" />
        </g>
        <path
           style="fill:#000000;fill-opacity:1;stroke:none;stroke-width:0.28019714;stroke-miterlimit:4;stroke-dasharray:none;stroke-opacity:1"
           d="m 98.971397,100.02804 h 3.130113 c 0.41226,0 0.74414,0.33188 0.74414,0.74414 v 0.95675 c 0,0.41225 -0.33188,0.74414 -0.74414,0.74414 h -3.130113 c -0.412254,0 -0.74414,-0.33189 -0.74414,-0.74414 v -0.95675 c 0,-0.41226 0.331886,-0.74414 0.74414,-0.74414 z"
           id="rect825" />
        <path
           style="fill:#000000;fill-opacity:1;stroke:none;stroke-width:0.28019714;stroke-miterlimit:4;stroke-dasharray:none;stroke-opacity:1"
           d="m 106.33604,100.02815 h 3.13012 c 0.41225,0 0.74414,0.33189 0.74414,0.74414 v 0.95676 c 0,0.41225 -0.33189,0.74414 -0.74414,0.74414 h -3.13012 c -0.41225,0 -0.74414,-0.33189 -0.74414,-0.74414 v -0.95676 c 0,-0.41225 0.33189,-0.74414 0.74414,-0.74414 z"
           id="rect825-2" />
        <path
           style="fill:#000000;fill-opacity:1;stroke:none;stroke-width:0.28019714;stroke-miterlimit:4;stroke-dasharray:none;stroke-opacity:1"
           d="m 114.72239,100.02815 h 3.13012 c 0.41225,0 0.74414,0.33189 0.74414,0.74414 v 0.95676 c 0,0.41225 -0.33189,0.74414 -0.74414,0.74414 h -3.13012 c -0.41225,0 -0.74414,-0.33189 -0.74414,-0.74414 v -0.95676 c 0,-0.41225 0.33189,-0.74414 0.74414,-0.74414 z"
           id="rect825-2-5" />
        <path
           style="fill:#000000;fill-opacity:1;stroke:none;stroke-width:0.28019714;stroke-miterlimit:4;stroke-dasharray:none;stroke-opacity:1"
           d="m 122.55853,100.02815 h 3.13012 c 0.41225,0 0.74414,0.33189 0.74414,0.74414 v 0.95676 c 0,0.41225 -0.33189,0.74414 -0.74414,0.74414 h -3.13012 c -0.41225,0 -0.74414,-0.33189 -0.74414,-0.74414 v -0.95676 c 0,-0.41225 0.33189,-0.74414 0.74414,-0.74414 z"
           id="rect825-2-5-9" />
      </g>
    </g>
  </g>
</svg>
