<?xml version="1.0" encoding="UTF-8" standalone="no"?>
<svg
   width="512"
   height="512"
   viewBox="0 0 135.46667 135.46667"
   version="1.1"
   id="svg8"
   inkscape:version="1.2.2 (732a01da63, 2022-12-09)"
   sodipodi:docname="Spacewalk.svg"
   xmlns:inkscape="http://www.inkscape.org/namespaces/inkscape"
   xmlns:sodipodi="http://sodipodi.sourceforge.net/DTD/sodipodi-0.dtd"
   xmlns="http://www.w3.org/2000/svg"
   xmlns:svg="http://www.w3.org/2000/svg"
   xmlns:rdf="http://www.w3.org/1999/02/22-rdf-syntax-ns#"
   xmlns:cc="http://creativecommons.org/ns#"
   xmlns:dc="http://purl.org/dc/elements/1.1/">
  <defs
     id="defs2">
    <linearGradient
       id="linearGradient1099-6-5"
       inkscape:swatch="gradient">
      <stop
         style="stop-color:#273839;stop-opacity:0.5"
         offset="0"
         id="stop1151" />
      <stop
         style="stop-color:#273839;stop-opacity:1"
         offset="1"
         id="stop1153" />
    </linearGradient>
  </defs>
  <sodipodi:namedview
     id="base"
     pagecolor="#ffffff"
     bordercolor="#666666"
     borderopacity="1.0"
     inkscape:pageopacity="0.0"
     inkscape:pageshadow="2"
     inkscape:zoom="0.49497475"
     inkscape:cx="120.20815"
     inkscape:cy="243.44676"
     inkscape:document-units="px"
     inkscape:current-layer="g1320"
     inkscape:document-rotation="0"
     showgrid="false"
     inkscape:pagecheckerboard="true"
     inkscape:object-nodes="true"
     fit-margin-top="0"
     fit-margin-left="0"
     fit-margin-right="0"
     fit-margin-bottom="0"
     inkscape:window-width="2560"
     inkscape:window-height="1361"
     inkscape:window-x="-9"
     inkscape:window-y="-9"
     inkscape:window-maximized="1"
     units="px"
     inkscape:showpageshadow="2"
     inkscape:deskcolor="#d1d1d1" />
  <metadata
     id="metadata5">
    <rdf:RDF>
      <cc:Work
         rdf:about="">
        <dc:format>image/svg+xml</dc:format>
        <dc:type
           rdf:resource="http://purl.org/dc/dcmitype/StillImage" />
        <dc:title />
      </cc:Work>
    </rdf:RDF>
  </metadata>
  <g
     inkscape:label="Layer 1"
     inkscape:groupmode="layer"
     id="layer1"
     transform="translate(-59.62574,-110.15787)">
    <path
       style="fill:#000000;stroke-width:0.264583"
       id="path853"
       d="" />
    <path
       style="fill:#000000;stroke-width:0.264583"
       id="path849"
       d="" />
    <g
       id="g1061"
       transform="translate(9.0714285,1.8898814)">
      <g
         id="g1320"
         transform="translate(7.2162774,44.901282)">
        <g
           id="g2244"
           transform="matrix(1.6512239,0,0,1.6512239,-72.562686,-110.74051)"
           style="fill:#000000">
          <path
             style="fill:#000000;fill-opacity:1;stroke-width:0.264583"
             d="m 97.946145,141.70063 c -0.69927,-0.33724 -0.815798,-1.54596 -0.198438,-2.05832 0.222716,-0.18484 0.396875,-0.7616 0.396875,-1.31431 0,-0.62929 0.180298,-1.1481 0.49933,-1.43682 0.274629,-0.24853 0.879975,-1.46042 1.34521,-2.69308 0.576098,-1.52638 1.239608,-2.69779 2.080358,-3.67277 l 1.23448,-1.43158 1.12154,1.09316 c 1.10638,1.07836 1.11485,1.1005 0.62627,1.63625 -0.27241,0.29871 -0.68717,0.92291 -0.92169,1.38711 -0.23452,0.4642 -1.01478,1.62136 -1.73391,2.57146 -1.18845,1.57016 -1.32413,1.8962 -1.49011,3.58056 -0.14614,1.48315 -0.28156,1.88452 -0.67829,2.01043 -0.272628,0.0865 -0.495688,0.26837 -0.495688,0.40408 0,0.32763 -1.040709,0.28324 -1.785937,-0.0762 z"
             id="path2238" />
          <path
             style="fill:#000000;fill-opacity:1;stroke-width:0.264583"
             d="m 102.65688,174.76574 c -0.14908,-0.1819 -0.80492,-1.10463 -1.45742,-2.05052 -2.825635,-4.09613 -2.930955,-4.5004 -1.311689,-5.0348 0.496449,-0.16385 0.902649,-0.35452 0.902649,-0.42371 0,-0.0692 -0.28984,-0.55234 -0.64408,-1.07365 -0.574794,-0.84589 -0.604147,-1.00803 -0.27287,-1.50732 0.52175,-0.78637 2.10445,-1.99501 3.03914,-2.32084 0.43352,-0.15113 0.78822,-0.44875 0.78822,-0.66138 0,-0.21264 -0.11083,-0.31811 -0.2463,-0.23439 -1.15034,0.71095 0.45446,-3.6388 2.42535,-6.57383 3.33601,-4.96793 3.40426,-5.09759 3.66716,-6.96627 0.13884,-0.98694 0.50164,-2.72087 0.8062,-3.85317 0.50632,-1.8824 0.52314,-2.19669 0.19644,-3.6693 -0.25838,-1.1647 -0.50507,-1.66904 -0.8911,-1.82179 -0.36786,-0.14556 -0.61604,-0.0858 -0.79837,0.19224 -1.04425,1.59235 -1.18598,1.68504 -1.96255,1.28346 -1.1281,-0.58337 -2.47462,-2.23481 -2.24396,-2.75211 0.10648,-0.2388 0.17906,-0.75526 0.16129,-1.14769 -0.0235,-0.51931 0.12652,-0.76387 0.55125,-0.89858 0.32095,-0.1018 1.45486,-0.82936 2.5198,-1.61682 2.4276,-1.79506 2.54053,-1.83481 3.09194,-1.08834 l 0.45288,0.61308 -0.16996,-0.79375 c -0.25455,-1.18881 -0.71537,-2.24895 -0.97758,-2.24895 -0.12787,0 -0.23249,0.11404 -0.23249,0.25343 0,0.13938 -0.52942,0.56369 -1.1765,0.9429 -1.46331,0.85756 -1.64229,0.7757 -3.90303,-1.78508 -3.5147,-3.98117 -4.30551,-5.1897 -4.59967,-7.02926 -0.390945,-2.44485 1.04122,-4.08749 3.81481,-4.37542 1.34036,-0.13915 3.07737,-0.66939 3.70742,-1.13173 0.20339,-0.14925 -1.44028,-1.95608 -1.77945,-1.95609 -0.53691,-1e-5 -0.18035,-1.84333 0.67183,-3.47308 0.38109,-0.72883 0.77008,-1.70407 0.86441,-2.16718 0.15528,-0.76231 0.28329,-0.85661 1.352,-0.99596 0.64926,-0.0846 1.49012,-0.30403 1.86858,-0.48749 0.60082,-0.29126 0.85254,-0.25019 1.98437,0.32376 0.71295,0.36153 1.48956,0.87856 1.72579,1.14895 0.47438,0.54297 0.90795,3.61409 0.58348,4.13303 -0.11257,0.18004 -0.21534,0.93499 -0.22838,1.67766 l -0.0237,1.35033 1.583,-0.64323 c 1.38815,-0.56406 1.66381,-0.6 2.23962,-0.29199 1.46031,0.78113 6.20857,0.17011 6.52923,-0.8402 0.18103,-0.57037 -1.2536,-2.9096 -1.78443,-2.9096 -0.49556,0 -1.7877,-1.38207 -1.7877,-1.91213 0,-0.26961 0.24055,-0.96171 0.53454,-1.538 0.38181,-0.7484 0.70311,-1.04751 1.12448,-1.0468 0.94175,0.002 2.27711,0.96265 2.46869,1.77674 0.0952,0.4047 0.85474,1.68831 1.68779,2.85248 1.96626,2.74779 2.122,3.06693 2.122,4.34823 0,0.77691 -0.10958,1.07573 -0.39448,1.07573 -0.21697,0 -2.0922,0.67172 -4.16719,1.49271 -2.07499,0.821 -4.30849,1.63722 -4.96333,1.81382 -1.42997,0.38565 -1.67709,1.11152 -0.78787,2.31425 0.89028,1.20417 0.97611,2.6371 0.25074,4.18581 l -0.61144,1.30544 0.69411,3.37367 c 0.44973,2.18587 0.63996,3.76733 0.5403,4.49178 -0.13801,1.00329 -0.0892,1.14225 0.47549,1.35319 1.05738,0.395 5.51317,1.13855 5.79162,0.96646 0.1439,-0.0889 0.26163,-0.43775 0.26163,-0.77514 0,-0.84468 0.57946,-1.2986 1.11341,-0.8722 0.59328,0.47378 1.26784,2.72851 1.26784,4.23779 0,1.74561 -0.65449,4.17188 -1.60676,5.95639 -0.73559,1.37845 -0.76998,1.57935 -0.60634,3.5416 0.13265,1.59054 0.0793,2.2813 -0.22653,2.93432 -0.82105,1.753 -1.33179,3.53795 -1.36381,4.76627 -0.0728,2.79227 -2.01575,2.26674 -4.34426,-1.17502 -2.19425,-3.24331 -2.10754,-3.01821 -1.43742,-3.73152 0.52894,-0.56303 0.54908,-0.67754 0.20022,-1.13874 -0.58281,-0.7705 -0.49944,-1.09757 0.62441,-2.44966 0.56599,-0.68096 1.11267,-1.51502 1.21482,-1.85349 0.10216,-0.33846 0.59572,-1.51501 1.0968,-2.61456 0.50108,-1.09955 0.87499,-2.03525 0.83092,-2.07932 -0.0441,-0.0441 -1.20311,-0.10482 -2.57564,-0.13499 l -2.49551,-0.0548 -0.50401,1.16205 c -0.67654,1.55987 -2.03401,4.84983 -2.03515,4.93237 -5.3e-4,0.0364 0.17769,0.0662 0.39597,0.0662 0.21828,0 0.39688,0.0759 0.39688,0.16879 0,0.0928 -0.68234,1.11647 -1.51631,2.27475 -0.99948,1.38815 -1.86095,2.28178 -2.52742,2.62179 -0.78519,0.40058 -0.97532,0.62859 -0.85094,1.02048 0.0881,0.27756 -0.0263,0.78921 -0.25417,1.13701 -0.22788,0.3478 -0.77714,1.62648 -1.22058,2.84152 -0.77975,2.13657 -0.80025,2.30649 -0.62379,5.17185 0.17664,2.86854 0.16453,2.96837 -0.38093,3.1415 -0.46785,0.14849 -0.56435,0.38885 -0.56917,1.41774 -0.007,1.50223 -0.68555,3.08022 -1.80636,4.20103 -0.45852,0.45852 -0.83367,1.02142 -0.83367,1.2509 0,0.33324 -0.31743,0.41722 -1.57707,0.41722 -0.94069,0 -1.68644,-0.13345 -1.84813,-0.33073 z"
             id="path2236" />
          <path
             style="fill:#000000;fill-opacity:1;stroke-width:0.264583"
             d="m 104.09771,178.64738 c -7.339,-0.52714 -9.686399,-0.75513 -12.303128,-1.1949 -6.901622,-1.15989 -9.367599,-2.47464 -8.346197,-4.44981 0.483851,-0.93567 1.621288,-1.47862 4.771766,-2.27781 2.398165,-0.60834 7.946491,-1.39869 8.179964,-1.16521 0.06267,0.0627 0.187497,0.41136 0.277384,0.77487 0.160936,0.65082 0.119841,0.6694 -2.690471,1.21689 -3.115302,0.60691 -5.632029,1.55261 -5.632029,2.11634 0,0.99708 3.309686,2.06234 8.652563,2.78492 5.160788,0.69795 18.395168,0.98374 23.987548,0.51799 4.3932,-0.36588 8.85875,-1.15024 10.92148,-1.91833 2.74776,-1.02317 2.89474,-1.51422 0.69909,-2.33572 -3.78829,-1.41738 -7.60702,-1.97295 -16.15717,-2.35062 -2.80594,-0.12394 -5.17653,-0.30018 -5.268,-0.39164 -0.0915,-0.0915 0.0499,-0.40515 0.31406,-0.69709 0.42871,-0.47371 0.81323,-0.53079 3.57593,-0.53079 5.97662,0 14.91093,0.93573 19.17971,2.00877 4.21527,1.05959 5.71938,2.25653 4.73106,3.76489 -0.99348,1.51624 -6.18808,2.87534 -13.85919,3.62609 -4.0494,0.3963 -17.89988,0.7263 -21.03437,0.50116 z"
             id="path2234" />
          <path
             style="fill:#000000;fill-opacity:0.501961;stroke-width:0.264583"
             d="m 99.996665,185.40027 c -10.361612,-0.82053 -14.883691,-1.49129 -18.860702,-2.79763 -4.666778,-1.53291 -4.913491,-3.71495 -0.597177,-5.28168 2.150679,-0.78066 2.477908,-0.78558 4.158635,-0.0626 l 1.335312,0.57443 -1.02168,0.51539 c -1.219751,0.6153 -1.948389,1.22111 -1.945913,1.6179 0.001,0.15934 0.410059,0.56771 0.909032,0.90748 6.163994,4.1973 40.252798,4.88888 51.918288,1.0533 2.75778,-0.90675 3.8528,-1.75263 3.23523,-2.49916 -0.20326,-0.2457 -0.93561,-0.70931 -1.62744,-1.03023 l -1.25788,-0.5835 1.54962,-0.56502 c 0.8523,-0.31077 1.77553,-0.56156 2.05163,-0.55731 0.70759,0.0109 3.95435,1.35984 4.5967,1.90984 0.71718,0.61406 0.68863,1.81557 -0.0598,2.51642 -1.91251,1.79093 -9.21738,3.32367 -19.24844,4.03879 -5.48284,0.39088 -21.33524,0.54447 -25.135415,0.24353 z"
             id="path2230" />
        </g>
      </g>
    </g>
  </g>
</svg>
