<?xml version="1.0" encoding="UTF-8" standalone="no"?>
<svg
   xmlns:osb="http://www.openswatchbook.org/uri/2009/osb"
   xmlns:dc="http://purl.org/dc/elements/1.1/"
   xmlns:cc="http://creativecommons.org/ns#"
   xmlns:rdf="http://www.w3.org/1999/02/22-rdf-syntax-ns#"
   xmlns:svg="http://www.w3.org/2000/svg"
   xmlns="http://www.w3.org/2000/svg"
   xmlns:xlink="http://www.w3.org/1999/xlink"
   xmlns:sodipodi="http://sodipodi.sourceforge.net/DTD/sodipodi-0.dtd"
   xmlns:inkscape="http://www.inkscape.org/namespaces/inkscape"
   width="512"
   height="512"
   viewBox="0 0 135.46667 135.46667"
   version="1.1"
   id="svg8"
   inkscape:version="0.92.4 (5da689c313, 2019-01-14)"
   sodipodi:docname="Now_You_See_Me....svg">
  <defs
     id="defs2">
    <linearGradient
       inkscape:collect="always"
       id="linearGradient1915">
      <stop
         style="stop-color:#000015;stop-opacity:0.50196081"
         offset="0"
         id="stop1911" />
      <stop
         style="stop-color:#000000;stop-opacity:0"
         offset="1"
         id="stop1913" />
    </linearGradient>
    <linearGradient
       id="linearGradient1099-6-5"
       osb:paint="gradient">
      <stop
         style="stop-color:#273839;stop-opacity:0.5"
         offset="0"
         id="stop1151" />
      <stop
         style="stop-color:#273839;stop-opacity:1"
         offset="1"
         id="stop1153" />
    </linearGradient>
    <linearGradient
       inkscape:collect="always"
       xlink:href="#linearGradient1915"
       id="linearGradient1917"
       x1="108.9527"
       y1="181.63348"
       x2="110.04982"
       y2="148.49011"
       gradientUnits="userSpaceOnUse" />
  </defs>
  <sodipodi:namedview
     id="base"
     pagecolor="#ffffff"
     bordercolor="#666666"
     borderopacity="1.0"
     inkscape:pageopacity="0.0"
     inkscape:pageshadow="2"
     inkscape:zoom="1.4"
     inkscape:cx="87.783842"
     inkscape:cy="212.88687"
     inkscape:document-units="px"
     inkscape:current-layer="g1320"
     inkscape:document-rotation="0"
     showgrid="false"
     inkscape:pagecheckerboard="true"
     inkscape:object-nodes="true"
     fit-margin-top="0"
     fit-margin-left="0"
     fit-margin-right="0"
     fit-margin-bottom="0"
     inkscape:window-width="1920"
     inkscape:window-height="1017"
     inkscape:window-x="-8"
     inkscape:window-y="-8"
     inkscape:window-maximized="1"
     units="px" />
  <metadata
     id="metadata5">
    <rdf:RDF>
      <cc:Work
         rdf:about="">
        <dc:format>image/svg+xml</dc:format>
        <dc:type
           rdf:resource="http://purl.org/dc/dcmitype/StillImage" />
        <dc:title></dc:title>
      </cc:Work>
    </rdf:RDF>
  </metadata>
  <g
     inkscape:label="Layer 1"
     inkscape:groupmode="layer"
     id="layer1"
     transform="translate(-59.62574,-110.15787)">
    <path
       style="fill:#000000;stroke-width:0.264583"
       id="path853"
       d="" />
    <path
       style="fill:#000000;stroke-width:0.264583"
       id="path849"
       d="" />
    <g
       id="g1061"
       transform="translate(9.0714285,1.8898814)">
      <g
         id="g1320"
         transform="translate(7.2162774,44.901282)">
        <g
           id="g1921"
           transform="matrix(1.0366384,0,0,1.0366376,-2.8458263,-6.7855646)">
          <path
             style="fill:url(#linearGradient1917);fill-opacity:1;stroke:none;stroke-width:0.264583px;stroke-linecap:butt;stroke-linejoin:miter;stroke-opacity:1"
             d="M 93.451071,178.82715 47.614347,113.07874 H 172.16759 l -44.63965,66.41658 -9.88897,1.73725 -8.68627,0.40091 -7.61718,-0.40091 z"
             id="path1909"
             sodipodi:nodetypes="cccccccc" />
          <path
             style="fill:#000016;fill-opacity:1;stroke-width:0.35277799"
             d="m 104.4902,190.59723 c -5.207917,-0.6584 -7.649079,-1.83762 -12.184274,-5.88568 -1.285035,-1.14701 -1.515198,-1.53771 -1.326035,-2.2509 0.485891,-1.83194 0.71162,-1.90774 2.753349,-0.92457 3.579852,1.72384 6.98945,2.17253 16.53178,2.17553 10.67039,0.004 15.77656,-0.77978 17.91074,-2.74697 0.7099,-0.65435 0.86087,-0.67851 1.32705,-0.21232 0.28932,0.28931 0.67091,1.03121 0.84799,1.64865 0.3137,1.0938 0.25447,1.17693 -2.30618,3.23687 -3.60859,2.90296 -5.30042,3.82886 -8.12634,4.44733 -2.90585,0.63598 -12.04786,0.9394 -15.42808,0.51206 z m -8.865457,-23.99262 c -0.287694,-0.4655 0.13413,-1.1261 0.553544,-0.86688 0.428487,0.26482 0.425704,1.21965 -0.0036,1.21965 -0.182577,0 -0.430072,-0.15875 -0.549988,-0.35277 z m -2.763425,-1.99908 c -0.129353,-0.12935 -0.235186,-1.01766 -0.235186,-1.97401 0,-1.14512 -0.229715,-2.06144 -0.672776,-2.68365 -0.558115,-0.78381 -0.620857,-1.21394 -0.368141,-2.52391 0.167548,-0.86849 0.317662,-2.37283 0.333587,-3.34297 0.02607,-1.58749 0.142247,-1.83568 1.161891,-2.48186 l 1.132939,-0.71799 -0.01849,-3.5716 c -0.01076,-2.07753 -0.182823,-3.76961 -0.411331,-4.04495 -0.374411,-0.45113 -0.747011,-4.44817 -0.428096,-4.59238 0.0838,-0.0379 0.581113,0.21205 1.10515,0.5554 1.082047,0.70899 2.164652,0.63819 2.316734,-0.15151 0.112586,-0.58462 -3.325788,-3.40088 -3.697869,-3.0288 -0.289899,0.2899 -2.217491,-1.53512 -2.217491,-2.0995 0,-1.14563 -3.143536,-0.58271 -4.260303,0.76291 -0.894169,1.07741 -2.795253,0.0467 -2.795253,-1.51548 0,-0.50907 -0.292326,-0.78034 -0.991609,-0.9202 -1.100222,-0.22004 -1.830613,-1.43342 -1.830613,-3.04115 0,-0.55077 -0.234185,-1.45279 -0.520412,-2.0045 -0.509195,-0.98147 -0.416619,-3.48263 0.152302,-4.11475 0.135979,-0.15109 0.671427,0.059 1.189885,0.46678 0.876582,0.68952 2.231894,0.84132 2.133631,0.23897 -0.02374,-0.14567 -0.155702,-1.25474 -0.2932,-2.46462 l -0.249996,-2.19977 -0.836405,0.97014 c -0.855059,0.99178 -1.575805,1.26471 -1.575805,0.59674 0,-1.18812 0.834767,-5.51582 1.135062,-5.88452 0.52928,-0.64985 1.01412,-0.16808 0.777925,0.773 -0.275036,1.09584 0.388849,1.44255 1.441503,0.75283 0.469713,-0.30777 1.078293,-0.55958 1.352402,-0.55958 0.274112,0 0.709697,-0.25461 0.967965,-0.56581 0.393616,-0.47427 0.378665,-0.72422 -0.0924,-1.545 -0.309089,-0.53856 -0.486011,-1.37658 -0.393167,-1.86228 0.249788,-1.30668 -0.518393,-1.53181 -1.621293,-0.47517 -1.229762,1.17819 -1.587926,1.16439 -1.28876,-0.0496 0.316,-1.28238 2.607659,-5.37986 3.00887,-5.37986 0.593862,0 0.717687,0.65353 0.298252,1.57409 -0.345514,0.75833 -0.322301,1.01894 0.131149,1.47239 0.499445,0.49944 0.632615,0.49748 1.423966,-0.021 0.480148,-0.3146 1.114538,-0.47932 1.409757,-0.36603 0.357201,0.13707 0.792215,-0.20736 1.300381,-1.02958 0.648286,-1.04896 0.695939,-1.34392 0.315528,-1.95306 -0.353586,-0.56618 -0.356948,-0.80864 -0.01595,-1.14964 0.658231,-0.65824 0.520125,-0.99659 -0.406781,-0.99659 -0.470094,0 -1.062912,0.33736 -1.348419,0.76736 -0.333188,0.50181 -0.713581,0.68904 -1.09922,0.54106 -0.504225,-0.19349 -0.528133,-0.36865 -0.164924,-1.20833 0.754088,-1.7433 3.11076,-5.038977 3.603269,-5.038977 0.703947,0 0.944019,0.942883 0.492432,1.934007 -0.570459,1.25203 0.133357,2.05934 1.322846,1.51738 0.601539,-0.27408 1.094444,-0.28061 1.662007,-0.022 0.639851,0.29154 0.976517,0.23024 1.626581,-0.29615 0.450853,-0.36508 1.045855,-0.66378 1.322229,-0.66378 0.696189,0 2.238679,1.05335 2.254949,1.53988 0.026,0.77694 2.93621,2.4776 4.21995,2.46603 1.21862,-0.011 4.65238,-0.59974 7.05555,-1.20975 0.98242,-0.24937 0.80221,-0.2774 -0.88194,-0.13716 -1.16417,0.0969 -2.91042,0.2742 -3.88056,0.39391 -0.97014,0.11972 -1.64895,0.0945 -1.50848,-0.0561 0.14047,-0.15059 -0.41515,-0.70034 -1.23472,-1.22167 -0.81957,-0.52132 -2.08356,-1.67435 -2.80887,-2.56229 -1.28714,-1.575738 -1.30376,-1.632913 -0.69357,-2.386469 0.34385,-0.424628 1.05623,-0.797081 1.58307,-0.827672 0.86679,-0.05033 0.95793,-0.185045 0.95816,-1.416279 1.9e-4,-1.064482 0.11543,-1.31646 0.52941,-1.1576 0.67123,0.257573 0.66619,0.199781 -0.14098,-1.617442 -0.36859,-0.829809 -0.84246,-1.947562 -1.05306,-2.483895 -0.35422,-0.902121 -0.48898,-0.95819 -1.79929,-0.748662 -0.779018,0.124569 -1.416392,0.135004 -1.416392,0.02319 0,-0.111815 0.396875,-0.631536 0.881942,-1.154935 1.09879,-1.185607 1.10332,-1.48746 0.0285,-1.896114 -1.333506,-0.506998 -1.60676,-1.32329 -1.019713,-3.04618 0.282427,-0.828877 0.740057,-1.695072 1.016953,-1.924877 0.27691,-0.229801 0.50346,-0.939898 0.50346,-1.57799 0,-1.541223 1.55042,-2.85863 3.75297,-3.188921 0.89812,-0.134682 1.92924,-0.541171 2.29137,-0.903309 1.09396,-1.093953 2.37982,-0.835096 3.73889,0.752677 0.66432,0.776112 1.40594,1.411112 1.64804,1.411112 0.6951,0 2.05893,1.644521 2.5622,3.089533 0.59716,1.714581 0.58581,1.87149 -0.11591,1.602216 -0.53557,-0.205516 -0.56256,0.139063 -0.3118,3.979822 0.15099,2.31265 0.26178,4.650271 0.2462,5.194714 -0.0234,0.816959 0.0886,0.952775 0.64116,0.777411 0.47741,-0.151525 0.99592,0.146254 1.80736,1.037961 l 1.13788,1.250446 1.48007,-3.263313 c 2.40536,-5.303429 5.01742,-9.604652 6.90491,-11.370186 0.95806,-0.896154 1.89875,-1.532454 2.09041,-1.414001 0.65463,0.404586 0.34858,0.849485 -1.21456,1.765543 -0.92261,0.540683 -1.98864,1.594728 -2.60178,2.57251 -3.55117,5.663128 -5.86688,11.166712 -5.53217,13.147895 0.25071,1.483915 -0.36747,2.938221 -2.70385,6.361025 -1.38843,2.03405 -1.3985,2.04049 -4.1087,2.62879 -1.49427,0.32436 -3.88049,0.90221 -5.30271,1.28411 -2.49875,0.67097 -2.60967,0.67281 -3.29272,0.0547 -0.69746,-0.6312 -0.70087,-0.62655 -0.25591,0.35002 0.51071,1.12088 0.45499,1.12236 5.9581,-0.15779 4.55778,-1.06024 6.14471,-1.70379 6.76287,-2.74255 0.30281,-0.50886 1.12058,-1.85679 1.81724,-2.99539 0.69667,-1.1386 1.31333,-2.203174 1.37036,-2.365726 0.119,-0.339191 5.19862,0.923057 5.68931,1.413746 0.18924,0.18925 0.65906,0.19772 1.12568,0.0203 0.44048,-0.16747 0.88602,-0.21935 0.99007,-0.1153 0.10406,0.10406 0.37152,0.0765 0.59437,-0.0612 0.27336,-0.168943 0.0867,-0.582878 -0.57393,-1.27237 -0.73393,-0.766055 -0.87821,-1.122848 -0.57621,-1.424855 0.47938,-0.479377 1.43684,0.07569 4.24814,2.462748 1.25921,1.069187 1.72908,1.673047 1.44056,1.851367 -0.2355,0.14554 -0.80895,0.11986 -1.27434,-0.0571 -0.46539,-0.17695 -0.89862,-0.32171 -0.96272,-0.32171 -0.0641,0 -0.4171,0.60744 -0.78442,1.34986 -0.63043,1.27422 -0.63532,1.42363 -0.0871,2.66613 0.8846,2.00498 1.12778,2.13452 2.6731,1.42394 0.74775,-0.34382 1.41733,-0.66823 1.48796,-0.7209 0.0706,-0.0527 -0.20719,-0.52241 -0.61736,-1.04387 -0.94845,-1.20576 -0.94037,-1.5585 0.0357,-1.5585 0.92719,0 4.86294,4.06344 4.86294,5.02071 0,0.71865 -1.0523,0.84144 -1.69585,0.19788 -0.33262,-0.33262 -0.55685,-0.29486 -1.02415,0.17245 -0.56255,0.56254 -0.54419,0.69867 0.30712,2.27794 0.57318,1.0633 1.18052,1.72081 1.65513,1.79184 0.66743,0.0999 0.72517,-0.0105 0.5261,-1.00588 -0.19301,-0.96506 -0.13211,-1.10112 0.44499,-0.99415 1.59428,0.29552 3.24647,6.2802 1.81513,6.57494 -0.35753,0.0736 -0.61736,-0.0835 -0.61736,-0.37324 0,-0.69716 -1.28327,-1.78869 -1.75797,-1.49531 -0.44176,0.27302 -0.27887,1.83308 0.30538,2.92475 0.21349,0.39893 0.28798,1.22627 0.16552,1.83856 -0.21739,1.08697 -0.19476,1.11054 0.95932,0.99901 0.92545,-0.0894 1.22671,-0.30562 1.38813,-0.99616 0.50898,-2.17747 2.58211,-0.13356 2.87573,2.8352 0.11272,1.13971 0.0557,1.21728 -0.8493,1.15533 -1.20857,-0.0827 -1.2468,0.32829 -0.0882,0.94835 0.59182,0.31674 0.88151,0.77154 0.88063,1.38253 -0.001,0.97497 -1.19329,3.20359 -1.71329,3.20359 -0.17263,0 -0.41403,0.5008 -0.53645,1.1129 -0.12242,0.6121 -0.40333,1.3307 -0.62425,1.59689 -0.33042,0.39814 -0.4724,0.34153 -0.80048,-0.31916 -0.4828,-0.97225 -1.68602,-1.21598 -2.30731,-0.46738 -0.24931,0.3004 -0.98786,0.54619 -1.64122,0.54619 -1.04857,0 -1.33905,0.22762 -2.4762,1.94028 -1.2666,1.90764 -2.28694,2.43442 -3.14629,1.62436 -0.19213,-0.18111 -0.67386,-0.18596 -1.12889,-0.0114 -0.92453,0.35473 -1.05983,1.55443 -0.22781,2.02005 0.51498,0.2882 0.509,0.42479 -0.0664,1.51684 -0.36958,0.70145 -0.63614,1.96976 -0.64154,3.05242 -0.007,1.46243 -0.14165,1.89433 -0.63837,2.05198 -0.34603,0.10983 -0.72005,0.5619 -0.83117,1.00461 -0.21294,0.84845 -2.1275,1.97027 -3.36255,1.97027 -1.12472,0 -1.98036,0.6073 -2.22414,1.57861 -0.18722,0.74595 -0.40601,0.87719 -1.33879,0.80306 -0.93078,-0.074 -1.15085,0.0571 -1.332,0.79333 -0.30601,1.24371 -1.27696,1.16794 -1.13008,-0.0882 0.14862,-1.27096 -0.69153,-1.29133 -1.67534,-0.0406 -0.97628,1.24114 -0.92488,1.66697 0.32852,2.72164 0.58282,0.49041 0.91684,0.97993 0.74227,1.08782 -0.47391,0.29289 -2.05444,-0.6301 -1.8955,-1.10693 0.21916,-0.65749 -1.27928,-1.92317 -2.133,-1.80166 -0.53629,0.0763 -0.80502,0.39448 -0.88,1.04183 -0.0881,0.761 -0.24992,0.89801 -0.88194,0.74692 -0.4257,-0.10178 -1.03151,-0.50624 -1.34623,-0.89883 -0.67738,-0.84495 -1.72083,-0.59885 -1.72083,0.40588 0,0.70298 0.88031,1.25881 1.44294,0.91108 0.17652,-0.1091 0.32095,0.12851 0.32095,0.52802 0,0.53493 -0.22696,0.72638 -0.86113,0.72638 -1.24715,0 -1.49125,0.6972 -0.51253,1.46393 0.82768,0.64839 0.83086,0.672 0.1597,1.18631 -0.37663,0.28862 -0.9525,0.52476 -1.27972,0.52476 -0.32721,0 -0.79256,0.23812 -1.0341,0.52916 -0.6801,0.81947 -1.05833,0.63036 -1.05833,-0.52916 0,-0.83209 -0.15475,-1.05834 -0.72391,-1.05834 -0.48717,0 -0.84456,0.34611 -1.09284,1.05834 -0.20292,0.58208 -0.51216,1.05833 -0.68721,1.05833 -0.57509,0 -0.33282,0.75706 0.44342,1.38563 0.95827,0.77595 0.64202,1.31908 -0.87092,1.49571 -1.06049,0.1238 -1.15923,0.0593 -1.02047,-0.66658 0.15308,-0.80084 0.0514,-0.86418 -1.516131,-0.94408 -0.461733,-0.0235 -0.670528,-0.24584 -0.604199,-0.64329 0.06697,-0.40132 -0.205938,-0.68447 -0.804527,-0.8347 -0.709662,-0.17812 -0.857321,-0.38037 -0.681698,-0.93371 0.158906,-0.50066 0.085,-0.66059 -0.253806,-0.54921 -0.262897,0.0864 -0.532003,0.62063 -0.598018,1.18712 -0.128972,1.10674 -0.669593,1.65251 -1.37928,1.39242 -0.61093,-0.2239 -0.551004,0.16827 0.142872,0.935 0.543895,0.60099 0.541531,0.69189 -0.03457,1.32846 -0.340123,0.37583 -0.509809,0.85903 -0.377084,1.07379 0.479856,0.77642 -1.046117,1.83749 -1.700904,1.1827 z m 0.295466,-6.53564 c -0.06378,-0.8657 -0.688831,-1.23778 -1.062817,-0.63266 -0.179921,0.29112 0.508441,1.17167 1.09057,1.39505 0.01609,0.006 0.0036,-0.33691 -0.02776,-0.76239 z m 8.288796,-1.71666 c 0,-0.18258 -0.15875,-0.33196 -0.35278,-0.33196 -0.19403,0 -0.35278,0.2475 -0.35278,0.54999 0,0.30249 0.15875,0.45187 0.35278,0.33196 0.19403,-0.11992 0.35278,-0.36741 0.35278,-0.54999 z m 4.23333,0 c 0,-0.18258 -0.23813,-0.33196 -0.52917,-0.33196 -0.54554,0 -0.70086,0.41627 -0.30357,0.81356 0.28185,0.28185 0.83274,-0.0368 0.83274,-0.4816 z m 18.51983,-9.8538 c 0.12261,-0.38632 0.12394,-0.86257 0.003,-1.05833 -0.57241,-0.92619 -2.13473,0.14304 -1.73418,1.18685 0.30806,0.80278 1.46286,0.71706 1.73123,-0.12852 z m 1.30905,-16.47892 c 1.13303,-1.10638 1.33779,-1.53539 1.33779,-2.80297 0,-1.28319 0.13775,-1.56268 0.96582,-1.95957 0.53121,-0.2546 1.01595,-0.72315 1.0772,-1.04123 0.13862,-0.7198 -2.37421,-4.71633 -2.70578,-4.30341 -0.13294,0.16554 -0.85272,1.58809 -1.59952,3.1612 -1.32511,2.79133 -1.35172,2.92513 -1.10517,5.55625 0.13896,1.48283 0.35147,2.69605 0.47226,2.69605 0.12078,0 0.82161,-0.58785 1.5574,-1.30632 z m -28.016736,-1.5202 c 0.806616,-1.02187 0.807043,-1.02883 0.253354,-4.12563 -0.945165,-5.28636 -1.627057,-8.2173 -1.911787,-8.2173 -0.66015,0 -1.423921,2.52362 -1.60152,5.29167 -0.105819,1.64924 -0.290526,3.81362 -0.410464,4.80974 -0.186273,1.54707 -0.109227,1.91998 0.528433,2.55764 1.022467,1.02247 2.177059,0.9063 3.141984,-0.31612 z m 18.222116,-28.30612 c 1.12996,-1.075624 2.22633,-3.863743 1.29235,-3.286511 -0.21477,0.132738 -0.3905,0.61948 -0.3905,1.081648 0,0.462167 -0.15875,0.938417 -0.35278,1.058333 -0.20087,0.124146 -0.35277,-0.179666 -0.35277,-0.705556 0,-1.188929 -0.5225,-0.859886 -1.41616,0.891826 -1.2334,2.41766 -0.72861,2.81502 1.21986,0.96026 z m -19.190777,63.55885 c 0.309439,-0.57819 0.274472,-0.86622 -0.163978,-1.3507 -0.85647,-0.94639 -0.707415,-2.09661 0.30461,-2.35061 1.212754,-0.30439 1.700029,0.1184 1.52341,1.3218 -0.112215,0.76455 0.02723,1.13127 0.533132,1.40201 0.484594,0.25935 0.575137,0.4766 0.30939,0.74235 -0.265748,0.26575 -0.513383,0.26144 -0.846159,-0.0147 -0.357618,-0.2968 -0.573461,-0.22552 -0.899886,0.29717 -0.59405,0.95123 -1.272336,0.90906 -0.760519,-0.0473 z m 4.138567,-62.06121 c -1.142764,-0.71765 -1.602123,-1.21449 -1.461558,-1.5808 0.325462,-0.84814 0.912408,-0.58021 2.380208,1.08652 1.60034,1.81723 1.37825,1.93672 -0.91865,0.49428 z"
             id="path1907"
             inkscape:connector-curvature="0"
             sodipodi:nodetypes="scccccccscsccscccscccccccccccscscsccccsccscscscccccscccccccscccsccccscccccccccscccccsccscsccsscssccccscssccsscccscccccscccsccscccccsscccccccscccccscccsscccscsccccccsccccccccccccscssccscsscsccccccccscccccccccccssscsssssccccccscccccsccssccccccscsscccccccccccscss" />
        </g>
        <path
           style="fill:#000016;fill-opacity:1;stroke:none;stroke-width:1.22500539;stroke-miterlimit:4;stroke-dasharray:none;stroke-opacity:1"
           d="M 259.01758 425.03516 A 23.214287 4.6428571 0 0 0 235.80273 429.67773 A 23.214287 4.6428571 0 0 0 259.01758 434.32227 A 23.214287 4.6428571 0 0 0 282.23242 429.67773 A 23.214287 4.6428571 0 0 0 259.01758 425.03516 z M 258.51953 427.25391 A 12.565538 2.5131072 0 0 1 271.08398 429.76758 A 12.565538 2.5131072 0 0 1 258.51953 432.28125 A 12.565538 2.5131072 0 0 1 245.95312 429.76758 A 12.565538 2.5131072 0 0 1 258.51953 427.25391 z "
           transform="matrix(0.26458334,0,0,0.26458334,43.338034,63.366707)"
           id="path826" />
        <path
           style="fill:#000016;fill-opacity:1;stroke:none;stroke-width:2.64389277;stroke-miterlimit:4;stroke-dasharray:none;stroke-opacity:1"
           d="M 258.84766 419.58398 A 50.102708 10.020541 0 0 0 208.74609 429.60547 A 50.102708 10.020541 0 0 0 258.84766 439.625 A 50.102708 10.020541 0 0 0 308.95117 429.60547 A 50.102708 10.020541 0 0 0 258.84766 419.58398 z M 257.79492 421.96094 A 38.638075 7.7276138 0 0 1 296.43359 429.6875 A 38.638075 7.7276138 0 0 1 257.79492 437.41602 A 38.638075 7.7276138 0 0 1 219.15625 429.6875 A 38.638075 7.7276138 0 0 1 257.79492 421.96094 z "
           transform="matrix(0.26458334,0,0,0.26458334,43.338034,63.366707)"
           id="path826-4" />
        <path
           style="fill:#000016;fill-opacity:1;stroke:none;stroke-width:3.60083127;stroke-miterlimit:4;stroke-dasharray:none;stroke-opacity:1"
           d="M 311.5 427.30273 A 57.168673 11.433733 0 0 1 315.13672 431.29883 A 57.168673 11.433733 0 0 1 257.9668 442.73242 A 57.168673 11.433733 0 0 1 200.79883 431.29883 A 57.168673 11.433733 0 0 1 203.99414 427.56836 A 68.237034 13.647405 0 0 0 189.97852 435.82422 A 68.237034 13.647405 0 0 0 258.2168 449.47266 A 68.237034 13.647405 0 0 0 326.45312 435.82422 A 68.237034 13.647405 0 0 0 311.5 427.30273 z "
           transform="matrix(0.26458334,0,0,0.26458334,43.338034,63.366707)"
           id="path826-1" />
      </g>
    </g>
  </g>
</svg>
