<?xml version="1.0" encoding="UTF-8" standalone="no"?>
<!-- Created with Inkscape (http://www.inkscape.org/) -->

<svg
   width="512"
   height="512"
   viewBox="0 0 135.46667 135.46667"
   version="1.1"
   id="svg7996"
   xml:space="preserve"
   inkscape:version="1.2.2 (732a01da63, 2022-12-09)"
   sodipodi:docname="Sniper's_Mark.svg"
   xmlns:inkscape="http://www.inkscape.org/namespaces/inkscape"
   xmlns:sodipodi="http://sodipodi.sourceforge.net/DTD/sodipodi-0.dtd"
   xmlns="http://www.w3.org/2000/svg"
   xmlns:svg="http://www.w3.org/2000/svg"><sodipodi:namedview
     id="namedview7998"
     pagecolor="#ffffff"
     bordercolor="#000000"
     borderopacity="0.25"
     inkscape:showpageshadow="2"
     inkscape:pageopacity="0.0"
     inkscape:pagecheckerboard="0"
     inkscape:deskcolor="#d1d1d1"
     inkscape:document-units="mm"
     showgrid="false"
     inkscape:zoom="0.65134574"
     inkscape:cx="335.45932"
     inkscape:cy="267.90687"
     inkscape:window-width="2560"
     inkscape:window-height="1361"
     inkscape:window-x="-9"
     inkscape:window-y="-9"
     inkscape:window-maximized="1"
     inkscape:current-layer="layer1" /><defs
     id="defs7993" /><g
     inkscape:label="Layer 1"
     inkscape:groupmode="layer"
     id="layer1"><g
       id="g17750"
       transform="matrix(1.1182091,0,0,1.1310666,-9.0893013,-5.2037376)"
       style="fill:#000000"><path
         id="path17569-0"
         style="fill:#000000;fill-opacity:1;stroke:none;stroke-width:0.264583;stroke-linecap:square;stroke-linejoin:bevel;stroke-dasharray:none;stroke-opacity:1"
         d="M 68.9684,7.4078166 65.302474,28.571383 C 48.233583,30.33716 34.773376,43.886631 33.120459,60.966821 l -0.166398,-0.03514 -21.986255,3.452503 21.986255,3.808553 0.197404,-0.03566 c 1.774394,16.95187 15.175518,30.346311 32.128271,32.112253 l 3.688664,21.29328 3.335197,-21.24057 C 89.444686,98.731815 103.07146,85.247445 104.84166,68.124007 l 21.59352,-3.74034 -21.55941,-3.385323 C 103.22856,43.745962 89.541349,30.105412 72.283443,28.517122 Z M 71.45662,33.99069 c 14.888941,1.285833 26.687665,13.108341 27.943514,27.999841 L 85.8144,64.841003 99.385148,67.281681 c -0.280362,9.934354 -6.994118,18.365564 -11.9941,21.545455 -4.103052,-2.953789 -8.26898,-5.780371 -12.943552,-8.257894 -1.06456,-0.611446 -0.951534,-2.090865 -0.253731,-2.908349 6.223469,-6.624091 6.53066,-23.148378 -5.760216,-23.271965 -8.355287,0.36393 -13.189607,10.670839 -4.954736,23.308138 1.239267,1.870816 0.402287,2.625674 -0.538469,3.195154 -4.595679,2.409278 -8.574773,5.281061 -12.655558,8.07651 C 43.389916,83.745835 39.018907,75.856103 38.247278,67.240857 L 51.588582,64.84152 38.227124,62.038074 C 39.452091,47.194243 51.157281,35.372264 65.98822,33.999992 l 2.522844,14.028601 z"
         sodipodi:nodetypes="cccccccccccccccccccccccccccccccc" /><path
         id="path17574"
         style="fill:#000000;fill-opacity:0.5;stroke:none;stroke-width:0.327923;stroke-linecap:square;stroke-linejoin:bevel;stroke-dasharray:none;stroke-opacity:1"
         d="m 68.910006,41.851709 a 22.560038,22.560041 0 0 0 -22.56038,22.56038 22.560038,22.560041 0 0 0 22.56038,22.559863 22.560038,22.560041 0 0 0 22.559863,-22.559863 22.560038,22.560041 0 0 0 -22.559863,-22.56038 z m -0.05116,2.091345 A 20.650578,20.650581 0 0 1 89.509265,64.593473 20.650578,20.650581 0 0 1 68.858846,85.244409 20.650578,20.650581 0 0 1 48.208427,64.593473 20.650578,20.650581 0 0 1 68.858846,43.943054 Z" /></g></g></svg>
