<?xml version="1.0" encoding="UTF-8" standalone="no"?>
<!-- Created with Inkscape (http://www.inkscape.org/) -->

<svg
   xmlns:dc="http://purl.org/dc/elements/1.1/"
   xmlns:cc="http://creativecommons.org/ns#"
   xmlns:rdf="http://www.w3.org/1999/02/22-rdf-syntax-ns#"
   xmlns:svg="http://www.w3.org/2000/svg"
   xmlns="http://www.w3.org/2000/svg"
   xmlns:sodipodi="http://sodipodi.sourceforge.net/DTD/sodipodi-0.dtd"
   xmlns:inkscape="http://www.inkscape.org/namespaces/inkscape"
   width="512"
   height="512"
   viewBox="0 0 135.46666 135.46667"
   version="1.1"
   id="svg5"
   inkscape:version="0.92.4 (5da689c313, 2019-01-14)"
   sodipodi:docname="Piercing_Spikes.svg">
  <metadata
     id="metadata13">
    <rdf:RDF>
      <cc:Work
         rdf:about="">
        <dc:format>image/svg+xml</dc:format>
        <dc:type
           rdf:resource="http://purl.org/dc/dcmitype/StillImage" />
        <dc:title></dc:title>
      </cc:Work>
    </rdf:RDF>
  </metadata>
  <sodipodi:namedview
     id="namedview7"
     pagecolor="#35b0d0"
     bordercolor="#66669b"
     borderopacity="1"
     inkscape:pageshadow="2"
     inkscape:pageopacity="0.50196078"
     inkscape:pagecheckerboard="true"
     inkscape:document-units="mm"
     showgrid="false"
     units="px"
     inkscape:snap-grids="false"
     inkscape:zoom="1"
     inkscape:cx="2.283052"
     inkscape:cy="255.79385"
     inkscape:window-width="1920"
     inkscape:window-height="1017"
     inkscape:window-x="-8"
     inkscape:window-y="-8"
     inkscape:window-maximized="1"
     inkscape:current-layer="layer8" />
  <defs
     id="defs2" />
  <g
     inkscape:groupmode="layer"
     id="layer8"
     inkscape:label="Guide 1"
     style="display:inline">
    <g
       id="g827"
       transform="matrix(1.1275386,0,0,1.1275386,-8.9509262,-9.5411147)">
      <path
         transform="scale(0.26458333)"
         d="m 257.05664,115.27344 -30.50781,334.25 -9.19141,-1.77539 -4.49804,-209.83789 -33.67774,201.31836 -6.7168,-1.77344 -9.06836,-138.60156 -20.96875,123.72656 -6.00976,-2.12696 -10.53711,-78.49804 -13.48438,56.91015 -6.02539,-9.08593 0.27149,-25.25 -9.601564,-26.00782 -9.648438,25.86524 -0.263672,15.375 -9.132812,8.61719 -10.240235,-10.13477 -18.74414,-7.14062 6.109375,18.00586 10.863281,12.00976 -15.386719,14.86133 -3.263672,15.62109 15.001954,-2.98633 27.070312,-27.05859 c 2.04926,4.84509 5.066889,9.81022 8.441406,14.21484 l -22.269531,22.10547 -11.521484,22.49024 22.759765,-9.73047 22.519534,-22.48047 c 3.62981,3.58654 7.42685,7.17434 11.99023,10.76172 l -0.26953,22 9.48828,14.50781 10.76172,-13.24023 0.50977,-12.75 c 36.72153,18.88822 75.68727,22.91291 115.23047,23.10351 39.54319,-0.1906 78.50697,-4.21529 115.22851,-23.10351 l 0.51172,12.75 10.76172,13.24023 9.48828,-14.50781 -0.26953,-22 c 4.56336,-3.58738 8.36045,-7.17518 11.99023,-10.76172 l 22.51953,22.48047 22.75782,9.73047 -11.51954,-22.49024 -22.26953,-22.10547 c 3.37452,-4.40462 6.39215,-9.36975 8.44141,-14.21484 l 27.07031,27.05859 15.00196,2.98633 -3.26368,-15.62109 -15.38867,-14.86133 10.86524,-12.00976 6.10937,-18.00586 -18.74414,7.14062 -10.24023,10.13477 -9.13282,-8.61719 -0.26367,-15.375 -9.64844,-25.86524 -9.60156,26.00782 0.27149,25.25 -6.02539,9.08593 -13.48438,-56.91015 -10.53711,78.49804 -6.00976,2.12696 -20.96875,-123.72656 -9.07032,138.60156 -6.71484,1.77344 -33.67773,-201.31836 -4.49805,209.83789 -9.19141,1.77539 z"
         style="display:inline;fill:#000005;fill-opacity:1;stroke:none;stroke-width:0.99999899px;stroke-linecap:butt;stroke-linejoin:miter;stroke-opacity:1"
         id="path19370"
         inkscape:connector-curvature="0" />
      <path
         id="path19977"
         d="m 58.922917,11.277763 3.91479,15.812482 -2.472692,45.553908 -3.431918,-32.837128 z"
         style="fill:#000000;fill-opacity:0.501859;stroke:none;stroke-width:0.26458299px;stroke-linecap:butt;stroke-linejoin:miter;stroke-opacity:1"
         inkscape:connector-curvature="0" />
      <path
         id="path19979"
         d="M 49.359587,35.777876 52.520029,58.324882 48.189853,88.816494 45.86773,70.292642 Z"
         style="fill:#000000;fill-opacity:0.501859;stroke:none;stroke-width:0.26458299px;stroke-linecap:butt;stroke-linejoin:miter;stroke-opacity:1"
         inkscape:connector-curvature="0" />
      <path
         id="path19981"
         d="M 37.554109,57.001944 40.533206,73.094225 37.616185,92.36177 34.632923,80.946701 Z"
         style="fill:#000000;fill-opacity:0.501859;stroke:none;stroke-width:0.26458299px;stroke-linecap:butt;stroke-linejoin:miter;stroke-opacity:1"
         inkscape:connector-curvature="0" />
      <path
         id="path19977-5"
         d="M 77.097653,11.277768 73.182863,27.09025 75.655555,72.644158 79.087473,39.80703 Z"
         style="display:inline;fill:#000000;fill-opacity:0.501859;stroke:none;stroke-width:0.26458299px;stroke-linecap:butt;stroke-linejoin:miter;stroke-opacity:1"
         inkscape:connector-curvature="0" />
      <path
         id="path19979-8"
         d="M 86.660983,35.777881 83.500541,58.324887 87.830717,88.816499 90.15284,70.292647 Z"
         style="display:inline;fill:#000000;fill-opacity:0.501859;stroke:none;stroke-width:0.26458299px;stroke-linecap:butt;stroke-linejoin:miter;stroke-opacity:1"
         inkscape:connector-curvature="0" />
      <path
         id="path19981-4"
         d="M 98.466461,57.001949 95.487364,73.09423 98.404385,92.361775 101.38765,80.946706 Z"
         style="display:inline;fill:#000000;fill-opacity:0.501859;stroke:none;stroke-width:0.26458299px;stroke-linecap:butt;stroke-linejoin:miter;stroke-opacity:1"
         inkscape:connector-curvature="0" />
    </g>
  </g>
</svg>
