<?xml version="1.0" encoding="UTF-8" standalone="no"?>
<svg
   xmlns:osb="http://www.openswatchbook.org/uri/2009/osb"
   xmlns:dc="http://purl.org/dc/elements/1.1/"
   xmlns:cc="http://creativecommons.org/ns#"
   xmlns:rdf="http://www.w3.org/1999/02/22-rdf-syntax-ns#"
   xmlns:svg="http://www.w3.org/2000/svg"
   xmlns="http://www.w3.org/2000/svg"
   xmlns:sodipodi="http://sodipodi.sourceforge.net/DTD/sodipodi-0.dtd"
   xmlns:inkscape="http://www.inkscape.org/namespaces/inkscape"
   width="512"
   height="512"
   viewBox="0 0 135.46667 135.46667"
   version="1.1"
   id="svg8"
   inkscape:version="0.92.4 (5da689c313, 2019-01-14)"
   sodipodi:docname="Defensive_Bombardment.svg">
  <defs
     id="defs2">
    <linearGradient
       id="linearGradient1099-6-5"
       osb:paint="gradient">
      <stop
         style="stop-color:#273839;stop-opacity:0.5"
         offset="0"
         id="stop1151" />
      <stop
         style="stop-color:#273839;stop-opacity:1"
         offset="1"
         id="stop1153" />
    </linearGradient>
  </defs>
  <sodipodi:namedview
     id="base"
     pagecolor="#ffffff"
     bordercolor="#666666"
     borderopacity="1.0"
     inkscape:pageopacity="0.0"
     inkscape:pageshadow="2"
     inkscape:zoom="0.7"
     inkscape:cx="14.878003"
     inkscape:cy="119.88408"
     inkscape:document-units="px"
     inkscape:current-layer="layer1"
     inkscape:document-rotation="0"
     showgrid="false"
     inkscape:pagecheckerboard="true"
     inkscape:object-nodes="true"
     fit-margin-top="0"
     fit-margin-left="0"
     fit-margin-right="0"
     fit-margin-bottom="0"
     inkscape:window-width="1920"
     inkscape:window-height="1017"
     inkscape:window-x="-8"
     inkscape:window-y="-8"
     inkscape:window-maximized="1"
     units="px" />
  <metadata
     id="metadata5">
    <rdf:RDF>
      <cc:Work
         rdf:about="">
        <dc:format>image/svg+xml</dc:format>
        <dc:type
           rdf:resource="http://purl.org/dc/dcmitype/StillImage" />
        <dc:title></dc:title>
      </cc:Work>
    </rdf:RDF>
  </metadata>
  <g
     inkscape:label="Layer 1"
     inkscape:groupmode="layer"
     id="layer1"
     transform="translate(-59.62574,-110.15787)">
    <g
       id="g867"
       transform="matrix(0.99710727,0,0,0.99710727,0.1826959,-0.2421085)">
      <path
         d=""
         id="path853"
         style="fill:#000000;stroke-width:0.26458299"
         inkscape:connector-curvature="0" />
      <path
         d=""
         id="path849"
         style="fill:#000000;stroke-width:0.26458299"
         inkscape:connector-curvature="0" />
      <path
         sodipodi:nodetypes="ccccccccccccccccccccc"
         inkscape:connector-curvature="0"
         id="path871"
         d="m 114.92266,193.41934 7.87806,10.30023 3.98685,-80.84082 3.59217,80.84082 8.14213,-10.30023 -11.7343,28.68245 z M 79.286927,179.729 l 5.941552,7.2726 2.975172,-53.51171 3.033184,53.51171 6.2771,-7.01464 -9.310284,21.42426 z m 78.217863,0 5.94003,7.2726 2.95538,-53.51171 3.08759,53.51171 6.2532,-7.2726 -9.34079,21.67687 z"
         style="fill:#000000;fill-opacity:1;stroke-width:0.383412" />
      <path
         sodipodi:nodetypes="ccccccccccc"
         inkscape:connector-curvature="0"
         id="path818"
         transform="matrix(0.26458334,0,0,0.26458334,59.62574,110.15787)"
         d="m 143.26758,320.66602 c -1.32188,-0.11859 -1.53611,4.98248 0,5.20117 27.79332,3.81055 45.52298,11.89457 45.56836,20.77734 3.6e-4,12.72417 -35.72876,23.03917 -79.80274,23.03906 -44.073979,1.1e-4 -79.803094,-10.31489 -79.802731,-23.03906 0.03249,-8.47252 16.170008,-16.25624 42.019531,-20.26758 1.78049,-0.13374 1.83093,-5.55092 0,-5.39062 -35.892479,4.34877 -59.247293,14.48884 -59.253906,25.72656 -0.0015,15.41198 43.274168,27.90613 96.658206,27.90625 53.38404,-1.2e-4 96.6597,-12.49427 96.6582,-27.90625 -0.0114,-11.55314 -24.68107,-21.90963 -62.04492,-26.04687 z"
         style="fill:#000000;fill-opacity:1;stroke:none;stroke-width:0.55415034;stroke-miterlimit:4;stroke-dasharray:none;stroke-opacity:1" />
      <path
         sodipodi:nodetypes="ccccccccccc"
         inkscape:connector-curvature="0"
         id="path818-7"
         d="m 141.15519,210.88551 c -0.57663,-0.0518 -0.67007,2.17351 0,2.2689 12.12428,1.66229 19.85848,5.18878 19.87828,9.0637 1.5e-4,5.55065 -15.58594,10.05036 -34.81231,10.0503 -19.22636,6e-5 -34.812455,-4.49965 -34.812297,-10.0503 0.01418,-3.69597 7.053829,-7.09145 18.330157,-8.84131 0.7767,-0.0584 0.79871,-2.42149 0,-2.35155 -15.657356,1.89707 -25.845411,6.32045 -25.848296,11.22268 -6.55e-4,6.72316 18.877466,12.17346 42.165156,12.17352 23.28768,-6e-5 42.1658,-5.45036 42.16515,-12.17352 -0.005,-5.03982 -10.76661,-9.55764 -27.06584,-11.36242 z"
         style="fill:#000000;fill-opacity:1;stroke:none;stroke-width:0.24173665;stroke-miterlimit:4;stroke-dasharray:none;stroke-opacity:1" />
      <path
         sodipodi:nodetypes="ccccccccccc"
         inkscape:connector-curvature="0"
         id="path818-78"
         d="m 175.87491,195.00072 c -0.34975,-0.0314 -0.40643,1.31828 0,1.37614 7.35365,1.00821 12.04462,3.14711 12.05663,5.49734 9e-5,3.3666 -9.45324,6.09578 -21.11448,6.09575 -11.66124,3e-5 -21.11457,-2.72915 -21.11447,-6.09575 0.009,-2.24169 4.27831,-4.30113 11.11766,-5.36246 0.47109,-0.0354 0.48444,-1.46869 0,-1.42627 -9.49655,1.15061 -15.67584,3.8335 -15.67759,6.80682 -4e-4,4.07775 11.44962,7.38349 25.57415,7.38353 14.12453,-4e-5 25.57455,-3.30578 25.57415,-7.38353 -0.003,-3.05677 -6.5302,-5.79693 -16.41605,-6.89157 z"
         style="fill:#000000;fill-opacity:1;stroke:none;stroke-width:0.14661895;stroke-miterlimit:4;stroke-dasharray:none;stroke-opacity:1" />
    </g>
  </g>
</svg>
