<?xml version="1.0" encoding="UTF-8" standalone="no"?>
<svg
   xmlns:dc="http://purl.org/dc/elements/1.1/"
   xmlns:cc="http://creativecommons.org/ns#"
   xmlns:rdf="http://www.w3.org/1999/02/22-rdf-syntax-ns#"
   xmlns:svg="http://www.w3.org/2000/svg"
   xmlns="http://www.w3.org/2000/svg"
   xmlns:sodipodi="http://sodipodi.sourceforge.net/DTD/sodipodi-0.dtd"
   xmlns:inkscape="http://www.inkscape.org/namespaces/inkscape"
   width="512"
   height="512"
   viewBox="0 0 135.46667 135.46667"
   version="1.1"
   id="svg8"
   inkscape:version="0.92.4 (5da689c313, 2019-01-14)"
   sodipodi:docname="Missile_Swarm.svg">
  <defs
     id="defs2" />
  <sodipodi:namedview
     id="base"
     pagecolor="#ffffff"
     bordercolor="#666666"
     borderopacity="1.0"
     inkscape:pageopacity="0.0"
     inkscape:pageshadow="2"
     inkscape:zoom="0.98994949"
     inkscape:cx="139.38371"
     inkscape:cy="220.07005"
     inkscape:document-units="px"
     inkscape:current-layer="layer1"
     inkscape:document-rotation="0"
     showgrid="false"
     inkscape:pagecheckerboard="true"
     inkscape:object-nodes="false"
     fit-margin-top="0"
     fit-margin-left="0"
     fit-margin-right="0"
     fit-margin-bottom="0"
     inkscape:window-width="1920"
     inkscape:window-height="1017"
     inkscape:window-x="-8"
     inkscape:window-y="-8"
     inkscape:window-maximized="1"
     units="px" />
  <metadata
     id="metadata5">
    <rdf:RDF>
      <cc:Work
         rdf:about="">
        <dc:format>image/svg+xml</dc:format>
        <dc:type
           rdf:resource="http://purl.org/dc/dcmitype/StillImage" />
        <dc:title></dc:title>
      </cc:Work>
    </rdf:RDF>
  </metadata>
  <g
     inkscape:label="Layer 1"
     inkscape:groupmode="layer"
     id="layer1"
     transform="translate(-59.62574,-110.15787)">
    <path
       style="fill:#000000;stroke-width:0.264583"
       id="path853"
       d="" />
    <path
       style="fill:#000000;stroke-width:0.264583"
       id="path849"
       d="" />
    <g
       id="g1115"
       transform="matrix(1.5675944,0,0,1.6032042,-21.928669,-63.87868)">
      <g
         id="g1101">
        <path
           id="path876"
           style="fill:#000014;fill-opacity:1;stroke:none;stroke-width:0.999999px;stroke-linecap:butt;stroke-linejoin:miter;stroke-opacity:1"
           d="M 423.03497,478.74898 H 294.46484 l -8.03712,9.64536 v 161.4274 l 8.39455,8.74961 h 128.2127 l 8.39433,-8.74961 v -161.4274 z m -64.99981,3.0186 c 2.76142,0 5,2.23858 5,5 0,2.76142 -2.23858,5 -5,5 -2.76142,0 -5,-2.23858 -5,-5 0,-2.76142 2.23858,-5 5,-5 z m 36.68164,2.71289 c 12.97869,0 23.5,10.52131 23.5,23.5 0,12.97869 -10.52131,23.5 -23.5,23.5 -12.97869,0 -23.5,-10.52131 -23.5,-23.5 0,-12.97869 10.52131,-23.5 23.5,-23.5 z m -72.35157,0.25195 c 12.97869,0 23.5,10.52131 23.5,23.5 0,12.97869 -10.52131,23.5 -23.5,23.5 -12.97869,0 -23.5,-10.52131 -23.5,-23.5 0,-12.97869 10.52131,-23.5 23.5,-23.5 z M 357.87305,528.75 h 0.0117 c 4.97056,0 9,4.02944 9,9 0,4.97056 -4.02944,9 -9,9 -4.97056,0 -9,-4.02944 -9,-9 0,-4.96599 4.02229,-8.99353 8.98828,-9 z m 65.47461,4.77734 c 2.76142,0 5,2.23858 5,5 0,2.76142 -2.23858,5 -5,5 -2.76142,0 -5,-2.23858 -5,-5 0,-2.76142 2.23858,-5 5,-5 z m -128.13086,0.01 c 2.76142,0 5,2.23858 5,5 0,2.76142 -2.23858,5 -5,5 -2.76142,0 -5,-2.23858 -5,-5 0,-2.76142 2.23858,-5 5,-5 z m 99.52539,11.17383 h 0.002 c 0.0749,-3.6e-4 0.14974,-3.6e-4 0.22461,0 12.97869,0 23.5,10.52131 23.5,23.5 0,12.97869 -10.52131,23.5 -23.5,23.5 -12.97869,0 -23.5,-10.52131 -23.5,-23.5 -6e-4,-12.89073 10.38331,-23.37572 23.27344,-23.5 z m -72.50391,0.63086 c 12.97869,0 23.5,10.52131 23.5,23.5 0,12.97869 -10.52131,23.5 -23.5,23.5 -12.97869,0 -23.5,-10.52131 -23.5,-23.5 0,-12.97869 10.52131,-23.5 23.5,-23.5 z m 35.66211,45.37304 h 0.01 c 4.97056,0 9,4.02944 9,9 0,4.97056 -4.02944,9 -9,9 -4.97056,0 -9,-4.02944 -9,-9 0,-4.96675 4.02348,-8.99461 8.99023,-9 z m 65.56055,2.97071 c 2.76142,0 5,2.23858 5,5 0,2.76142 -2.23858,5 -5,5 -2.76142,0 -5,-2.23858 -5,-5 0,-2.76142 2.23858,-5 5,-5 z m -128.38672,0.11328 c 2.76142,0 5,2.23858 5,5 0,2.76142 -2.23858,5 -5,5 -2.76142,0 -5,-2.23858 -5,-5 0,-2.76142 2.23858,-5 5,-5 z m 99.16406,11.90039 c 0.0755,-3.6e-4 0.15104,-3.6e-4 0.22656,0 12.97869,0 23.5,10.52131 23.5,23.5 0,12.97869 -10.52131,23.5 -23.5,23.5 -12.97869,0 -23.5,-10.52131 -23.5,-23.5 -6e-4,-12.89073 10.38331,-23.37572 23.27344,-23.5 z m -72.33789,0.14062 c 0.0755,-3.6e-4 0.15104,-3.6e-4 0.22656,0 12.97869,0 23.5,10.52131 23.5,23.5 0,12.97869 -10.52131,23.5 -23.5,23.5 -12.97869,0 -23.5,-10.52131 -23.5,-23.5 -6e-4,-12.89073 10.38331,-23.37572 23.27344,-23.5 z m 35.98828,40.0586 c 0.0228,-1.5e-4 0.0456,-1.5e-4 0.0684,0 2.76295,-2.6e-4 5.00313,2.14723 5.00391,4.79687 3.5e-4,2.65041 -2.24016,4.79909 -5.00391,4.79883 -2.76375,2.6e-4 -5.00426,-2.14842 -5.00391,-4.79883 5.2e-4,-2.62425 2.19933,-4.76128 4.93555,-4.79687 z"
           sodipodi:nodetypes="cccccccccssssssssssssssssssssssssssssssssscsscssssssssssssssssssssssccssccccssccsccccs"
           transform="scale(0.26458333)" />
        <g
           id="g1094">
          <path
             style="fill:#000014;fill-opacity:1;stroke:none;stroke-width:0.264583px;stroke-linecap:butt;stroke-linejoin:miter;stroke-opacity:1"
             d="m 110.14845,113.32228 -2.83974,3.24064 c -34.091898,-10.528 -56.397125,22.71211 -44.989888,48.65992 l 2.929316,-1.98437 -0.377976,9.87462 -9.638392,-3.30729 3.354538,-2.12611 c -3.956095,-8.27575 -4.413739,-17.47756 -2.315104,-27.35603 l -2.220611,-1.98438 c 4.349183,-14.24075 15.721162,-22.89764 24.757441,-27.02529 l 2.031622,1.84263 c 8.453623,-3.1749 17.921734,-3.8597 29.308794,0.16566 z"
             id="path859"
             sodipodi:nodetypes="cccccccccccc" />
          <path
             style="fill:#000014;fill-opacity:1;stroke:none;stroke-width:0.264583px;stroke-linecap:butt;stroke-linejoin:miter;stroke-opacity:1"
             d="m 79.373921,187.96716 2.923262,-3.42439 c 33.492497,11.32784 59.508207,-21.04216 45.712917,-49.88883 l -3.26341,2.45209 0.37798,-9.87462 9.63839,3.30729 -3.35454,2.12611 c 3.9561,8.27575 5.6212,18.18765 2.78758,28.86793 l 2.22061,1.98438 c -4.34918,14.24075 -15.72116,22.89764 -24.75744,27.02529 l -2.03162,-1.84263 c -8.45363,3.1749 -20.756551,3.38723 -30.253729,-0.73262 z"
             id="path859-1"
             sodipodi:nodetypes="cccccccccccc" />
          <path
             id="path1027"
             style="fill:#000014;fill-opacity:1;stroke:none;stroke-width:0.999999px;stroke-linecap:butt;stroke-linejoin:miter;stroke-opacity:1"
             d="m 285.36914,469.4707 -8.46289,9.59571 v 179.30078 l 8.20898,9.97461 h 147.11133 l 8.95703,-9.97461 V 479.06641 l -8.45898,-9.59571 z m 6.05274,4.65625 h 134.98828 l 9.34375,10.9336 V 652.6875 l -9.34375,9.8457 -135.35938,-0.125 -9.01953,-9.7207 V 485.06055 Z"
             transform="scale(0.26458333)" />
        </g>
      </g>
      <path
         id="path1029"
         style="fill:#000014;stroke-width:0.282867;stroke-linecap:round;stroke-linejoin:round;fill-opacity:1"
         d="m 394.45508,610.58789 a 19.0665,19.0665 0 0 0 -19.06641,19.06641 19.0665,19.0665 0 0 0 19.06641,19.0664 19.0665,19.0665 0 0 0 19.0664,-19.0664 19.0665,19.0665 0 0 0 -19.0664,-19.06641 z m 0.34375,11.00977 a 7.9999996,7.9999996 0 0 1 8,8 7.9999996,7.9999996 0 0 1 -8,8 7.9999996,7.9999996 0 0 1 -8,-8 7.9999996,7.9999996 0 0 1 8,-8 z m 0.0156,3.94922 a 3.9999999,3.9999999 0 0 0 -3.93945,4 3.9999999,3.9999999 0 0 0 4,4 3.9999999,3.9999999 0 0 0 4,-4 3.9999999,3.9999999 0 0 0 -4,-4 3.9999999,3.9999999 0 0 0 -0.0605,0 z"
         transform="scale(0.26458333)" />
      <path
         id="path1029-4"
         style="fill:#000014;stroke-width:0.0748419;stroke-linecap:round;stroke-linejoin:round;fill-opacity:1"
         d="m 85.292389,161.5979 a 5.0446781,5.0446781 0 0 0 -5.044654,5.04465 5.0446781,5.0446781 0 0 0 5.044654,5.04465 5.0446781,5.0446781 0 0 0 5.044652,-5.04465 5.0446781,5.0446781 0 0 0 -5.044652,-5.04465 z m 0.09095,2.913 a 2.1166666,2.1166666 0 0 1 2.116667,2.11667 2.1166666,2.1166666 0 0 1 -2.116666,2.11666 2.1166666,2.1166666 0 0 1 -2.116667,-2.11666 2.1166666,2.1166666 0 0 1 2.116666,-2.11667 z m 0.0041,1.0449 a 1.0583333,1.0583333 0 0 0 -1.042315,1.05833 1.0583333,1.0583333 0 0 0 1.058334,1.05833 1.0583333,1.0583333 0 0 0 1.058333,-1.05833 1.0583333,1.0583333 0 0 0 -1.058333,-1.05833 1.0583333,1.0583333 0 0 0 -0.01601,0 z" />
      <path
         id="path1029-0"
         style="fill:#000014;stroke-width:0.0748419;stroke-linecap:round;stroke-linejoin:round;fill-opacity:1"
         d="m 85.258981,145.39468 a 5.0446781,5.0446781 0 0 0 -5.044655,5.04465 5.0446781,5.0446781 0 0 0 5.044655,5.04465 5.0446781,5.0446781 0 0 0 5.044651,-5.04465 5.0446781,5.0446781 0 0 0 -5.044651,-5.04465 z m 0.09095,2.913 a 2.1166666,2.1166666 0 0 1 2.116667,2.11667 2.1166666,2.1166666 0 0 1 -2.116667,2.11666 2.1166666,2.1166666 0 0 1 -2.116666,-2.11666 2.1166666,2.1166666 0 0 1 2.116666,-2.11667 z m 0.0041,1.0449 a 1.0583333,1.0583333 0 0 0 -1.042315,1.05833 1.0583333,1.0583333 0 0 0 1.058333,1.05833 1.0583333,1.0583333 0 0 0 1.058334,-1.05833 1.0583333,1.0583333 0 0 0 -1.058334,-1.05833 1.0583333,1.0583333 0 0 0 -0.01601,0 z" />
      <path
         id="path1029-7"
         style="fill:#000014;stroke-width:0.0748419;stroke-linecap:round;stroke-linejoin:round;fill-opacity:1"
         d="m 104.40216,145.42809 a 5.0446781,5.0446781 0 0 0 -5.044654,5.04465 5.0446781,5.0446781 0 0 0 5.044654,5.04465 5.0446781,5.0446781 0 0 0 5.04465,-5.04465 5.0446781,5.0446781 0 0 0 -5.04465,-5.04465 z m 0.091,2.913 a 2.1166666,2.1166666 0 0 1 2.11666,2.11667 2.1166666,2.1166666 0 0 1 -2.11666,2.11666 2.1166666,2.1166666 0 0 1 -2.11667,-2.11666 2.1166666,2.1166666 0 0 1 2.11667,-2.11667 z m 0.004,1.0449 a 1.0583333,1.0583333 0 0 0 -1.04232,1.05833 1.0583333,1.0583333 0 0 0 1.05834,1.05833 1.0583333,1.0583333 0 0 0 1.05833,-1.05833 1.0583333,1.0583333 0 0 0 -1.05833,-1.05833 1.0583333,1.0583333 0 0 0 -0.016,0 z" />
      <path
         id="path1029-2"
         style="fill:#000014;stroke-width:0.0748419;stroke-linecap:round;stroke-linejoin:round;fill-opacity:1"
         d="m 104.40216,129.35851 a 5.0446781,5.0446781 0 0 0 -5.044654,5.04465 5.0446781,5.0446781 0 0 0 5.044654,5.04465 5.0446781,5.0446781 0 0 0 5.04465,-5.04465 5.0446781,5.0446781 0 0 0 -5.04465,-5.04465 z m 0.091,2.913 a 2.1166666,2.1166666 0 0 1 2.11666,2.11666 2.1166666,2.1166666 0 0 1 -2.11666,2.11667 2.1166666,2.1166666 0 0 1 -2.11667,-2.11667 2.1166666,2.1166666 0 0 1 2.11667,-2.11666 z m 0.004,1.0449 a 1.0583333,1.0583333 0 0 0 -1.04232,1.05833 1.0583333,1.0583333 0 0 0 1.05834,1.05833 1.0583333,1.0583333 0 0 0 1.05833,-1.05833 1.0583333,1.0583333 0 0 0 -1.05833,-1.05833 1.0583333,1.0583333 0 0 0 -0.016,0 z" />
      <path
         id="path1029-74"
         style="fill:#000000;stroke-width:0.0748419;stroke-linecap:round;stroke-linejoin:round;fill-opacity:1"
         d="m 85.225572,129.42533 a 5.0446781,5.0446781 0 0 0 -5.044654,5.04466 5.0446781,5.0446781 0 0 0 5.044654,5.04465 5.0446781,5.0446781 0 0 0 5.044652,-5.04465 5.0446781,5.0446781 0 0 0 -5.044652,-5.04466 z m 0.09095,2.913 a 2.1166666,2.1166666 0 0 1 2.116668,2.11667 2.1166666,2.1166666 0 0 1 -2.116667,2.11667 2.1166666,2.1166666 0 0 1 -2.116667,-2.11667 2.1166666,2.1166666 0 0 1 2.116666,-2.11667 z m 0.0041,1.0449 a 1.0583333,1.0583333 0 0 0 -1.042314,1.05833 1.0583333,1.0583333 0 0 0 1.058333,1.05834 1.0583333,1.0583333 0 0 0 1.058333,-1.05834 1.0583333,1.0583333 0 0 0 -1.058333,-1.05833 1.0583333,1.0583333 0 0 0 -0.01601,0 z" />
    </g>
  </g>
</svg>
