<?xml version="1.0" encoding="UTF-8" standalone="no"?>
<svg
   width="512"
   height="512"
   viewBox="0 0 135.46667 135.46667"
   version="1.1"
   id="svg8"
   inkscape:version="1.2.2 (732a01da63, 2022-12-09)"
   sodipodi:docname="The_Motherlode.svg"
   xmlns:inkscape="http://www.inkscape.org/namespaces/inkscape"
   xmlns:sodipodi="http://sodipodi.sourceforge.net/DTD/sodipodi-0.dtd"
   xmlns="http://www.w3.org/2000/svg"
   xmlns:svg="http://www.w3.org/2000/svg"
   xmlns:rdf="http://www.w3.org/1999/02/22-rdf-syntax-ns#"
   xmlns:cc="http://creativecommons.org/ns#"
   xmlns:dc="http://purl.org/dc/elements/1.1/">
  <defs
     id="defs2">
    <linearGradient
       id="linearGradient1099-6-5"
       inkscape:swatch="gradient">
      <stop
         style="stop-color:#273839;stop-opacity:0.5"
         offset="0"
         id="stop1151" />
      <stop
         style="stop-color:#273839;stop-opacity:1"
         offset="1"
         id="stop1153" />
    </linearGradient>
  </defs>
  <sodipodi:namedview
     id="base"
     pagecolor="#ffffff"
     bordercolor="#666666"
     borderopacity="1.0"
     inkscape:pageopacity="0.0"
     inkscape:pageshadow="2"
     inkscape:zoom="0.7"
     inkscape:cx="95"
     inkscape:cy="157.85714"
     inkscape:document-units="px"
     inkscape:current-layer="g1320"
     inkscape:document-rotation="0"
     showgrid="false"
     inkscape:pagecheckerboard="true"
     inkscape:object-nodes="true"
     fit-margin-top="0"
     fit-margin-left="0"
     fit-margin-right="0"
     fit-margin-bottom="0"
     inkscape:window-width="2560"
     inkscape:window-height="1361"
     inkscape:window-x="-9"
     inkscape:window-y="-9"
     inkscape:window-maximized="1"
     units="px"
     inkscape:showpageshadow="2"
     inkscape:deskcolor="#d1d1d1" />
  <metadata
     id="metadata5">
    <rdf:RDF>
      <cc:Work
         rdf:about="">
        <dc:format>image/svg+xml</dc:format>
        <dc:type
           rdf:resource="http://purl.org/dc/dcmitype/StillImage" />
        <dc:title />
      </cc:Work>
    </rdf:RDF>
  </metadata>
  <g
     inkscape:label="Layer 1"
     inkscape:groupmode="layer"
     id="layer1"
     transform="translate(-59.62574,-110.15787)">
    <path
       style="fill:#000000;stroke-width:0.264583"
       id="path853"
       d="" />
    <path
       style="fill:#000000;stroke-width:0.264583"
       id="path849"
       d="" />
    <g
       id="g1061"
       transform="translate(9.0714285,1.8898814)">
      <g
         id="g1320"
         transform="translate(7.2162774,44.901282)">
        <path
           style="fill:#000000;fill-opacity:1;stroke-width:0.390388"
           d="m 99.720422,186.9259 c -18.356202,-1.04212 -33.666903,-4.27741 -42.942624,-9.07415 -5.562357,-2.87646 -7.39122,-5.23301 -8.533096,-10.99516 -0.780485,-3.93852 -2.018638,-14.19534 -1.67171,-13.84841 0.10525,0.10524 0.920255,2.0784 1.811113,4.38478 0.890857,2.30636 1.802892,4.1934 2.026744,4.1934 0.238536,0 0.299834,-0.36358 0.14809,-0.87837 -0.68154,-2.31214 -0.708002,-22.01113 -0.02862,-21.30514 0.06703,0.0696 0.491166,2.30756 0.942542,4.97313 1.731394,10.22462 3.769717,14.20037 6.090521,11.87958 1.544434,-1.54444 1.769458,-4.53959 0.596389,-7.93819 -0.406818,-1.17863 -0.673506,-2.20912 -0.59264,-2.28999 0.08087,-0.0809 1.091564,0.7975 2.245995,1.95193 1.867956,1.86795 2.771153,3.47999 3.632032,6.48248 0.236244,0.82395 1.672916,0.5415 2.327552,-0.45761 0.527038,-0.80437 0.558477,-1.38492 0.210487,-3.88688 -0.225003,-1.6177 -0.272444,-3.31068 -0.105427,-3.76217 0.239381,-0.64711 0.868245,0.59524 2.970375,5.86812 1.481782,3.71684 2.514939,6.82851 2.325152,7.00295 -0.187854,0.17265 -1.04425,0.53478 -1.903103,0.80474 -4.177346,1.31307 -7.986232,3.91163 -9.188875,6.26901 -0.833521,1.63385 -0.997401,3.88427 -0.368438,5.0595 0.508187,0.94956 3.511123,2.7193 4.61417,2.7193 0.782646,0 0.844074,-0.19372 0.844074,-2.66186 0,-2.68503 0.919465,-6.70744 1.533227,-6.70744 0.182499,0 0.439867,0.57596 0.571926,1.2799 0.732603,3.9051 9.63574,13.44557 11.779639,12.62288 1.444816,-0.55443 -0.523889,-5.20447 -3.944029,-9.31572 -1.20568,-1.44932 -2.105567,-2.63512 -1.99975,-2.63512 0.105814,0 0.953575,0.32747 1.883907,0.72771 2.629377,1.1312 5.608617,3.71507 8.446247,7.3254 l 2.596502,3.30353 0.656394,-2.65282 c 0.361014,-1.45905 1.08279,-3.78744 1.603945,-5.17422 l 0.947559,-2.52138 0.25852,1.88607 c 0.49967,3.64549 5.14742,11.15964 6.90263,11.15964 0.65023,0 0.77644,-0.26721 0.78363,-1.65913 0.004,-0.91253 0.35607,-2.42495 0.78078,-3.36093 0.42471,-0.93598 0.77221,-1.76134 0.77221,-1.83414 0,-0.0728 -1.06319,-0.43068 -2.36264,-0.79529 -2.96671,-0.83241 -5.44512,-2.56036 -5.44512,-3.79632 0,-2.12797 3.8757,-4.17593 9.687928,-5.11921 5.93346,-0.96295 7.87951,-1.07864 7.87951,-0.46842 0,0.39124 -1.05253,0.67251 -3.80627,1.01712 -5.035848,0.63021 -8.453218,1.76807 -9.676598,3.22199 -0.72558,0.86231 -0.86794,1.30881 -0.58553,1.8365 0.46184,0.86295 1.73681,1.70251 3.52794,2.32312 1.32877,0.4604 1.40101,0.43265 2.626258,-1.00894 l 1.25992,-1.48237 -0.4148,1.51795 c -0.516,1.88828 -0.27603,2.06888 3.15272,2.37292 1.40251,0.12436 3.20191,0.29228 3.99869,0.37315 0.80886,0.0821 1.5945,-0.0511 1.77881,-0.30175 0.18157,-0.24684 1.00515,-2.18723 1.83016,-4.31196 l 1.50003,-3.8632 0.703,1.32567 c 0.38665,0.72912 1.17455,2.59931 1.75089,4.15597 0.57634,1.55667 1.16777,2.83031 1.3143,2.83031 0.43008,0 4.83846,-0.80658 5.56272,-1.01778 0.49282,-0.14372 0.69364,-0.71546 0.78076,-2.22297 l 0.11732,-2.02947 0.88869,1.66382 0.8887,1.66383 1.14926,-0.5943 c 1.83538,-0.94912 2.12301,-1.88604 0.99172,-3.2305 -1.2211,-1.4512 -4.80065,-2.65231 -9.651,-3.23839 -3.92941,-0.47479 -4.03154,-0.50541 -3.6649,-1.09865 0.45712,-0.73963 9.89228,0.64217 13.17796,1.92994 2.47169,0.96874 4.22251,2.51874 4.22251,3.73819 0,0.99919 -1.72375,2.46215 -4.01523,3.40775 l -1.47771,0.6098 0.93917,1.86851 c 0.51653,1.02768 1.06993,2.3077 1.22978,2.84449 0.37641,1.26402 1.72845,2.73309 2.51366,2.73123 1.5082,-0.003 3.15818,-1.59099 4.55035,-4.37781 1.52482,-3.05233 3.11349,-5.3804 3.67161,-5.3804 0.1897,0 -0.007,1.04192 -0.437,2.31538 -0.43005,1.27347 -0.72597,2.89846 -0.65758,3.61109 l 0.12434,1.2957 2.41504,-0.002 c 1.83952,-0.002 2.67604,-0.19766 3.51027,-0.82051 1.38609,-1.03487 1.97345,-2.9227 1.34111,-4.31052 -0.25513,-0.55995 -0.40906,-1.07289 -0.34207,-1.13989 0.067,-0.0669 1.2031,0.41413 2.52468,1.06916 3.18143,1.57687 6.89627,1.94374 8.28449,0.81816 0.76444,-0.61981 0.97626,-1.21136 1.09944,-3.07051 0.0901,-1.35887 -0.0824,-3.06287 -0.42066,-4.15712 -0.3153,-1.01989 -0.44026,-1.85434 -0.27771,-1.85434 0.31005,0 3.5365,3.47317 4.93135,5.30842 1.11776,1.4707 2.11405,1.06069 2.11405,-0.87002 0,-2.10917 -1.58123,-4.50681 -4.05519,-6.14893 -2.01569,-1.338 -7.45249,-3.75495 -8.44642,-3.75495 -0.25559,0 -0.37788,-0.21959 -0.27177,-0.48798 3.60459,-9.11646 4.0027,-9.95943 5.39281,-11.41883 1.6169,-1.6975 2.85752,-4.18028 3.31623,-6.63658 0.29043,-1.55524 0.29283,-1.55703 0.59491,-0.44219 0.16682,0.61564 0.77171,4.39264 1.3442,8.39333 1.0517,7.3495 1.44415,8.86606 2.17713,8.41305 1.42593,-0.88128 4.28889,-11.95859 5.23834,-20.26806 0.23502,-2.05688 0.31397,-2.22339 0.64776,-1.36635 1.11955,2.87448 2.35901,12.66703 2.87826,22.74004 0.14111,2.73759 0.38796,4.97744 0.54855,4.97744 0.43631,0 1.52101,-4.16423 2.1556,-8.27549 l 0.56051,-3.63132 -0.1995,5.07504 c -0.39281,9.99276 -1.8129,15.626 -4.62799,18.35841 -8.77302,8.51534 -40.51691,13.98659 -71.081788,12.25135 z m 5.556448,-7.85938 c 1.62489,-0.81151 4.00805,-3.05466 4.00805,-3.77257 0,-0.17555 -1.66263,-0.43606 -3.69474,-0.5789 -2.03209,-0.14284 -3.96451,-0.36325 -4.29425,-0.48978 -0.49831,-0.19122 -0.59953,0.16777 -0.59953,2.12615 0,3.64965 1.23885,4.38398 4.58047,2.7151 z m 17.49663,-0.89087 c 0.24403,-0.85765 0.55795,-2.14746 0.69758,-2.86623 l 0.25389,-1.30684 -2.43778,0.26137 c -3.76187,0.40334 -3.81965,0.43453 -3.34199,1.80476 0.56278,1.61439 2.84795,3.96227 3.69725,3.79871 0.41805,-0.0806 0.86121,-0.74334 1.13105,-1.69177 z m -15.83526,-22.90369 c -2.43643,-6.0818 -4.67091,-11.64471 -4.96551,-12.36201 -0.80662,-1.96398 -0.096,-1.25459 3.25106,3.24529 1.67268,2.24881 3.09953,4.03045 3.17077,3.95922 0.16207,-0.16207 2.8423,-69.616772 2.8423,-73.654521 0,-0.918306 0.0769,-1.592757 0.17087,-1.498781 0.0939,0.09397 0.53405,9.917093 0.97796,21.829146 1.53521,41.196836 2.01885,53.259156 2.14033,53.380616 0.0671,0.0671 1.57343,-1.82292 3.34742,-4.20004 1.774,-2.37712 3.27781,-4.26969 3.3418,-4.2057 0.12278,0.12278 -8.91428,22.89772 -9.50369,23.95092 -0.24917,0.44526 -1.55923,-2.42121 -4.77331,-10.44414 z m -34.322479,-1.87858 c -1.986167,-4.97405 -3.539402,-9.11554 -3.451631,-9.2033 0.08776,-0.0878 1.189546,1.24061 2.448393,2.95196 1.258846,1.71135 2.333917,3.06643 2.389046,3.01131 0.05513,-0.0551 0.55735,-12.65715 1.116049,-28.00451 0.558698,-15.34734 1.06804,-28.079932 1.13187,-28.294648 0.145261,-0.488623 0.432627,6.343708 1.428507,33.963688 0.43354,12.02392 0.82965,22.00066 0.88024,22.17055 0.05059,0.16987 1.203299,-1.19159 2.561567,-3.0255 1.358268,-1.83391 2.539092,-3.33438 2.624056,-3.33438 0.08497,0 -0.178071,0.83445 -0.584519,1.85435 -4.678135,11.73864 -6.397141,15.99141 -6.641643,16.43124 -0.179575,0.32304 -1.671323,-2.93453 -3.901935,-8.52076 z m 69.567999,-0.47401 c -1.98132,-4.97636 -3.55035,-9.09999 -3.48673,-9.1636 0.0636,-0.0636 1.14754,1.28713 2.40872,3.00165 1.26118,1.71454 2.40958,3.11733 2.55198,3.11733 0.14241,0 0.38324,-3.73308 0.53519,-8.29573 0.70446,-21.15331 1.77007,-46.470232 1.96412,-46.664298 0.11809,-0.118074 0.2169,1.000398 0.21959,2.485489 0.009,4.664349 1.90879,52.176019 2.09431,52.361539 0.0972,0.0972 1.18253,-1.1598 2.41194,-2.79322 1.22941,-1.63342 2.29568,-2.90948 2.36948,-2.83568 0.20519,0.20519 -6.92971,17.84456 -7.21573,17.83918 -0.13776,-0.002 -1.87155,-4.07627 -3.85287,-9.05266 z m -60.466068,4.12499 c 0.147621,-0.40052 0.909255,-2.36006 1.692521,-4.35453 1.414601,-3.60205 1.431859,-3.6246 2.580899,-3.37224 1.146615,0.25184 1.153884,0.24255 0.827278,-1.05833 -0.851455,-3.39142 0.223552,-7.40188 3.644342,-13.59572 1.79332,-3.24708 1.84274,-3.29728 1.93458,-1.96583 0.37328,5.41183 3.41076,11.72813 6.58271,13.68851 0.98422,0.60827 1.550338,1.52108 2.654838,4.28065 0.77212,1.92914 1.40385,3.68199 1.40385,3.89521 0,0.21323 -1.01012,0.38914 -2.24472,0.3909 -3.942798,0.006 -15.194183,1.57658 -18.602462,2.59732 -0.596043,0.17851 -0.689369,0.0789 -0.473836,-0.50594 z m 53.527998,-0.55118 c -4.1187,-0.82932 -10.26679,-1.5434 -13.28849,-1.5434 -1.1725,0 -2.13182,-0.14177 -2.13182,-0.31503 0,-0.17326 0.59144,-1.78112 1.31431,-3.57302 l 1.31432,-3.25798 2.0573,-0.0381 c 2.66493,-0.0493 3.23312,-0.78605 4.47546,-5.80317 1.06401,-4.29692 1.79715,-5.75911 3.34656,-6.67437 1.7037,-1.0064 1.84106,-0.81498 1.29279,1.80143 -0.76428,3.64722 -0.65649,7.19293 0.28154,9.26086 0.92524,2.03972 1.42358,2.43931 2.39425,1.91982 0.56486,-0.30231 0.78013,-0.19821 1.0654,0.51522 0.19663,0.49175 1.05207,2.6069 1.90098,4.70036 l 1.54348,3.80627 -1.02629,-0.0457 c -0.56447,-0.0251 -2.60737,-0.36409 -4.53979,-0.7532 z m -29.8572,-13.74278 c -0.42592,-0.87419 -0.43528,-1.56391 -0.0505,-3.71727 0.67967,-3.80318 1.20738,-4.36718 1.17926,-1.26039 -0.0126,1.39563 -0.15411,3.32805 -0.3144,4.29426 l -0.29144,1.75674 z m 11.19989,-2.11803 c -0.12632,-1.67013 -0.17017,-3.09608 -0.0975,-3.16878 0.0727,-0.0727 0.34433,1.12546 0.60361,2.6626 0.30047,1.78139 0.33581,2.93044 0.0975,3.1688 -0.23835,0.23836 -0.45724,-0.72715 -0.60361,-2.66262 z"
           id="path2471" />
      </g>
    </g>
  </g>
</svg>
