<?xml version="1.0" encoding="UTF-8" standalone="no"?>
<svg
   xmlns:osb="http://www.openswatchbook.org/uri/2009/osb"
   xmlns:dc="http://purl.org/dc/elements/1.1/"
   xmlns:cc="http://creativecommons.org/ns#"
   xmlns:rdf="http://www.w3.org/1999/02/22-rdf-syntax-ns#"
   xmlns:svg="http://www.w3.org/2000/svg"
   xmlns="http://www.w3.org/2000/svg"
   xmlns:sodipodi="http://sodipodi.sourceforge.net/DTD/sodipodi-0.dtd"
   xmlns:inkscape="http://www.inkscape.org/namespaces/inkscape"
   width="512"
   height="512"
   viewBox="0 0 135.46667 135.46667"
   version="1.1"
   id="svg8"
   inkscape:version="0.92.4 (5da689c313, 2019-01-14)"
   sodipodi:docname="Life_of_the_Party.svg">
  <defs
     id="defs2">
    <linearGradient
       id="linearGradient1099-6-5"
       osb:paint="gradient">
      <stop
         style="stop-color:#273839;stop-opacity:0.5"
         offset="0"
         id="stop1151" />
      <stop
         style="stop-color:#273839;stop-opacity:1"
         offset="1"
         id="stop1153" />
    </linearGradient>
  </defs>
  <sodipodi:namedview
     id="base"
     pagecolor="#ffffff"
     bordercolor="#666666"
     borderopacity="1.0"
     inkscape:pageopacity="0.0"
     inkscape:pageshadow="2"
     inkscape:zoom="1.4"
     inkscape:cx="170.61776"
     inkscape:cy="260.93342"
     inkscape:document-units="px"
     inkscape:current-layer="g1320"
     inkscape:document-rotation="0"
     showgrid="false"
     inkscape:pagecheckerboard="true"
     inkscape:object-nodes="true"
     fit-margin-top="0"
     fit-margin-left="0"
     fit-margin-right="0"
     fit-margin-bottom="0"
     inkscape:window-width="1920"
     inkscape:window-height="1017"
     inkscape:window-x="-8"
     inkscape:window-y="-8"
     inkscape:window-maximized="1"
     units="px" />
  <metadata
     id="metadata5">
    <rdf:RDF>
      <cc:Work
         rdf:about="">
        <dc:format>image/svg+xml</dc:format>
        <dc:type
           rdf:resource="http://purl.org/dc/dcmitype/StillImage" />
        <dc:title></dc:title>
      </cc:Work>
    </rdf:RDF>
  </metadata>
  <g
     inkscape:label="Layer 1"
     inkscape:groupmode="layer"
     id="layer1"
     transform="translate(-59.62574,-110.15787)">
    <path
       style="fill:#000000;stroke-width:0.264583"
       id="path853"
       d="" />
    <path
       style="fill:#000000;stroke-width:0.264583"
       id="path849"
       d="" />
    <g
       id="g1061"
       transform="translate(9.0714285,1.8898814)">
      <g
         id="g1320"
         transform="translate(7.2162774,44.901282)">
        <g
           id="g1742"
           transform="matrix(1.1571151,0,0,1.1571159,-21.291881,-16.290717)">
          <g
             id="g1731">
            <path
               style="fill:#000000;fill-opacity:0.50196078;stroke-width:0.35277799"
               d="m 120.15094,173.99793 c 0,-0.29105 0.15875,-0.52917 0.35278,-0.52917 0.19402,0 0.35277,0.23812 0.35277,0.52917 0,0.29104 -0.15875,0.52916 -0.35277,0.52916 -0.19403,0 -0.35278,-0.23812 -0.35278,-0.52916 z m 0.35278,-2.44377 c 0,-0.13041 0.2463,-0.7134 0.54734,-1.29555 0.30104,-0.58214 0.45488,-1.34977 0.34187,-1.70583 -0.22211,-0.69983 0.44768,-2.49235 0.9313,-2.49235 0.46902,0 0.34396,3.6887 -0.14482,4.27141 -0.61602,0.7344 -1.67569,1.50737 -1.67569,1.22232 z m 26.4976,-3.90623 -2.43976,-8.28666 6.02679,-6.43969 8.72442,2.00139 2.5892,8.70662 -6.64229,6.27846 z m -21.20594,-1.93356 c 0,-0.45216 0.31291,-0.77737 0.88645,-0.92132 0.48755,-0.12237 1.03835,-0.48258 1.224,-0.80047 0.26819,-0.45923 0.33975,-0.35691 0.34827,0.49799 0.0128,1.28019 -0.53769,1.92263 -1.64733,1.92263 -0.5736,0 -0.81139,-0.2048 -0.81139,-0.69883 z m 5.65394,-3.80427 c 0.007,-0.91966 0.31245,-1.68308 1.01239,-2.52716 l 1.0029,-1.20944 0.1473,1.26173 c 0.12207,1.04559 -0.0513,1.4785 -1.01239,2.52717 l -1.15969,1.26544 z m 5.28217,-6.45527 c 0,-1.44141 0.17796,-2.06197 0.77291,-2.69527 0.85222,-0.90714 0.83145,-0.55349 0.66287,-11.28641 -0.0494,-3.14252 0.0136,-5.88096 0.14,-6.08542 0.7386,-1.19508 0.89367,0.32691 0.89367,8.77122 0,8.13567 -0.0724,9.31194 -0.65736,10.67653 -0.36154,0.84345 -0.91717,1.74918 -1.23472,2.01272 -0.5223,0.43347 -0.57737,0.30059 -0.57737,-1.39337 z m 18.63638,-5.3844 -1.08038,-4.15803 2.72873,-3.10682 4.31725,1.09338 0.92434,4.1972 -2.93379,3.11259 z m -35.21693,-1.94811 c 0,-1.1069 0.14739,-1.42092 0.73958,-1.57579 1.59684,-0.41758 2.35434,0.77663 1.1125,1.75388 -1.66477,1.31006 -1.85208,1.29205 -1.85208,-0.17809 z m 6.63488,-7.13493 -0.94985,-0.70902 -0.0236,-6.51175 -0.0236,-6.51175 h 1.06162 1.06162 v 7.23194 c 0,3.97757 -0.0397,7.22692 -0.0882,7.22077 -0.0485,-0.006 -0.51562,-0.33023 -1.03803,-0.72019 z m 4.31245,-6.77389 -0.0112,-7.32887 0.91155,-0.34657 c 0.50135,-0.19062 1.06063,-0.25443 1.24284,-0.14182 0.18913,0.11689 0.31718,2.9965 0.29841,6.71082 -0.0181,3.58947 -0.17043,6.42105 -0.33974,6.31641 -0.30924,-0.19112 -0.65596,0.11811 -1.5847,1.41334 -0.44591,0.62187 -0.50725,-0.1638 -0.51714,-6.62331 z m -9.09109,4.24206 c 0.0666,-0.62926 -0.117,-0.81688 -0.8861,-0.90537 l -0.97014,-0.11163 v -10.86858 c 0,-5.97772 -0.0992,-11.36468 -0.22049,-11.97101 -0.18844,-0.94221 -0.11743,-1.10243 0.4886,-1.10243 1.34343,0 1.84856,1.43688 1.84856,5.25843 0,1.93565 -0.14076,3.60636 -0.31279,3.71268 -0.61614,0.3808 -0.82244,2.71078 -0.27842,3.1446 0.63983,0.51022 1.23196,13.63706 0.61515,13.63706 -0.20262,0 -0.33059,-0.35718 -0.28437,-0.79375 z m 14.43512,-12.96458 c 0.0232,-3.78354 0.10994,-6.4252 0.19283,-5.87036 0.13528,0.9056 0.25618,0.9877 1.18186,0.80257 l 1.03117,-0.20624 v 3.08132 c 0,2.61682 -0.0985,3.14281 -0.65313,3.48921 -0.45691,0.28534 -0.71367,0.99452 -0.85465,2.36048 -0.11084,1.07392 -0.36773,2.23825 -0.57087,2.58739 -0.26539,0.45614 -0.35748,-1.30126 -0.32721,-6.24437 z m 5.60474,5.35449 c -0.0131,-0.45052 0.38635,-1.51912 0.88773,-2.37467 0.8112,-1.38421 0.96522,-2.66409 0.51283,-4.26159 -0.007,-0.0259 -0.33083,-0.13008 -0.71888,-0.23156 -0.40887,-0.10692 -0.70556,-0.48119 -0.70556,-0.89006 0,-0.90845 1.2052,-0.65569 1.95107,0.40919 0.73916,1.0553 0.64243,2.53582 -0.30093,4.60599 -0.45062,0.98887 -0.9955,2.19481 -1.21085,2.67988 l -0.39154,0.88194 -0.0239,-0.81912 z m -9.90166,-7.29477 c -0.36691,-0.4421 -0.31597,-0.52916 0.30959,-0.52916 0.43037,0 0.74875,0.225 0.74875,0.52916 0,0.29104 -0.13932,0.52917 -0.30959,0.52917 -0.17027,0 -0.5072,-0.23813 -0.74875,-0.52917 z m -6.35,-4.09469 c 0,-0.85454 0.12297,-1.04888 0.55802,-0.88194 0.30691,0.11778 0.78316,0.21413 1.05834,0.21413 0.29848,0 0.50031,0.35579 0.50031,0.88195 0,0.74475 -0.16463,0.88194 -1.05833,0.88194 -0.94884,0 -1.05834,-0.1134 -1.05834,-1.09608 z m 5.29167,0.21414 c 0,-0.35278 0.35278,-0.52917 1.05833,-0.52917 0.70556,0 1.05834,0.17639 1.05834,0.52917 0,0.35278 -0.35278,0.52916 -1.05834,0.52916 -0.70555,0 -1.05833,-0.17638 -1.05833,-0.52916 z m 13.10848,-0.88195 c 0,-0.48507 0.0801,-0.6835 0.17794,-0.44097 0.0979,0.24254 0.0979,0.63941 0,0.88194 -0.0979,0.24254 -0.17794,0.0441 -0.17794,-0.44097 z m 3.67115,-2.22007 c 0.13247,-0.34792 0.32973,-0.54371 0.43835,-0.4351 0.10862,0.10862 2.3e-4,0.39328 -0.24087,0.63258 -0.34841,0.34582 -0.38893,0.3053 -0.19748,-0.19748 z m -16.77963,-7.48132 c 0,-3.97757 0.085,-7.23194 0.1888,-7.23194 0.10384,0 0.58009,0.25638 1.05833,0.56974 l 0.86954,0.56974 v 6.6622 6.66221 h -1.05834 -1.05833 z m -4.90236,6.20366 c -0.38405,-0.24318 -0.53089,-1.83599 -0.66624,-7.22654 l -0.17361,-6.91462 h 1.10721 1.10722 v 4.53289 c 0,2.49309 0.10267,5.74746 0.22816,7.23194 0.211,2.49623 0.17787,2.69866 -0.44097,2.69366 -0.36803,-0.003 -0.89082,-0.14577 -1.16177,-0.31733 z m 10.19403,-4.80496 c 0,-4.97339 0.0207,-5.11661 0.68746,-4.75977 1.46606,0.78461 1.78198,1.75962 1.78198,5.49961 0,3.48222 -0.0219,3.579 -0.89854,3.97845 -0.4942,0.22517 -1.04983,0.4094 -1.23472,0.4094 -0.19764,0 -0.33618,-2.1132 -0.33618,-5.12769 z m 11.64166,3.35902 c 0,-0.39069 0.18722,-1.01012 0.41603,-1.37651 0.33284,-0.53296 0.29808,-0.84617 -0.17385,-1.56643 -0.47726,-0.72838 -0.51498,-1.08858 -0.19759,-1.88668 0.27836,-0.69994 0.44602,-0.83275 0.57728,-0.45726 0.10175,0.29104 0.34042,0.92604 0.53038,1.41111 0.53227,1.35918 0.52017,2.91698 -0.0295,3.79236 -0.6184,0.98491 -1.12279,1.02237 -1.12279,0.0834 z m -26.02649,-1.12947 c -0.0435,-0.3328 -0.55531,-1.1475 -1.1374,-1.81046 l -1.05833,-1.20537 v -4.62774 -4.62773 h 1.0694 c 0.58818,0 1.1478,0.20426 1.2436,0.45392 0.0958,0.24966 0.1264,3.14685 0.068,6.4382 -0.0584,3.29134 -0.14177,5.71198 -0.18526,5.37918 z m 25.67372,-8.74352 c 0,-1.49152 0.32924,-1.76044 1.067,-0.8715 0.34244,0.41261 0.35438,0.74473 0.0508,1.41111 -0.59445,1.30467 -1.11776,1.05204 -1.11776,-0.53961 z m -0.35278,-6.702782 c 0,-0.776111 0.14805,-1.411111 0.329,-1.411111 0.47635,0 0.81423,1.293414 0.55294,2.116666 -0.37729,1.188745 -0.88194,0.785022 -0.88194,-0.705555 z m -3.14715,-2.675232 c 0.0169,-0.410966 0.10052,-0.494559 0.21313,-0.213136 0.10191,0.254661 0.0894,0.558932 -0.0278,0.676157 -0.11722,0.117225 -0.2006,-0.09113 -0.18529,-0.463021 z m -0.25889,-4.21915 c -0.1149,-0.29941 -0.13008,-0.623206 -0.0337,-0.719547 0.0963,-0.09634 0.25984,0.148629 0.36333,0.544381 0.21984,0.840644 -0.0244,0.970453 -0.3296,0.175166 z m 7.4242,-0.545467 -4.29463,-1.015458 -1.12236,-4.121797 2.51629,-2.518308 4.0211,0.889574 1.22292,4.337232 z m -9.37928,-1.5774 c -0.15542,-1.331216 0.13021,-1.753631 0.96829,-1.432029 0.61964,0.237777 0.67618,1.677595 0.0889,2.264833 -0.67901,0.679013 -0.90117,0.504019 -1.05723,-0.832804 z m -4.69305,-7.499565 -1.05833,-0.585863 1.00239,-0.118262 c 1.15068,-0.135757 1.40124,0.01884 1.23365,0.761185 -0.1041,0.461159 -0.25476,0.45386 -1.17771,-0.05706 z m -17.92757,-2.057515 c -0.38783,-0.387826 -0.25697,-1.306197 0.28888,-2.027324 0.39765,-0.525359 0.61371,-0.581076 1.0024,-0.258497 0.27251,0.226166 0.77538,0.3038 1.11749,0.172521 1.045,-0.401002 0.41826,0.691223 -0.73726,1.28485 -0.56653,0.291042 -1.12027,0.650615 -1.23054,0.799052 -0.11026,0.148437 -0.3087,0.161666 -0.44097,0.0294 z m 6.91994,-1.468161 c -1.25083,-0.177942 -1.52971,-2.182511 -0.30363,-2.182511 0.67046,0 1.33037,0.913896 1.19598,1.656277 -0.0779,0.430476 -0.36703,0.600964 -0.89235,0.526234 z m 4.48205,-0.530249 c -7.1e-4,-0.490666 0.22577,-0.614641 0.96632,-0.529166 1.4137,0.163172 1.51187,1.258524 0.10828,1.208347 -0.78802,-0.02817 -1.07401,-0.208922 -1.0746,-0.679181 z"
               id="path1727"
               sodipodi:nodetypes="ssssssssssscccccccssscsscscscccssccsssscccccccscssccccccscccccsscssscsscscsssssscsscscssccscssssscccssssssssssssssssscssssssssscccccssscccsscssssssscssssscccsscccssssscscccsssscssccccsccccccccccscccscssssssssssssscscssc"
               inkscape:connector-curvature="0" />
            <path
               style="fill:#000000;fill-opacity:1;stroke-width:0.35277799"
               d="m 116.35858,181.34086 c -0.43656,-1.00611 -0.79375,-2.26791 -0.79375,-2.80402 0,-0.5361 -0.41269,-2.32772 -0.91709,-3.98138 -0.70912,-2.32483 -1.22604,-3.32498 -2.2795,-4.41034 -0.74933,-0.77202 -1.54492,-1.84427 -1.76797,-2.38278 -0.3035,-0.73271 -0.72861,-1.03648 -1.68925,-1.20707 -2.49173,-0.44251 -5.90906,-2.54215 -7.44192,-4.57241 -0.78477,-1.03943 -1.989931,-2.33314 -2.678126,-2.8749 -1.486708,-1.17038 -2.687242,-2.98407 -2.839212,-4.28931 -0.06029,-0.51779 -0.443851,-1.69703 -0.852357,-2.62053 -0.488615,-1.1046 -0.723124,-2.30949 -0.685409,-3.52159 0.03154,-1.01337 0.05804,-4.14437 0.05891,-6.95777 0.0014,-4.97292 -0.01965,-5.11849 -0.76115,-5.2305 -0.87982,-0.13291 -1.263484,-0.98611 -1.984286,-4.41269 -0.280875,-1.33522 -0.8408,-2.89129 -1.244283,-3.45793 -1.023803,-1.4378 -1.461301,-3.21096 -1.055557,-4.27815 0.436235,-1.14738 2.617788,-2.49876 3.554078,-2.2016 0.639039,0.20283 0.7109,0.069 0.7109,-1.32414 0,-1.21333 -0.198745,-1.73545 -0.915462,-2.40503 -2.065701,-1.92981 -2.841237,-5.10529 -2.23212,-9.13958 0.30959,-2.05048 0.298728,-3.05614 -0.04866,-4.5042 -0.421513,-1.75707 -0.384232,-2.0618 0.648159,-5.297608 0.602466,-1.888313 1.290066,-4.208552 1.527993,-5.156086 0.28133,-1.120369 0.812871,-2.063443 1.520095,-2.696982 0.59812,-0.535806 1.945735,-1.744926 2.994692,-2.686933 1.311956,-1.178186 2.223392,-2.405268 2.920295,-3.931633 0.79613,-1.743714 1.35312,-2.434533 2.60088,-3.225841 0.87328,-0.553821 2.17475,-1.117062 2.89215,-1.251647 0.95139,-0.178482 1.99903,-0.904569 3.87145,-2.683187 3.1264,-2.969772 4.01691,-3.137817 5.91165,-1.115571 0.82759,0.883291 1.21018,1.606959 1.15127,2.177655 -0.13721,1.329251 -0.88055,1.27207 -2.20078,-0.169293 l -1.20964,-1.32062 -1.22473,0.93414 c -0.67359,0.513777 -1.54195,1.379649 -1.92967,1.92416 -0.74069,1.040199 -2.40328,2.016821 -3.99136,2.344565 -1.39783,0.28848 -3.10936,1.889402 -3.83851,3.590435 -0.62887,1.467091 -2.552681,3.62136 -5.513799,6.174304 -1.177216,1.014944 -1.587542,1.69229 -2.028013,3.347755 -0.588356,2.211271 -1.246593,4.199563 -1.991177,6.014607 -0.377345,0.91984 -0.375264,1.36843 0.01178,2.54123 0.333837,1.01154 0.385487,2.01672 0.178255,3.46909 -0.7112,4.98445 -0.239356,7.44795 1.855756,9.6889 0.694143,0.74246 0.919441,1.43293 1.066877,3.26966 0.228759,2.84985 -0.333925,3.72661 -2.391657,3.72661 -2.094328,0 -2.362196,0.69631 -1.114876,2.89807 0.580919,1.02544 1.247955,2.81693 1.482298,3.98109 0.519105,2.57882 0.70212,2.93424 1.78925,3.4748 0.814215,0.40486 0.867347,0.64269 1.156603,5.17756 0.205903,3.22805 0.178333,5.37906 -0.08592,6.70372 -0.407282,2.04162 -0.227207,3.2156 0.797062,5.19632 0.315246,0.60962 0.573176,1.5944 0.573176,2.1884 0,0.879 0.630213,1.75211 3.385945,4.69101 3.45043,3.67977 5.34097,4.99 8.60388,5.9629 1.157,0.34497 1.77397,0.79116 2.29306,1.65831 0.39059,0.65249 1.61067,2.18306 2.71128,3.40128 2.3456,2.59621 2.50254,3.22315 2.33994,9.34709 l -0.1077,4.05695 z m -6.19416,-34.33043 2.43562,0.005 c 3.74368,-0.2563 5.46645,2.82748 2.7002,2.80171 -2.25318,-0.39563 -3.23233,-1.41347 -5.13582,-2.80671 z m 4.92854,-6.90669 c 1.59126,0.23297 1.70953,1.25631 1.53016,2.7444 -0.95138,-0.44099 -3.4819,-3.21727 -1.53016,-2.7444 z m -12.03234,0.64488 c -0.42772,-1.01243 -1.55059,-0.93512 -2.36424,-1.3497 -2.696817,-1.20506 -5.656658,-11.78546 -3.874181,-14.71641 1.116194,-1.93664 0.750961,-3.46876 0.750961,-5.74642 6.94467,0.13932 8.88963,-0.5043 11.01444,-1.13346 2.24934,-0.65803 6.19251,-5.16099 8.03552,-5.36438 v 25.4 c -3.29442,-0.13649 -6.60424,1.69801 -9.23802,3.542 -1.92727,1.32044 -3.55117,1.98431 -4.32448,-0.63163 z m 7.55129,-14.53595 c 0.43908,-0.27773 0.41304,-0.44011 -0.17639,-1.09981 -0.68753,-0.7695 -0.68744,-0.77279 0.014,-0.56746 0.38806,0.11359 1.16613,0.31667 1.72904,0.45129 l 1.02348,0.24478 -0.24588,-1.5377 c -0.13524,-0.84573 -0.31696,-1.60876 -0.40382,-1.69562 -0.49425,-0.49425 -7.21041,-1.43628 -10.3049,-1.4454 -3.791638,-0.0112 -4.190432,0.18096 -3.032128,1.46087 0.424737,0.46933 1.089828,0.64514 2.440588,0.64514 2.84432,0 3.20407,0.28916 1.48846,1.19639 -0.80626,0.42636 -1.51963,0.93631 -1.58526,1.13322 -0.0656,0.1969 0.39973,0.61627 1.03415,0.93191 1.28999,0.64182 7.12549,0.84733 8.01864,0.28239 z M 98.807883,116.1052 c -0.388056,-0.0983 -1.13526,-0.34506 -1.660451,-0.54827 -1.995752,-0.77221 -2.925597,-6.08558 -1.551662,-8.86656 0.559019,-1.13151 1.157616,-1.57964 3.87688,-2.90239 4.46208,-2.17052 10.89854,-3.697 15.58854,-3.697 h 1.56193 v 9.38326 l -1.24605,0.4506 c -0.68536,0.24782 -2.1015,1.32671 -3.14697,2.39753 -2.43697,2.49603 -5.33394,3.63779 -9.71805,3.83009 -1.64924,0.0723 -3.316112,0.0511 -3.704167,-0.0473 z M 119.50108,77.865979 c 0,-0.485069 0.0801,-0.683506 0.17794,-0.440972 0.0979,0.242535 0.0979,0.63941 0,0.881945 -0.0979,0.242534 -0.17794,0.0441 -0.17794,-0.440973 z"
               id="path1725"
               inkscape:connector-curvature="0"
               sodipodi:nodetypes="cssscccccsccccsccscscccccccssccccccsssssccssscccscsssccccccccccccccccccccccccccccsccsccccccsssscccccccsccs" />
          </g>
          <path
             style="fill:#000000;fill-opacity:0.50196084;stroke:none;stroke-width:0.26458299px;stroke-linecap:butt;stroke-linejoin:miter;stroke-opacity:1"
             d="m 92.181542,98.846738 -6.1472,1.870882 -10.958049,-10.89123 4.209494,-14.098467 14.633007,-4.142678 9.822156,10.022608 c -3.808727,6.392798 -9.314578,10.324804 -11.559408,17.238885 z"
             id="path1733"
             inkscape:connector-curvature="0"
             sodipodi:nodetypes="ccccccc" />
          <path
             style="fill:#000000;fill-opacity:0.50196084;stroke:none;stroke-width:0.26458299px;stroke-linecap:butt;stroke-linejoin:miter;stroke-opacity:1"
             d="m 75.744466,99.114006 -7.550365,1.870884 -1.670435,6.94901 5.078121,5.34539 7.283095,-2.07134 1.80407,-6.88219 z"
             id="path1735"
             inkscape:connector-curvature="0" />
        </g>
      </g>
    </g>
  </g>
</svg>
