<?xml version="1.0" encoding="UTF-8" standalone="no"?>
<!-- Created with Inkscape (http://www.inkscape.org/) -->

<svg
   width="512"
   height="512"
   viewBox="0 0 135.46666 135.46667"
   version="1.1"
   id="svg5"
   xml:space="preserve"
   inkscape:version="1.2.2 (b0a8486541, 2022-12-01)"
   sodipodi:docname="Sling.svg"
   xmlns:inkscape="http://www.inkscape.org/namespaces/inkscape"
   xmlns:sodipodi="http://sodipodi.sourceforge.net/DTD/sodipodi-0.dtd"
   xmlns="http://www.w3.org/2000/svg"
   xmlns:svg="http://www.w3.org/2000/svg"><sodipodi:namedview
     id="namedview7"
     pagecolor="#ffffff"
     bordercolor="#000000"
     borderopacity="0.25"
     inkscape:showpageshadow="2"
     inkscape:pageopacity="0"
     inkscape:pagecheckerboard="0"
     inkscape:deskcolor="#d1d1d1"
     inkscape:document-units="mm"
     showgrid="false"
     inkscape:zoom="0.76880612"
     inkscape:cx="-164.54083"
     inkscape:cy="352.49459"
     inkscape:window-width="1920"
     inkscape:window-height="1017"
     inkscape:window-x="-8"
     inkscape:window-y="-8"
     inkscape:window-maximized="1"
     inkscape:current-layer="layer1" /><defs
     id="defs2" /><g
     inkscape:label="Layer 1"
     inkscape:groupmode="layer"
     id="layer1"><g
       id="g10164"
       transform="matrix(1.8347325,0,0,1.8347325,-55.89869,-50.09046)"><path
         id="path5525"
         style="color:#000000;fill:#000000;fill-opacity:0.497024;stroke:none;stroke-linecap:round;stroke-linejoin:round;-inkscape-stroke:none"
         d="m -66.650195,38.359416 c 14.203536,0 25.747782,11.469246 25.747782,25.595853 0,3.084043 -0.550567,6.040937 -1.558561,8.779826 l -2.106848,-0.399459 c 0.999562,-2.602528 1.548226,-5.42693 1.548226,-8.380367 0,-12.975586 -10.563944,-23.47867 -23.630599,-23.47867 -2.654741,0 -5.206594,0.433273 -7.587134,1.233 l -1.933732,-1.538408 c 2.946109,-1.168381 6.158762,-1.811775 9.520866,-1.811775 z m -23.730335,15.660026 1.54926,1.813326 c -0.937503,2.530634 -1.450041,5.266705 -1.450041,8.122501 0,12.975587 10.564462,23.478154 23.631116,23.478154 2.153195,0 4.237525,-0.286674 6.218742,-0.821139 l -0.05374,2.194182 c -1.97597,0.483726 -4.040279,0.74259 -6.164998,0.74259 -14.203536,0 -25.746232,-11.46718 -25.746232,-25.593787 0,-3.5228 0.718037,-6.880204 2.015897,-9.935827 z"
         transform="scale(-1,1)" /><path
         id="path7092"
         style="color:#000000;fill:#000000;fill-opacity:1;stroke:none;stroke-linecap:round;stroke-linejoin:round;-inkscape-stroke:none"
         d="m 66.761816,31.150553 c -7.144148,0 -13.765739,2.238041 -19.180757,6.042609 l -1.014393,-1.25933 c -9.633641,6.915783 -16.83512,21.082341 -13.572912,35.500216 l 3.856193,-0.614598 c -0.538402,-2.246673 -0.824756,-4.589661 -0.824756,-6.999056 0,-16.732968 13.738685,-30.289107 30.736625,-30.289107 1.846327,0 3.654024,0.160058 5.410006,0.466638 L 72.616239,31.6606 c -1.90076,-0.335215 -3.857013,-0.510047 -5.854423,-0.510047 z"
         sodipodi:nodetypes="sccccssccs" /><path
         id="path7092-1"
         style="color:#000000;fill:#000000;fill-opacity:1;stroke:none;stroke-linecap:round;stroke-linejoin:round;-inkscape-stroke:none"
         d="m 87.25255,90.813312 1.143455,1.56046 C 98.976053,85.371952 105.53225,68.753337 101.2376,55.109796 l -4.888645,1.044783 C 102.52226,81.127071 80.53075,97.503167 62.426341,93.76699 l -0.353154,3.036955 c 10.740714,1.712319 18.471158,-1.331588 25.179363,-5.990633 z"
         sodipodi:nodetypes="ccccccc" /><path
         style="fill:#000000;fill-opacity:0.497024;stroke:none;stroke-width:0.264583;stroke-linecap:round;stroke-linejoin:round;stroke-dasharray:none;stroke-opacity:1"
         d="m 46.610587,71.324739 1.720741,2.430547 c -1.494254,1.033445 -3.424666,3.792314 -1.785268,5.721466 l 5.119206,4.96864 c 2.59092,2.470108 4.855995,0.05256 7.141078,-2.064888 l 2.086398,1.978851 -3.011297,-0.258109 -0.129056,9.292002 -4.022232,-5.011658 -3.871669,8.367107 -0.731317,-8.926349 -13.938006,7.743338 9.722191,-13.185182 -10.259922,-0.04302 9.248986,-4.022236 -7.033532,-3.183371 8.582199,-0.709806 z"
         id="path9306"
         sodipodi:nodetypes="cccccccccccccccccc" /><path
         style="fill:#000000;fill-opacity:1;stroke:none;stroke-width:0.264583;stroke-linecap:round;stroke-linejoin:round;stroke-dasharray:none;stroke-opacity:1"
         d="m 49.521646,73.582839 c 2.992004,2.634986 5.818591,5.345163 8.365141,8.182628 -1.561619,1.060209 -3.810011,2.842425 -5.201597,1.749076 l -4.897411,-4.730107 c -1.125018,-1.320882 0.825213,-3.469158 1.733867,-5.201597 z"
         id="path9416"
         sodipodi:nodetypes="ccccc" /><path
         id="path9418"
         style="fill:#000000;fill-opacity:1;stroke:none;stroke-width:0.264583;stroke-linecap:round;stroke-linejoin:round;stroke-dasharray:none;stroke-opacity:1"
         d="m 50.331812,49.019747 -2.581238,3.91449 9.980269,5.635315 1.850016,-1.419552 1.419552,1.161686 c -3.50352,3.813136 -6.471438,7.760095 -9.291939,11.743986 l 0.8816,0.580843 3.72122,-1.505851 4.086572,3.291272 -0.8816,3.699516 2.516642,2.903699 c 4.080671,-3.286531 8.197136,-6.522376 12.001851,-10.195244 l 1.0542,1.096574 -0.516248,2.15129 6.861597,8.280632 3.140377,-4.064869 -4.818311,-11.314038 -1.785421,0.236678 C 76.341517,58.678999 72.258376,54.567654 65.581527,53.020536 l -0.623735,-1.18339 z m 16.110127,6.58151 c 2.907525,0.853713 6.922563,5.040113 6.947897,6.474541 l -8.560718,3.183268 -1.807125,-1.742013 z" /><path
         style="fill:#000000;fill-opacity:1;stroke:none;stroke-width:0.264583;stroke-linecap:round;stroke-linejoin:round;stroke-dasharray:none;stroke-opacity:1"
         d="m 76.293381,52.762239 c 4.35659,-5.967322 10.322352,-10.048027 16.304024,-14.110081 l 0.88188,1.570176 -4.301852,12.023682 c -2.09959,3.043324 -4.608021,5.745947 -7.033532,8.51767 -1.234705,-3.320403 -3.29864,-5.883683 -5.85052,-8.001447 z"
         id="path10149"
         sodipodi:nodetypes="cccccc" /><path
         style="fill:#000000;fill-opacity:1;stroke:none;stroke-width:0.264583;stroke-linecap:round;stroke-linejoin:round;stroke-dasharray:none;stroke-opacity:1"
         d="m 74.443584,51.278099 -4.753549,-2.34451 6.431272,-5.699956 c 3.503178,-2.870536 8.858699,-4.722283 13.378764,-7.033532 l 1.376593,0.666788 c -6.785216,3.900077 -12.109356,8.851058 -16.43308,14.41121 z"
         id="path10151"
         sodipodi:nodetypes="cccccc" /><path
         style="fill:#000000;fill-opacity:1;stroke:none;stroke-width:0.264583;stroke-linecap:round;stroke-linejoin:round;stroke-dasharray:none;stroke-opacity:1"
         d="m 91.697174,35.209646 c 1.249377,0.5533 1.987379,1.532746 2.509544,2.692056 1.533017,-2.837027 0.99305,-4.706166 -2.509544,-2.692056 z"
         id="path10153"
         sodipodi:nodetypes="ccc" /></g></g></svg>
