<?xml version="1.0" encoding="UTF-8" standalone="no"?>
<svg
   width="512"
   height="512"
   viewBox="0 0 135.46667 135.46667"
   version="1.1"
   id="svg8"
   inkscape:version="1.2.2 (732a01da63, 2022-12-09)"
   sodipodi:docname="Zipline_Gun.svg"
   xmlns:inkscape="http://www.inkscape.org/namespaces/inkscape"
   xmlns:sodipodi="http://sodipodi.sourceforge.net/DTD/sodipodi-0.dtd"
   xmlns="http://www.w3.org/2000/svg"
   xmlns:svg="http://www.w3.org/2000/svg"
   xmlns:rdf="http://www.w3.org/1999/02/22-rdf-syntax-ns#"
   xmlns:cc="http://creativecommons.org/ns#"
   xmlns:dc="http://purl.org/dc/elements/1.1/">
  <defs
     id="defs2">
    <linearGradient
       id="linearGradient1099-6-5"
       inkscape:swatch="gradient">
      <stop
         style="stop-color:#273839;stop-opacity:0.5"
         offset="0"
         id="stop1151" />
      <stop
         style="stop-color:#273839;stop-opacity:1"
         offset="1"
         id="stop1153" />
    </linearGradient>
  </defs>
  <sodipodi:namedview
     id="base"
     pagecolor="#ffffff"
     bordercolor="#666666"
     borderopacity="1.0"
     inkscape:pageopacity="0.0"
     inkscape:pageshadow="2"
     inkscape:zoom="0.7"
     inkscape:cx="40.714286"
     inkscape:cy="236.42857"
     inkscape:document-units="px"
     inkscape:current-layer="g1320"
     inkscape:document-rotation="0"
     showgrid="false"
     inkscape:pagecheckerboard="true"
     inkscape:object-nodes="true"
     fit-margin-top="0"
     fit-margin-left="0"
     fit-margin-right="0"
     fit-margin-bottom="0"
     inkscape:window-width="2560"
     inkscape:window-height="1361"
     inkscape:window-x="-9"
     inkscape:window-y="-9"
     inkscape:window-maximized="1"
     units="px"
     inkscape:showpageshadow="2"
     inkscape:deskcolor="#d1d1d1" />
  <metadata
     id="metadata5">
    <rdf:RDF>
      <cc:Work
         rdf:about="">
        <dc:format>image/svg+xml</dc:format>
        <dc:type
           rdf:resource="http://purl.org/dc/dcmitype/StillImage" />
        <dc:title />
      </cc:Work>
    </rdf:RDF>
  </metadata>
  <g
     inkscape:label="Layer 1"
     inkscape:groupmode="layer"
     id="layer1"
     transform="translate(-59.62574,-110.15787)">
    <path
       style="fill:#000000;stroke-width:0.264583"
       id="path853"
       d="" />
    <path
       style="fill:#000000;stroke-width:0.264583"
       id="path849"
       d="" />
    <g
       id="g1061"
       transform="translate(9.0714285,1.8898814)">
      <g
         id="g1320"
         transform="translate(7.2162774,44.901282)">
        <g
           id="g2562"
           transform="matrix(1.2826534,0,0,1.2826534,-30.027355,-29.926333)"
           style="fill:#000000">
          <path
             style="fill:#000000;fill-opacity:1;stroke-width:0.352778"
             d="m 136.41793,84.674045 c -1.45354,-0.463042 -4.46842,-1.386726 -6.69974,-2.05263 -9.58558,-2.860678 -10.5852,-3.209222 -10.73334,-3.742474 -0.39663,-1.427744 -0.57521,-3.48874 -0.31585,-3.645127 0.15921,-0.096 1.24197,0.103948 2.40614,0.444332 1.16416,0.340383 3.94229,1.127887 6.17361,1.750009 2.23132,0.622122 5.32694,1.503131 6.87917,1.957798 1.55222,0.454667 4.37852,1.274388 6.28067,1.821603 l 3.45846,0.994936 -1.1654,0.956687 c -0.64097,0.526179 -1.72239,1.271705 -2.40317,1.656724 l -1.23776,0.700037 z"
             id="path2543" />
          <path
             style="fill:#000000;fill-opacity:0.501961;stroke-width:0.352778"
             d="M 102.37792,94.723254 C 97.527221,93.378475 92.331785,91.93767 90.8325,91.521465 c -1.499284,-0.416206 -2.647064,-0.884409 -2.550625,-1.040452 0.09644,-0.156043 0.608749,-0.506034 1.13847,-0.777758 0.529721,-0.271724 1.836251,-0.979557 2.903404,-1.572963 1.067152,-0.593407 3.130902,-1.740766 4.586111,-2.549688 l 2.645833,-1.470767 9.524997,2.867647 c 5.23875,1.577205 10.86231,3.303227 12.49681,3.835603 l 2.9718,0.967957 -1.20791,0.842052 c -0.66436,0.463128 -1.83181,1.366733 -2.59434,2.00801 -1.08308,0.910861 -1.70786,1.165959 -2.85565,1.165959 -0.80808,0 -2.4067,0.313596 -3.55247,0.696881 -1.14578,0.383285 -2.32136,0.691814 -2.6124,0.68562 -0.29104,-0.0062 -4.49792,-1.111534 -9.34861,-2.456312 z"
             id="path2541" />
          <path
             style="fill:#000000;fill-opacity:0.501961;stroke-width:0.352778"
             d="m 102.51412,109.52764 c -4.95081,-1.03038 -11.11769,-2.32826 -17.422316,-3.6667 -3.298472,-0.70025 -8.299098,-1.7464 -11.1125,-2.32479 -2.813403,-0.57839 -5.380653,-1.16723 -5.705001,-1.30855 -0.428623,-0.18674 1.450617,-1.40421 6.879167,-4.456701 l 7.468889,-4.19978 13.099275,3.308871 13.099266,3.30887 -1.05883,1.87616 c -1.09274,1.93623 -1.26627,2.74872 -1.30469,6.10866 -0.0261,2.28081 0.17627,2.21134 -3.94326,1.35396 z"
             id="path2539" />
          <path
             style="fill:#000000;fill-opacity:1;stroke-width:0.352778"
             d="m 149.47375,114.38369 c -1.70378,-0.67928 -1.95001,-0.90244 -2.02012,-1.83079 -0.35734,-4.73159 -0.88612,-10.95768 -1.24331,-14.639169 -0.23531,-2.425347 -0.43074,-4.504205 -0.43429,-4.619683 -0.0123,-0.399203 4.07571,-3.939365 4.29533,-3.71974 0.20746,0.207457 0.58885,5.581814 0.99235,13.983872 0.0978,2.03729 0.34488,5.35397 0.54897,7.3704 0.2041,2.01643 0.2429,3.79279 0.0862,3.94747 -0.15668,0.15467 -1.158,-0.0669 -2.22515,-0.49236 z"
             id="path2537" />
          <path
             style="fill:#000000;fill-opacity:0.501961;stroke-width:0.352778"
             d="m 115.81806,128.20674 c -0.32776,-1.55277 -1.26931,-7.62194 -1.26931,-8.1819 0,-0.49394 0.13194,-0.50053 1.18775,-0.0594 1.66273,0.69473 6.72188,0.52554 8.30632,-0.27778 0.66209,-0.33568 1.26542,-0.54871 1.34074,-0.47339 0.2987,0.29871 1.60405,8.00597 1.39186,8.21815 -0.12478,0.12478 -1.22027,0.2872 -2.43441,0.36092 -1.21415,0.0737 -2.44566,0.2286 -2.73671,0.34417 -0.29104,0.11556 -1.00541,0.24578 -1.5875,0.28937 -0.58208,0.0436 -1.72521,0.2 -2.54029,0.34758 -1.37278,0.24857 -1.49497,0.20674 -1.65845,-0.56773 z"
             id="path2529" />
          <path
             style="fill:#000000;fill-opacity:0.501961;stroke-width:0.352778"
             d="m 133.70627,139.23938 -0.3649,-1.84548 1.5398,-1.26174 c 1.10847,-0.90831 1.5398,-1.52192 1.5398,-2.19052 0,-1.0379 -1.50358,-3.30081 -3.8563,-5.8038 -1.52167,-1.61885 -1.58963,-1.79189 -2.55557,-6.50679 -1.00509,-4.90602 -1.03038,-5.99411 -0.15961,-6.86489 0.51216,-0.51216 1.7455,-4.35427 1.535,-4.78185 -0.0684,-0.13889 0.24312,-0.60404 0.6922,-1.03367 0.44908,-0.42963 0.8165,-0.72578 0.8165,-0.65811 0,0.0677 0.67469,-0.49455 1.49931,-1.24936 1.30871,-1.19793 1.53202,-1.29365 1.75667,-0.75299 0.14155,0.34066 1.06539,4.19126 2.05296,8.55689 0.98758,4.36562 2.18001,9.60437 2.64986,11.64166 0.46984,2.03729 0.8557,3.79156 0.85745,3.89837 0.002,0.10682 -1.49403,2.223 -3.32397,4.70263 -1.82994,2.47964 -3.54927,4.84294 -3.82073,5.25178 -0.46557,0.70119 -0.51427,0.63866 -0.85847,-1.10213 z"
             id="path2527" />
          <path
             style="fill:#000000;fill-opacity:0.501961;stroke-width:0.352778"
             d="m 120.20588,158.93245 c -0.007,-0.49158 -0.40688,-3.2697 -0.88868,-6.17361 -0.78031,-4.70315 -0.81679,-5.31836 -0.33397,-5.63261 0.29811,-0.19403 1.68449,-1.20182 3.08085,-2.23955 1.39636,-1.03772 2.85634,-2.02005 3.24439,-2.18295 0.38806,-0.16291 1.41993,-0.78085 2.29306,-1.37321 0.87312,-0.59236 1.62512,-0.9594 1.6711,-0.81565 0.046,0.14375 0.31217,1.45199 0.59152,2.9072 l 0.50791,2.64583 -1.39355,1.94028 c -5.1737,7.2035 -7.09638,9.83081 -7.87399,10.75972 l -0.88595,1.05833 -0.0127,-0.89378 z"
             id="path2525" />
          <g
             id="g2549"
             style="fill:#000000">
            <path
               style="fill:#000000;fill-opacity:1;stroke-width:0.352778"
               d="m 119.21036,107.85699 c -0.7883,-0.68368 -0.78851,-0.6868 -0.0589,-0.87758 0.73716,-0.19278 1.23585,0.40627 0.97918,1.17626 -0.0785,0.23547 -0.43943,0.11833 -0.92024,-0.29868 z"
               id="path2535" />
            <path
               id="path2531"
               style="fill:#000000;fill-opacity:1;stroke-width:1.33333"
               d="m 385.97852,76.160156 -9.66016,6.517578 c -5.31243,3.584791 -10.0006,7.070798 -10.41797,7.746094 -0.41737,0.675311 -3.14478,0.906973 -6.0625,0.515625 -6.37659,-0.855277 -5.42911,-1.425084 -35.82422,21.511717 -35.46459,26.76232 -32.14574,24.68522 -38.20508,23.90039 -3.61334,-0.46801 -7.77058,0.22857 -12.89453,2.15625 -14.62049,5.50039 -23.42042,20.99359 -19.8457,34.94141 l 1.75391,6.8457 -5.36719,4.80469 c -2.95246,2.64261 -11.74494,9.7945 -19.53711,15.89258 l -14.16602,11.08789 4.69532,5.48633 c 2.58266,3.01727 4.69531,5.97676 4.69531,6.57812 0,2.06661 2.83263,1.08707 7.74609,-2.67969 9.67166,-7.41445 31.43257,-23.57849 33.125,-24.60546 0.99874,-0.60605 4.05312,0.1414 7.26367,1.77929 8.96954,4.57591 17.98306,4.87275 26.71875,0.87695 11.45575,-5.23997 18.3979,-15.25581 18.55664,-26.77343 0.068,-4.93278 0.7239,-6.01361 6.33204,-10.41797 3.4416,-2.70282 12.55781,-10.0667 20.25781,-16.36328 7.69999,-6.29654 18.33356,-14.88532 23.6289,-19.08594 8.83688,-7.00997 9.632,-8.04559 9.66602,-12.61914 0.0355,-4.56755 0.87555,-5.67127 10.07617,-13.22266 5.52057,-4.530996 9.87011,-8.587246 9.66602,-9.015622 -0.20391,-0.428372 -3.03144,-4.171806 -6.28516,-8.318359 z m -98.98829,74.416014 c 15.80179,0.0143 24.14233,17.45414 13.66211,28.56641 -3.82582,4.05656 -5.35653,4.76146 -10.33398,4.7539 -9.95898,-0.014 -15.93521,-4.40433 -18.52539,-13.60937 -2.76197,-9.81536 4.87507,-19.7185 15.19726,-19.71094 z"
               transform="matrix(0.26458334,0,0,0.26458334,43.338034,63.366707)" />
            <path
               style="fill:#000000;fill-opacity:1;stroke-width:0.352778"
               d="m 72.627726,174.60875 c 1.84267,-1.98956 5.01906,-4.56968 11.032746,-8.96168 3.055203,-2.23132 8.198982,-6.00433 11.430624,-8.38447 3.231639,-2.38015 6.193204,-4.55053 6.581264,-4.82307 0.38806,-0.27255 2.68993,-1.96428 5.11528,-3.7594 6.94551,-5.14071 8.47343,-6.26577 13.56616,-9.98919 2.63023,-1.92303 4.74165,-3.52581 4.69206,-3.56174 -0.12712,-0.0921 -3.92261,0.38516 -6.44017,0.80982 -1.16416,0.19637 -3.62479,0.54017 -5.46805,0.764 -1.84327,0.22383 -4.70077,0.62665 -6.35,0.89516 -1.64924,0.26851 -4.42736,0.66548 -6.17361,0.88217 -5.592706,0.69397 -8.391536,1.07376 -11.64167,1.57974 -5.241929,0.81607 -8.746728,1.25011 -10.074452,1.24764 -1.0894,-0.002 -1.405948,-0.21647 -2.398875,-1.62515 -0.629128,-0.89255 -1.09625,-1.75454 -1.038049,-1.91554 0.0582,-0.161 3.91582,-3.10422 8.572487,-6.54049 4.656666,-3.43627 9.498541,-7.01688 10.759722,-7.95692 1.261181,-0.94002 2.458872,-1.71154 2.661536,-1.71446 0.579663,-0.008 3.126301,3.52427 2.770381,3.84301 -0.32893,0.29457 -3.740309,2.85901 -5.439668,4.08916 -2.159303,1.56311 -5.74403,4.27976 -6.632878,5.02666 -0.941282,0.79095 -0.94167,0.79332 -0.130172,0.79375 0.447658,2.3e-4 1.479533,-0.16081 2.293056,-0.35788 0.813523,-0.19707 3.860384,-0.68017 6.770801,-1.07355 2.910416,-0.39338 6.720421,-0.94506 8.466671,-1.22595 1.74625,-0.28089 4.93785,-0.7422 7.09246,-1.02512 2.1546,-0.28293 4.61522,-0.68203 5.46805,-0.88689 0.85283,-0.20486 3.53497,-0.62839 5.96032,-0.94119 2.42535,-0.3128 4.90624,-0.64463 5.51308,-0.73741 1.00492,-0.15365 1.2646,0.0306 2.91042,2.06462 0.99388,1.22832 1.80705,2.39436 1.80704,2.59119 -1e-5,0.43515 -1.57996,1.69061 -4.40971,3.50407 -2.56609,1.64449 -2.62284,1.68259 -5.95398,3.99756 -1.46578,1.01865 -2.7793,1.85209 -2.91891,1.85209 -0.13962,0 -0.58159,0.30153 -0.98215,0.67007 -0.40056,0.36854 -3.03017,2.18541 -5.84357,4.03748 -2.8134,1.85207 -5.75028,3.8287 -6.52639,4.39251 -0.77611,0.56382 -1.64923,1.12945 -1.94028,1.25697 -0.29104,0.12752 -1.40229,0.8708 -2.46944,1.65175 -2.76808,2.02569 -25.28642,17.12412 -28.515823,19.11971 -1.487756,0.91935 -2.836971,1.67341 -2.998256,1.67569 -0.161284,0.002 0.235591,-0.56684 0.881945,-1.26472 z"
               id="path2521" />
          </g>
        </g>
      </g>
    </g>
  </g>
</svg>
