<?xml version="1.0" encoding="UTF-8" standalone="no"?>
<svg
   xmlns:osb="http://www.openswatchbook.org/uri/2009/osb"
   xmlns:dc="http://purl.org/dc/elements/1.1/"
   xmlns:cc="http://creativecommons.org/ns#"
   xmlns:rdf="http://www.w3.org/1999/02/22-rdf-syntax-ns#"
   xmlns:svg="http://www.w3.org/2000/svg"
   xmlns="http://www.w3.org/2000/svg"
   xmlns:sodipodi="http://sodipodi.sourceforge.net/DTD/sodipodi-0.dtd"
   xmlns:inkscape="http://www.inkscape.org/namespaces/inkscape"
   width="512"
   height="512"
   viewBox="0 0 135.46667 135.46667"
   version="1.1"
   id="svg8"
   inkscape:version="0.92.4 (5da689c313, 2019-01-14)"
   sodipodi:docname="Nox_Vision.svg">
  <defs
     id="defs2">
    <linearGradient
       id="linearGradient1099-6-5"
       osb:paint="gradient">
      <stop
         style="stop-color:#273839;stop-opacity:0.5"
         offset="0"
         id="stop1151" />
      <stop
         style="stop-color:#273839;stop-opacity:1"
         offset="1"
         id="stop1153" />
    </linearGradient>
  </defs>
  <sodipodi:namedview
     id="base"
     pagecolor="#ffffff"
     bordercolor="#666666"
     borderopacity="1.0"
     inkscape:pageopacity="0.0"
     inkscape:pageshadow="2"
     inkscape:zoom="0.98994949"
     inkscape:cx="192.3414"
     inkscape:cy="240.0759"
     inkscape:document-units="px"
     inkscape:current-layer="g1320"
     inkscape:document-rotation="0"
     showgrid="false"
     inkscape:pagecheckerboard="true"
     inkscape:object-nodes="true"
     fit-margin-top="0"
     fit-margin-left="0"
     fit-margin-right="0"
     fit-margin-bottom="0"
     inkscape:window-width="1920"
     inkscape:window-height="1017"
     inkscape:window-x="-8"
     inkscape:window-y="-8"
     inkscape:window-maximized="1"
     units="px" />
  <metadata
     id="metadata5">
    <rdf:RDF>
      <cc:Work
         rdf:about="">
        <dc:format>image/svg+xml</dc:format>
        <dc:type
           rdf:resource="http://purl.org/dc/dcmitype/StillImage" />
        <dc:title></dc:title>
      </cc:Work>
    </rdf:RDF>
  </metadata>
  <g
     inkscape:label="Layer 1"
     inkscape:groupmode="layer"
     id="layer1"
     transform="translate(-59.62574,-110.15787)">
    <path
       style="fill:#000000;stroke-width:0.264583"
       id="path853"
       d="" />
    <path
       style="fill:#000000;stroke-width:0.264583"
       id="path849"
       d="" />
    <g
       id="g1061"
       transform="translate(9.0714285,1.8898814)">
      <g
         id="g1320"
         transform="translate(7.2162774,44.901282)">
        <g
           id="g1965"
           transform="matrix(1.10262,0,0,1.1026205,-10.397914,-14.437788)">
          <path
             style="fill:#000000;fill-opacity:0.50196081;stroke-width:0.35277799"
             d="m 55.924646,166.60837 c 1.106562,-0.70611 1.322916,-1.04161 1.322916,-2.05149 0.663961,-7.09119 8.794127,-7.78096 12.329302,-2.75702 l 11.042227,-2.22716 c 1.428326,-0.30285 1.243023,0.45478 -0.655116,2.6785 -3.617234,4.23771 -3.490023,3.94737 -3.490023,7.96534 0.110025,4.41094 -1.235844,6.53701 -5.425512,7.08252 -4.138579,-0.34428 0.399897,1.98756 -6.102275,5.16123 -11.525315,4.06631 -16.525058,-11.17801 -9.021519,-15.85192 z m 101.442384,16.65731 c -2.43019,-0.64635 -4.38976,-2.09547 -5.48411,-4.05555 -0.90138,-1.61445 -1.06013,-1.72835 -2.67529,-1.91964 -5.23563,-1.07077 -5.34815,-3.65604 -5.35312,-7.07395 0.99665,-4.62149 -4.09591,-8.33074 -5.02409,-10.58791 l 11.92118,2.17123 c 3.70888,-5.63063 12.18673,-3.36356 12.3293,2.75702 0,1.00988 0.21635,1.34538 1.32292,2.05149 9.33562,6.71496 0.33483,18.34056 -7.03679,16.65731 z"
             id="path1961"
             sodipodi:nodetypes="ccccscccccsccccccc"
             inkscape:connector-curvature="0" />
          <path
             style="fill:#00000d;fill-opacity:1;stroke-width:0.35277799"
             d="m 114.92673,184.33622 c -9.20794,0.12476 -12.82906,-4.03484 -11.13778,-11.35607 1.80909,-7.87778 15.08335,-6.53048 15.01228,1.01275 -0.55132,3.82445 -0.9365,3.64796 2.4755,4.1862 5.11598,0.89588 10.21692,3.7231 12.16753,8.45284 l -4.35875,3.4733 c -4.08947,-5.15407 -8.10166,-5.89969 -14.15878,-5.76902 z M 89.703119,165.33058 c -0.228502,-1.64881 0.13177,-9.99766 1.414419,-13.88204 0.295221,-1.50804 6.600393,-1.61201 6.51176,-0.86316 l -2.310825,19.77379 z M 125.04845,151.5508 c -0.11708,-1.65042 6.15289,-1.77079 6.42101,-0.74708 0.52775,4.90086 2.36286,13.38122 0.81,14.92541 0,0 -3.51572,4.05369 -4.9876,4.5587 z m -25.113177,14.08048 c 0.0018,-1.21748 1.304927,-12.67662 1.570297,-13.80842 3.44309,-6.02693 16.72098,-6.46806 19.74174,0 l 1.4103,13.80842 c 0.0629,2.74098 -5.15172,1.66061 -6.41175,1.20034 -2.55948,-0.97281 -7.14113,-0.97273 -9.60941,1.7e-4 -1.82668,0.47795 -6.673059,1.67215 -6.701177,-1.20051 z m 1.796637,-18.34206 c -1.00836,-1.07335 -0.68105,-1.8035 1.58359,-3.53268 2.53501,-1.93564 4.4806,-2.42005 9.12735,-2.27254 3.94749,0.12531 4.00909,0.14042 5.91062,1.45006 3.53425,2.43413 4.15252,3.66774 2.38991,4.7685 -0.86408,0.53963 -1.64018,0.2047 -3.6128,-1.55915 l -1.32394,-1.18381 h -8.83318 l -1.49142,1.36509 c -2.00845,1.83833 -2.75005,2.02906 -3.75013,0.96453 z M 82.5519,143.63819 c -3.314154,-8.51497 -2.593513,-16.05263 -2.816611,-25.14507 3.15825,-8.91238 57.628631,-10.31987 63.237271,-0.0849 -0.21306,8.28158 1.09423,23.44117 -5.18469,26.71548 -8.11381,2.46488 -15.14298,-0.18732 -20.90039,-4.75018 h -11.03462 c -4.96221,4.46388 -15.840932,9.15331 -23.30096,3.26467 z m 21.7915,-4.8522 h 14.11111 l 1.76389,1.04462 c 0.97014,0.57454 2.51797,1.63485 3.43963,2.35625 1.8737,1.46657 4.76305,2.26647 7.06941,1.95712 1.77565,-0.23816 3.2449,-1.63155 3.94285,-3.73926 0.91213,-2.75452 2.39842,-15.69446 2.18037,-18.98279 -0.32732,-4.93631 -0.66398,-5.1778 -8.01659,-5.75034 -9.77894,-0.76148 -26.59729,-0.66645 -37.639724,0.21268 -2.533319,0.20168 -3.057109,0.36183 -3.96875,1.21343 l -1.050255,0.98109 c 0.157502,8.50781 0.0465,24.37786 4.938889,25.92498 5.299967,1.28774 9.29831,-2.17611 13.22917,-5.21778 z m 10.48771,-6.05695 c -0.46013,-0.18513 -1.49188,-1.93557 -1.49188,-2.53109 0,-0.2063 0.54008,-0.21145 1.42093,-0.0135 1.67592,0.37655 2.43516,0.0495 5.17958,-2.23102 3.51472,-2.83184 12.44802,-7.0834 15.06273,-4.8376 0.40316,0.37076 -0.39607,1.3827 -1.09206,1.3827 -0.56307,0 -5.75451,2.32958 -5.75451,2.58225 0,0.0873 1.03187,0.0759 2.29305,-0.0253 3.3115,-0.26581 3.16079,0.14972 -1.41739,3.90782 l -2.07369,1.70223 c -1.74731,-0.26543 -3.63906,-0.27712 -5.28606,-0.94128 -0.94595,-0.39774 -1.36185,-0.34988 -3.42442,0.39413 -1.09591,0.32765 -2.64174,0.93259 -3.41628,0.61066 z m -20.937944,-1.70776 c -4.755818,-4.13648 -4.790863,-4.22649 -1.544214,-3.96588 1.261181,0.10123 2.293056,0.12525 2.293056,0.0534 0,-0.27744 -4.149193,-2.20766 -5.565151,-2.58894 -1.343395,-0.36174 -1.952801,-1.12795 -1.225822,-1.54124 0.490771,-0.279 8.01629,0.71488 9.084028,1.19971 1.636364,0.74303 4.771267,2.76263 6.526387,4.2045 2.25941,1.85614 3.00122,2.17747 4.41467,1.91231 1.39767,-0.2622 1.60733,0.21012 0.68061,1.53321 -0.67901,0.96941 -1.86565,1.00542 -4.42269,0.1342 -1.6002,-0.54521 -2.07772,-0.5801 -2.96564,-0.21666 -1.84191,0.58124 -3.45855,0.70664 -5.378242,0.92536 z m -6.482941,11.53246 c -1.606473,-2.07455 -3.549643,-12.54205 -3.193531,-20.52463 l 0.219198,-1.94034 c -0.668137,0.6332 -1.39823,1.36037 -1.487081,1.94034 -0.358352,6.57185 0.716355,15.3957 3.062268,20.52463 0.516172,1.08704 0.933524,1.33575 1.668573,1.34213 0.546933,0.005 0.514276,-0.15787 -0.269427,-1.34213 z m 48.773305,0.90655 c 0.38233,-0.47773 1.89726,-4.79463 2.54781,-7.26013 1.37603,-5.21498 1.59374,-13.44373 0.39475,-14.92021 -0.52476,-0.64621 -0.56613,-0.44543 -0.60538,2.93816 -0.079,6.81406 -1.74229,15.82259 -3.58523,19.41857 -0.22959,0.44797 0.8731,0.29213 1.24805,-0.17639 z M 71.697846,118.66115 c -0.814464,-1.66922 -3.480663,-2.62616 -3.514172,-4.41132 0.09835,-2.08511 5.170173,-2.96879 5.282708,-4.71813 -1.285609,-1.68951 -4.67725,-5.35922 -2.901458,-6.75253 l 9.206822,-5.880081 C 90.982715,89.970217 93.262068,76.43587 111.75173,76.039718 c 18.8103,0.743335 22.26632,15.331221 34.925,22.53267 7.49954,4.092832 7.86263,4.463022 3.78129,9.911672 -2.28515,2.53883 3.2335,4.41534 5.01669,5.67832 -0.47526,2.06362 -2.38379,3.6796 -3.81958,5.46645 -0.11913,4.13146 1.08341,8.57319 1.48838,12.44771 l -7.44511,-0.34654 -0.08,-14.46313 -8.07795,-6.10272 c -3.59647,-14.387204 -15.45071,-20.857599 -23.48092,-11.918873 -2.09232,2.109463 -2.78534,1.855373 -4.6156,0 -9.991543,-8.532683 -23.68433,-0.12975 -24.07674,12.246393 l -8.364072,6.89992 -0.440972,13.32006 -6.621279,0.51365 c 1.137715,-2.7588 2.329153,-11.05954 1.756979,-13.56415 z"
             id="path1959"
             inkscape:connector-curvature="0"
             sodipodi:nodetypes="ccccccccccccccccccccccccccscccccccccccccccsccccsccccccccccssccccccccsscccscscccccccccccccccccccccccccccccccccccccc" />
        </g>
      </g>
    </g>
  </g>
</svg>
