<?xml version="1.0" encoding="UTF-8" standalone="no"?>
<svg
   xmlns:osb="http://www.openswatchbook.org/uri/2009/osb"
   xmlns:dc="http://purl.org/dc/elements/1.1/"
   xmlns:cc="http://creativecommons.org/ns#"
   xmlns:rdf="http://www.w3.org/1999/02/22-rdf-syntax-ns#"
   xmlns:svg="http://www.w3.org/2000/svg"
   xmlns="http://www.w3.org/2000/svg"
   xmlns:sodipodi="http://sodipodi.sourceforge.net/DTD/sodipodi-0.dtd"
   xmlns:inkscape="http://www.inkscape.org/namespaces/inkscape"
   width="512"
   height="512"
   viewBox="0 0 135.46667 135.46667"
   version="1.1"
   id="svg8"
   inkscape:version="0.92.4 (5da689c313, 2019-01-14)"
   sodipodi:docname="Death_Totem.svg">
  <defs
     id="defs2">
    <linearGradient
       id="linearGradient1099-6-5"
       osb:paint="gradient">
      <stop
         style="stop-color:#273839;stop-opacity:0.5"
         offset="0"
         id="stop1151" />
      <stop
         style="stop-color:#273839;stop-opacity:1"
         offset="1"
         id="stop1153" />
    </linearGradient>
  </defs>
  <sodipodi:namedview
     id="base"
     pagecolor="#ffffff"
     bordercolor="#666666"
     borderopacity="1.0"
     inkscape:pageopacity="0.0"
     inkscape:pageshadow="2"
     inkscape:zoom="0.49497475"
     inkscape:cx="-490.32504"
     inkscape:cy="516.76358"
     inkscape:document-units="px"
     inkscape:current-layer="layer1"
     inkscape:document-rotation="0"
     showgrid="false"
     inkscape:pagecheckerboard="true"
     inkscape:object-nodes="false"
     fit-margin-top="0"
     fit-margin-left="0"
     fit-margin-right="0"
     fit-margin-bottom="0"
     inkscape:window-width="1920"
     inkscape:window-height="1017"
     inkscape:window-x="-8"
     inkscape:window-y="-8"
     inkscape:window-maximized="1"
     units="px" />
  <metadata
     id="metadata5">
    <rdf:RDF>
      <cc:Work
         rdf:about="">
        <dc:format>image/svg+xml</dc:format>
        <dc:type
           rdf:resource="http://purl.org/dc/dcmitype/StillImage" />
        <dc:title></dc:title>
      </cc:Work>
    </rdf:RDF>
  </metadata>
  <g
     inkscape:label="Layer 1"
     inkscape:groupmode="layer"
     id="layer1"
     transform="translate(-59.62574,-110.15787)">
    <g
       id="g1093"
       transform="matrix(1.5549646,0,0,1.5549646,-42.432679,-57.59039)">
      <g
         transform="translate(-50.647577,2.5390606)"
         id="g955">
        <g
           id="g913">
          <g
             transform="matrix(0.64365727,0,0,0.64365727,77.820835,34.421569)"
             id="g872">
            <path
               inkscape:connector-curvature="0"
               style="fill:#000000;stroke-width:0.26458299"
               id="path853"
               d="" />
            <path
               inkscape:connector-curvature="0"
               style="fill:#000000;stroke-width:0.26458299"
               id="path849"
               d="" />
            <g
               id="g1004"
               transform="matrix(1.1631028,0,0,1.1631028,-22.905596,-25.590798)">
              <path
                 id="path951"
                 transform="matrix(0.35341885,0,0,0.35341885,63.042133,119.77585)"
                 d="m 186.42773,150.90625 c -10.93299,0.21172 -21.76905,4.80408 -30.64843,13.74023 -8.19809,8.2505 -9.99024,12.78188 -9.99024,25.24805 0,8.27893 0.32319,10.52146 1.7461,12.09375 2.10017,2.32065 2.48068,11.79093 0.5,12.45117 -2.88216,0.9607 -1.19855,5.91109 4.26367,12.53321 5.48262,6.64682 7.1004,7.64373 9.12109,5.62304 1.81887,-1.81888 6.32813,4.55692 6.32813,8.94727 1.15195,15.18363 36.33707,14.46135 38.78711,-0.76172 1.19518,-5.31935 4.83451,-9.61598 6.77929,-8.00195 2.01407,1.67153 3.70295,0.55838 9.24219,-6.09766 5.06993,-6.09215 6.40643,-10.27131 4.03906,-12.63867 -2.05688,-2.05688 -1.51462,-9.08518 0.96094,-12.43359 2.15866,-2.91971 2.30098,-3.86539 1.85156,-12.45704 -0.62099,-11.87223 -3.41891,-17.99739 -11.74414,-25.70507 -9.27244,-8.58466 -20.30332,-12.75274 -31.23633,-12.54102 z m 32.35938,42.84766 c 0.12103,-0.0433 0.65368,0.42932 1.71875,1.375 1.17789,1.04584 2.14258,2.0568 2.14258,2.24609 0,1.25828 -2.1305,-0.0462 -3.10352,-1.90039 -0.58612,-1.11693 -0.87884,-1.67742 -0.75781,-1.7207 z m -63.41211,0.46093 c 0.54076,-0.0345 0.501,0.67508 -0.58398,1.98243 -0.69445,0.83677 -1.72611,1.52343 -2.29297,1.52343 -0.56687,0 -0.21352,-0.90252 0.7832,-2.0039 0.90313,-0.99795 1.67315,-1.47513 2.09375,-1.50196 z m 13.5957,8.4961 c 3.0216,0 4.6061,0.68422 6.9043,2.98242 4.34482,4.34482 3.72215,8.36914 -1.96484,12.69531 v 0.002 c -5.95189,4.5276 -11.67702,4.60227 -16.06641,0.2129 -3.59146,-3.59147 -3.82873,-5.94929 -1.04883,-10.44727 2.25178,-3.64344 6.28178,-5.44531 12.17578,-5.44531 z m 36.48242,0 c 5.894,0 9.92597,1.80187 12.17774,5.44531 2.76799,4.47868 2.5413,7.16573 -0.89453,10.60156 -4.25218,4.25219 -10.32614,4.11347 -16.21875,-0.36914 -5.687,-4.32617 -6.31162,-8.35049 -1.9668,-12.69531 2.2982,-2.2982 3.88075,-2.98242 6.90234,-2.98242 z m -18.94531,14.23437 c 1.37098,0.0479 3.93016,7.38162 4.82422,13.96485 0.69009,5.08119 0.43556,5.41939 -2.63476,3.50195 -1.57819,-0.9856 -2.38862,-0.9856 -3.9668,0 -2.85008,1.77996 -3.01489,1.64115 -2.94727,-2.50391 0.0764,-4.68849 3.07465,-14.43829 4.59571,-14.94531 0.0416,-0.0139 0.0847,-0.0191 0.1289,-0.0176 z m 16.91016,26.08594 c 0.59841,-0.038 1.1726,0.14286 1.17969,0.53125 0.0511,0.42028 -0.39234,1.00845 -1.45118,1.02734 -0.64781,-0.0664 -0.65009,0.20613 -0.75781,0.42383 -0.48155,0.97659 -1.27907,0.9178 -2.14258,0.69141 -0.3298,-0.0147 -0.65755,-0.0196 -0.87109,0.40234 -0.48597,0.92372 -1.28666,1.08914 -1.83008,0.44727 -0.33139,-0.33139 -1.13575,-0.2218 -1.33984,0.26758 -0.61104,1.55754 -1.50031,1.03291 -2.25391,0.15625 -0.44568,-0.52479 -1.47568,-0.34996 -2.14258,0.40039 -1.09825,1.25491 -1.4072,0.79668 -2.23242,0 -0.81199,-0.68618 -1.63017,-0.35604 -2.27734,0 -0.65545,0.32693 -1.30679,0.45585 -2.09766,0 -0.47474,-0.26684 -1.17855,-0.40847 -1.96484,-0.0215 -0.95237,0.4495 -1.82614,0.55378 -2.85742,-0.0664 -0.49399,-0.23282 -1.05114,-0.3488 -1.71875,-0.0449 -0.90395,0.35906 -1.66606,0.27584 -2.27539,-0.29101 -0.29995,-0.3001 -0.51697,-0.64676 -1.27344,-0.22266 -0.56013,0.3713 -1.37459,0.32383 -1.8086,-0.15625 -0.44299,-0.47735 -1.23911,-1.02971 -2.11914,-0.33594 -0.66557,-0.26664 -1.02981,-0.77341 -1.40625,-1.27148 -0.47297,-0.48427 -0.29013,-0.82324 0.84766,-1.00391 0.70178,-0.0918 1.40816,-0.19681 1.96484,0.17774 0.72605,0.23735 1.41136,0.5593 2.36524,0.3125 0.63314,-0.21101 1.14339,-0.12451 1.56836,0.16992 0.54285,0.40101 1.13891,0.50417 1.80078,0.2207 0.91808,-0.47066 1.41059,-0.22086 1.95703,-0.0625 0.89204,0.30652 1.79705,0.48602 2.77734,-0.0312 1.02055,-0.50596 1.76115,-0.41371 2.33594,0.0312 0.56606,0.48526 1.10374,0.31152 1.64063,0.0957 0.75208,-0.3413 1.38491,-0.31971 1.95898,-0.12696 0.67385,0.20372 1.02242,0.70061 2.52539,0.15821 0.77439,-0.38325 1.98148,-0.5447 2.52539,-0.15821 0.4193,0.384 1.41749,0.66711 1.89258,0.18946 0.34571,-0.37833 0.66179,-0.34287 0.97852,-0.31641 0.72412,0.15254 1.41589,0.12041 2.02148,-0.37891 0.44413,-0.44076 0.93144,-0.62221 1.46484,-0.52734 0.64449,0.11395 1.41632,0.18266 2.03125,-0.37891 0.25798,-0.18398 0.62533,-0.28576 0.98438,-0.30859 z"
                 style="fill:#000000;fill-opacity:1;stroke:none;stroke-width:0.99818361;stroke-opacity:1"
                 inkscape:connector-curvature="0" />
              <path
                 sodipodi:nodetypes="cccc"
                 inkscape:connector-curvature="0"
                 style="fill:#000000;fill-opacity:0.50196078;stroke-width:0.35277799"
                 d="m 129.24168,138.27806 0.87548,21.38687 -1.4089,0.003 z"
                 id="path969" />
              <path
                 sodipodi:nodetypes="cccccccccccccccccccccc"
                 inkscape:connector-curvature="0"
                 style="fill:#000000;fill-opacity:0.50196078;stroke:none;stroke-width:0.35277799;stroke-opacity:1"
                 d="m 112.09698,164.88976 17.1447,-45.43031 17.28594,45.5092 -0.77122,-0.4058 -10.52257,-28.01206 c -0.0952,0.0951 5.57231,22.7937 6.34028,25.43306 -1.818,-1.00985 -3.72657,-1.78423 -5.84102,-2.02332 l -0.17638,-2.07164 -2.22527,1.66697 c -0.76068,-0.0334 -1.47253,-0.083 -2.20392,0.0325 l 4.19901,-3.40977 -4.40824,-23.39633 c -0.51201,-1.83504 -2.07474,-2.38744 -2.94962,0 l -4.50115,23.39633 4.12637,3.40977 c -0.72323,-0.0681 -1.45125,-0.11156 -2.20392,-0.0325 l -2.16177,-1.65218 -0.19503,2.05685 c -1.90276,0.43413 -3.70093,1.20812 -5.48644,2.02332 l 5.88114,-25.43306 -10.78342,28.012 z"
                 id="path967" />
              <path
                 sodipodi:nodetypes="ccccc"
                 inkscape:connector-curvature="0"
                 style="fill:#000000;fill-opacity:0.50196078;stroke-width:0.35277799"
                 d="m 159.04412,189.75284 v -1.8036 c 2.58263,0.31667 5.09084,0.98419 7.38064,2.68136 l -0.0115,2.08646 c -2.2229,-1.41014 -4.48555,-2.91678 -7.36914,-2.96422 z"
                 id="path965" />
              <path
                 inkscape:connector-curvature="0"
                 style="fill:#000000;fill-opacity:0.5;stroke-width:0.35277799"
                 d="m 145.45407,176.30768 -0.52066,3.40335 c -8.24521,-10.92606 -23.1494,-11.0357 -31.09638,0.13831 -1.12748,2.09205 -1.20378,2.45415 -1.32693,6.29733 -0.12655,3.94895 -0.10071,4.12154 0.81843,5.46806 0.80334,1.17686 0.91658,1.63203 0.73734,2.96365 -0.11648,0.86529 -0.369,1.73047 -0.56116,1.92264 -0.19217,0.19216 -0.34939,0.87127 -0.34939,1.50913 0,0.96842 -0.23164,1.30597 -1.40411,2.04611 -0.77225,0.4875 -1.46939,0.88637 -1.54919,0.88637 -11.000708,-20.5975 14.9492,-45.86209 35.25205,-24.63495 z"
                 id="path963"
                 sodipodi:nodetypes="cccccccsccc" />
              <path
                 inkscape:connector-curvature="0"
                 style="fill:#000000;fill-opacity:0.5;stroke-width:0.35277799"
                 d="m 140.4731,206.80101 c 0.86388,-2.3865 1.70123,-3.9364 2.99228,-5.53858 1.81714,-2.25505 2.30051,-3.90423 1.40637,-4.79836 -0.21249,-0.21249 -0.41092,-1.15705 -0.44097,-2.09903 -0.041,-1.28373 0.14899,-1.99816 0.75836,-2.85249 0.74292,-1.04158 0.80761,-1.47744 0.75063,-5.05762 l -0.0624,-3.91782 2.54886,-1.35003 c 4.03617,11.17762 1.83491,21.98306 -8.89448,28.92245 -0.14203,0.003 0.28156,-1.4859 0.94131,-3.30852 z"
                 id="path949"
                 sodipodi:nodetypes="csccccccccc" />
              <path
                 inkscape:connector-curvature="0"
                 style="fill:#000000;fill-opacity:0.5;stroke-width:0.35277799"
                 d="m 113.07802,205.36248 0.70763,-5.64001 2.07299,2.64293 c 1.29264,1.65205 2.21055,3.29788 2.79086,5.00405 0.47559,1.39829 0.7712,2.82285 0.7712,2.82285 -0.0528,0.0645 -4.64398,-2.60029 -6.34268,-4.82982 z"
                 id="path947"
                 sodipodi:nodetypes="cccccc" />
              <path
                 sodipodi:nodetypes="cccccccc"
                 inkscape:connector-curvature="0"
                 style="fill:#00001b;fill-opacity:1;stroke-width:0.35277799"
                 d="m 100.46028,207.6271 4.22455,-2.90383 c -14.7945,-27.03502 16.91484,-53.07636 39.86229,-37.59233 v 4.48587 c -21.79361,-16.24149 -49.710293,9.57703 -36.27102,31.08971 l 4.31453,-2.28303 -1.89574,11.41148 z"
                 id="path945" />
              <path
                 inkscape:connector-curvature="0"
                 style="fill:#000000;fill-opacity:0.5;stroke-width:0.35277799"
                 d="m 121.6987,211.45697 -2.09348,-7.33931 c 1.13251,0.14358 1.65843,2.23238 1.66398,3.11618 0,0.91615 0.23264,1.99793 0.51696,2.40386 0.43513,3.26599 13.47615,3.02132 14.46392,0 0.33367,-0.61097 0.55645,-1.68639 0.70703,-2.59924 0.23373,-1.41695 2.08675,-3.85498 1.93072,-3.27358 l -1.99505,7.43371 c -5.17932,1.76735 -10.26677,2.18719 -15.19408,0.25838 z"
                 id="path923"
                 sodipodi:nodetypes="cccccsscc" />
              <path
                 inkscape:connector-curvature="0"
                 style="fill:#000000;fill-opacity:0.50196078;stroke-width:0.35277799"
                 d="m 85.674178,211.81074 2.395499,-1.34023 c -5.669994,-8.94629 0.497747,-21.6116 11.3273,-22.51755 l -0.0035,1.91766 c -9.003883,0.68852 -14.340353,10.96141 -9.638819,19.53871 l 2.082568,-1.28655 -0.78529,5.74647 z"
                 id="path921"
                 sodipodi:nodetypes="cccccccc" />
              <path
                 sodipodi:nodetypes="cccccccc"
                 inkscape:connector-curvature="0"
                 style="fill:#000000;fill-opacity:0.50196078;stroke-width:0.35277799"
                 d="m 149.43926,214.96569 v -1.92709 c 7.85515,7.62213 26.85704,-0.15781 19.71261,-16.95282 l -2.23462,1.23368 0.6807,-5.58003 5.23256,2.20944 -2.127,1.36241 c 7.99024,19.70609 -14.14289,27.00132 -21.26425,19.65441 z"
                 id="path919" />
              <path
                 sodipodi:nodetypes="cccccc"
                 inkscape:connector-curvature="0"
                 style="fill:#000000;fill-opacity:0.50196078;stroke-width:0.35277799"
                 d="m 92.676167,215.20843 -0.06744,-1.81898 c 5.649664,3.88665 11.221823,3.47227 16.351053,-0.0995 l 1.11069,0.92348 c -4.35866,3.62068 -11.742808,5.5117 -17.394303,0.99497 z"
                 id="path917" />
              <path
                 inkscape:connector-curvature="0"
                 style="fill:#000000;fill-opacity:0.50196078;stroke-width:0.35277799"
                 d="m 141.6144,221.85739 c -0.71302,-0.10936 -0.9396,-0.30489 -0.79375,-0.68497 0.11226,-0.29255 0.20411,-0.675 0.20411,-0.84989 0,-0.24922 2.21397,-1.58224 3.95438,-2.38093 0.13762,-0.0632 -0.12511,0.80907 -0.58383,1.93826 -0.85365,2.10131 -1.0524,2.24265 -2.78091,1.97753 z"
                 id="path913" />
              <path
                 inkscape:connector-curvature="0"
                 style="fill:#000000;fill-opacity:0.50196078;stroke-width:0.35277799"
                 d="m 114.71334,220.46353 c -0.37184,-0.93626 -0.73089,-1.82779 -0.79789,-1.98118 -0.067,-0.15338 0.7662,0.15664 1.85155,0.68894 1.08535,0.53231 2.06748,1.26434 2.1825,1.62674 0.26175,0.82472 0.23834,0.84517 -1.29588,1.13169 -1.24747,0.23298 -1.27316,0.21357 -1.94028,-1.46619 z"
                 id="path911" />
              <path
                 inkscape:connector-curvature="0"
                 style="fill:#000000;fill-opacity:0.50196078;stroke-width:0.35277799"
                 d="m 122.38161,221.62541 0.82084,0.45307 2.91546,7.94972 -0.91855,-0.30122 z"
                 id="path907"
                 sodipodi:nodetypes="ccccc" />
              <path
                 inkscape:connector-curvature="0"
                 style="fill:#000000;fill-opacity:0.50196078;stroke-width:0.35277799"
                 d="m 126.91379,230.0282 c 0,-0.0787 -0.47639,-1.79126 -1.05847,-3.80573 -0.58209,-2.01446 -1.05834,-3.73377 -1.05834,-3.82069 3.05667,0.39427 6.11335,0.37919 9.17002,0 -0.005,0.48353 -2.05027,7.43446 -2.24223,7.62642 -1.63125,0.42697 -3.23916,0.49428 -4.81098,0 z"
                 id="path903"
                 sodipodi:nodetypes="cccccc" />
            </g>
          </g>
          <path
             sodipodi:nodetypes="cccccccc"
             inkscape:connector-curvature="0"
             style="fill:#00001b;fill-opacity:1;stroke-width:0.26410356"
             d="m 181.263,148.23963 -3.2926,2.10305 c 11.07575,20.23949 -12.66311,39.73507 -29.84248,28.14311 v -3.3583 c 16.31556,12.15902 37.21509,-7.16974 27.15392,-23.27499 l -3.23003,1.70917 1.41923,-8.54309 z"
             id="path945-3" />
        </g>
        <path
           inkscape:connector-curvature="0"
           style="fill:#000000;fill-opacity:0.50196078;stroke-width:0.26410356"
           d="m 165.15676,183.86742 -0.61451,0.33919 -2.18263,5.95147 0.68767,-0.2255 z"
           id="path907-9"
           sodipodi:nodetypes="ccccc" />
      </g>
      <path
         sodipodi:nodetypes="csscccccccccccccccccccccccccccccccccccccccccccccssccscccccscc"
         inkscape:connector-curvature="0"
         id="path951-2"
         transform="matrix(0.26458334,0,0,0.26458334,59.62574,110.15787)"
         d="m 102.89648,209.14258 c -4.236053,0.93711 -8.308496,3.16507 -11.800777,6.67969 -4.287946,4.31538 -5.224609,6.6867 -5.224609,13.20703 0,4.33024 0.169835,5.50183 0.914062,6.32422 1.098471,1.21383 1.297672,6.16833 0.261719,6.51367 -1.507491,0.50249 -0.628452,3.09109 2.228516,6.55469 2.867637,3.47659 3.714581,3.99835 4.771484,2.9414 0.951349,-0.95134 3.310547,2.38332 3.310547,4.67969 0.498654,6.57261 13.180368,7.4407 18.267578,3.0332 l -1.33398,-0.85156 c -0.14989,-0.002 -0.29487,0.0143 -0.39258,0.20508 -0.25421,0.48313 -0.67281,0.57003 -0.95703,0.23437 -0.17333,-0.1731 -0.59443,-0.11562 -0.70118,0.14063 -0.31955,0.81471 -0.78357,0.53872 -1.17773,0.0801 -0.23308,-0.27478 -0.77228,-0.18176 -1.12109,0.21093 -0.57444,0.65636 -0.73635,0.4167 -1.16797,0 -0.42471,-0.35867 -0.85291,-0.18671 -1.19141,0 -0.34284,0.17084 -0.684,0.23849 -1.09765,0 -0.24836,-0.13946 -0.61609,-0.21392 -1.02735,-0.0117 -0.49813,0.23547 -0.95473,0.28838 -1.49414,-0.0351 -0.25837,-0.1217 -0.54925,-0.18098 -0.89844,-0.0215 -0.4728,0.18785 -0.8727,0.14473 -1.1914,-0.15234 -0.15689,-0.15685 -0.27034,-0.33905 -0.66602,-0.11719 -0.29299,0.19427 -0.71831,0.16931 -0.94531,-0.082 -0.23172,-0.24983 -0.647126,-0.53824 -1.107423,-0.17578 -0.348132,-0.13946 -0.539434,-0.40339 -0.736328,-0.66406 -0.24737,-0.25323 -0.151705,-0.43064 0.443359,-0.52539 0.36703,-0.048 0.736177,-0.10399 1.027344,0.0918 0.379758,0.12397 0.739368,0.29257 1.238278,0.16407 0.33117,-0.11037 0.59805,-0.0644 0.82032,0.0898 0.28391,0.20976 0.59522,0.26301 0.9414,0.11523 0.48019,-0.24642 0.73763,-0.11471 1.02344,-0.0293 0.46657,0.16063 0.94039,0.25436 1.45312,-0.0117 0.53379,-0.26495 0.92006,-0.21619 1.22071,0.0117 0.29609,0.25398 0.57856,0.16108 0.85937,0.0488 0.39339,-0.17878 0.72318,-0.16732 1.02344,-0.0664 0.35244,0.10658 0.53615,0.36783 1.32227,0.084 0.40505,-0.20069 1.03582,-0.28619 1.32031,-0.084 0.21936,0.20069 0.74174,0.34944 0.99023,0.0996 0.18082,-0.19805 0.34608,-0.17962 0.51172,-0.16602 0.26198,0.0552 0.51355,0.0588 0.75,-0.0273 0.21093,-1.8767 -11.0246,-4.52661 -14.255858,-9.11328 l 7.796878,-5.17969 c 0.069,-0.0738 0.13626,-0.13201 0.19726,-0.15234 0.0123,-0.004 0.0245,-0.003 0.0371,-0.004 l 4.73633,-3.14648 c -6.67995,-8.56241 -8.302,-19.50502 -8.97852,-30.89258 z m -12.011714,22.14648 c 0.282822,-0.0189 0.262808,0.35088 -0.304688,1.03516 -0.363212,0.43763 -0.902726,0.79687 -1.199219,0.79687 -0.296504,0 -0.113148,-0.47083 0.408203,-1.04687 0.472373,-0.52203 0.875709,-0.7711 1.095704,-0.78516 z m 7.111328,4.44336 c 1.580424,0 2.409276,0.35655 3.611326,1.5586 2.27253,2.27244 1.94719,4.37786 -1.02734,6.64062 v 0.002 c -3.113093,2.3681 -6.108466,2.40739 -8.404299,0.11133 -1.878485,-1.87842 -2.002835,-3.11216 -0.548828,-5.46484 1.177773,-1.90564 3.286339,-2.84766 6.369141,-2.84766 z"
         style="fill:#000000;fill-opacity:0.50196078;stroke:none;stroke-width:0.52209181;stroke-opacity:1" />
      <path
         sodipodi:nodetypes="ccccccccccccccsccsccccsccccccccccccccccccccccccccccccccccccccccccccacc"
         inkscape:connector-curvature="0"
         id="path951-5"
         transform="matrix(0.26458334,0,0,0.26458334,59.62574,110.15787)"
         d="m 271.92773,208.16992 c -1.69948,12.21829 -5.66198,23.30508 -9.66601,34.3711 -2.23488,3.30717 -5.64989,5.18828 -7.22852,9.08984 0.94176,0.96199 1.88282,2.83875 1.88282,4.30273 0.61345,8.08524 19.34968,7.70204 20.65429,-0.40429 0.63647,-2.83253 2.57379,-5.12119 3.60938,-4.26172 1.07244,0.89008 1.97225,0.29835 4.92187,-3.2461 2.69976,-3.24404 3.41102,-5.4698 2.15039,-6.73046 -1.09527,-1.09527 -0.80669,-4.83807 0.51172,-6.6211 1.14947,-1.55467 1.22565,-2.05773 0.98633,-6.63281 -0.33071,-6.3219 -1.82079,-9.5832 -6.25391,-13.6875 -3.50261,-3.24276 -7.47623,-5.29686 -11.56836,-6.17969 z m 12.16602,22.31641 c 0.0643,-0.0189 0.34886,0.22887 0.91602,0.73242 0.62717,0.55688 1.14062,1.0965 1.14062,1.19727 0,0.67003 -1.13421,-0.0282 -1.65234,-1.01368 -0.31181,-0.59478 -0.46855,-0.89296 -0.4043,-0.91601 z m -7.09961,4.76953 c 3.13848,0 5.28532,0.96025 6.48438,2.90039 1.47397,2.38488 1.35284,3.81494 -0.47657,5.64453 -2.26424,2.26432 -5.49895,2.19203 -8.63672,-0.19531 -3.0283,-2.30362 -3.36047,-4.44816 -1.04687,-6.76172 1.22381,-1.22385 2.0668,-1.58789 3.67578,-1.58789 z m -10.08984,7.57812 0.002,0.002 c 0.73005,0.0265 2.09225,3.93195 2.56836,7.4375 0.36737,2.70572 0.23073,2.88432 -1.4043,1.86328 -0.84041,-0.52479 -1.27099,-0.52479 -2.11133,0 -1.5177,0.94783 -1.60633,0.87521 -1.57031,-1.33203 0.0416,-2.49661 1.63731,-7.68902 2.44727,-7.95899 0.0189,-0.0113 0.0464,-0.0117 0.0684,-0.0117 z m 9.00586,13.89258 c 0.31861,-0.0189 0.62317,0.0768 0.62695,0.28321 0.0265,0.22374 -0.20777,0.53682 -0.77149,0.54687 -0.34507,-0.0378 -0.34688,0.11053 -0.40429,0.22656 -0.25663,0.51999 -0.68077,0.48806 -1.14063,0.36719 -0.17574,-0.0113 -0.34954,-0.0108 -0.46289,0.21484 -0.25852,0.49172 -0.68525,0.5798 -0.97461,0.23829 -0.17688,-0.17689 -0.60618,-0.11821 -0.71484,0.14257 -0.32542,0.82938 -0.79798,0.5493 -1.19922,0.082 -0.23735,-0.2793 -0.78554,-0.18698 -1.14062,0.2129 -0.58485,0.66822 -0.75005,0.42432 -1.18946,0 -0.43211,-0.36548 -0.86827,-0.18974 -1.21289,0 -0.34923,0.17423 -0.69603,0.24302 -1.11719,0 -0.25285,-0.14211 -0.62622,-0.21613 -1.04492,-0.01 -0.50725,0.23924 -0.97232,0.29354 -1.52148,-0.0391 -0.26306,-0.12397 -0.56052,-0.18489 -0.91602,-0.0254 -0.48132,0.19124 -0.88646,0.14573 -1.21094,-0.15625 -0.15949,-0.1595 -0.27671,-0.34321 -0.67968,-0.11719 -0.29859,0.19729 -0.73181,0.17227 -0.96289,-0.084 -0.23585,-0.25437 -0.65837,-0.54922 -1.12696,-0.17969 -0.35452,-0.14211 -0.54953,-0.41065 -0.75,-0.67578 -0.25171,-0.25815 -0.15468,-0.4389 0.45118,-0.53516 0.37341,-0.0465 0.75048,-0.10386 1.04687,0.0957 0.38653,0.12662 0.75184,0.29755 1.25977,0.16602 0.33713,-0.11263 0.60766,-0.067 0.83398,0.0898 0.28913,0.21355 0.60654,0.26799 0.95899,0.11719 0.4891,-0.25058 0.75198,-0.1166 1.04296,-0.0293 0.47513,0.16328 0.95649,0.25802 1.47852,-0.0156 0.54338,-0.26948 0.93811,-0.21984 1.24414,0.0156 0.30161,0.25852 0.5872,0.16493 0.87305,0.0508 0.40051,-0.18179 0.73724,-0.16958 1.04297,-0.0664 0.35905,0.10809 0.54535,0.37274 1.3457,0.084 0.41242,-0.20409 1.05409,-0.28997 1.34375,-0.084 0.22337,0.20447 0.75481,0.35592 1.00781,0.10156 0.18406,-0.20145 0.35269,-0.18391 0.52149,-0.16992 0.38547,0.0813 0.7537,0.0645 1.07617,-0.20117 0.23622,-0.23471 0.4971,-0.3319 0.78125,-0.28125 0.34318,0.0605 0.75262,0.0978 1.08008,-0.20118 0.13719,-0.0979 0.33456,-0.15196 0.52539,-0.16406 z"
         style="fill:#000000;fill-opacity:0.50196078;stroke:none;stroke-width:0.53152913;stroke-opacity:1" />
    </g>
  </g>
</svg>
