<?xml version="1.0" encoding="UTF-8" standalone="no"?>
<!-- Created with Inkscape (http://www.inkscape.org/) -->

<svg
   width="512"
   height="512"
   viewBox="0 0 135.46667 135.46667"
   version="1.1"
   id="svg5"
   xml:space="preserve"
   inkscape:version="1.2.2 (732a01da63, 2022-12-09)"
   sodipodi:docname="Shadow_Pounce.svg"
   xmlns:inkscape="http://www.inkscape.org/namespaces/inkscape"
   xmlns:sodipodi="http://sodipodi.sourceforge.net/DTD/sodipodi-0.dtd"
   xmlns="http://www.w3.org/2000/svg"
   xmlns:svg="http://www.w3.org/2000/svg"><sodipodi:namedview
     id="namedview7"
     pagecolor="#ffffff"
     bordercolor="#666666"
     borderopacity="1.0"
     inkscape:showpageshadow="2"
     inkscape:pageopacity="0"
     inkscape:pagecheckerboard="true"
     inkscape:deskcolor="#d1d1d1"
     inkscape:document-units="px"
     showgrid="false"
     inkscape:zoom="1.829812"
     inkscape:cx="-112.03337"
     inkscape:cy="154.11419"
     inkscape:window-width="3840"
     inkscape:window-height="2107"
     inkscape:window-x="-8"
     inkscape:window-y="-8"
     inkscape:window-maximized="1"
     inkscape:current-layer="svg5" /><defs
     id="defs2" /><g
     inkscape:groupmode="layer"
     id="layer2"
     inkscape:label="Superjump"
     style="display:inline"><path
       id="path489"
       style="fill:#000000;fill-opacity:1;stroke:none;stroke-width:0.292421px;stroke-linecap:butt;stroke-linejoin:miter;stroke-opacity:1"
       d="M 65.150547,19.687688 5.372282,27.541472 3.7899496,65.440452 25.117847,49.537546 c 6.907056,1.284315 13.190992,4.562529 19.352825,8.231539 l 4.576465,-4.124813 c 6.337893,2.469313 11.554815,5.780116 15.482259,10.057268 l -3.730005,5.183663 C 81.912326,85.836797 90.132458,99.177564 102.04597,117.71737 92.103994,97.790315 82.479206,79.270559 73.117503,72.176992 l 2.768306,-6.73654 C 68.293178,56.736207 60.620475,52.063454 52.946124,47.485992 c 10.809655,2.79047 21.227873,7.291815 30.453955,17.006714 -3.141238,5.211828 -2.695708,5.841268 -3.33313,7.853784 C 91.11217,85.27016 101.15923,98.434489 107.86525,112.40554 102.58786,99.598638 96.669307,86.79155 88.993537,73.984633 l 14.408423,12.769764 4.74596,-4.011642 c 8.65567,6.091559 15.6312,16.9628 21.80953,30.736625 -3.80304,-14.116205 -10.36806,-27.938692 -21.2447,-41.302388 l -5.59346,5.424475 -11.469585,-11.860259 4.011642,-3.734139 C 81.252277,50.66525 66.031357,40.088046 46.408538,33.662029 Z m 43.852103,71.291257 -3.43596,2.157491 c 6.93719,9.134584 11.34914,15.583934 16.26102,22.693194 -4.19539,-8.33647 -8.32542,-16.717054 -12.82506,-24.850685 z" /><path
       id="path487"
       style="fill:#000000;fill-opacity:0.497175;stroke:none;stroke-width:0.292421px;stroke-linecap:butt;stroke-linejoin:miter;stroke-opacity:1"
       d="m 74.8683,28.219467 -8.531262,6.609932 c 7.09239,3.505584 13.505367,7.100319 19.298047,10.688237 L 94.520848,40.31537 C 88.375475,35.94432 81.781733,31.948155 74.8683,28.219467 Z m 23.781495,15.143779 -8.422225,5.079793 c 2.821169,1.849743 5.477884,3.690903 7.978841,5.510258 l 9.995769,-2.502689 c -3.01698,-2.835394 -6.20886,-5.525086 -9.552385,-8.087362 z m 13.936615,12.444718 -9.14311,2.09703 c 3.46334,2.710031 6.575,5.346859 9.35964,7.865153 l 7.27449,-1.104325 c -2.31947,-3.101119 -4.82249,-6.048708 -7.49102,-8.857858 z m -83.483793,4.334103 -7.571631,5.599141 c 6.441597,2.672071 12.471856,5.577419 18.120858,8.706963 l 7.680669,-4.438489 C 41.932117,66.555969 35.876893,63.261594 29.102617,60.142067 Z m 94.373053,9.383407 -5.90817,0.738456 c 9.86757,9.714502 14.41476,16.917888 15.32775,18.354952 -2.44992,-6.941537 -5.62632,-13.275327 -9.41958,-19.093408 z m -71.64059,3.506762 -7.21558,4.283977 c 3.34987,2.015874 6.557685,4.117054 9.629903,6.301424 l 8.224821,-2.015381 c -3.179887,-2.945814 -6.7158,-5.80504 -10.639144,-8.57002 z m 15.16755,13.076722 -7.312732,1.574581 c 3.14902,2.472154 6.143175,5.041489 8.993767,7.704439 1.719558,-0.257808 3.582202,-0.542455 5.225004,-0.794266 -2.03492,-2.893281 -4.328481,-5.723463 -6.906039,-8.484754 z m 10.227283,13.646196 c -1.111116,0.13663 -2.35084,0.290506 -3.645255,0.451656 3.052337,3.15624 5.925919,6.43131 8.62893,9.82575 -1.368784,-3.49695 -3.019333,-6.92533 -4.983675,-10.277406 z" /></g></svg>
