<?xml version="1.0" encoding="UTF-8" standalone="no"?>
<svg
   width="512"
   height="512"
   viewBox="0 0 135.46667 135.46667"
   version="1.1"
   id="svg8"
   inkscape:version="1.1 (c68e22c387, 2021-05-23)"
   sodipodi:docname="Stalker.svg"
   xmlns:inkscape="http://www.inkscape.org/namespaces/inkscape"
   xmlns:sodipodi="http://sodipodi.sourceforge.net/DTD/sodipodi-0.dtd"
   xmlns="http://www.w3.org/2000/svg"
   xmlns:svg="http://www.w3.org/2000/svg"
   xmlns:rdf="http://www.w3.org/1999/02/22-rdf-syntax-ns#"
   xmlns:cc="http://creativecommons.org/ns#"
   xmlns:dc="http://purl.org/dc/elements/1.1/">
  <defs
     id="defs2">
    <linearGradient
       id="linearGradient1099-6-5"
       inkscape:swatch="gradient">
      <stop
         style="stop-color:#273839;stop-opacity:0.5"
         offset="0"
         id="stop1151" />
      <stop
         style="stop-color:#273839;stop-opacity:1"
         offset="1"
         id="stop1153" />
    </linearGradient>
  </defs>
  <sodipodi:namedview
     id="base"
     pagecolor="#ffffff"
     bordercolor="#666666"
     borderopacity="1.0"
     inkscape:pageopacity="0.0"
     inkscape:pageshadow="2"
     inkscape:zoom="1.979899"
     inkscape:cx="172.23101"
     inkscape:cy="258.85159"
     inkscape:document-units="px"
     inkscape:current-layer="g2326"
     inkscape:document-rotation="0"
     showgrid="false"
     inkscape:pagecheckerboard="true"
     inkscape:object-nodes="true"
     fit-margin-top="0"
     fit-margin-left="0"
     fit-margin-right="0"
     fit-margin-bottom="0"
     inkscape:window-width="2560"
     inkscape:window-height="1387"
     inkscape:window-x="-8"
     inkscape:window-y="-8"
     inkscape:window-maximized="1"
     units="px" />
  <metadata
     id="metadata5">
    <rdf:RDF>
      <cc:Work
         rdf:about="">
        <dc:format>image/svg+xml</dc:format>
        <dc:type
           rdf:resource="http://purl.org/dc/dcmitype/StillImage" />
      </cc:Work>
    </rdf:RDF>
  </metadata>
  <g
     inkscape:label="Layer 1"
     inkscape:groupmode="layer"
     id="layer1"
     transform="translate(-59.62574,-110.15787)">
    <path
       style="fill:#000000;stroke-width:0.264583"
       id="path853"
       d="" />
    <path
       style="fill:#000000;stroke-width:0.264583"
       id="path849"
       d="" />
    <g
       id="g1061"
       transform="translate(9.0714285,1.8898814)">
      <g
         id="g1320"
         transform="translate(7.2162774,44.901282)">
        <g
           id="g2326"
           transform="matrix(1.1117351,0,0,1.1117349,-13.382861,-17.626302)">
          <path
             style="fill:#000000;fill-opacity:1;stroke-width:0.352778"
             d="m 98.152431,156.79719 c -0.43028,-0.97303 -1.743132,-4.94178 -2.917452,-8.81945 -1.631346,-5.38682 -2.188001,-7.79945 -2.359226,-10.22532 -0.123257,-1.74625 -0.366067,-3.73062 -0.53958,-4.40972 -0.33581,-1.31431 0.364285,-6.8459 0.938177,-7.41268 0.170123,-0.16802 1.658694,-0.80072 3.30793,-1.40599 1.649236,-0.60527 3.52362,-1.40868 4.1653,-1.78536 0.64169,-0.37667 1.21745,-0.68486 1.27948,-0.68486 0.39734,0 1.72135,4.00936 1.87175,5.66802 0.17443,1.92364 0.10475,2.13517 -1.80365,5.47558 -2.3781,4.16253 -2.485274,5.22802 -0.92948,9.2407 1.24363,3.20755 5.75703,10.46601 7.1458,11.49188 1.16414,0.85995 5.08705,1.02869 6.82749,0.29367 1.34996,-0.5701 4.80404,-5.70811 7.14118,-10.62262 2.25996,-4.75224 2.22665,-5.85301 -0.31047,-10.26076 -1.73812,-3.01965 -1.92401,-3.54307 -1.89035,-5.32281 0.025,-1.32183 0.34552,-2.64704 0.97032,-4.01179 0.80182,-1.75141 1.009,-1.97488 1.47346,-1.58941 0.29725,0.2467 2.32123,1.11716 4.49773,1.93437 l 3.95727,1.48583 0.29059,2.4302 c 0.15982,1.33661 0.44127,2.71167 0.62543,3.05568 0.2067,0.38614 0.20986,0.85901 0.008,1.23573 -0.17962,0.33563 -0.51763,2.51478 -0.75114,4.84256 -0.34042,3.3937 -0.84415,5.59545 -2.54215,11.11151 -1.16468,3.78354 -2.46461,7.56232 -2.88874,8.39729 l -0.77114,1.51812 -13.00722,0.0694 -13.007225,0.0694 -0.782327,-1.76912 z m 9.899769,-6.01726 c -2.12751,-2.7893 -5.80426,-9.45462 -6.20623,-11.25083 -0.38843,-1.73568 -0.3545,-1.995 0.49206,-3.76073 0.5001,-1.04308 1.49662,-2.80863 2.21451,-3.92345 1.77661,-2.75896 1.90872,-4.45829 0.68251,-8.77916 -0.90494,-3.18882 -1.03617,-3.41729 -2.77286,-4.8275 -2.494443,-2.02552 -5.035952,-2.93385 -8.702132,-3.11012 -2.518812,-0.1211 -3.196174,-0.0318 -4.233334,0.55823 -0.679097,0.38632 -2.425347,1.28206 -3.880555,1.99053 -1.455209,0.70847 -2.716319,1.35245 -2.80247,1.43106 -0.379423,0.3462 4.450672,4.70018 6.039919,5.44455 l 1.758262,0.82352 -0.224356,2.48403 c -0.123399,1.36622 -0.402499,2.84376 -0.620219,3.28344 -0.310466,0.62696 -0.272768,1.05753 0.174756,1.996 0.313838,0.65813 0.668789,2.2034 0.788779,3.43393 0.11999,1.23053 0.297452,2.61902 0.394356,3.08552 0.171849,0.82731 0.145521,0.82127 -1.069276,-0.24534 -1.399643,-1.2289 -2.642507,-1.64269 -6.727667,-2.23989 -4.184088,-0.61165 -5.059273,-1.58933 -7.194567,-8.03712 -0.605468,-1.8283 -1.100851,-3.76463 -1.100851,-4.30296 0,-0.53834 0.626271,-3.51968 1.391714,-6.6252 1.24888,-5.0669 1.527745,-6.65501 1.925715,-10.96672 0.113256,-1.22705 0.122423,-1.23301 3.627086,-2.36181 5.770369,-1.85854 14.231896,-3.28758 19.463,-3.28704 l 1.63832,1.7e-4 0.0877,2.02392 c 0.26235,6.05584 3.74175,9.25011 9.61784,8.82967 2.83339,-0.20272 5.05495,-1.29146 6.24728,-3.06164 1.04583,-1.55266 1.86248,-4.3234 1.86248,-6.31903 v -1.57368 l 3.89896,0.24672 c 6.53472,0.41349 15.36598,2.18069 19.47284,3.89665 1.20408,0.50309 1.32264,0.67455 1.32264,1.9128 0,2.03345 0.92224,6.93551 2.32141,12.33914 l 1.24599,4.81206 -0.58591,2.09504 c -1.01607,3.63318 -2.6015,7.42401 -3.61029,8.63238 -0.90951,1.08945 -1.23556,1.20957 -4.98672,1.83711 -3.97978,0.66578 -5.99626,1.48228 -6.71879,2.72053 -0.87046,1.49177 -0.0825,-5.19346 0.82706,-7.01663 0.43809,-0.87818 0.44478,-1.18467 0.0438,-2.00663 -0.26027,-0.53358 -0.52592,-2.00201 -0.59032,-3.26319 l -0.1171,-2.29306 2.10727,-1.11895 c 1.74243,-0.92523 6.17182,-4.91494 5.7704,-5.19761 -0.0641,-0.0451 -1.14843,-0.51983 -2.40962,-1.05486 -1.26118,-0.53504 -2.53699,-1.19273 -2.83513,-1.46154 -2.45442,-2.21293 -8.18956,-2.04752 -12.62029,0.36399 -2.989,1.62681 -3.80139,2.74241 -4.84076,6.64746 -1.16524,4.37794 -1.02356,5.27457 1.48881,9.42207 2.20821,3.64538 2.56623,5.17991 1.76033,7.54511 -0.60219,1.76733 -4.68377,8.73095 -6.11311,10.42962 -0.85874,1.02055 -0.99882,1.05943 -3.81683,1.05943 h -2.92538 z m 6.49841,-5.36653 c 0.88596,-0.92821 2.29372,-2.89559 3.12835,-4.37198 l 1.51751,-2.68433 -1.62552,-2.94817 c -1.78216,-3.23225 -4.51352,-6.29955 -5.60961,-6.29955 -1.11598,0 -4.1518,3.45842 -5.72889,6.52639 l -1.45077,2.82222 1.63294,2.73097 c 2.06972,3.46147 4.40041,5.91209 5.62274,5.91209 0.61778,0 1.41047,-0.53229 2.51325,-1.68764 z m -3.5518,-4.045 c -1.04571,-0.86193 -3.91274,-4.49792 -3.54668,-4.49792 0.20472,0 1.12055,-0.9525 2.03517,-2.11667 2.12722,-2.70761 2.74767,-2.74205 4.7656,-0.26458 0.8297,1.01865 1.7245,2.03337 1.98843,2.25494 0.3905,0.32782 0.11151,0.83709 -1.49778,2.73403 -1.97838,2.332 -2.74145,2.71717 -3.74474,1.8902 z m 0.0474,-4.8507 c 0,-0.97014 -0.087,-1.76389 -0.19331,-1.76389 -0.10632,0 -0.55407,0.41941 -0.995,0.93202 l -0.80169,0.93203 0.73041,0.79461 c 1.08109,1.17611 1.25959,1.04931 1.25959,-0.89477 z m 3.175,0.88195 0.82854,-0.88195 -0.82854,-0.88194 c -0.4557,-0.48507 -0.91994,-0.88195 -1.03163,-0.88195 -0.1117,0 -0.20309,0.79375 -0.20309,1.76389 0,0.97014 0.0914,1.76389 0.20309,1.76389 0.11169,0 0.57593,-0.39687 1.03163,-0.88194 z M 83.995373,133.9548 c 0.287468,-1.22272 0.215142,-1.43569 -0.91078,-2.68196 -0.672674,-0.74456 -1.862629,-2.63161 -2.644344,-4.19343 l -1.4213,-2.83967 -1.330748,1.36281 -1.330748,1.36281 1.305108,3.08309 c 0.717808,1.6957 1.71102,3.61527 2.207136,4.26571 0.802047,1.05154 1.063382,1.17078 2.357719,1.07572 1.363783,-0.10015 1.475406,-0.19076 1.767957,-1.43508 z m 60.034947,0.35804 c 0.5013,-0.63059 1.54159,-2.57129 2.31176,-4.31268 l 1.40031,-3.16614 -1.36243,-1.36243 -1.36242,-1.36242 -1.52557,3.07961 c -0.83906,1.69379 -2.05111,3.60515 -2.69344,4.24749 -0.64233,0.64233 -1.1039,1.37374 -1.0257,1.62535 0.0782,0.25161 0.23785,0.89403 0.35476,1.42761 0.18803,0.85813 0.37299,0.97014 1.60193,0.97014 1.14532,0 1.54944,-0.20138 2.3008,-1.14653 z m -6.31712,-0.67983 c 0.8035,-1.5538 -0.089,-3.40708 -1.3987,-2.90448 -0.43871,0.16834 -0.57389,0.70212 -0.57389,2.26611 0,1.8856 0.0564,2.03115 0.71969,1.8577 0.39582,-0.10352 0.95963,-0.65221 1.2529,-1.21933 z m -49.668178,-0.90424 c -0.120967,-2.31537 -0.838866,-2.85006 -1.818731,-1.3546 -0.539458,0.82331 -0.538452,0.97365 0.01425,2.1327 0.366712,0.769 0.846762,1.24694 1.252449,1.24694 0.577797,0 0.644952,-0.24634 0.55202,-2.02504 z m 20.712108,-5.74243 c 0.71818,-1.13767 0.83868,-1.63406 0.61047,-2.51477 l -0.28434,-1.0973 -0.90972,1.37468 c -0.66303,1.00189 -0.86435,1.68385 -0.7424,2.51477 0.092,0.62705 0.2267,1.14009 0.29925,1.14009 0.0726,0 0.53459,-0.63786 1.02674,-1.41747 z m 7.16131,-2.21481 c -0.44843,-0.70221 -0.93439,-1.28346 -1.07991,-1.29167 -0.57144,-0.0323 -0.22195,2.48643 0.51935,3.74283 l 0.78392,1.32866 0.29598,-1.25153 c 0.24293,-1.02719 0.14983,-1.48041 -0.51934,-2.52829 z m -37.548748,-2.47137 c 0.539114,-0.94405 0.912244,-2.28057 1.029078,-3.68607 0.225435,-2.71193 1.304354,-4.67625 3.801767,-6.92164 3.782074,-3.4004 6.060595,-3.139 18.180703,2.08581 9.65042,4.16017 11.76341,4.18659 20.60104,0.25758 5.96868,-2.65353 10.62606,-4.28399 13.06085,-4.57236 2.4272,-0.28746 5.15661,1.07073 7.11813,3.54207 1.80293,2.27153 2.24591,3.34702 2.55556,6.20454 0.17533,1.6181 0.51801,2.65614 1.19122,3.60844 1.21504,1.71877 1.68227,1.73531 0.82018,0.029 -0.38154,-0.75517 -0.84087,-2.83693 -1.07029,-4.8507 -0.36469,-3.20114 -0.52702,-3.70743 -1.75324,-5.46805 -1.62951,-2.33968 -4.19912,-4.37202 -6.25593,-4.94789 -2.78904,-0.78088 -8.23606,0.62547 -15.3137,3.95381 -4.3443,2.04295 -7.00422,2.74557 -10.42102,2.75275 -3.26301,0.007 -5.88457,-0.70262 -10.39287,-2.81261 -4.52034,-2.11563 -8.210375,-3.36665 -11.564007,-3.92049 -2.242933,-0.37041 -2.726062,-0.34475 -4.214876,0.22383 -1.938581,0.74035 -5.085349,3.5658 -6.267587,5.62759 -0.567102,0.98902 -0.931332,2.46269 -1.20777,4.88663 -0.217691,1.90882 -0.630793,3.92499 -0.918004,4.4804 -1.090589,2.10897 -0.224481,1.70791 1.020766,-0.47267 z m 30.150088,0.58851 c 0.64073,-0.98874 0.77345,-1.54781 0.59423,-2.50313 l -0.23076,-1.23006 -0.99256,1.36097 c -0.75851,1.04004 -0.95158,1.63134 -0.81878,2.5075 0.0956,0.63059 0.27483,1.14456 0.39833,1.14216 0.12349,-0.002 0.59579,-0.57725 1.04954,-1.27744 z m 7.66502,-2.27396 c -0.52699,-0.79632 -1.01839,-1.38762 -1.09202,-1.31399 -0.0736,0.0736 -0.17169,0.69543 -0.21791,1.38179 -0.0575,0.85373 0.18505,1.62583 0.76785,2.4443 l 0.85189,1.19637 0.32417,-1.1303 c 0.27447,-0.95702 0.17727,-1.35229 -0.63398,-2.57817 z m -31.249436,-6.57418 c 0.0059,-0.48498 -1.091893,-1.15894 -1.887813,-1.15894 -0.290586,0 -0.864486,0.47208 -1.275334,1.04906 l -0.746996,1.04906 0.8097,1.09517 0.809698,1.09518 1.14275,-1.35048 c 0.628512,-0.74277 1.145109,-1.54334 1.147995,-1.77905 z m 57.304376,2.1201 0.82085,-0.95428 -0.74957,-1.15801 c -0.41226,-0.63691 -0.93768,-1.15998 -1.16758,-1.16238 -0.70105,-0.007 -2.22783,0.66504 -2.22783,0.9811 0,0.29925 2.16568,3.24786 2.38548,3.24786 0.0648,0 0.48719,-0.42943 0.93865,-0.95429 z m -49.905486,3.9352 c -1.200447,-1.44645 2.729455,-2.36645 4.445183,-1.04063 0.677866,0.52382 0.677866,0.53452 0,1.05833 -0.919886,0.71084 -3.850234,0.69917 -4.445183,-0.0177 z m 34.964406,0.15962 c -0.77169,-0.30836 -0.80305,-0.39672 -0.31422,-0.88554 1.2242,-1.2242 4.87562,-1.25507 4.87562,-0.0412 0,1.23311 -2.51561,1.74421 -4.5614,0.92676 z m -18.74599,-11.36648 c -1.78096,-0.94179 -2.95729,-2.93296 -3.3205,-5.62057 l -0.22646,-1.6757 h 6.90079 6.90078 l -0.002,0.97014 c -0.003,1.45703 -0.6939,3.66609 -1.50247,4.80361 -1.62758,2.28973 -5.89516,3.03229 -8.75017,1.52252 z"
             id="path2322" />
          <path
             style="fill:#000000;fill-opacity:0.50196099;stroke-width:0.352778"
             d="m 94.463317,190.75729 c -0.462298,-0.63059 -3.52237,-4.52325 -6.800166,-8.65034 l -5.959623,-7.50381 -1.765472,-12.17751 -1.765472,-12.17752 3.807207,-3.95478 c 2.093963,-2.17514 3.912472,-4.00044 4.041127,-4.05624 0.452867,-0.1964 3.849059,2.76389 4.405616,3.84016 0.30983,0.59914 0.511933,1.1297 0.449121,1.17901 -0.201055,0.15785 -6.094885,5.23637 -6.539407,5.63479 -0.334877,0.30015 -0.281312,2.5346 0.246253,10.27179 l 0.674229,9.8882 4.112088,7.5743 c 2.261647,4.16587 4.583423,8.40774 5.159498,9.42639 1.191835,2.10746 1.166262,2.38504 -0.065,0.70556 z m 35.244353,-1.32292 c 0.76614,-1.45521 3.07205,-5.72584 5.12423,-9.4903 l 3.73126,-6.84447 0.51806,-7.79581 c 0.28494,-4.2877 0.60315,-8.75248 0.70714,-9.92174 l 0.18907,-2.12594 -2.67317,-2.28379 c -1.47024,-1.25608 -3.07375,-2.6194 -3.56337,-3.02959 -0.86465,-0.72439 -0.87381,-0.77751 -0.31904,-1.85032 0.53544,-1.03543 3.86765,-3.9889 4.37892,-3.88121 0.12809,0.027 1.95171,1.83262 4.05249,4.01253 l 3.81958,3.96348 -1.79316,12.26033 -1.79316,12.26034 -6.26897,7.83826 c -3.44793,4.31104 -6.54659,8.21981 -6.88591,8.68616 -0.33932,0.46635 0.01,-0.34272 0.77603,-1.79793 z m -59.925854,-23.47238 -3.967768,-6.91155 0.259124,-7.60179 0.259125,-7.6018 3.27193,-3.39999 3.271929,-3.39999 1.254018,1.28925 c 0.861042,0.88524 1.698364,1.36433 2.671966,1.52882 l 1.417948,0.23956 -2.548765,1.94854 c -1.401821,1.0717 -3.200988,2.44748 -3.998148,3.0573 l -1.449383,1.10875 -0.40498,5.29167 c -0.22274,2.91041 -0.402466,5.76791 -0.399393,6.35 0.0031,0.58208 1.021416,4.15396 2.262984,7.9375 1.241567,3.78354 2.214597,6.92329 2.162288,6.97723 -0.05231,0.0539 -1.880602,-3.01214 -4.062875,-6.8135 z m 80.142454,6.53905 c 0.097,-0.29105 1.17439,-3.53258 2.39417,-7.20341 l 2.21779,-6.67423 -0.49017,-6.19325 -0.49017,-6.19324 -3.98864,-3.08837 -3.98864,-3.08836 1.41468,-0.22622 c 0.94303,-0.15079 1.81424,-0.62577 2.61309,-1.42462 l 1.1984,-1.1984 3.31584,3.38121 c 1.8237,1.85967 3.32445,3.48963 3.33499,3.62213 0.0105,0.13251 0.14451,3.52441 0.29771,7.53757 l 0.27855,7.29664 -3.79508,6.63808 c -3.56881,6.24231 -4.73722,8.08858 -4.31252,6.81447 z M 67.579092,122.50731 65.563405,120.46622 65.04889,109.40537 64.534375,98.344516 69.504211,91.413702 c 5.096882,-7.107989 5.940361,-8.211012 5.246122,-6.860381 -0.219377,0.426795 -1.748927,3.974796 -3.399001,7.884449 l -3.000133,7.108459 0.710248,8.694791 c 0.640186,7.8371 0.780363,8.74767 1.421035,9.23093 0.673667,0.50815 0.684205,0.62797 0.201785,2.29438 -0.279951,0.96702 -0.639612,2.43859 -0.799245,3.27015 l -0.290243,1.51192 z m 85.880008,-1.41794 c -0.79191,-3.0634 -0.79248,-3.08408 -0.0985,-3.61597 0.6178,-0.47351 0.76033,-1.34539 1.24091,-7.59051 0.29861,-3.88056 0.63155,-7.77026 0.73987,-8.64378 0.17746,-1.431257 -0.13386,-2.367189 -3.15005,-9.470117 -1.84084,-4.335043 -3.29557,-7.827219 -3.23274,-7.76039 0.0628,0.06683 2.4283,3.354243 5.25659,7.305364 l 5.14233,7.183857 -0.16444,1.988366 c -0.0904,1.0936 -0.33528,6.03649 -0.54409,10.9842 l -0.37964,8.99583 -1.81551,1.85209 c -0.99853,1.01864 -1.90163,1.85208 -2.00689,1.85208 -0.10525,0 -0.54978,-1.38646 -0.98785,-3.08102 z M 84.095262,97.959517 c -0.180361,-0.961401 0.231747,-2.450586 2.031588,-7.341293 l 2.257848,-6.135246 6.42504,-4.347132 c 3.533771,-2.390923 6.485842,-4.286329 6.560152,-4.212015 0.0743,0.07431 -2.075317,2.243207 -4.776959,4.819762 l -4.912082,4.684645 -1.815705,5.447822 c -1.713607,5.141493 -1.784498,5.49545 -1.260718,6.29484 l 0.554986,0.847018 -2.012149,0.41772 c -1.106682,0.229747 -2.195209,0.487967 -2.418948,0.573824 -0.236245,0.09065 -0.501657,-0.349544 -0.633053,-1.049945 z m 52.802308,0.543684 -2.19442,-0.494947 0.5489,-0.837739 c 0.51512,-0.786162 0.44389,-1.15594 -1.15696,-6.006228 l -1.70586,-5.16849 -5.29167,-5.288856 c -2.91042,-2.90887 -5.05031,-5.154255 -4.75532,-4.989743 0.74559,0.415807 12.45002,8.265587 12.80643,8.588855 0.1595,0.14467 1.31468,3.020197 2.56707,6.390061 1.6395,4.411477 2.21745,6.398518 2.06411,7.096649 -0.11713,0.533294 -0.31981,1.02267 -0.45041,1.087505 -0.13059,0.06483 -1.22493,-0.104846 -2.43187,-0.377067 z"
             id="path2320"
             sodipodi:nodetypes="sscccsssssscssscscsscssssscccsscscccccsscsscscscssscccccsscscscssccccssscssssccssssscsccscsssssscssscsscsssscsscsssssss" />
        </g>
      </g>
    </g>
  </g>
</svg>
