<?xml version="1.0" encoding="UTF-8" standalone="no"?>
<svg
   xmlns:dc="http://purl.org/dc/elements/1.1/"
   xmlns:cc="http://creativecommons.org/ns#"
   xmlns:rdf="http://www.w3.org/1999/02/22-rdf-syntax-ns#"
   xmlns:svg="http://www.w3.org/2000/svg"
   xmlns="http://www.w3.org/2000/svg"
   xmlns:sodipodi="http://sodipodi.sourceforge.net/DTD/sodipodi-0.dtd"
   xmlns:inkscape="http://www.inkscape.org/namespaces/inkscape"
   width="512"
   height="512"
   viewBox="0 0 135.46667 135.46667"
   version="1.1"
   id="svg8"
   inkscape:version="0.92.4 (5da689c313, 2019-01-14)"
   sodipodi:docname="Skyward_Dive.svg">
  <defs
     id="defs2" />
  <sodipodi:namedview
     id="base"
     pagecolor="#ffffff"
     bordercolor="#666666"
     borderopacity="1.0"
     inkscape:pageopacity="0.0"
     inkscape:pageshadow="2"
     inkscape:zoom="1.4"
     inkscape:cx="220.11236"
     inkscape:cy="245.34008"
     inkscape:document-units="mm"
     inkscape:current-layer="g1151"
     inkscape:document-rotation="0"
     showgrid="false"
     inkscape:pagecheckerboard="true"
     inkscape:object-nodes="true"
     fit-margin-top="0"
     fit-margin-left="0"
     fit-margin-right="0"
     fit-margin-bottom="0"
     inkscape:window-width="1920"
     inkscape:window-height="1017"
     inkscape:window-x="-8"
     inkscape:window-y="-8"
     inkscape:window-maximized="1"
     units="px" />
  <metadata
     id="metadata5">
    <rdf:RDF>
      <cc:Work
         rdf:about="">
        <dc:format>image/svg+xml</dc:format>
        <dc:type
           rdf:resource="http://purl.org/dc/dcmitype/StillImage" />
        <dc:title></dc:title>
      </cc:Work>
    </rdf:RDF>
  </metadata>
  <g
     inkscape:label="Layer 1"
     inkscape:groupmode="layer"
     id="layer1"
     transform="translate(-59.62574,-110.15787)">
    <path
       style="fill:#000000;stroke-width:0.264583"
       id="path853"
       d="" />
    <path
       style="fill:#000000;stroke-width:0.264583"
       id="path849"
       d="" />
    <g
       id="g1151"
       transform="translate(51.782738,2.078869)">
      <g
         id="g1158"
         transform="matrix(1.3656406,0,0,1.3656406,-101.5707,-59.151759)">
        <path
           style="fill:#000000;fill-opacity:1;stroke:none;stroke-width:0.26458299px;stroke-linecap:butt;stroke-linejoin:miter;stroke-opacity:1"
           d="m 123.97088,180.31612 c -1.28283,5.1071 -2.20604,10.33407 -5.0113,14.93369 l -12.46145,-17.97388 8.48581,22.75132 -1.40316,0.0334 -31.136904,-32.40643 23.452904,33.60914 -1.5368,0.3675 -14.532783,-6.01357 9.187389,7.55037 c -12.007294,5.58586 9.210574,10.41996 30.034414,10.32328 27.80493,-0.47958 41.4112,-5.59511 31.33735,-10.25647 l 9.12057,-7.55036 -14.29892,5.94675 -1.83747,-0.50114 23.61994,-33.40869 -31.00327,32.37302 -1.67043,-0.13363 8.4524,-22.2836 -12.32781,17.84024 c -3.06578,-5.34443 -3.87943,-10.25989 -5.17834,-15.26777 -1.4507,0.2727 -2.9049,0.54307 -4.87767,0.46772 1.79168,6.75127 3.58992,17.18461 9.42125,22.51746 20.84347,2.93021 10.58245,7.35382 -4.2095,8.15172 -4.9324,-5.24303 -4.90606,-11.12604 -5.9512,-17.27229 -1.08097,6.09505 -1.82595,12.4512 -6.64387,17.27229 -21.17038,-1.2929 -21.22032,-6.56928 -3.24065,-8.21853 5.4428,-4.79125 7.00588,-14.09137 9.32103,-22.51746 -2.14614,0.16507 -3.66779,-0.0602 -5.11153,-0.33408 z"
           id="path1133"
           sodipodi:nodetypes="ccccccccccccccccccccccccccccc"
           inkscape:connector-curvature="0" />
        <path
           style="fill:#000000;fill-opacity:1;stroke:none;stroke-width:0.26458299px;stroke-linecap:butt;stroke-linejoin:miter;stroke-opacity:1"
           d="m 125.11011,173.9886 c 2.86799,0.56115 5.95497,0.35582 9.07143,0.0473 -1.38118,-7.90757 -2.22377,-15.66826 -2.22061,-23.19829 l 8.26823,10.20535 -10.58326,-30.42708 -10.72515,30.61607 8.36273,-10.53608 c -0.0633,7.43367 -1.12823,15.36815 -2.17337,23.29273 z"
           id="path1135"
           sodipodi:nodetypes="cccccccc"
           inkscape:connector-curvature="0" />
        <path
           style="fill:#000000;fill-opacity:0.506024;stroke:none;stroke-width:0.264583px;stroke-linecap:butt;stroke-linejoin:miter;stroke-opacity:1"
           d="m 122.41074,167.75487 -0.0116,0.805 c -12.54926,1.1555 -18.51168,6.17986 7.09536,7.28247 14.19082,0.30059 29.94824,-4.4894 7.54528,-7.28247 l 0.0607,-0.805 c 6.80342,0.12718 16.16022,2.29711 16.2763,5.178 0.0896,2.22403 -6.82316,5.38381 -23.84884,5.18921 -12.89886,-0.0722 -23.43347,-2.36977 -23.45116,-5.18921 0.54714,-4.42842 15.03936,-5.11897 16.334,-5.178 z"
           id="path1137"
           sodipodi:nodetypes="ccccccccc" />
      </g>
    </g>
  </g>
</svg>
