<?xml version="1.0" encoding="UTF-8" standalone="no"?>
<!-- Created with Inkscape (http://www.inkscape.org/) -->

<svg
   xmlns:dc="http://purl.org/dc/elements/1.1/"
   xmlns:cc="http://creativecommons.org/ns#"
   xmlns:rdf="http://www.w3.org/1999/02/22-rdf-syntax-ns#"
   xmlns:svg="http://www.w3.org/2000/svg"
   xmlns="http://www.w3.org/2000/svg"
   xmlns:sodipodi="http://sodipodi.sourceforge.net/DTD/sodipodi-0.dtd"
   xmlns:inkscape="http://www.inkscape.org/namespaces/inkscape"
   width="512"
   height="512"
   viewBox="0 0 135.46666 135.46667"
   version="1.1"
   id="svg5"
   inkscape:version="0.92.4 (5da689c313, 2019-01-14)"
   sodipodi:docname="Marked_for_Death.svg">
  <metadata
     id="metadata10">
    <rdf:RDF>
      <cc:Work
         rdf:about="">
        <dc:format>image/svg+xml</dc:format>
        <dc:type
           rdf:resource="http://purl.org/dc/dcmitype/StillImage" />
        <dc:title></dc:title>
      </cc:Work>
    </rdf:RDF>
  </metadata>
  <sodipodi:namedview
     id="namedview7"
     pagecolor="#ffffff"
     bordercolor="#666666"
     borderopacity="1.0"
     inkscape:pageshadow="2"
     inkscape:pageopacity="0.0"
     inkscape:pagecheckerboard="0"
     inkscape:document-units="px"
     showgrid="false"
     units="px"
     inkscape:zoom="0.45611672"
     inkscape:cx="-116.15365"
     inkscape:cy="-82.09414"
     inkscape:window-width="1920"
     inkscape:window-height="1017"
     inkscape:window-x="-8"
     inkscape:window-y="-8"
     inkscape:window-maximized="1"
     inkscape:current-layer="layer1" />
  <defs
     id="defs2" />
  <g
     inkscape:label="Layer 1"
     inkscape:groupmode="layer"
     id="layer1">
    <g
       id="g3283"
       transform="matrix(1.2356559,0,0,1.2356559,-25.379918,-65.95897)">
      <g
         id="g1619"
         transform="translate(64.388672,-2.3203125)">
        <path
           style="fill:#000000;fill-opacity:0.50196078;stroke-width:0.35277799"
           d="m -41.137478,111.69641 c 3.507874,-10.75937 22.425824,-24.57862 35.0519897,-26.775542 l 0.955753,3.08895 C -17.98316,90.99832 -32.17302,102.11309 -36.753263,111.69641 c 4.38189,12.34793 21.720655,23.95308 36.64243445,24.47028 l 0.10671122,3.69856 C -15.283716,139.94634 -39.33018,124.84221 -41.137478,111.69641 Z m 62.546091,24.47028 c 17.194253,-0.80862 35.394779,-13.43786 36.86536,-24.47028 -0.08554,-8.11742 -22.190794,-22.848084 -36.86536,-23.686592 v -3.08895 c 14.402581,0.03469 41.778272,15.701192 41.80425,26.775542 -1.993302,13.31671 -24.55398,28.2519 -41.80425,28.16884 z m 0,-10.7328 c -0.422477,-7.21141 1.819447,-8.13292 1.120499,-11.92129 -0.564924,-2.2553 -0.79832,-6.08621 0.11453,-8.48797 0.699222,-1.65067 1.062885,-4.52387 -0.45057,-5.759926 -0.4415,-0.31765 -0.14521,-5.35858 0.32407,-5.51364 4.961643,2.52415 8.649056,10.349836 9.29549,14.462106 1.360897,10.23685 -3.397688,18.39733 -10.404019,21.06872 z m -23.4735553,-30.860326 1.77785497,1.67021 v 7.808576 c 0,6.31965 -0.09876,7.93915 -0.517948,8.49336 -0.28486797,0.37664 -0.52299297,0.95938 -0.52916697,1.29498 -0.0063,0.34289 -0.59074,0.90737 -1.334135,1.28859 -2.425785,1.24394 -3.616491,3.09507 -3.615425,5.62072 0.1631389,4.90647 5.40545023,5.18465 6.04767133,5.3987 v 2.78041 C -18.027112,122.25736 -14.267353,98.942978 -2.0649423,94.573564 Z M -28.50799,111.69641 c 4.358579,-4.97595 8.589991,-9.90946 14.240637,-12.753432 -3.772437,7.750992 -3.44209,16.079442 0.121202,24.679692 -5.369607,-2.48895 -9.95843,-7.5452 -14.361839,-11.92626 z m 64.557012,11.92626 c 3.600119,-7.93608 3.954186,-16.30114 0.25344,-24.679692 4.999018,3.882572 10.129793,7.697112 13.955061,12.753432 -3.915106,5.90327 -8.403143,8.27441 -14.208501,11.92626 z"
           id="path872"
           sodipodi:nodetypes="ccccccccccccccccccccccccsssscccccccccccc"
           inkscape:connector-curvature="0" />
      </g>
      <path
         style="fill:#000000;fill-opacity:1;stroke-width:0.35277799"
         d="m 69.677718,148.90665 c -0.766923,-3.83004 -0.756531,-3.85829 -0.895781,-16.39692 v -13.67824 l -4.942053,0.045 c -2.339786,0.0724 -1.177713,-1.63634 -0.09492,-2.15634 0.554905,-0.34979 1.639182,-0.76929 2.825931,-1.33332 l 8.2e-5,2.10762 10.130606,-0.66699 c 2.039446,-0.0202 2.49452,-0.005 3.363144,0.74242 0.58993,0.74132 0.588519,0.73971 0.62475,15.46602 l 0.007,15.26871 -4.2447,10.05284 c -3.596207,-1.20191 -6.263006,-7.04448 -6.774059,-9.4508 z m 6.135188,0.24465 c -0.09207,-2.17508 -0.08196,-1.85548 2.047024,-1.90506 V 121.1407 h -2.116732 v 23.45977 l -1.75438,6e-5 -0.186,-23.45983 h -2.301722 c 0.06282,8.70186 -0.06115,17.40367 0,26.10554 2.147074,-0.004 2.143132,-0.002 2.125392,1.90506 v 2.15195 h 2.186418 z m -7.830768,-37.45543 c 0.66572,-0.84633 0.70555,-1.43114 0.70555,-10.36014 v -9.463173 l -4.96288,-4.59848 5.66076,-11.661713 -6.97906,-4.56607 9.15077,-12.97972 14.34592,7.75499 c 1.282245,0.796812 0.745074,1.321946 1.57174,2.12051 l 0.70578,0.77632 -0.73072,1.23848 c -0.52484,0.88953 -0.67441,1.58547 -0.53087,2.47002 0.17246,1.06275 3.6e-4,1.48193 -1.25468,3.05836 -1.30171,1.63488 -1.45454,2.02828 -1.45454,3.744213 0,2.35405 -0.45239,3.28211 -1.59991,3.28211 -0.77343,0 -0.86953,0.14992 -0.86953,1.35644 0,0.90841 0.23304,1.56733 0.70556,1.99495 0.3906,0.35349 0.70555,1.08654 0.70555,1.64218 0,0.55201 -0.3175,1.32115 -0.70555,1.70921 -0.62264,0.62263 -0.70556,1.17593 -0.70556,4.70782 0,3.55425 0.079,4.07375 0.70556,4.64079 0.90198,0.81629 0.945991,2.477003 0,3.447653 -1.25275,1.15408 -1.395947,7.85911 0,9.68525 0.69499,0.98396 0.684803,0.98687 0.70555,3.62404 l -4.39918,5e-5 -0.01049,-0.35288 H 71.68631 v 0.35288 h -4.409725 c 0.07769,-2.79163 0.08138,-2.78487 0.705553,-3.62409 z m 10.655071,-0.11787 -1e-5,-10.14852 -7.391981,5.42377 v 4.70525 l 7.391971,0.0195 z m -1e-5,-21.536152 -5.654041,2.11347 5.654041,6.22225 z m -2.011907,-1.70944 -7.300979,2.7e-5 2.139875,1.762003 z m 2.011907,-7.29011 -8.538401,4.919787 8.538401,-0.09917 z m 0,-4.590308 h -3.507731 l -4.298686,5.298907 z m -15.933291,5.691318 2.58634,-4.936436 1.98633,1.073756 -2.45696,4.92238 z"
         id="path872-1"
         sodipodi:nodetypes="cccccccccccccccccccccccccccsccccccccsscsssssssscccccccccccccccccccccccccccccccccccc"
         inkscape:connector-curvature="0" />
    </g>
  </g>
</svg>
