<?xml version="1.0" encoding="UTF-8" standalone="no"?>
<!-- Created with Inkscape (http://www.inkscape.org/) -->

<svg
   width="512"
   height="512"
   viewBox="0 0 135.46667 135.46667"
   version="1.1"
   id="svg5"
   xml:space="preserve"
   inkscape:version="1.2.2 (732a01da63, 2022-12-09)"
   sodipodi:docname="Assassin's Instinct.svg"
   xmlns:inkscape="http://www.inkscape.org/namespaces/inkscape"
   xmlns:sodipodi="http://sodipodi.sourceforge.net/DTD/sodipodi-0.dtd"
   xmlns="http://www.w3.org/2000/svg"
   xmlns:svg="http://www.w3.org/2000/svg"><sodipodi:namedview
     id="namedview7"
     pagecolor="#ffffff"
     bordercolor="#666666"
     borderopacity="1.0"
     inkscape:showpageshadow="2"
     inkscape:pageopacity="0"
     inkscape:pagecheckerboard="true"
     inkscape:deskcolor="#d1d1d1"
     inkscape:document-units="px"
     showgrid="false"
     inkscape:zoom="2.587745"
     inkscape:cx="388.75547"
     inkscape:cy="277.84809"
     inkscape:window-width="3840"
     inkscape:window-height="2107"
     inkscape:window-x="-8"
     inkscape:window-y="-8"
     inkscape:window-maximized="1"
     inkscape:current-layer="layer3" /><defs
     id="defs2" /><g
     inkscape:groupmode="layer"
     id="layer3"
     inkscape:label="invertable"
     style="display:inline"
     transform="translate(0,-1.539181)"><path
       id="path1079"
       style="fill:#000000;fill-opacity:0.497175;stroke:none;stroke-width:0.292421px;stroke-linecap:butt;stroke-linejoin:miter;stroke-opacity:1"
       d="M 60.49605,19.833932 51.286276,29.721701 52.190614,46.559433 67.653237,59.159181 83.116376,46.559433 84.020713,29.721701 74.810939,19.833932 79.387404,29.891199 78.822581,43.508456 67.653237,50.062062 56.484409,43.508456 55.919586,29.891199 Z M 46.992482,25.427906 35.183383,39.600685 36.257219,52.717714 47.896302,63.339805 66.089508,72.888576 54.111427,57.463677 41.62485,49.384067 40.325188,40.343792 Z m 41.322026,0 6.667294,14.915886 -1.299663,9.040275 -12.486576,8.07961 -11.978598,15.424899 18.193722,-9.548771 11.639084,-10.622091 1.073839,-13.117029 z m -56.15368,55.936122 -0.113171,17.035136 12.176001,10.396266 -7.09104,-12.232846 1.243335,-11.498007 c -2.755376,0.190705 -4.289575,-2.162435 -6.215125,-3.700549 z m 70.985332,0 c -1.92555,1.538114 -3.459746,3.891254 -6.215123,3.700549 l 1.242818,11.498007 -7.090523,12.232846 12.175998,-10.396266 z m -40.361877,1.920813 c -4.853315,2.08923 -10.274696,2.643832 -15.876551,2.711979 l -2.288749,3.55999 3.418396,16.89354 13.98416,12.26075 -9.266102,-16.83721 V 91.647121 Z m 9.738424,0 10.028845,8.36228 V 101.87389 L 73.285451,118.7111 87.269094,106.45035 90.68749,89.55681 88.399258,85.99682 C 82.797403,85.928673 77.376022,85.374071 72.522707,83.284841 Z" /><path
       id="path1083"
       style="fill:#000000;fill-opacity:1;stroke:none;stroke-width:0.292421px;stroke-linecap:butt;stroke-linejoin:miter;stroke-opacity:1"
       d="m 24.438819,58.254844 6.215125,13.390914 c 9.247911,8.97457 18.835545,8.537539 28.532626,5.084961 z m 86.589031,0 -34.748266,18.475875 c 9.697092,3.452578 19.285239,3.889609 28.533146,-5.084961 z" /></g></svg>
