<?xml version="1.0" encoding="UTF-8" standalone="no"?>
<!-- Created with Inkscape (http://www.inkscape.org/) -->

<svg
   width="512"
   height="512"
   viewBox="0 0 135.46667 135.46667"
   version="1.1"
   id="svg5"
   xml:space="preserve"
   inkscape:version="1.2.2 (732a01da63, 2022-12-09)"
   sodipodi:docname="Forged_Shadow.svg"
   xmlns:inkscape="http://www.inkscape.org/namespaces/inkscape"
   xmlns:sodipodi="http://sodipodi.sourceforge.net/DTD/sodipodi-0.dtd"
   xmlns="http://www.w3.org/2000/svg"
   xmlns:svg="http://www.w3.org/2000/svg"><sodipodi:namedview
     id="namedview7"
     pagecolor="#ffffff"
     bordercolor="#666666"
     borderopacity="1.0"
     inkscape:showpageshadow="2"
     inkscape:pageopacity="0"
     inkscape:pagecheckerboard="true"
     inkscape:deskcolor="#d1d1d1"
     inkscape:document-units="px"
     showgrid="false"
     inkscape:zoom="1.829812"
     inkscape:cx="-112.03337"
     inkscape:cy="154.11419"
     inkscape:window-width="3840"
     inkscape:window-height="2107"
     inkscape:window-x="-8"
     inkscape:window-y="-8"
     inkscape:window-maximized="1"
     inkscape:current-layer="layer1" /><defs
     id="defs2" /><g
     inkscape:label="invertable"
     inkscape:groupmode="layer"
     id="layer1"
     style="display:inline"><path
       id="path1160"
       style="fill:#000000;fill-opacity:0.5;stroke:none;stroke-width:0.292421px;stroke-linecap:butt;stroke-linejoin:miter;stroke-opacity:1"
       d="M 67.733333,18.352367 62.730184,44.08146 52.302388,33.174483 55.019281,49.794531 54.38018,38.448349 l 9.468859,9.828103 3.884294,-18.857188 3.884294,18.857188 9.468859,-9.828103 -0.6391,11.346182 2.716892,-16.620048 -10.427796,10.906977 z m -32.610136,32.48106 -8.789779,14.262973 4.714725,7.071803 1.598038,-0.639672 -4.115032,-6.632029 7.710331,-12.225159 h 12.185752 l 1.358161,-1.837916 z m 50.558076,0 1.358161,1.837916 h 12.185752 l 7.710334,12.225159 -4.11503,6.632029 1.59803,0.639672 4.71473,-7.071803 -8.78978,-14.262973 z M 41.116124,73.406424 25.374481,79.399351 40.117207,82.555447 18.862391,100.57421 45.510442,91.305248 41.915143,105.92803 54.580077,95.100444 45.510442,100.69414 47.744725,91.585104 45.870257,88.98815 29.170249,94.821158 45.031259,81.437163 31.727224,78.80023 Z m 53.234422,0 9.388904,5.393806 -13.304043,2.636933 15.861013,13.383995 -16.700011,-5.833009 -1.874468,2.596954 2.234284,9.109037 -9.069636,-5.593696 12.664935,10.827586 -3.595299,-14.622783 26.648055,9.268963 -21.254823,-18.018763 14.742733,-3.156096 z m -41.768301,30.243916 -1.198815,1.07888 7.750883,12.38508 h 8.59902 8.59902 l 7.750883,-12.38508 -1.198815,-1.07888 -7.630944,11.62662 -7.520144,-0.08 -7.520144,0.08 z" /><path
       id="path1164"
       style="fill:#000000;fill-opacity:1;stroke:none;stroke-width:0.292421px;stroke-linecap:butt;stroke-linejoin:miter;stroke-opacity:1"
       d="m 67.733335,51.43312 c -1.992946,0.165891 -3.92809,0.421895 -5.6828,0.958366 l 1.118854,5.193908 0.958938,0.799019 3.605008,-0.115371 3.604438,0.115371 0.958936,-0.799019 1.118855,-5.193908 C 71.66086,51.855018 69.726279,51.59901 67.733335,51.43312 Z m -7.08094,1.518078 c -2.533544,1.080031 -4.619881,2.584338 -6.55207,4.234972 l 2.477016,10.398098 v 13.213794 l 4.60107,2.357079 c 2.18465,0.124768 4.369691,0.476701 6.554353,0.305558 h 5.71e-4 c 2.184657,0.171143 4.369694,-0.18079 6.554354,-0.305558 l 4.601069,-2.357079 V 67.584267 l 2.477016,-10.398098 c -1.932185,-1.650633 -4.018528,-3.154941 -6.55207,-4.234972 l -1.223372,5.233318 -1.733396,1.717976 h -4.123601 -5.7e-4 -4.1236 l -1.733397,-1.717976 z m -23.491955,3.236056 -5.033991,8.789207 3.475933,5.553724 3.555891,-1.078875 -2.796852,-4.794114 2.91679,-4.954031 h 6.47211 l 1.757956,-3.515911 z m 50.797954,0 1.757955,3.515911 h 6.472109 l 2.91679,4.95403 -2.79685,4.794114 3.55589,1.078875 3.475932,-5.553723 -5.033992,-8.789208 z M 51.54335,61.021347 49.465559,64.936482 V 77.40209 l -1.720832,8.070149 2.959626,3.835747 5.673091,1.478099 3.603295,6.991268 4.971165,1.99784 2.78086,-0.04 h 5.71e-4 l 2.78086,0.04 4.971165,-1.99784 3.603296,-6.991268 5.673091,-1.478099 2.959624,-3.835747 -1.72083,-8.070149 V 64.936481 l -2.077793,-3.915135 -3.795196,6.831927 v 12.18575 l 4.794113,-2.317667 -2.397057,5.784462 c -2.554011,2.146544 -4.911329,2.815738 -7.039248,1.766523 -2.392452,1.173728 -3.452041,2.199342 -4.971165,3.276034 0.872133,-1.380287 1.506228,-2.794451 3.076137,-4.075053 -1.510489,0.190675 -1.443119,0.539441 -5.856997,0.439774 h -5.71e-4 c -4.413881,0.09967 -4.346502,-0.249099 -5.856997,-0.439774 1.569912,1.280602 2.204005,2.694766 3.076137,4.075053 -1.519123,-1.076692 -2.57871,-2.102306 -4.971165,-3.276034 -2.127921,1.049215 -4.485234,0.380021 -7.039248,-1.766523 l -2.397056,-5.784462 4.794112,2.317667 v -12.18575 z m 12.571269,1.809929 h 3.618145 5.71e-4 3.618145 l -3.618145,10.367826 z m 3.618145,27.485336 h 5.71e-4 c 0.833442,-0.005 1.580699,0.899741 2.326236,1.817924 v 5.213327 c -0.680314,-1.22424 -1.108263,-3.056941 -2.326236,-2.985899 h -5.71e-4 c -1.217973,-0.07104 -1.64593,1.761658 -2.326236,2.985899 v -5.213327 c 0.745532,-0.918183 1.492792,-1.822921 2.326236,-1.817924 z m -11.555218,9.258681 -1.502658,1.118847 7.615524,11.82594 h 5.442923 5.442352 l 7.616096,-11.82594 -1.50323,-1.118847 -4.35491,3.435947 -3.63585,5.91297 -3.564458,-0.08 -3.565029,0.08 -3.63585,-5.91297 z" /></g></svg>
