<?xml version="1.0" encoding="UTF-8" standalone="no"?>
<svg
   xmlns:osb="http://www.openswatchbook.org/uri/2009/osb"
   xmlns:dc="http://purl.org/dc/elements/1.1/"
   xmlns:cc="http://creativecommons.org/ns#"
   xmlns:rdf="http://www.w3.org/1999/02/22-rdf-syntax-ns#"
   xmlns:svg="http://www.w3.org/2000/svg"
   xmlns="http://www.w3.org/2000/svg"
   xmlns:sodipodi="http://sodipodi.sourceforge.net/DTD/sodipodi-0.dtd"
   xmlns:inkscape="http://www.inkscape.org/namespaces/inkscape"
   width="512"
   height="512"
   viewBox="0 0 135.46667 135.46667"
   version="1.1"
   id="svg8"
   inkscape:version="0.92.4 (5da689c313, 2019-01-14)"
   sodipodi:docname="Silence.svg">
  <defs
     id="defs2">
    <linearGradient
       id="linearGradient1099-6-5"
       osb:paint="gradient">
      <stop
         style="stop-color:#273839;stop-opacity:0.5"
         offset="0"
         id="stop1151" />
      <stop
         style="stop-color:#273839;stop-opacity:1"
         offset="1"
         id="stop1153" />
    </linearGradient>
  </defs>
  <sodipodi:namedview
     id="base"
     pagecolor="#ffffff"
     bordercolor="#666666"
     borderopacity="1.0"
     inkscape:pageopacity="0.0"
     inkscape:pageshadow="2"
     inkscape:zoom="1.979899"
     inkscape:cx="195.69114"
     inkscape:cy="167.38247"
     inkscape:document-units="px"
     inkscape:current-layer="g1320"
     inkscape:document-rotation="0"
     showgrid="false"
     inkscape:pagecheckerboard="true"
     inkscape:object-nodes="true"
     fit-margin-top="0"
     fit-margin-left="0"
     fit-margin-right="0"
     fit-margin-bottom="0"
     inkscape:window-width="1920"
     inkscape:window-height="1017"
     inkscape:window-x="-8"
     inkscape:window-y="-8"
     inkscape:window-maximized="1"
     units="px" />
  <metadata
     id="metadata5">
    <rdf:RDF>
      <cc:Work
         rdf:about="">
        <dc:format>image/svg+xml</dc:format>
        <dc:type
           rdf:resource="http://purl.org/dc/dcmitype/StillImage" />
        <dc:title></dc:title>
      </cc:Work>
    </rdf:RDF>
  </metadata>
  <g
     inkscape:label="Layer 1"
     inkscape:groupmode="layer"
     id="layer1"
     transform="translate(-59.62574,-110.15787)">
    <path
       style="fill:#000000;stroke-width:0.264583"
       id="path853"
       d="" />
    <path
       style="fill:#000000;stroke-width:0.264583"
       id="path849"
       d="" />
    <g
       id="g1061"
       transform="translate(9.0714285,1.8898814)">
      <g
         id="g1320"
         transform="translate(7.2162774,44.901282)">
        <g
           id="g2176"
           transform="matrix(1.4024088,0,0,1.40241,-47.975834,-52.599081)">
          <path
             style="fill:#000008;stroke-width:0.352778;fill-opacity:1"
             d="m 105.45187,138.51289 c -0.93825,-0.99871 -0.71499,-1.61361 0.58587,-1.61361 0.50684,0 1.21185,-0.26273 1.56668,-0.58385 0.69536,-0.6293 0.91216,-0.17707 0.2382,0.49689 -0.22381,0.22381 -0.39318,0.89056 -0.37637,1.48166 0.0384,1.35216 -0.85821,1.44961 -2.01438,0.21891 z"
             id="path2091" />
          <g
             id="g2157">
            <g
               id="g2140">
              <g
                 id="g2132">
                <path
                   id="path2069"
                   style="fill:#000008;fill-opacity:1;stroke-width:1.33333004"
                   d="m 106.73438,87.251953 c -6.27839,0 -10.732427,4.375868 -10.732427,10.544922 0,4.275075 1.527997,6.279005 15.351567,20.138675 l 15.17149,14.94238 -11.85704,12.46852 0,15.87425 40.63476,40.69727 h 14.77583 l 12.58355,-12.56055 12.01562,11.79297 -12.00976,12.20759 v 15.86272 l 40.63476,40.69727 h 14.6858 l 12.67358,-12.56055 12.01562,11.79297 -11.64961,11.93747 -0.36015,16.13284 40.63476,40.69727 14.81532,-0.12733 12.58312,-12.47033 12.56641,12.56446 -12.59961,12.59136 v 14.74457 l 40.63476,40.69727 h 15.21372 l 12.53238,-12.27149 15.27344,15.27344 c 14.81034,14.81042 15.43282,15.26077 20.57226,14.89453 6.38929,-0.45509 10.43945,-4.49611 10.43945,-10.41406 0,-3.46409 -2.44043,-6.55654 -15.55078,-19.70117 l -15.55273,-15.59375 12.4375,-11.99158 V 349.2832 l -39.29883,-39.36523 h -15.98598 l -12.74839,12.59961 -12.56446,-12.56641 12.59766,-12.83394 V 281.2832 l -39.29883,-39.36523 -17.37229,0.09 -12.09646,11.91972 -11.79297,-12.01562 12.56055,-12.74841 V 213.14058 L 237.80664,172.5859 H 223.7573 l -13.93699,13.25976 -11.71289,-11.93359 12.56055,-12.80348 v -15.96801 l -40.86133,-40.55468 -14.66822,0 -13.06615,13.36328 -15.38868,-15.34961 C 113.06306,89.01456 110.77109,87.251953 106.73438,87.251953 Z m 55.83398,35.999997 c 4.3055,0 6.13292,1.31744 17.12695,12.35743 11.48642,11.53437 12.30664,12.72234 12.30664,17.79492 0,3.56277 -0.83677,6.19105 -2.42773,7.63086 -2.27628,2.05999 -2.66498,1.94899 -6.25,-1.79297 -7.6083,-7.94136 -19.32227,-3.53189 -19.32227,7.27343 0,2.96534 1.19821,5.38567 3.99024,8.06055 3.74196,3.58503 3.85297,3.97175 1.79297,6.24805 -1.41658,1.56529 -4.06294,2.42773 -7.45313,2.42773 -4.86028,0 -6.20121,-0.946 -17.79297,-12.55664 -10.94538,-10.96316 -12.53711,-13.13755 -12.53711,-17.12695 0,-2.88915 0.98886,-5.46488 2.68946,-7.00391 2.61916,-2.37029 2.78699,-2.34053 6.40625,1.12696 4.57677,4.38482 13.21909,4.96442 16.69726,1.12109 3.52556,-3.89571 2.85355,-12.07361 -1.35351,-16.46484 -3.46747,-3.61926 -3.49728,-3.78709 -1.12696,-6.40625 1.58584,-1.75234 4.11382,-2.68946 7.25391,-2.68946 z m 68,68 c 4.30549,0 6.13291,1.31748 17.12695,12.35743 11.48644,11.53439 12.30664,12.7223 12.30664,17.79492 0,3.56273 -0.83678,6.19105 -2.42773,7.63086 -2.27626,2.06003 -2.66497,1.94899 -6.25,-1.79297 -4.92238,-5.13785 -11.34312,-5.4245 -16.05078,-0.7168 -4.70771,4.70767 -4.4191,11.1284 0.71875,16.05078 3.74196,3.58503 3.853,3.97179 1.79297,6.24805 -1.46574,1.61964 -4.0126,2.40807 -7.65625,2.36914 -5.08521,-0.0545 -6.2694,-0.88089 -17.23047,-12.03711 -10.33963,-10.52368 -11.81335,-12.61799 -12.14258,-17.24023 -0.27009,-3.79204 0.32308,-5.89273 2.125,-7.52344 2.3687,-2.14367 2.69542,-2.07486 6.2168,1.29883 4.57677,4.38482 13.21908,4.96445 16.69726,1.12109 3.52555,-3.89567 2.85355,-12.0736 -1.35351,-16.46484 -3.46746,-3.61924 -3.49729,-3.78708 -1.12696,-6.40625 1.58586,-1.75231 4.1138,-2.68946 7.25391,-2.68946 z m 68,68 c 4.30549,0 6.13291,1.31745 17.12695,12.35743 11.6987,11.74756 12.30664,12.64241 12.30664,18.0957 0,3.42493 -0.83957,6.57782 -2.08398,7.82226 -1.89041,1.89037 -2.48757,1.69486 -6.39844,-2.0957 -5.42343,-5.2566 -11.07818,-5.57207 -15.5,-0.86523 -4.64659,4.94604 -4.44097,11.04943 0.55274,16.44531 3.9801,4.30072 4.0224,4.48141 1.50781,6.33398 -1.42349,1.04871 -4.8738,1.90625 -7.66797,1.90625 -4.61998,0 -6.19136,-1.10442 -17.33008,-12.17968 -11.79609,-11.72863 -12.23514,-12.38069 -11.93164,-17.66602 0.17333,-3.01844 1.1764,-6.35824 2.23047,-7.42187 1.67263,-1.6878 2.39587,-1.47636 5.67578,1.66601 2.81571,2.6976 5.10841,3.60156 9.14453,3.60156 6.54433,0 9.40509,-2.75793 9.97852,-9.61914 0.33173,-3.9693 -0.35194,-5.74983 -3.44336,-8.97656 -3.75904,-3.9236 -3.79448,-4.09317 -1.42188,-6.71484 1.58582,-1.75234 4.1138,-2.68946 7.25391,-2.68946 z m 68.41016,69.12894 c 5.23415,0.29382 6.67877,1.30068 18.02343,12.56836 13.46529,13.37393 15.07734,17.30402 9.77149,23.82226 l -2.5625,3.14649 -3.84375,-3.66602 c -4.70627,-4.48909 -13.30706,-5.11708 -16.82617,-1.22851 -3.51561,3.88467 -2.85296,12.07522 1.33007,16.4414 2.95367,3.08293 3.25752,4.02771 1.83789,5.73828 -1.03714,1.24967 -3.89289,2.04883 -7.32421,2.04883 -5.28911,0 -6.35236,-0.7155 -17.83789,-12.00586 -11.70327,-11.50439 -12.2129,-12.24771 -12.2129,-17.83593 0,-8.28272 2.886,-10.39278 7.78907,-5.69532 7.47511,7.1616 20.21093,3.07395 20.21093,-6.48632 0,-2.52719 -1.46868,-5.36601 -4.27343,-8.25977 -4.00948,-4.13673 -4.13427,-4.54734 -2.02344,-6.6582 2.858,-1.92324 5.01131,-2.05103 7.94141,-1.92969 z"
                   transform="matrix(0.26458334,0,0,0.26458334,43.338034,63.366707)"
                   inkscape:connector-curvature="0"
                   sodipodi:nodetypes="sscccccccccccccccccccccccccccsccccccccccccccccccccccccccsscscssccscscccscsssscscscccccscccsscscccccscsscscccscsccccccssscsscc" />
                <g
                   id="g2126">
                  <path
                     style="fill:#000008;stroke-width:0.352778;fill-opacity:1"
                     d="m 117.77455,126.53334 c 0,-0.0752 0.23715,-0.59145 0.527,-1.14721 0.28984,-0.55576 0.52797,-1.44703 0.52916,-1.9806 0.003,-1.22096 1.0595,-1.32039 2.1051,-0.19807 0.92615,0.99411 0.99034,2.5365 0.0937,2.25192 -0.34407,-0.10921 -1.21719,0.11853 -1.94028,0.50608 -0.72307,0.38755 -1.31469,0.64309 -1.31469,0.56788 z"
                     id="path2097" />
                  <path
                     id="path2093"
                     style="fill:#000008;fill-opacity:1;stroke-width:1.33333004"
                     d="m 422.92383,87.251953 c -4.44805,0 -6.25428,1.366973 -20.27149,15.347657 l -15.38867,15.34961 -13.38449,-13.17424 -14.34988,-0.191 -40.86133,40.55664 v 16.09534 l 12.56055,12.67615 -11.79102,12.01562 -12.35046,-12.16601 -17.08509,0.28711 -17.81054,17.60937 9.87304,10.23633 c 0.76785,0.0132 3.7392,-2.37526 6.60352,-5.30859 4.19172,-4.29268 6.15589,-5.33399 10.06445,-5.33399 3.17662,0 5.69683,0.93005 7.28906,2.68946 2.372,2.62102 2.33851,2.78955 -1.33984,6.6289 -7.6775,8.01362 -3.97842,18.68164 6.47852,18.68164 3.98419,0 10.19309,-4.21957 12.93635,-6.84774 9.28419,10.14205 9.28596,10.23052 -6.76553,25.98472 l 10.10961,9.77129 19.22738,-18.84186 0,-16.09163 -12.00977,-12.07634 12.01563,-11.79297 12.73237,12.56055 14.5645,0 40.69727,-40.63477 0,-16.17366 -12.03516,-11.78142 15.35157,-15.39257 c 12.96846,-13.00234 15.3496,-16.03155 15.3496,-19.523441 0,-6.331521 -4.504,-11.160156 -10.41015,-11.160156 z m -56.10352,35.999997 c 3.08856,0 5.62454,0.9473 7.20117,2.68946 2.37034,2.61916 2.34246,2.78699 -1.125,6.40625 -4.38481,4.57677 -4.96641,13.21911 -1.12304,16.69726 3.89571,3.52558 12.0736,2.85355 16.46484,-1.35351 3.61924,-3.46749 3.78708,-3.49725 6.40625,-1.12696 1.60029,1.44824 2.68945,4.11575 2.68945,6.58594 0,3.47781 -2.1136,6.25805 -13.02343,17.12695 -11.5273,11.48402 -13.56142,12.97461 -17.71289,12.97461 -2.60285,0 -5.68286,-0.99149 -6.91797,-2.22656 -2.07867,-2.0787 -1.96491,-2.52189 1.71484,-6.71289 4.68299,-5.33359 5.08157,-10.58398 1.17774,-15.54688 -4.02422,-5.11596 -11.40603,-4.90363 -16.56055,0.47657 -3.58503,3.74196 -3.97374,3.85296 -6.25,1.79297 -1.59806,-1.44624 -2.42774,-4.07113 -2.42774,-7.6836 0,-5.14643 0.76666,-6.24848 12.35938,-17.79297 10.96804,-10.92241 12.89509,-12.30664 17.12695,-12.30664 z"
                     transform="matrix(0.26458334,0,0,0.26458334,43.338034,63.366707)"
                     inkscape:connector-curvature="0"
                     sodipodi:nodetypes="scccccccccccccsccscccccccccccccssscscccscsccsccsss" />
                </g>
              </g>
              <path
                 id="path2063"
                 style="fill:#000008;fill-opacity:1;stroke-width:1.33333004"
                 d="m 200.77539,264.58594 -18.10742,16.58789 0.0596,16.26893 12.54004,12.50841 -12.56641,12.56641 -12.63574,-12.41271 -16.09668,-0.1869 -39.30078,39.36523 0.191,17.42926 11.84611,11.79731 -15.35156,15.39062 c -6.49171,7.54107 -21.569889,17.74859 -12.351567,27.07813 10.769117,9.36105 21.504777,-6.56712 28.164067,-12.22461 l 15.17382,-15.13086 11.43036,11.45867 16.2005,0.83625 40.69727,-40.63477 0.004,-14.42923 -12.60144,-12.9692 12.56446,-12.56446 12.45335,11.12826 15.15241,-0.7549 17.79072,-15.8714 -10.69727,-10.44532 c -15.85154,14.61907 -15.82452,14.64062 -24.50582,5.93539 6.08009,-5.51454 14.03462,-11.1807 7.20516,-18.18788 l -4.15779,-4.18235 c -5.67683,-5.92392 -11.6833,0.77083 -18.16113,6.40522 -11.17437,-10.85293 -11.05323,-10.86381 4.99742,-24.96159 z m -37.91211,64 c 3.90827,0 6.76509,0.74791 7.84961,2.05468 1.43315,1.72683 1.03521,2.74709 -2.50195,6.39649 -5.32343,5.49241 -5.61512,11.09571 -0.81055,15.60937 4.48452,4.21297 11.81558,3.76145 16.88672,-1.04101 4.76393,-4.51151 7.71484,-2.4075 7.71484,5.50195 0,5.20116 -0.73529,6.26214 -12.35937,17.83789 -5.15446,5.22333 -15.32915,19.60087 -26.15966,8.98449 8.64525,-7.23325 10.43297,-15.57039 4.07958,-21.13878 -6.41675,-5.86652 -14.59465,-2.8516 -20.15637,4.86691 -12.11584,-11.49165 -0.91201,-19.63173 6.95325,-26.76535 12.00245,-11.95249 12.53586,-12.30664 18.5039,-12.30664 z"
                 transform="matrix(0.26458334,0,0,0.26458334,43.338034,63.366707)"
                 inkscape:connector-curvature="0"
                 sodipodi:nodetypes="ccccccccccccccccccccccccccccccscccsscccccs" />
            </g>
          </g>
        </g>
        <path
           style="fill:#000000;fill-opacity:0.3137255;stroke:none;stroke-width:1.0054667;stroke-miterlimit:4;stroke-dasharray:none;stroke-opacity:1"
           d="M 256.63281 16.921875 A 243.49725 243.49728 0 0 0 145.83789 43.859375 L 149.74805 47.998047 A 237.84911 237.84911 0 0 1 256.63281 22.570312 A 237.84911 237.84911 0 0 1 360.91406 46.976562 L 364.94531 42.457031 A 243.49725 243.49728 0 0 0 256.63281 16.921875 z M 470.16992 143.43359 L 465.79688 147.63867 A 237.84911 237.84911 0 0 1 494.48047 260.41992 A 237.84911 237.84911 0 0 1 468.60547 367.73828 L 472.95898 372.05078 A 243.49725 243.49728 0 0 0 500.12891 260.41797 A 243.49725 243.49728 0 0 0 470.16992 143.43359 z M 42.994141 144.0957 A 243.49725 243.49728 0 0 0 13.134766 260.41797 A 243.49725 243.49728 0 0 0 40.619141 372.34766 L 44.582031 368.13281 A 237.84911 237.84911 0 0 1 18.783203 260.41992 A 237.84911 237.84911 0 0 1 47.017578 148.21875 L 42.994141 144.0957 z M 142.97852 469.33203 L 138.96875 473.28906 A 243.49725 243.49728 0 0 0 256.63281 503.91602 A 243.49725 243.49728 0 0 0 373.39844 474.08984 L 368.91406 469.87109 A 237.84911 237.84911 0 0 1 256.63281 498.26758 A 237.84911 237.84911 0 0 1 142.97852 469.33203 z "
           transform="matrix(0.26458334,0,0,0.26458334,43.338034,63.366707)"
           id="path840" />
        <path
           style="fill:#000000;fill-opacity:0.3137255;stroke:none;stroke-width:1.80807471;stroke-miterlimit:4;stroke-dasharray:none;stroke-opacity:1"
           d="M 255.5625 68.955078 A 185.86297 185.86297 0 0 0 183.34961 83.566406 L 192.66602 93.427734 A 172.4003 172.4003 0 0 1 254.92578 81.78125 A 172.4003 172.4003 0 0 1 318.73633 94.175781 L 327.95312 83.841797 A 185.86297 185.86297 0 0 0 255.5625 68.955078 z M 427.4707 184.4043 L 416.64258 194.81836 A 172.4003 172.4003 0 0 1 427.32617 254.18164 A 172.4003 172.4003 0 0 1 415.84961 315.47656 L 426.89258 326.41797 A 185.86297 185.86297 0 0 0 441.42578 254.81836 A 185.86297 185.86297 0 0 0 427.4707 184.4043 z M 83.269531 185.375 A 185.86297 185.86297 0 0 0 69.701172 254.81836 A 185.86297 185.86297 0 0 0 84.009766 326.20312 L 93.916016 315.66992 A 172.4003 172.4003 0 0 1 82.525391 254.18164 A 172.4003 172.4003 0 0 1 93.076172 195.42383 L 83.269531 185.375 z M 196.78711 416.25781 L 185.88672 427.00977 A 185.86297 185.86297 0 0 0 255.5625 440.68164 A 185.86297 185.86297 0 0 0 323.87695 427.49414 L 312.26562 416.57031 A 172.4003 172.4003 0 0 1 254.92578 426.58203 A 172.4003 172.4003 0 0 1 196.78711 416.25781 z "
           transform="matrix(0.26458334,0,0,0.26458334,43.338034,63.366707)"
           id="path877" />
      </g>
    </g>
  </g>
</svg>
