<?xml version="1.0" encoding="UTF-8" standalone="no"?>
<svg
   xmlns:osb="http://www.openswatchbook.org/uri/2009/osb"
   xmlns:dc="http://purl.org/dc/elements/1.1/"
   xmlns:cc="http://creativecommons.org/ns#"
   xmlns:rdf="http://www.w3.org/1999/02/22-rdf-syntax-ns#"
   xmlns:svg="http://www.w3.org/2000/svg"
   xmlns="http://www.w3.org/2000/svg"
   xmlns:sodipodi="http://sodipodi.sourceforge.net/DTD/sodipodi-0.dtd"
   xmlns:inkscape="http://www.inkscape.org/namespaces/inkscape"
   width="512"
   height="512"
   viewBox="0 0 135.46667 135.46667"
   version="1.1"
   id="svg8"
   inkscape:version="0.92.4 (5da689c313, 2019-01-14)"
   sodipodi:docname="Insider_Knowledge.svg">
  <defs
     id="defs2">
    <linearGradient
       id="linearGradient1099-6-5"
       osb:paint="gradient">
      <stop
         style="stop-color:#273839;stop-opacity:0.5"
         offset="0"
         id="stop1151" />
      <stop
         style="stop-color:#273839;stop-opacity:1"
         offset="1"
         id="stop1153" />
    </linearGradient>
  </defs>
  <sodipodi:namedview
     id="base"
     pagecolor="#ffffff"
     bordercolor="#666666"
     borderopacity="1.0"
     inkscape:pageopacity="0.0"
     inkscape:pageshadow="2"
     inkscape:zoom="0.7"
     inkscape:cx="180.59036"
     inkscape:cy="304.35607"
     inkscape:document-units="px"
     inkscape:current-layer="g1320"
     inkscape:document-rotation="0"
     showgrid="false"
     inkscape:pagecheckerboard="true"
     inkscape:object-nodes="true"
     fit-margin-top="0"
     fit-margin-left="0"
     fit-margin-right="0"
     fit-margin-bottom="0"
     inkscape:window-width="1920"
     inkscape:window-height="1017"
     inkscape:window-x="-8"
     inkscape:window-y="-8"
     inkscape:window-maximized="1"
     units="px" />
  <metadata
     id="metadata5">
    <rdf:RDF>
      <cc:Work
         rdf:about="">
        <dc:format>image/svg+xml</dc:format>
        <dc:type
           rdf:resource="http://purl.org/dc/dcmitype/StillImage" />
        <dc:title></dc:title>
      </cc:Work>
    </rdf:RDF>
  </metadata>
  <g
     inkscape:label="Layer 1"
     inkscape:groupmode="layer"
     id="layer1"
     transform="translate(-59.62574,-110.15787)">
    <path
       style="fill:#000000;stroke-width:0.264583"
       id="path853"
       d="" />
    <path
       style="fill:#000000;stroke-width:0.264583"
       id="path849"
       d="" />
    <g
       id="g1061"
       transform="translate(9.0714285,1.8898814)">
      <g
         id="g1320"
         transform="translate(7.2162774,44.901282)">
        <g
           id="g974"
           transform="matrix(1.5027124,0,0,1.5027124,-59.734834,-70.063256)">
          <path
             sodipodi:nodetypes="cccccccccccccccc"
             inkscape:connector-curvature="0"
             id="path836"
             transform="matrix(0.26458334,0,0,0.26458334,43.338034,63.366707)"
             d="m 265.80273,104.08398 c -77.02168,3.6e-4 -139.4597,62.43926 -139.45898,139.46094 0.0719,50.11973 27.0327,96.34641 70.62109,121.08594 l 8.17969,-7.20703 C 161.993,335.27197 134.83889,290.86264 134.78711,242.35742 c -1e-4,-71.51984 57.97821,-129.49814 129.49805,-129.49804 71.51983,-1e-4 129.49814,57.97821 129.49804,129.49804 -0.0625,46.98499 -25.56955,90.25016 -66.65039,113.05274 l -0.0508,13.21875 c 47.78271,-23.37262 78.1085,-71.89131 78.18164,-125.08399 7.2e-4,-77.02245 -62.43849,-139.46166 -139.46094,-139.46094 z M 285.02539,370.125 c -13.47407,2.16292 -26.71538,2.12531 -39.24219,0.24023 l -8.09961,9.61719 c 18.22955,3.70219 36.33854,3.75163 53.3125,0.6211 z"
             style="fill:#000000;fill-opacity:0.50196078;stroke:none;stroke-width:1.07021916;stroke-miterlimit:4;stroke-dasharray:none;stroke-opacity:1" />
          <path
             id="path861"
             transform="matrix(0.26458334,0,0,0.26458334,43.338034,63.366707)"
             d="m 195.7832,159.42188 a 110.26479,108.87583 0 0 0 -41.35156,84.86523 110.26479,108.87583 0 0 0 57.01758,95.20312 l 7.74609,-7.25195 a 100.56655,99.299751 0 0 1 -54.51562,-88.17383 100.56655,99.299751 0 0 1 31.52929,-72.12695 c -0.21327,-6.08085 -0.28448,-8.35803 -0.42578,-12.51562 z m 139.75196,1.57421 -1.92188,10.41211 a 100.56655,99.299751 0 0 1 32.19922,72.65625 100.56655,99.299751 0 0 1 -52.43555,87.07032 l 7.53711,6.66992 a 110.26479,108.87583 0 0 0 54.04688,-93.51758 110.26479,108.87583 0 0 0 -39.42578,-83.29102 z"
             style="fill:#000000;fill-opacity:0.50196078;stroke:none;stroke-width:1.25613189;stroke-miterlimit:4;stroke-dasharray:none;stroke-opacity:1"
             inkscape:connector-curvature="0" />
          <path
             id="path861-9"
             transform="matrix(0.26458334,0,0,0.26458334,43.338034,63.366707)"
             d="m 207.58203,189.06055 a 79.839591,78.833888 0 0 0 -22.55078,54.90625 79.839591,78.833888 0 0 0 33.91016,64.36523 l 2.79687,-7.22461 a 72.621163,71.706392 0 0 1 -29.63476,-57.69531 72.621163,71.706392 0 0 1 19.79296,-49.07031 z m 115.57227,1.16992 -5.36328,4.31641 a 72.621163,71.706392 0 0 1 19.55468,48.86523 72.621163,71.706392 0 0 1 -27.79101,56.39062 l 0.35937,9.25196 A 79.839591,78.833888 0 0 0 344.71094,243.9668 79.839591,78.833888 0 0 0 323.1543,190.23047 Z"
             style="fill:#000000;fill-opacity:0.50196078;stroke:none;stroke-width:0.90952927;stroke-miterlimit:4;stroke-dasharray:none;stroke-opacity:1"
             inkscape:connector-curvature="0" />
          <path
             sodipodi:nodetypes="ccccc"
             inkscape:connector-curvature="0"
             id="path913"
             d="m 94.837292,166.7054 4.771948,-5.57515 c 1.91549,-2.40411 5.63516,0.25547 3.40515,2.73697 l -4.82256,5.62575 z"
             style="fill:#000000;fill-opacity:1;stroke:none;stroke-width:0.26458335px;stroke-linecap:butt;stroke-linejoin:miter;stroke-opacity:1" />
          <path
             id="path915"
             transform="matrix(0.26458334,0,0,0.26458334,43.338034,63.366707)"
             d="m 191.69727,394.41016 -7.67969,8.75 c -2.6482,-0.17386 -5.62055,3.08799 -5,5.625 0.678,3.65257 -1.5646,3.65423 -3.66016,3.83984 -2.5744,0.0794 -8.22917,-0.16733 -8.125,1.69727 v 9.82031 l 4.6875,4.6875 h 8.61524 l 1.71875,-1.71875 h 8.10351 l 1.41797,1.41797 h 8.75977 v -0.99414 l 3.48242,-3.30274 v -10.80469 c 0.0731,-1.23171 -1.77859,-1.3553 -2.05274,0 -1.19066,2.83529 -2.94155,1.08329 -3.03711,0 -0.22405,-1.74829 0.57527,-3.37144 1.96485,-4.64257 l 3.125,-3.21289 z m 0.14843,14.35546 c 1.47878,0.0252 3.21108,0.88406 5.13477,3.16602 2.51751,3.26362 1.31037,6.94238 -2.96875,5.11328 -1.84257,-0.27061 -2.80135,0.59666 -3.47266,1.83203 -2.91046,5.61457 -4.61959,-1.87686 -4.16601,-4.41992 0.18625,-1.76384 2.21935,-5.74675 5.47265,-5.69141 z"
             style="fill:#000000;fill-opacity:1;stroke:none;stroke-width:1px;stroke-linecap:butt;stroke-linejoin:miter;stroke-opacity:1"
             inkscape:connector-curvature="0" />
          <path
             sodipodi:nodetypes="cccccccc"
             inkscape:connector-curvature="0"
             id="path920"
             d="m 104.61742,160.84677 c 0.44854,-1.5672 0.8588,-3.15566 3.26005,-3.63802 0.59504,-0.15104 0.48774,0.29437 1.34654,-0.47247 l 2.33873,-2.12612 c -0.74638,-1.96577 -2.27485,-3.21846 -4.53572,-3.80338 l -4.84282,3.89788 0.23624,4.41759 z"
             style="fill:#000000;fill-opacity:1;stroke:none;stroke-width:0.26458335px;stroke-linecap:butt;stroke-linejoin:miter;stroke-opacity:1" />
          <path
             sodipodi:nodetypes="ccccc"
             inkscape:connector-curvature="0"
             id="path913-8"
             d="m 132.34283,166.7053 -4.77194,-5.57515 c -1.91549,-2.40411 -5.63516,0.25547 -3.40515,2.73697 l 4.82256,5.62575 z"
             style="fill:#000000;fill-opacity:1;stroke:none;stroke-width:0.26458335px;stroke-linecap:butt;stroke-linejoin:miter;stroke-opacity:1" />
          <path
             id="path915-5"
             d="m 133.12219,167.72104 2.03192,2.31511 c 0.70067,-0.046 1.4871,0.81703 1.32291,1.48828 -0.17938,0.96641 0.41397,0.96684 0.96842,1.01595 0.68114,0.021 2.1773,-0.0443 2.14974,0.44907 v 2.59829 l -1.24023,1.24024 h -2.27945 l -0.45475,-0.45475 h -2.14406 l -0.37517,0.37517 h -2.31769 v -0.26304 l -0.92139,-0.87385 v -2.85874 c -0.0193,-0.32589 0.47059,-0.35859 0.54312,0 0.31503,0.75017 0.77829,0.28662 0.80357,0 0.0593,-0.46257 -0.15221,-0.89202 -0.51987,-1.22834 l -0.82682,-0.85008 z m -0.0393,3.79822 c -0.39126,0.007 -0.8496,0.2339 -1.35858,0.83767 -0.66609,0.8635 -0.3467,1.83684 0.78549,1.35289 0.48751,-0.0716 0.74119,0.15787 0.9188,0.48473 0.77006,1.48552 1.22227,-0.49659 1.10226,-1.16944 -0.0493,-0.46668 -0.5872,-1.5205 -1.44797,-1.50585 z"
             style="fill:#000000;fill-opacity:1;stroke:none;stroke-width:0.26458335px;stroke-linecap:butt;stroke-linejoin:miter;stroke-opacity:1"
             inkscape:connector-curvature="0" />
          <path
             sodipodi:nodetypes="cccccccc"
             inkscape:connector-curvature="0"
             id="path920-1"
             d="m 122.56271,160.84678 c -0.44854,-1.5672 -0.8588,-3.15566 -3.26005,-3.63802 -0.59504,-0.15104 -0.48774,0.29437 -1.34654,-0.47247 l -2.33873,-2.12612 c 0.74638,-1.96577 2.27485,-3.21846 4.53572,-3.80338 l 4.84282,3.89788 -0.23624,4.41759 z"
             style="fill:#000000;fill-opacity:1;stroke:none;stroke-width:0.26458335px;stroke-linecap:butt;stroke-linejoin:miter;stroke-opacity:1" />
          <path
             sodipodi:nodetypes="ccccccc"
             inkscape:connector-curvature="0"
             id="path943"
             d="m 109.95496,149.28829 c 2.29369,0.81513 4.61077,0.7884 6.94901,0 l 0.56793,0.90197 c -1.7551,0.8748 -2.30674,2.25875 -2.93994,3.6082 h -2.03793 c -0.58596,-1.53193 -1.67774,-2.65288 -2.97338,-3.6082 z"
             style="fill:#000000;fill-opacity:1;stroke:none;stroke-width:0.26458335px;stroke-linecap:butt;stroke-linejoin:miter;stroke-opacity:1" />
          <path
             id="path947"
             transform="matrix(0.26458334,0,0,0.26458334,43.338034,63.366707)"
             d="m 253.04297,228.27344 v 3.41015 c -11.72818,-0.20031 -15.39986,13.3516 -14.90039,24.86329 v 54.68554 c -0.10779,14.60712 53.0974,15.59358 52.77539,0 v -54.68554 c 0.50623,-13.50176 -3.25814,-24.67682 -14.13672,-24.48633 v -3.78711 z m 8.74219,19.4414 h 6.42968 c 4.74858,0 8.57032,3.82174 8.57032,8.57032 v 30 c 0,4.74857 -3.82174,8.57226 -8.57032,8.57226 h -6.42968 c -4.74858,0 -8.57032,-3.82369 -8.57032,-8.57226 v -30 c 0,-4.74858 3.82174,-8.57032 8.57032,-8.57032 z"
             style="fill:#000000;fill-opacity:1;stroke:none;stroke-width:1px;stroke-linecap:butt;stroke-linejoin:miter;stroke-opacity:1"
             inkscape:connector-curvature="0" />
          <path
             id="rect949"
             d="m 111.2579,120.08909 h 4.40994 v 2.20497 h -4.40994 z"
             style="fill:#000000;fill-opacity:1;stroke:none;stroke-width:0.26458335;stroke-miterlimit:4;stroke-dasharray:none;stroke-opacity:1"
             inkscape:connector-curvature="0" />
          <path
             sodipodi:nodetypes="ccccccccccccccccccccccc"
             inkscape:connector-curvature="0"
             id="path955"
             d="m 110.79018,118.55229 h 5.24517 l 2.67269,-5.91329 c 0.63948,-1.73308 1.14605,-2.28573 3.37428,-2.30531 l 4.34313,6e-5 2.00452,-1.43648 v -4.94454 l -2.27179,-1.10252 h -7.71741 v -3.006787 c 0.0396,-2.153364 -3.32722,-2.23199 -3.37427,0 v 3.006787 h -3.34087 v -2.17157 h -5.17835 v 2.17157 h -6.04697 l -2.171568,1.10252 v 4.94454 l 2.138158,1.43642 h 4.57699 c 1.25335,-0.0229 2.45297,0.35637 3.21479,2.30531 z"
             style="fill:#000000;fill-opacity:1;stroke:none;stroke-width:0.26458335px;stroke-linecap:butt;stroke-linejoin:miter;stroke-opacity:1" />
          <path
             sodipodi:nodetypes="ccc"
             inkscape:connector-curvature="0"
             id="path957"
             d="m 106.6141,99.709787 c 0.61073,-2.180595 4.25987,-2.670107 4.9946,0 z"
             style="fill:#000000;fill-opacity:1;stroke:none;stroke-width:0.26458335px;stroke-linecap:butt;stroke-linejoin:miter;stroke-opacity:1" />
        </g>
      </g>
    </g>
  </g>
</svg>
