<?xml version="1.0" encoding="UTF-8" standalone="no"?>
<svg
   xmlns:dc="http://purl.org/dc/elements/1.1/"
   xmlns:cc="http://creativecommons.org/ns#"
   xmlns:rdf="http://www.w3.org/1999/02/22-rdf-syntax-ns#"
   xmlns:svg="http://www.w3.org/2000/svg"
   xmlns="http://www.w3.org/2000/svg"
   xmlns:sodipodi="http://sodipodi.sourceforge.net/DTD/sodipodi-0.dtd"
   xmlns:inkscape="http://www.inkscape.org/namespaces/inkscape"
   xml:space="preserve"
   width="512"
   height="512"
   version="1.1"
   style="clip-rule:evenodd;fill-rule:evenodd;image-rendering:optimizeQuality;shape-rendering:geometricPrecision;text-rendering:geometricPrecision"
   viewBox="0 0 512 512"
   id="svg29"
   sodipodi:docname="Amped_Cover.svg"
   inkscape:version="0.92.4 (5da689c313, 2019-01-14)"><metadata
   id="metadata33"><rdf:RDF><cc:Work
       rdf:about=""><dc:format>image/svg+xml</dc:format><dc:type
         rdf:resource="http://purl.org/dc/dcmitype/StillImage" /><dc:title></dc:title></cc:Work></rdf:RDF></metadata><sodipodi:namedview
   pagecolor="#ffffff"
   bordercolor="#666666"
   borderopacity="1"
   objecttolerance="10"
   gridtolerance="10"
   guidetolerance="10"
   inkscape:pageopacity="0"
   inkscape:pageshadow="2"
   inkscape:window-width="1920"
   inkscape:window-height="1017"
   id="namedview31"
   showgrid="false"
   inkscape:zoom="1.4888889"
   inkscape:cx="312.0295"
   inkscape:cy="227.08661"
   inkscape:window-x="-8"
   inkscape:window-y="-8"
   inkscape:window-maximized="1"
   inkscape:current-layer="svg29" />
 <defs
   id="defs4">
  <style
   type="text/css"
   id="style2">
   <![CDATA[
    .fil1 {fill:#8A0020}
    .fil2 {fill:#CA003E}
    .fil0 {fill:#CB013F}
    .fil3 {fill:#ED0049}
    .fil4 {fill:#FF2D59}
   ]]>
  </style>
 </defs>
 
<g
   id="g1070"
   transform="matrix(1.685793,0,0,1.685793,-172.84046,-186.74323)"><path
     style="fill:#000000;fill-opacity:1;stroke:none;stroke-width:1px;stroke-linecap:butt;stroke-linejoin:miter;stroke-opacity:1"
     d="m 109.646,291.828 v 24.34737 l 70.018,0.33582 v 9.23508 L 109.646,326.25 v 21.66 h 72.705 l 25.186,-25.354 h 93.191 l 26.36155,25.354 H 399.124 v -22.332 h -69.18 v -9.823 h 69.18 V 291.828 H 326.75373 L 300.728,317.687 h -93.191 l -25.186,-25.859 z"
     id="path872"
     sodipodi:nodetypes="ccccccccccccccccccccc" /><path
     style="fill:#000000;fill-opacity:1;stroke:none;stroke-width:1px;stroke-linecap:butt;stroke-linejoin:miter;stroke-opacity:1"
     d="m 109.646,173.451 v 109.478 h 75.2234 l 25.6903,25.813 h 88.1373 l 26.20972,-25.813 H 399.124 V 173.451 h -25.691 v 12.594 l 17.798,14.27216 V 274.869 H 291.82836 L 277.724,289.813 263.28358,274.869 h -18.63806 l -14.4403,14.944 -14.77612,-14.944 H 116.194 v -74.71975 l 18.30276,-12.59328 -0.33548,-14.10497 z"
     id="path874"
     sodipodi:nodetypes="ccccccccccccccccccccccc" /><path
     style="fill:#000000;fill-opacity:1;stroke:none;stroke-width:1px;stroke-linecap:butt;stroke-linejoin:miter;stroke-opacity:1"
     d="m 115.40616,357.142 h 69.45741 l 25.64581,-25.884 h 87.97939 l 26.23947,25.88436 66.60787,-3.6e-4 -6.29272,6.174 H 362.366 v 4.274 H 144.851 v -4.274 h -22.79593 z"
     id="path876"
     sodipodi:nodetypes="ccccccccccccc" /><g
     id="g971"
     style="fill:#273839;fill-opacity:0.5"><g
       id="g1042"
       style="fill:#273839;fill-opacity:0.5;stroke:none"><path
         style="fill:#000000;fill-opacity:0.5;stroke:none;stroke-width:1px;stroke-linecap:butt;stroke-linejoin:miter;stroke-opacity:1"
         d="m 239.12346,260.364 7.3613,-12.929 H 268.094 l 8.31087,12.929 z"
         id="path878"
         sodipodi:nodetypes="ccccc" /><path
         style="fill:#000000;fill-opacity:0.5;stroke:none;stroke-width:1px;stroke-linecap:butt;stroke-linejoin:miter;stroke-opacity:1"
         d="M 245.77238,238.172 234.374,219.17672 246.12857,199.228 h 22.44008 L 280.204,219.05799 269.04358,238.172 Z"
         id="path880"
         sodipodi:nodetypes="ccccccc" /><path
         style="fill:#000000;fill-opacity:0.5;stroke:none;stroke-width:1px;stroke-linecap:butt;stroke-linejoin:miter;stroke-opacity:1"
         d="m 242.80411,157.674 -8.43011,14.01 11.63584,18.879 h 22.67754 l 11.51662,-18.879 -8.31089,-14.01 z"
         id="path882"
         sodipodi:nodetypes="ccccccc" /><path
         style="fill:#000000;fill-opacity:0.5;stroke:none;stroke-width:1px;stroke-linecap:butt;stroke-linejoin:miter;stroke-opacity:1"
         d="m 198.636,157.674 3.922,9.37998 22.915,-0.11898 4.50821,-9.261 z"
         id="path884"
         sodipodi:nodetypes="ccccc" /><path
         style="fill:#000000;fill-opacity:0.5;stroke:none;stroke-width:1px;stroke-linecap:butt;stroke-linejoin:miter;stroke-opacity:1"
         d="m 149.24438,157.674 -6.29238,9.49871 V 163.255 h -12.348 v -5.581 z"
         id="path886"
         sodipodi:nodetypes="cccccc" /><path
         style="fill:#000000;fill-opacity:0.5;stroke:none;stroke-width:1px;stroke-linecap:butt;stroke-linejoin:miter;stroke-opacity:1"
         d="m 142.952,175.60258 v 16.02863 l -12.348,9.73592 V 214.427 h 12.94132 l 11.39813,-19.829 z"
         id="path888"
         sodipodi:nodetypes="ccccccc" /><path
         style="fill:#000000;fill-opacity:0.5;stroke:none;stroke-width:1px;stroke-linecap:butt;stroke-linejoin:miter;stroke-opacity:1"
         d="M 130.604,223.92594 V 260.364 h 13.6537 l 10.92322,-17.68 -12.11053,-19.11425 z"
         id="path890"
         sodipodi:nodetypes="cccccc" /><path
         style="fill:#000000;fill-opacity:0.5;stroke:none;stroke-width:1px;stroke-linecap:butt;stroke-linejoin:miter;stroke-opacity:1"
         d="m 162.661,247.435 -8.07374,12.929 h 37.9938 l -8.19241,-12.929 z"
         id="path892"
         sodipodi:nodetypes="ccccc" /><path
         style="clip-rule:evenodd;fill:#000000;fill-opacity:0.5;fill-rule:evenodd;stroke:none;stroke-width:1px;stroke-linecap:butt;stroke-linejoin:miter;stroke-opacity:1;image-rendering:optimizeQuality;shape-rendering:geometricPrecision;text-rendering:geometricPrecision"
         d="M 203.73337,260.364 192.11,242.684 202.91419,223.806 h 22.915 L 236.515,242.56513 225.473,260.364 Z"
         id="path880-2"
         sodipodi:nodetypes="ccccccc" /><path
         style="clip-rule:evenodd;fill:#000000;fill-opacity:0.5;fill-rule:evenodd;stroke:none;stroke-width:1px;stroke-linecap:butt;stroke-linejoin:miter;stroke-opacity:1;image-rendering:optimizeQuality;shape-rendering:geometricPrecision;text-rendering:geometricPrecision"
         d="m 202.558,214.663 -10.448,-20.065 10.448,-19.234 h 22.915 l 11.042,19.234 -11.042,20.065 z"
         id="path880-4"
         sodipodi:nodetypes="ccccccc" /><path
         style="clip-rule:evenodd;fill:#000000;fill-opacity:0.5;fill-rule:evenodd;stroke:none;stroke-width:1px;stroke-linecap:butt;stroke-linejoin:miter;stroke-opacity:1;image-rendering:optimizeQuality;shape-rendering:geometricPrecision;text-rendering:geometricPrecision"
         d="M 162.661,238.172 150.31655,218.58154 162.661,199.228 h 21.96869 l 11.51687,19.23481 -11.04194,19.70919 z"
         id="path880-0"
         sodipodi:nodetypes="ccccccc" /><path
         style="fill:#000000;fill-opacity:0.5;stroke:none;stroke-width:1px;stroke-linecap:butt;stroke-linejoin:miter;stroke-opacity:1"
         d="m 159.21776,157.674 -8.54861,14.01 11.99185,18.879 h 22.20257 l 11.27941,-18.879 -7.24257,-14.01 z"
         id="path921"
         sodipodi:nodetypes="ccccccc" /><path
         style="fill:#000000;fill-opacity:0.5;stroke:none;stroke-width:1px;stroke-linecap:butt;stroke-linejoin:miter;stroke-opacity:1"
         d="m 281.27283,157.674 5.93617,9.261 h 22.44 l 5.69952,-9.261 z"
         id="path923"
         sodipodi:nodetypes="ccccc" /><path
         style="fill:#000000;fill-opacity:0.5;stroke:none;stroke-width:1px;stroke-linecap:butt;stroke-linejoin:miter;stroke-opacity:1"
         d="m 324.9657,157.674 -7.71749,14.01 11.27941,18.879 h 22.55881 l 11.51687,-18.879 -7.71749,-14.01 z"
         id="path925"
         sodipodi:nodetypes="ccccccc" /><path
         style="fill:#000000;fill-opacity:0.5;stroke:none;stroke-width:1px;stroke-linecap:butt;stroke-linejoin:miter;stroke-opacity:1"
         d="m 364.74045,157.674 4.39304,5.93679 h 9.26051 l 0.4754,-3.087 -2.96827,-2.84979 z"
         id="path927"
         sodipodi:nodetypes="cccccc" /><path
         style="fill:#000000;fill-opacity:0.5;stroke:none;stroke-width:1px;stroke-linecap:butt;stroke-linejoin:miter;stroke-opacity:1"
         d="m 363.55315,185.10103 -5.46161,10.4483 11.6356,18.99667 h 8.66686 v -11.38948 l -15.12749,-11.04195 z"
         id="path929"
         sodipodi:nodetypes="ccccccc" /><path
         style="fill:#000000;fill-opacity:0.5;stroke:none;stroke-width:1px;stroke-linecap:butt;stroke-linejoin:miter;stroke-opacity:1"
         d="m 369.84587,223.56975 -11.39814,19.11425 10.4483,17.68 H 378.394 V 223.57 Z"
         id="path931"
         sodipodi:nodetypes="cccccc" /><path
         style="fill:#000000;fill-opacity:0.5;stroke:none;stroke-width:1px;stroke-linecap:butt;stroke-linejoin:miter;stroke-opacity:1"
         d="m 328.40888,247.435 c -0.83111,0.47493 -7.48002,12.929 -7.48002,12.929 h 37.87506 l -8.31114,-12.929 z"
         id="path933"
         sodipodi:nodetypes="ccccc" /><path
         style="fill:#000000;fill-opacity:0.5;stroke:none;stroke-width:1px;stroke-linecap:butt;stroke-linejoin:miter;stroke-opacity:1"
         d="m 309.649,260.364 11.51732,-17.68 -11.51732,-19.233 h -22.44 l -11.39778,19.233 11.39778,17.68 z"
         id="path935"
         sodipodi:nodetypes="ccccccc" /><path
         style="clip-rule:evenodd;fill:#000000;fill-opacity:0.5;fill-rule:evenodd;stroke:none;stroke-width:1px;stroke-linecap:butt;stroke-linejoin:miter;stroke-opacity:1;image-rendering:optimizeQuality;shape-rendering:geometricPrecision;text-rendering:geometricPrecision"
         d="M 328.17501,238.172 316.65814,219.1752 328.5312,199.228 h 22.44008 l 11.51687,19.82847 -11.04194,19.11553 z"
         id="path880-7"
         sodipodi:nodetypes="ccccccc" /><path
         style="clip-rule:evenodd;fill:#000000;fill-opacity:0.5;fill-rule:evenodd;stroke:none;stroke-width:1px;stroke-linecap:butt;stroke-linejoin:miter;stroke-opacity:1;image-rendering:optimizeQuality;shape-rendering:geometricPrecision;text-rendering:geometricPrecision"
         d="m 287.209,215.13836 -11.27545,-19.59055 11.27545,-19.35309 22.44,-0.11872 12.11456,19.35308 -12.11456,20.06547 z"
         id="path880-1"
         sodipodi:nodetypes="ccccccc" /></g></g></g></svg>