<?xml version="1.0" encoding="UTF-8" standalone="no"?>
<!-- Created with Inkscape (http://www.inkscape.org/) -->

<svg
   xmlns:dc="http://purl.org/dc/elements/1.1/"
   xmlns:cc="http://creativecommons.org/ns#"
   xmlns:rdf="http://www.w3.org/1999/02/22-rdf-syntax-ns#"
   xmlns:svg="http://www.w3.org/2000/svg"
   xmlns="http://www.w3.org/2000/svg"
   xmlns:sodipodi="http://sodipodi.sourceforge.net/DTD/sodipodi-0.dtd"
   xmlns:inkscape="http://www.inkscape.org/namespaces/inkscape"
   width="512"
   height="512"
   viewBox="0 0 135.46666 135.46667"
   version="1.1"
   id="svg826"
   inkscape:version="0.92.4 (5da689c313, 2019-01-14)"
   sodipodi:docname="Castle_Wall.svg">
  <metadata
     id="metadata19">
    <rdf:RDF>
      <cc:Work
         rdf:about="">
        <dc:format>image/svg+xml</dc:format>
        <dc:type
           rdf:resource="http://purl.org/dc/dcmitype/StillImage" />
        <dc:title></dc:title>
      </cc:Work>
    </rdf:RDF>
  </metadata>
  <sodipodi:namedview
     id="namedview828"
     pagecolor="#ffffff"
     bordercolor="#666666"
     borderopacity="1.0"
     inkscape:pageshadow="2"
     inkscape:pageopacity="0.0"
     inkscape:pagecheckerboard="0"
     inkscape:document-units="mm"
     showgrid="false"
     units="px"
     inkscape:zoom="1.4142136"
     inkscape:cx="115.32855"
     inkscape:cy="212.40085"
     inkscape:window-width="1920"
     inkscape:window-height="1017"
     inkscape:window-x="-8"
     inkscape:window-y="-8"
     inkscape:window-maximized="1"
     inkscape:current-layer="layer1" />
  <defs
     id="defs823">
    <style
       type="text/css"
       id="style2-3"><![CDATA[
    .fil1 {fill:#8A0020}
    .fil2 {fill:#CA003E}
    .fil0 {fill:#CB013F}
    .fil3 {fill:#ED0049}
    .fil4 {fill:#FF2D59}
   ]]></style>
  </defs>
  <g
     inkscape:label="Layer 1"
     inkscape:groupmode="layer"
     id="layer1">
    <g
       id="g6228"
       transform="matrix(0.95813276,0,0,0.95813276,2.3664818,2.7344874)">
      <g
         id="g17370"
         transform="matrix(13.972977,0,0,13.209577,-2367.3586,-1281.9245)">
        <g
           id="g1094"
           transform="matrix(1.0233629,0,0,1.0233629,-3.9996837,-2.2983379)">
          <path
             id="path5377"
             style="fill:#000000;fill-opacity:1;stroke:none;stroke-width:0.999999px;stroke-linecap:butt;stroke-linejoin:miter;stroke-opacity:1"
             d="m 658.42253,371.47962 -3.49554,2.27442 v 5.39465 l -2.69838,1.44184 v 3.31368 l -1.15029,0.68415 v -8.3267 l -4.03144,2.48051 v 14.01185 l 11.37565,7.7773 11.33919,-7.7773 v -14.01185 l -4.17419,-2.48051 v 8.3267 l -1.04065,-0.68415 v -3.31368 l -2.75912,-1.44184 v -5.39465 z m 0,7.1459 4.54398,5.91217 h -2.10165 v 4.73712 h 5.31782 v 3.41464 l -7.76015,5.2876 -7.34421,-4.9917 v -3.65824 h 5.02388 l -0.002,-5.07711 h -1.85027 z"
             sodipodi:nodetypes="cccccccccccccccccccccccccccccccc"
             transform="scale(0.26458333)" />
          <path
             style="fill:#000000;fill-opacity:0.5;stroke:none;stroke-width:0.264583px;stroke-linecap:butt;stroke-linejoin:miter;stroke-opacity:1"
             d="m 172.56004,103.3498 2.6e-4,0.46914 1.64732,1.09066 1.69903,-1.10796 v -0.45183 l -1.36867,-1e-5 v -1.8706 l 0.28729,4.6e-4 -0.61765,-0.9095 -0.5933,0.90904 h 0.3569 l -0.0165,1.8706 z"
             id="path13809"
             sodipodi:nodetypes="ccccccccccccc" />
        </g>
      </g>
      <path
         style="fill:#000000;fill-opacity:0.5;stroke:none;stroke-width:0.264583px;stroke-linecap:butt;stroke-linejoin:miter;stroke-opacity:1"
         d="M 14.078422,61.412 V 36.669379 L 36.950012,22.544184 V 13.189751 L 5.7062044,32.366339 V 61.412 Z"
         id="path4967"
         sodipodi:nodetypes="ccccccc" />
      <path
         style="fill:#000000;fill-opacity:0.5;stroke:none;stroke-width:0.264583px;stroke-linecap:butt;stroke-linejoin:miter;stroke-opacity:1"
         d="M 122.36791,61.572307 V 36.829686 L 99.496319,22.704491 v -9.354433 l 31.243811,19.176588 v 29.045661 z"
         id="path4967-5"
         sodipodi:nodetypes="ccccccc" />
      <path
         style="fill:#000000;fill-opacity:0.5;stroke:none;stroke-width:0.264583px;stroke-linecap:butt;stroke-linejoin:miter;stroke-opacity:1"
         d="m 14.212663,75.004369 v 24.742619 l 22.87159,14.125192 v 9.35444 L 5.8404433,104.05003 V 75.004369 Z"
         id="path4967-2"
         sodipodi:nodetypes="ccccccc" />
      <path
         style="fill:#000000;fill-opacity:0.5;stroke:none;stroke-width:0.264583px;stroke-linecap:butt;stroke-linejoin:miter;stroke-opacity:1"
         d="M 122.21114,75.239918 V 99.982541 L 99.339548,114.10774 v 9.35443 L 130.58336,104.28558 V 75.239918 Z"
         id="path4967-25"
         sodipodi:nodetypes="ccccccc" />
      <path
         style="fill:#000000;fill-opacity:1;stroke:none;stroke-width:0.264583px;stroke-linecap:butt;stroke-linejoin:miter;stroke-opacity:1"
         d="m 42.664062,116.40013 v 3.3569 L 67.823,135.21833 92.608891,119.92384 v -3.50792 L 67.823,131.94428 Z"
         id="path5934"
         sodipodi:nodetypes="ccccccc" />
      <path
         style="fill:#000000;fill-opacity:1;stroke:none;stroke-width:0.264583px;stroke-linecap:butt;stroke-linejoin:miter;stroke-opacity:1"
         d="m 42.478725,19.278031 v -3.3569 L 67.637663,0.45983198 92.423554,15.754321 v 3.50792 L 67.637663,3.733882 Z"
         id="path5934-1"
         sodipodi:nodetypes="ccccccc" />
    </g>
  </g>
  <style
     type="text/css"
     id="style2">
	.st0{fill:#FF0000;}
	.st1{fill:#241C1C;}
</style>
</svg>
