<?xml version="1.0" encoding="UTF-8" standalone="no"?>
<!-- Created with Inkscape (http://www.inkscape.org/) -->

<svg
   width="512"
   height="512"
   viewBox="0 0 135.46666 135.46667"
   version="1.1"
   id="svg5"
   xml:space="preserve"
   inkscape:version="1.2.2 (b0a8486541, 2022-12-01)"
   sodipodi:docname="Sling.svg"
   xmlns:inkscape="http://www.inkscape.org/namespaces/inkscape"
   xmlns:sodipodi="http://sodipodi.sourceforge.net/DTD/sodipodi-0.dtd"
   xmlns="http://www.w3.org/2000/svg"
   xmlns:svg="http://www.w3.org/2000/svg"><sodipodi:namedview
     id="namedview7"
     pagecolor="#ffffff"
     bordercolor="#000000"
     borderopacity="0.25"
     inkscape:showpageshadow="2"
     inkscape:pageopacity="0"
     inkscape:pagecheckerboard="0"
     inkscape:deskcolor="#d1d1d1"
     inkscape:document-units="mm"
     showgrid="false"
     inkscape:zoom="0.54362802"
     inkscape:cx="-160.95565"
     inkscape:cy="380.77508"
     inkscape:window-width="1920"
     inkscape:window-height="1017"
     inkscape:window-x="-8"
     inkscape:window-y="-8"
     inkscape:window-maximized="1"
     inkscape:current-layer="layer1" /><defs
     id="defs2" /><g
     inkscape:label="Layer 1"
     inkscape:groupmode="layer"
     id="layer1"><g
       id="g5448"
       transform="matrix(1.495442,0,0,1.495442,-79.456238,-151.2415)"><path
         id="path356-2-0"
         style="fill:#000000;fill-opacity:0.5;stroke:none;stroke-width:0.264583;stroke-linecap:round;stroke-linejoin:round;stroke-opacity:1"
         d="m 105.48291,121.66147 -0.39533,0.27389 c 0.38882,1.81279 -0.15717,2.78882 -1.30793,3.22409 l -26.16016,9.73429 -0.395325,-1.06505 c -2.010683,-0.17987 -4.118023,-0.2248 -3.924308,1.91668 0.18891,0.9707 1.873837,0.8981 0.456303,1.39888 l -3.406511,1.21698 -1.004073,2.03812 -12.988871,4.8059 c -1.328834,0.51763 -1.218689,1.19993 -0.882117,2.16008 l 2.327507,6.20582 2.304769,-2.39365 -1.51412,-3.88814 c -0.284491,-0.79889 0.123856,-1.39592 0.98857,-1.67328 l 4.876705,-1.78542 c 0.6977,-0.26908 1.500032,-0.15145 1.723926,0.46199 l 0.808219,2.24586 c 0.239172,0.78304 0.118387,1.57559 -0.560689,2.14819 l 0.101286,-0.0398 5.353678,-2.0686 0.02687,-0.03 c -0.398894,-0.42327 -0.506686,-0.8966 0.263033,-1.30483 l 2.538863,-1.43298 c -0.111991,-0.98322 0.704165,-0.84058 1.186491,-0.9431 1.379776,-4.42972 5.089561,-4.56506 9.368937,-3.65042 l 21.414717,-8.15196 c 0.47273,-1.79884 1.36715,-3.31896 3.46801,-4.04575 l 3.71088,-1.33842 c 0.64347,-0.18414 0.80413,-0.1244 1.03456,0.39533 l 0.20774,0.58911 2.05931,-0.74517 -0.82114,-1.73426 -2.82929,1.156 -1.52083,-0.0605 0.061,-1.6428 1.30793,-0.6997 -0.6997,-0.73018 -3.83284,1.58181 c -1.15866,0.56229 -2.42549,0.71201 -2.64635,-0.0909 z"
         sodipodi:nodetypes="ccccccccccccccccccccccccccccccccccccccccc" /><path
         style="fill:#000000;fill-opacity:0.5;stroke:none;stroke-width:0.243326;stroke-linecap:round;stroke-linejoin:round;stroke-opacity:1"
         d="m 123.10624,133.02044 0.73191,-4.1936 0.79125,3.40235 1.62206,-1.64183 -0.25715,2.53198 6.82453,-2.19571 -6.33,3.20457 2.19571,1.46381 -2.05725,0.29671 1.899,3.08587 -3.93646,-2.82871 c 1.79556,-0.69848 0.63133,-4.05795 -1.4836,-3.12544 z"
         id="path5358-5"
         sodipodi:nodetypes="cccccccccccc" /><path
         id="path356"
         style="fill:#000000;fill-opacity:1;stroke:none;stroke-width:0.264583;stroke-linecap:round;stroke-linejoin:round;stroke-opacity:1"
         d="m 120.51874,140.50409 -0.39532,0.27388 c 0.38882,1.81279 -0.15717,2.78882 -1.30793,3.22409 l -26.160164,9.73429 -0.395324,-1.06505 c -2.010685,-0.17987 -4.118024,-0.2248 -3.924309,1.91668 0.18891,0.9707 1.873839,0.8981 0.456303,1.39888 l -3.40651,1.21698 -1.004073,2.03812 -12.988871,4.80591 c -1.328835,0.51763 -1.21869,1.19992 -0.882117,2.16007 l 2.463932,6.57014 c 0.594166,1.35501 1.473741,1.41435 2.5554,0.6997 l 7.422286,-5.94692 c 1.235301,-0.79771 4.996869,-0.43117 5.596557,1.47536 -1.41238,2.01418 4.873975,4.04739 3.77238,2.37298 l 0.882117,-4.56303 1.520837,-1.18649 3.011186,-1.156 c 1.082748,-0.34752 1.780548,-0.18187 2.92023,-0.24288 0.67631,-0.81497 1.92803,-0.36068 1.00408,0.12144 l 0.24339,2.61586 1.30793,0.66921 6.02289,-2.31148 0.12144,-2.64687 h -0.48679 c -0.21234,0.25511 -0.59084,0.22681 -0.39532,-0.36484 0.06,-0.15995 0.20006,-0.27114 0.51728,-0.27388 l 0.73018,-3.98477 c 0.18479,-0.52988 0.57861,-0.98988 1.49035,-1.27744 l 4.1367,-1.49035 c 1.14473,-0.55222 0.92236,0.52353 3.07268,0.2434 l 1.79472,-0.79117 c 1.93092,-0.9552 2.42681,0.60532 2.76779,1.82521 0.75093,3.08172 2.01306,4.89446 4.65398,3.6804 l -2.28099,-6.14433 c -0.49008,-1.19512 0.53737,-1.47467 1.21646,-1.76424 l 2.73782,-1.00407 0.27388,-2.49442 -0.6997,-1.55133 0.12144,-1.36839 3.19412,-1.156 -0.82114,-1.73426 -2.82928,1.156 -1.52084,-0.0605 0.061,-1.64279 1.30793,-0.6997 -0.6997,-0.73019 -3.83284,1.58181 c -1.15866,0.56229 -2.42549,0.71206 -2.64635,-0.0909 z m -21.801772,21.38525 c -0.08642,0.93992 -0.543196,1.71638 -1.333769,2.14044 l -2.086177,0.87127 c -2.712511,0.42831 -2.667122,-2.89156 -1.365809,-3.37706 l 2.881995,-1.17254 c 1.359446,-0.6559 2.06783,0.16857 1.90376,1.53789 z m -17.499186,1.24592 0.808219,2.24586 c 0.241504,0.79068 0.116918,1.59142 -0.57981,2.16524 l -4.106726,3.46749 c -1.000152,0.77859 -1.334205,1.36312 -1.809708,0 l -1.901176,-4.88187 c -0.284491,-0.7989 0.123855,-1.39592 0.98857,-1.67328 l 4.876705,-1.78543 c 0.697669,-0.26909 1.500085,-0.15129 1.723926,0.46199 z m 8.562784,1.38441 -0.136425,0.91261 c -0.238326,1.175 -1.077693,1.23002 -2.053622,0.51676 l -0.448551,-0.37258 c -0.543219,-0.46615 -0.816088,-1.02136 0.06821,-1.49035 l 1.065051,-0.61598 c 0.839338,-0.49858 1.580143,0.40885 1.505337,1.04954 z"
         sodipodi:nodetypes="cccccccccccccccccccccccccccccccccccccccccccccccccccccccccscccccccsccccccc" /><path
         style="fill:#000000;fill-opacity:1;stroke:none;stroke-width:0.264583;stroke-linecap:round;stroke-linejoin:round;stroke-opacity:1"
         d="m 131.03447,142.41287 0.79584,-4.55996 0.86038,3.69959 1.76376,-1.78527 -0.27963,2.75319 7.42071,-2.38753 -6.88297,3.48451 2.38753,1.59168 -2.23697,0.32264 2.06489,3.35544 -4.28034,-3.07582 c 1.95241,-0.7595 0.68648,-4.41244 -1.6132,-3.39847 z"
         id="path5358"
         sodipodi:nodetypes="cccccccccccc" /><path
         style="fill:#000000;fill-opacity:0.5;stroke:none;stroke-width:0.264583;stroke-linecap:round;stroke-linejoin:round;stroke-opacity:1"
         d="m 115.54262,123.48573 0.79584,-4.55996 0.86038,3.69959 1.76376,-1.78527 -0.27963,2.75319 7.42071,-2.38753 -6.88297,3.48451 2.38753,1.59168 -2.23697,0.32264 2.06489,3.35544 -4.28034,-3.07582 c 1.95241,-0.7595 0.68648,-4.41244 -1.6132,-3.39847 z"
         id="path5358-59"
         sodipodi:nodetypes="cccccccccccc" /><path
         id="path356-2"
         style="fill:#000000;fill-opacity:0.5;stroke:none;stroke-width:0.264583;stroke-linecap:round;stroke-linejoin:round;stroke-opacity:1"
         d="m 112.83911,131.31343 -0.39533,0.27389 c 0.38882,1.81279 -0.15717,2.78882 -1.30793,3.22409 l -26.160158,9.73429 -0.395325,-1.06505 c -2.010683,-0.17987 -4.118023,-0.2248 -3.924308,1.91668 0.18891,0.9707 1.873837,0.8981 0.456303,1.39888 l -3.406511,1.21698 -1.004073,2.03812 -12.988871,4.8059 c -1.328834,0.51763 -1.218689,1.19993 -0.882117,2.16008 l 2.327507,6.20582 2.304769,-2.39365 -1.51412,-3.88814 c -0.284491,-0.79889 0.123856,-1.39592 0.98857,-1.67328 l 4.876705,-1.78542 c 0.6977,-0.26908 1.500032,-0.15145 1.723926,0.46199 l 0.808219,2.24586 c 0.239172,0.78304 0.118387,1.57559 -0.560689,2.14819 l 0.101286,-0.0398 5.353678,-2.0686 0.02687,-0.03 c -0.398894,-0.42327 -0.506686,-0.8966 0.263033,-1.30483 l 2.538863,-1.43298 c -0.111991,-0.98322 0.704165,-0.84058 1.186491,-0.9431 1.379776,-4.42972 5.089561,-4.56506 9.368937,-3.65042 l 21.414715,-8.15196 c 0.47273,-1.79884 1.36715,-3.31896 3.46801,-4.04575 l 3.71088,-1.33842 c 0.64347,-0.18414 0.80413,-0.1244 1.03456,0.39533 l 0.20774,0.58911 2.05931,-0.74517 -0.82114,-1.73426 -2.82929,1.156 -1.52083,-0.0605 0.061,-1.6428 1.30793,-0.6997 -0.6997,-0.73018 -3.83284,1.58181 c -1.15866,0.56229 -2.42549,0.71201 -2.64635,-0.0909 z"
         sodipodi:nodetypes="ccccccccccccccccccccccccccccccccccccccccc" /></g></g></svg>
