<?xml version="1.0" encoding="UTF-8" standalone="no"?>
<!-- Created with Inkscape (http://www.inkscape.org/) -->

<svg
   width="512"
   height="512"
   viewBox="0 0 135.46666 135.46667"
   version="1.1"
   id="svg5"
   xml:space="preserve"
   inkscape:version="1.2.2 (b0a8486541, 2022-12-01)"
   sodipodi:docname="Tempest.svg"
   xmlns:inkscape="http://www.inkscape.org/namespaces/inkscape"
   xmlns:sodipodi="http://sodipodi.sourceforge.net/DTD/sodipodi-0.dtd"
   xmlns="http://www.w3.org/2000/svg"
   xmlns:svg="http://www.w3.org/2000/svg"><sodipodi:namedview
     id="namedview7"
     pagecolor="#ffffff"
     bordercolor="#000000"
     borderopacity="0.25"
     inkscape:showpageshadow="2"
     inkscape:pageopacity="0"
     inkscape:pagecheckerboard="0"
     inkscape:deskcolor="#d1d1d1"
     inkscape:document-units="mm"
     showgrid="false"
     inkscape:zoom="1.087256"
     inkscape:cx="152.21806"
     inkscape:cy="284.20169"
     inkscape:window-width="1920"
     inkscape:window-height="1017"
     inkscape:window-x="-8"
     inkscape:window-y="-8"
     inkscape:window-maximized="1"
     inkscape:current-layer="layer1" /><defs
     id="defs2" /><g
     inkscape:label="Layer 1"
     inkscape:groupmode="layer"
     id="layer1"><g
       id="g15294"
       transform="matrix(2.2780958,0,0,2.2780958,-82.739719,-77.486373)"><path
         style="fill:#000000;fill-opacity:0.501961;stroke:none;stroke-width:0.264583;stroke-linecap:round;stroke-linejoin:round;stroke-opacity:1"
         d="m 81.575272,53.596185 0.03226,1.64546 c -0.49965,0.536466 -0.760159,1.181632 -0.946409,1.860552 l -0.720561,-0.559242 0.172074,-4.043743 z"
         id="path13754-3"
         sodipodi:nodetypes="cccccc" /><path
         style="fill:#000000;fill-opacity:0.501961;stroke:none;stroke-width:0.264583;stroke-linecap:round;stroke-linejoin:round;stroke-opacity:1"
         d="m 78.063409,51.088194 -2.871488,-2.075643 0.01074,4.10827 1.365837,1.021689 c 0.263391,-1.326428 0.77271,-2.330076 1.494911,-3.054316 z"
         id="path13756-5"
         sodipodi:nodetypes="ccccc" /><path
         style="fill:#000000;fill-opacity:0.501961;stroke:none;stroke-width:0.264583;stroke-linecap:round;stroke-linejoin:round;stroke-opacity:1"
         d="m 74.17182,62.981908 -0.334605,1.384051 C 72.242959,63.847895 71.064275,75.899252 69.73069,81.689408 L 69.71548,62.114975 c 0.03665,-0.294439 0.191775,-0.533574 0.507153,-0.553434 l 2.308291,-12.344096 c 0.704927,-3.540002 1.55832,-3.578056 1.490514,0.349817 l -0.640506,12.547712 c 0.408073,0.177868 0.645912,0.486684 0.790888,0.866934 z"
         id="path13762-8"
         sodipodi:nodetypes="ccccccccc" /><path
         style="fill:#000000;fill-opacity:1;stroke:none;stroke-width:0.264583;stroke-linecap:round;stroke-linejoin:round;stroke-opacity:1"
         d="m 77.47225,65.886894 1.247166,-10.616126 c 0.329696,-4.060366 -0.358697,-3.681029 -1.353193,-0.362588 l -2.722914,10.370341 c -0.872085,0.54073 -0.991788,1.499451 -1.155909,2.433495 l -2.828941,14.144696 c 1.554037,-0.229863 3.058241,-0.220529 4.410713,0.517118 l 2.722474,-13.886136 c 0.09639,-0.791592 0.419581,-1.553149 -0.319396,-2.6008 z"
         id="path14490-6"
         sodipodi:nodetypes="ccccccccc" /><path
         style="fill:#000000;fill-opacity:0.501961;stroke:none;stroke-width:0.264583;stroke-linecap:round;stroke-linejoin:round;stroke-opacity:1"
         d="m 77.47225,84.563976 -1.429679,-1.64261 2.566444,-13.194855 c 0.146808,-1.035203 0.69992,-2.31897 0.17124,-3.444174 l 2.859357,-8.243467 c 1.15075,-3.233163 2.196348,-3.510007 1.399259,0.608373 l -2.007634,9.277704 c 0.694584,0.777256 0.438078,1.732842 0.24335,2.676845 z"
         id="path14492-6"
         sodipodi:nodetypes="ccccccccc" /><path
         style="fill:#000000;fill-opacity:1;stroke:none;stroke-width:0.264583;stroke-linecap:round;stroke-linejoin:round;stroke-opacity:1"
         d="m 77.761228,88.640084 0.106465,-2.692056 4.273826,-14.813907 c 0.237383,-0.902933 0.586458,-1.815831 0.182512,-2.692056 l 3.026661,-7.041928 c 1.618653,-3.451487 2.453135,-4.08168 1.475309,0.501907 l -2.357451,8.365143 c 0.673329,0.732075 0.467918,1.490779 0.212931,2.250985 L 79.647186,87.30166 c -0.08095,0.211917 -0.09115,0.352625 -0.395444,0.24335 -0.693392,-0.04201 -0.607577,0.54806 -0.136882,0.593164 0.411132,0.08568 0.347278,0.748074 -0.121677,0.714838 z"
         id="path14494-5"
         sodipodi:nodetypes="ccccccccccccc" /><path
         id="path10386"
         style="fill:#000000;fill-opacity:0.501961;stroke:none;stroke-width:0.34147;stroke-linecap:round;stroke-linejoin:round;stroke-opacity:1"
         d="m 61.126501,83.172701 a 5.2087822,4.4178963 0 0 0 -5.208984,4.417818 5.2087822,4.4178963 0 0 0 5.208984,4.417818 5.2087822,4.4178963 0 0 0 4.935617,-3.014803 5.2087822,4.4178963 0 0 0 4.965588,3.091285 5.2087822,4.4178963 0 0 0 5.208984,-4.418335 5.2087822,4.4178963 0 0 0 -5.208984,-4.417819 5.2087822,4.4178963 0 0 0 -4.934583,3.01222 5.2087822,4.4178963 0 0 0 -4.966622,-3.088184 z m -0.166398,1.715658 c 1.213405,0.0045 2.687175,0.556886 3.983737,2.550231 -1.285356,2.675229 -3.775931,3.007883 -5.262212,2.737818 -2.607754,-0.872955 -2.357669,-4.26326 0,-5.095296 0.368779,-0.112512 0.803665,-0.194526 1.278475,-0.192753 z m 10.108427,0 c 0.474811,-0.0018 0.909698,0.08024 1.278475,0.192753 2.357668,0.832035 2.607753,4.222342 0,5.095296 -1.486278,0.270065 -3.976856,-0.06259 -5.262211,-2.737818 1.296561,-1.993343 2.770332,-2.545702 3.983736,-2.550231 z" /><path
         style="fill:#000000;fill-opacity:1;stroke:none;stroke-width:0.264583;stroke-linecap:round;stroke-linejoin:round;stroke-opacity:1"
         d="M 65.968929,83.929171 C 65.384285,83.054323 64.488794,82.373755 63.216,81.929 L 63.215744,60.85 c 0.03224,-0.88289 0.204623,-1.906246 1.1615,-2.603 l 1.204518,-15.572609 c 0.299848,-2.175068 1.000982,-2.168337 1.24754,0 L 67.904764,58.247 c 0.841729,0.703336 0.823767,1.664579 0.88188,2.603 l 0.06453,21.079 c -1.283495,0.317082 -2.286507,0.93802 -2.882245,2.000171 z"
         id="path13004"
         sodipodi:nodetypes="cccccccccc" /><path
         style="fill:#000000;fill-opacity:0.501961;stroke:none;stroke-width:0.264583;stroke-linecap:round;stroke-linejoin:round;stroke-opacity:1"
         d="m 50.589801,53.869965 -0.03226,1.64546 c 0.49965,0.536466 0.760159,1.181632 0.946409,1.860552 l 0.720561,-0.559242 -0.172074,-4.043743 z"
         id="path13754"
         sodipodi:nodetypes="cccccc" /><path
         style="fill:#000000;fill-opacity:0.501961;stroke:none;stroke-width:0.264583;stroke-linecap:round;stroke-linejoin:round;stroke-opacity:1"
         d="m 54.375433,51.149043 2.871488,-2.075643 -0.01074,4.10827 -1.365837,1.021689 c -0.263391,-1.326428 -0.77271,-2.330076 -1.494911,-3.054316 z"
         id="path13756"
         sodipodi:nodetypes="ccccc" /><path
         style="fill:#000000;fill-opacity:0.501961;stroke:none;stroke-width:0.264583;stroke-linecap:round;stroke-linejoin:round;stroke-opacity:1"
         d="m 60.462556,46.64285 3.602805,-2.548847 c -0.393599,1.533732 -0.458176,2.990048 -0.36566,4.4094 l -2.16168,1.613196 C 61.217429,48.94184 61.018533,47.712994 60.462556,46.64285 Z"
         id="path13758"
         sodipodi:nodetypes="ccccc" /><path
         style="fill:#000000;fill-opacity:0.501961;stroke:none;stroke-width:0.264583;stroke-linecap:round;stroke-linejoin:round;stroke-opacity:1"
         d="m 68.324195,44.007965 c 0.176339,1.45152 0.411027,2.898179 0.258111,4.377137 l 2.516585,1.839042 c 0.214171,-1.210127 0.44248,-2.416719 0.88188,-3.570538 z"
         id="path13760"
         sodipodi:nodetypes="ccccc" /><path
         style="fill:#000000;fill-opacity:0.501961;stroke:none;stroke-width:0.264583;stroke-linecap:round;stroke-linejoin:round;stroke-opacity:1"
         d="m 58.023672,63.073176 0.334605,1.384051 c 1.594256,-0.518064 2.681684,11.229106 4.015269,17.019262 l 0.01521,-20.669506 -2.34224,-11.802457 c -0.753077,-2.864369 -1.419955,-2.678684 -1.490514,0.349817 l 0.258558,12.851899 c -0.408073,0.177868 -0.645912,0.486684 -0.790888,0.866934 z"
         id="path13762"
         sodipodi:nodetypes="cccccccc" /><path
         style="fill:#000000;fill-opacity:1;stroke:none;stroke-width:0.264583;stroke-linecap:round;stroke-linejoin:round;stroke-opacity:1"
         d="M 54.631986,65.673975 53.38482,55.057849 c -0.329696,-4.060366 0.358697,-3.681029 1.353193,-0.362588 l 2.722914,10.370341 c 0.872085,0.54073 0.991788,1.499451 1.155909,2.433495 l 2.828941,14.144696 C 59.89174,81.41393 58.387536,81.423264 57.035064,82.160911 L 54.31259,68.274775 c -0.09639,-0.791592 -0.419581,-1.553149 0.319396,-2.6008 z"
         id="path14490"
         sodipodi:nodetypes="ccccccccc" /><path
         style="fill:#000000;fill-opacity:0.501961;stroke:none;stroke-width:0.264583;stroke-linecap:round;stroke-linejoin:round;stroke-opacity:1"
         d="m 54.631986,84.351057 1.429679,-1.64261 -2.566444,-13.194855 c -0.146808,-1.035203 -0.69992,-2.31897 -0.17124,-3.444174 l -2.859357,-8.243467 c -1.15075,-3.233163 -2.196348,-3.510007 -1.399259,0.608373 l 2.007634,9.277704 c -0.694584,0.777256 -0.438078,1.732842 -0.24335,2.676845 z"
         id="path14492"
         sodipodi:nodetypes="ccccccccc" /><path
         style="fill:#000000;fill-opacity:1;stroke:none;stroke-width:0.264583;stroke-linecap:round;stroke-linejoin:round;stroke-opacity:1"
         d="M 54.343008,88.427165 54.236543,85.735109 49.962717,70.921202 c -0.237383,-0.902933 -0.586458,-1.815831 -0.182512,-2.692056 l -3.026661,-7.041928 c -1.618653,-3.451487 -2.453135,-4.08168 -1.475309,0.501907 l 2.357451,8.365143 c -0.673329,0.732075 -0.467918,1.490779 -0.212931,2.250985 l 5.034295,14.783488 c 0.08095,0.211917 0.09115,0.352625 0.395444,0.24335 0.693392,-0.04201 0.607577,0.54806 0.136882,0.593164 -0.411132,0.08568 -0.347278,0.748074 0.121677,0.714838 z"
         id="path14494"
         sodipodi:nodetypes="ccccccccccccc" /><path
         style="fill:#000000;fill-opacity:0.501961;stroke:none;stroke-width:0.264583;stroke-linecap:round;stroke-linejoin:round;stroke-opacity:1"
         d="m 50.555882,46.723125 v 4.197781 L 66.191,39.483474 81.795886,50.951325 V 46.631867 L 66.191,35.407367 Z"
         id="path15275"
         sodipodi:nodetypes="ccccccc" /></g></g></svg>
