<svg width="24" height="24" viewBox="0 0 24 24" fill="none" xmlns="http://www.w3.org/2000/svg">
<path d="M14.3454 22.2441H9.65308V23.7834H14.3454V22.2441Z" fill="white"/>
<path d="M10.0805 11.5615H13.9186C14.0319 11.5617 14.1405 11.6068 14.2207 11.6869C14.3008 11.767 14.3459 11.8757 14.346 11.989V21.4703H9.65308V11.989C9.65325 11.8757 9.69834 11.767 9.77847 11.6869C9.85859 11.6068 9.96722 11.5617 10.0805 11.5615V11.5615Z" fill="white"/>
<path d="M13.4342 7.31396H10.5646C10.5646 7.31396 10.0593 10.4865 9.75439 10.7771H14.2443C13.9395 10.4865 13.4342 7.31396 13.4342 7.31396Z" fill="white"/>
<path d="M12.0001 0.21582C10.6483 1.36198 10.481 5.08587 10.4602 6.03744C10.4647 6.10092 10.4942 6.16001 10.5422 6.20173C10.5903 6.24345 10.6529 6.26439 10.7164 6.25993H13.2792C13.3427 6.26514 13.4056 6.24499 13.4542 6.2039C13.5029 6.16281 13.5332 6.10412 13.5387 6.04068V6.03744C13.5179 5.08587 13.3506 1.36198 12.0001 0.21582Z" fill="white"/>
<path d="M20.0756 22.2441H15.3833V23.7834H20.0756V22.2441Z" fill="white"/>
<path d="M15.8108 13.0864H19.6488C19.7621 13.0866 19.8708 13.1317 19.9509 13.2118C20.031 13.2919 20.0761 13.4006 20.0763 13.5139V21.4702H15.3833V13.5132C15.3835 13.4 15.4286 13.2914 15.5087 13.2114C15.5889 13.1314 15.6975 13.0864 15.8108 13.0864Z" fill="white"/>
<path d="M19.1638 8.84033H16.2948C16.2948 8.84033 15.7895 12.0129 15.4846 12.3035H19.9739C19.6691 12.0122 19.1638 8.84033 19.1638 8.84033Z" fill="white"/>
<path d="M17.7289 1.7417C16.3785 2.88786 16.2105 6.6111 16.1897 7.56202C16.1918 7.59383 16.2003 7.6249 16.2145 7.65342C16.2287 7.68194 16.2485 7.70735 16.2726 7.72817C16.2968 7.74899 16.3248 7.76481 16.3551 7.7747C16.3854 7.78459 16.4174 7.78837 16.4492 7.78581H19.0055C19.0369 7.78856 19.0685 7.78509 19.0986 7.77558C19.1286 7.76608 19.1565 7.75073 19.1806 7.73042C19.2047 7.71011 19.2246 7.68523 19.2391 7.65723C19.2535 7.62922 19.2623 7.59863 19.2649 7.56721V7.56267C19.2474 6.61175 19.0801 2.88786 17.7289 1.7417Z" fill="white"/>
<path d="M8.61591 22.2441H3.92358V23.7834H8.61591V22.2441Z" fill="white"/>
<path d="M4.35104 13.0864H8.18845C8.30177 13.0866 8.41039 13.1317 8.49052 13.2118C8.57065 13.2919 8.61574 13.4006 8.61591 13.5139V21.4702H3.92358V13.5132C3.92376 13.4 3.96887 13.2914 4.04901 13.2114C4.12916 13.1314 4.23779 13.0864 4.35104 13.0864V13.0864Z" fill="white"/>
<path d="M7.70404 8.84033H4.83506C4.83506 8.84033 4.32977 12.0129 4.0249 12.3035H8.5142C8.20933 12.0122 7.70404 8.84033 7.70404 8.84033Z" fill="white"/>
<path d="M6.26996 1.7417C4.91882 2.88786 4.75147 6.6111 4.73071 7.56202C4.73537 7.62526 4.76486 7.68409 4.81274 7.72565C4.86063 7.76722 4.92302 7.78815 4.98628 7.78386H7.54909C7.61265 7.78907 7.67567 7.76883 7.72432 7.7276C7.77297 7.68637 7.80326 7.62752 7.80855 7.56397V7.56073C7.78844 6.61175 7.62044 2.88786 6.26996 1.7417Z" fill="white"/>
</svg>