<?xml version="1.0" encoding="UTF-8" standalone="no"?>
<svg
   xmlns:osb="http://www.openswatchbook.org/uri/2009/osb"
   xmlns:dc="http://purl.org/dc/elements/1.1/"
   xmlns:cc="http://creativecommons.org/ns#"
   xmlns:rdf="http://www.w3.org/1999/02/22-rdf-syntax-ns#"
   xmlns:svg="http://www.w3.org/2000/svg"
   xmlns="http://www.w3.org/2000/svg"
   xmlns:sodipodi="http://sodipodi.sourceforge.net/DTD/sodipodi-0.dtd"
   xmlns:inkscape="http://www.inkscape.org/namespaces/inkscape"
   width="512"
   height="512"
   viewBox="0 0 135.46667 135.46667"
   version="1.1"
   id="svg8"
   inkscape:version="0.92.4 (5da689c313, 2019-01-14)"
   sodipodi:docname="Care_Package.svg">
  <defs
     id="defs2">
    <linearGradient
       id="linearGradient1099-6-5"
       osb:paint="gradient">
      <stop
         style="stop-color:#273839;stop-opacity:0.5"
         offset="0"
         id="stop1151" />
      <stop
         style="stop-color:#273839;stop-opacity:1"
         offset="1"
         id="stop1153" />
    </linearGradient>
  </defs>
  <sodipodi:namedview
     id="base"
     pagecolor="#ffffff"
     bordercolor="#666666"
     borderopacity="1.0"
     inkscape:pageopacity="0.0"
     inkscape:pageshadow="2"
     inkscape:zoom="0.7"
     inkscape:cx="-72.322499"
     inkscape:cy="81.580798"
     inkscape:document-units="mm"
     inkscape:current-layer="layer1"
     inkscape:document-rotation="0"
     showgrid="false"
     inkscape:pagecheckerboard="true"
     inkscape:object-nodes="true"
     fit-margin-top="0"
     fit-margin-left="0"
     fit-margin-right="0"
     fit-margin-bottom="0"
     inkscape:window-width="1920"
     inkscape:window-height="1017"
     inkscape:window-x="-8"
     inkscape:window-y="-8"
     inkscape:window-maximized="1"
     units="px" />
  <metadata
     id="metadata5">
    <rdf:RDF>
      <cc:Work
         rdf:about="">
        <dc:format>image/svg+xml</dc:format>
        <dc:type
           rdf:resource="http://purl.org/dc/dcmitype/StillImage" />
        <dc:title></dc:title>
      </cc:Work>
    </rdf:RDF>
  </metadata>
  <g
     inkscape:label="Layer 1"
     inkscape:groupmode="layer"
     id="layer1"
     transform="translate(-59.62574,-110.15786)">
    <path
       style="fill:#000000;stroke-width:0.26458299"
       id="path853"
       d=""
       inkscape:connector-curvature="0" />
    <path
       style="fill:#000000;stroke-width:0.26458299"
       id="path849"
       d=""
       inkscape:connector-curvature="0" />
    <g
       id="g1276"
       transform="matrix(1.2820642,0,0,1.2779017,-31.971116,-45.917772)">
      <path
         id="path1265"
         style="fill:#000000;fill-opacity:1;stroke-width:1.33333004"
         d="m 124.30664,149.79249 13.02551,111.86307 c 19.37334,-0.69579 20.03996,-0.62486 27.28052,10.25937 l 39.33608,55.00553 h 83.98129 l 35.07299,-55.00553 c 7.19869,-9.61783 11.39594,-10.47219 30.15908,-10.28407 L 366,149.79249 C 335.34671,138.28522 305.50331,135.6868 275.89648,135.69063 l -15.5625,31.69665 H 230 l -15.41406,-31.69665 c -30.29997,0.37484 -60.69615,0.10744 -90.2793,14.10186 z m 87.01724,33.71142 c 12.37069,0.36351 23.00754,6.59134 30.60352,18.03515 4.48566,6.75795 5.22993,7.35346 6.49414,5.20117 4.28844,-7.30117 12.14093,-15.71289 17.73633,-19.00195 5.62499,-3.30644 7.66522,-3.7379 17.6914,-3.72656 12.61331,0.0129 16.85977,1.60391 24.39649,9.14062 10.96482,10.96483 14.05026,31.66668 6.95117,46.62696 -3.62559,7.64027 -13.30183,17.30379 -30.16797,30.1289 -9.08239,6.9063 -21.31299,16.24287 -27.17969,20.7461 l -10.66796,8.1875 -25.26758,-19.06446 c -40.74395,-30.74014 -46.83287,-38.37338 -46.61328,-58.44336 0.13436,-12.27828 3.38361,-20.74689 10.80664,-28.16992 6.03632,-6.03628 11.37334,-8.58408 19.8125,-9.45508 1.83417,-0.1893 3.63705,-0.257 5.40429,-0.20507 z"
         transform="matrix(0.26458333,0,0,0.26458333,59.62574,110.15787)"
         inkscape:connector-curvature="0"
         sodipodi:nodetypes="cccccccccccccsccccccsccccccs" />
      <path
         style="fill:#000000;fill-opacity:1;stroke-width:0.35277799"
         d="m 116.73636,143.49499 c -8.42572,-0.10711 -16.58155,0.93319 -24.449556,3.19636 l -0.205523,-4.36156 18.940699,-8.7534 4.51903,-8.24946 h 17.86879 l 4.60553,8.24946 19.04038,7.96339 -0.46367,5.10237 c -8.15683,-2.09533 -16.31365,-3.31673 -24.47048,-3.14716 l -4.26701,8.81953 h -6.4395 z"
         id="path1269"
         inkscape:connector-curvature="0"
         sodipodi:nodetypes="ccccccccccccc" />
      <path
         style="fill:#000000;fill-opacity:1;stroke-width:0.35277799"
         d="m 106.05453,200.73504 c -0.7063,-2.62616 -1.52357,-4.23975 -5.46164,-10.78332 -2.54708,-4.23227 -4.716203,-7.84969 -4.631353,-7.84969 h 4.757223 l 11.58492,16.2289 24.43342,-0.049 10.98546,-16.1799 h 5.0365 c 0.22276,0 -2.03218,4.00604 -4.51597,8.10041 -3.47458,5.72763 -4.66657,8.01376 -5.16905,9.91375 -1.63029,8.36663 -6.34926,10.80919 -12.42652,14.64027 l -10.87318,-0.012 c -6.25407,-3.78664 -12.49953,-7.24233 -13.71981,-14.00942 z"
         id="path1263"
         inkscape:connector-curvature="0"
         sodipodi:nodetypes="cssccccsscccc" />
      <path
         style="fill:#000000;fill-opacity:0.5;stroke-width:0.35277799"
         d="m 123.35725,224.94861 c -21.66996,0.0349 -61.368946,-5.16001 -35.867249,-21.1038 l -13.15988,-5.32997 14.57617,-2.85968 -14.98499,-23.21204 18.00395,16.03142 6.969699,14.33546 c -27.527557,12.23857 -2.812285,19.25356 24.4623,19.66481 26.82238,0.31678 49.13457,-7.02314 26.63934,-19.18404 l 6.72857,-14.17009 17.85942,-16.4755 -14.47602,22.95452 14.52273,3.02886 -13.16263,5.17668 c 26.26946,20.51591 -20.14475,21.14855 -38.11141,21.14337 z"
         id="path1259"
         inkscape:connector-curvature="0"
         sodipodi:nodetypes="ccccccccccccccc" />
    </g>
  </g>
</svg>
