<?xml version="1.0" encoding="UTF-8" standalone="no"?>
<svg
   xmlns:dc="http://purl.org/dc/elements/1.1/"
   xmlns:cc="http://creativecommons.org/ns#"
   xmlns:rdf="http://www.w3.org/1999/02/22-rdf-syntax-ns#"
   xmlns:svg="http://www.w3.org/2000/svg"
   xmlns="http://www.w3.org/2000/svg"
   xmlns:sodipodi="http://sodipodi.sourceforge.net/DTD/sodipodi-0.dtd"
   xmlns:inkscape="http://www.inkscape.org/namespaces/inkscape"
   width="511.99997"
   height="511.99997"
   viewBox="0 0 135.46666 135.46666"
   version="1.1"
   id="svg8"
   inkscape:version="0.92.4 (5da689c313, 2019-01-14)"
   sodipodi:docname="Combat_Revive.svg">
  <defs
     id="defs2" />
  <sodipodi:namedview
     id="base"
     pagecolor="#ffffff"
     bordercolor="#666666"
     borderopacity="1.0"
     inkscape:pageopacity="0.0"
     inkscape:pageshadow="2"
     inkscape:zoom="0.49497475"
     inkscape:cx="-279.9651"
     inkscape:cy="144.01851"
     inkscape:document-units="mm"
     inkscape:current-layer="layer1"
     inkscape:document-rotation="0"
     showgrid="false"
     inkscape:pagecheckerboard="true"
     inkscape:object-nodes="true"
     fit-margin-top="0"
     fit-margin-left="0"
     fit-margin-right="0"
     fit-margin-bottom="0"
     inkscape:window-width="1920"
     inkscape:window-height="1017"
     inkscape:window-x="-8"
     inkscape:window-y="-8"
     inkscape:window-maximized="1"
     units="px" />
  <metadata
     id="metadata5">
    <rdf:RDF>
      <cc:Work
         rdf:about="">
        <dc:format>image/svg+xml</dc:format>
        <dc:type
           rdf:resource="http://purl.org/dc/dcmitype/StillImage" />
        <dc:title></dc:title>
      </cc:Work>
    </rdf:RDF>
  </metadata>
  <g
     inkscape:label="Layer 1"
     inkscape:groupmode="layer"
     id="layer1"
     transform="translate(-59.62574,-110.15787)">
    <path
       style="fill:#000000;stroke-width:0.264583"
       id="path853"
       d="" />
    <path
       style="fill:#000000;stroke-width:0.264583"
       id="path849"
       d="" />
    <g
       id="g1312"
       transform="matrix(1.2039441,0,0,1.211917,-24.882168,-35.316002)">
      <path
         style="fill:#000000;fill-opacity:0.5;stroke-width:0.352778"
         d="m 174.2536,154.79233 h -26.9879 v -26.13902 h -13.0529 v -5.99693 l 19.05067,-4e-4 v 26.14771 h 26.81098 v 20.4195 h -5.99738 z"
         id="path1304"
         sodipodi:nodetypes="ccccccccccc" />
      <path
         style="fill:#000000;fill-opacity:0.5;stroke-width:0.352778"
         d="m 72.829712,148.80369 h 26.810977 v -26.14731 h 19.049841 l 3.1e-4,5.99693 h -13.06152 v 26.13902 H 92.751745 c -3.262769,-0.003 -3.290205,-1.33327 -4.955308,-3.28039 -1.590443,0.85894 -3.87399,1.18672 -5.12707,2.54153 -0.663136,0.6474 -2.508999,0.76215 -3.856814,0.73886 v 14.43086 h -5.982821 z"
         id="path1302"
         sodipodi:nodetypes="cccccccccccccc" />
      <path
         id="path1298"
         style="fill:#000000;fill-opacity:1;stroke-width:0.353042"
         d="m 115.26078,139.06018 v 25.75278 c -0.66343,0.002 -1.55068,-0.0559 -2.00307,0.61779 -1.01843,1.48153 -2.62741,2.05322 -3.19944,3.6158 -0.68545,1.66412 -3.08659,3.37404 -4.83022,3.51658 -1.22916,-0.57769 -1.23656,-2.63611 -2.54631,-3.05563 -1.06275,-0.49658 -1.89362,-2.90117 -2.67206,-4.69454 H 89.586904 v 1.71436 c 0,1.45898 0.139727,1.82389 0.883445,2.31046 l 0.882926,0.57774 c 0.07253,4.25059 0.381663,9.01814 -0.882926,12.62094 -0.656213,1.46521 -0.82486,2.80489 -0.883813,5.00172 h 25.674244 v 25.51689 c 0.12954,0.12935 1.44318,0.2359 2.91927,0.2359 2.44432,0 2.71463,-0.0711 3.03227,-0.79406 0.34257,-0.77965 0.45887,-0.79322 6.5319,-0.79322 6.07301,0 6.18926,0.0136 6.53183,0.79322 0.2832,0.64455 0.6314,0.79406 1.85441,0.79406 h 1.50627 v -25.75279 h 24.45557 c 0.35241,-0.87791 0.72566,-1.91414 0.51575,-2.82098 -0.56641,-2.24708 -0.60348,-2.82308 -0.17968,-2.82308 0.30625,0 0.13844,-0.36901 -0.13642,-0.86972 -0.69383,-1.5712 -0.551,-6.8114 -0.57065,-12.16721 1.81475,-1.31146 1.58306,-1.62194 1.58966,-3.54423 h -25.67423 v -22.48002 l -1.32461,-1.63504 c -1.46269,-1.80481 -2.54467,-2.09967 -3.09645,-0.84388 -0.3431,0.78085 -0.45165,0.79375 -6.70786,0.79375 -6.25622,0 -6.36528,-0.0129 -6.70838,-0.79375 -0.30827,-0.70155 -0.60603,-0.79375 -2.56183,-0.79375 z m 6.00588,27.83353 1.82072,0.71675 c 1.39167,0.54772 2.03592,0.63533 2.7321,0.37104 1.1955,-0.45385 1.21867,-0.4489 1.21467,0.2713 -0.002,0.33954 0.34242,1.60176 0.76544,2.80448 l 0.76907,2.18643 -0.93675,1.41335 c -0.70869,1.06932 -0.88428,1.67429 -0.72145,2.48719 0.20583,1.02765 0.12879,1.11274 -1.7819,1.95647 -1.09859,0.48512 -2.20271,0.88211 -2.45367,0.88211 -0.25095,0 -1.14401,-0.58772 -1.98425,-1.30586 -1.79527,-1.53438 -3.33782,-4.63846 -3.02089,-6.07921 0.11336,-0.51537 -0.0333,-1.5096 -0.32605,-2.20917 -0.62327,-1.48945 -0.54042,-1.59564 2.12709,-2.73058 z"
         sodipodi:nodetypes="ccccccccsccccccsssssccccsccccccsscscccsccccsssssscc" />
      <path
         style="fill:#000000;fill-opacity:0.5;stroke-width:0.352778"
         d="m 134.2128,222.84512 h 13.05304 l -1.4e-4,-26.44965 h 26.81098 c 0.009,-2.26771 -0.29888,-8.4548 0.53988,-9.79427 0.30101,-0.42975 0.43455,-0.83101 0.34176,-1.0757 -0.39561,-0.78477 -0.88489,-0.86696 -0.88164,-1.83906 h 5.99777 l -2.8e-4,18.69766 h -11.86711 c -0.53899,-1.91744 -1.94989,-4.48995 -3.66801,-3.8737 -1.74368,0.47434 -2.70478,-0.38884 -4.48602,-1.1118 -0.86136,0.45347 -4.59175,1.83633 -4.6733,2.67027 -0.28378,0.94336 -1.51691,1.70771 -2.11626,2.31523 v 26.81097 h -19.05041 z"
         id="path1296"
         sodipodi:nodetypes="ccccccccccccccccc" />
      <path
         style="fill:#000000;fill-opacity:0.5;stroke-width:0.352778"
         d="M 99.640689,202.3841 H 84.583782 c -0.530931,-0.062 -1.041555,-0.86915 -1.392138,-1.50229 -2.428917,1.28325 -3.021656,1.50229 -5.506469,1.50229 h -4.855463 v -18.69766 h 5.982821 v 12.70903 h 26.816787 v 26.44965 h 10.97766 l 0.60095,1.11365 c 0.68157,1.26305 1.55536,2.26196 2.15268,2.46106 0.22285,0.0743 0.50159,0.72913 0.61942,1.45521 l 0.21423,1.32014 -20.553571,-1.1e-4 z"
         id="path1292"
         sodipodi:nodetypes="cccccccccccsssccc" />
    </g>
  </g>
</svg>
