<?xml version="1.0" encoding="UTF-8" standalone="no"?>
<!-- Created with Inkscape (http://www.inkscape.org/) -->

<svg
   xmlns:dc="http://purl.org/dc/elements/1.1/"
   xmlns:cc="http://creativecommons.org/ns#"
   xmlns:rdf="http://www.w3.org/1999/02/22-rdf-syntax-ns#"
   xmlns:svg="http://www.w3.org/2000/svg"
   xmlns="http://www.w3.org/2000/svg"
   xmlns:sodipodi="http://sodipodi.sourceforge.net/DTD/sodipodi-0.dtd"
   xmlns:inkscape="http://www.inkscape.org/namespaces/inkscape"
   width="512"
   height="512"
   viewBox="0 0 135.46667 135.46667"
   version="1.1"
   id="svg7996"
   xml:space="preserve"
   inkscape:version="0.92.4 (5da689c313, 2019-01-14)"
   sodipodi:docname="Echo_Relocation.svg"><metadata
     id="metadata23"><rdf:RDF><cc:Work
         rdf:about=""><dc:format>image/svg+xml</dc:format><dc:type
           rdf:resource="http://purl.org/dc/dcmitype/StillImage" /><dc:title></dc:title></cc:Work></rdf:RDF></metadata><sodipodi:namedview
     id="namedview7998"
     pagecolor="#ffffff"
     bordercolor="#000000"
     borderopacity="0.25"
     inkscape:showpageshadow="2"
     inkscape:pageopacity="0.0"
     inkscape:pagecheckerboard="0"
     inkscape:deskcolor="#d1d1d1"
     inkscape:document-units="mm"
     showgrid="false"
     inkscape:zoom="0.65134574"
     inkscape:cx="8.3256363"
     inkscape:cy="291.21171"
     inkscape:window-width="1920"
     inkscape:window-height="1017"
     inkscape:window-x="-8"
     inkscape:window-y="-8"
     inkscape:window-maximized="1"
     inkscape:current-layer="layer1" /><defs
     id="defs7993" /><g
     inkscape:label="Layer 1"
     inkscape:groupmode="layer"
     id="layer1"><g
       id="g27554"
       transform="matrix(0.97035428,0,0,0.97035428,2.3418751,-0.05223447)"><path
         style="fill:#000000;fill-opacity:1;stroke:none;stroke-width:0.264583;stroke-linecap:square;stroke-linejoin:bevel;stroke-dasharray:none;stroke-opacity:1"
         d="m 81.347055,85.560202 c -1.031322,-1.253383 -1.240686,-1.488461 -1.956784,0 l -4.47008,8.54521 c -0.395153,0.705215 -0.466543,1.28349 0.08976,1.84907 l 4.416224,3.931515 c 0.395841,0.390803 0.216375,0.691723 0.01797,1.005323 l -3.159575,4.7214 c -0.61589,1.21082 -0.309745,3.16638 -0.07181,4.79321 0.09895,0.46423 0.542361,1.52446 0.780478,1.95591 0.465462,0.9999 1.31191,0.58957 0.694226,-0.32259 -0.176525,-0.2754 -0.116175,-0.82131 -0.32577,-1.54352 -0.507256,-2.30733 0.72421,-1.90978 1.831118,-1.09509 2.413399,1.72012 3.348798,3.80326 3.033908,6.19349 -0.08171,1.78479 1.090195,1.39219 1.059178,0.0359 -0.01134,-1.01678 0.434616,-1.75423 0.161568,-2.80053 -0.586328,-1.99007 1.004639,-1.20048 1.579787,-0.12566 0.755387,1.39982 0.603442,2.11914 0.736036,3.05186 0.106967,1.34391 0.878782,0.73912 0.825799,0.0898 0.37177,-3.75372 -0.734849,-4.96324 -1.777261,-6.28325 l -1.507977,-1.83111 c -1.479053,-1.42775 -0.7426,-1.62352 0.412898,-2.90825 l 3.518617,-4.23669 c 0.57041,-0.736079 0.967491,-1.201562 0.323138,-2.836434 -1.786765,-4.709125 -2.963828,-8.336622 -6.211448,-12.189564 z"
         id="path23821-0"
         sodipodi:nodetypes="cccccccccccccccccccccccc" /><path
         style="fill:#000000;fill-opacity:0.5;stroke:none;stroke-width:0.264583;stroke-linecap:square;stroke-linejoin:bevel;stroke-dasharray:none;stroke-opacity:1"
         d="m 128.17997,80.429897 c 0.357,-6.569906 0.85599,-17.008924 -7.51489,-15.486766 -1.66193,-17.670337 -8.71188,-28.605632 -17.21316,-37.726778 19.90353,15.508568 30.80957,32.737245 24.72805,53.213544 z"
         id="path18521-1"
         sodipodi:nodetypes="cccc" /><path
         style="fill:#000000;fill-opacity:0.5;stroke:none;stroke-width:0.264583;stroke-linecap:square;stroke-linejoin:bevel;stroke-dasharray:none;stroke-opacity:1"
         d="m 119.3718,61.791295 c -1.52231,-4.928488 -7.46396,-5.585871 -9.08378,-1.184838 -1.80171,-4.203284 -4.10868,-8.176903 -7.39627,-11.704789 -1.90536,-2.482346 -1.60478,-3.555442 -1.7234,-4.739362 l -0.0359,-16.156913 c -0.0856,-2.050813 0.65979,-1.168826 1.36436,-0.430853 10.62947,11.48378 14.86329,22.867628 16.875,34.216755 z"
         id="path18523-9"
         sodipodi:nodetypes="ccccccc" /><path
         style="fill:#000000;fill-opacity:0.5;stroke:none;stroke-width:0.264583;stroke-linecap:square;stroke-linejoin:bevel;stroke-dasharray:none;stroke-opacity:1"
         d="m 109.46891,60.957141 c 0.16817,0.370727 0.18863,0.672519 -0.35543,0.710867 -6.16681,-0.705294 -11.336332,5.4836 -12.694074,14.852062 -1.671073,-5.205353 -2.844937,-10.311263 -5.382287,-15.689871 -0.573599,-1.17799 -0.526577,-1.918879 0.126939,-2.691143 3.299676,-2.731409 5.669542,-5.710767 7.971878,-8.708133 1.062094,-1.310977 2.555484,-0.369938 2.843474,-0.02537 3.15337,3.645257 5.40744,7.571545 7.4895,11.551588 z"
         id="path19251-6"
         sodipodi:nodetypes="cccccccc" /><path
         style="fill:#000000;fill-opacity:0.5;stroke:none;stroke-width:0.264583;stroke-linecap:square;stroke-linejoin:bevel;stroke-dasharray:none;stroke-opacity:1"
         d="m 95.387758,77.122475 c 0.289195,0.85213 0.07979,1.312503 -0.969415,1.113033 -5.896492,-2.05037 -9.037252,1.391113 -11.938163,2.836437 -0.996977,0.623602 -1.381245,0.195687 -0.915559,-0.556517 3.571857,-5.9053 4.723598,-12.491413 7.019282,-18.742022 0.159451,-0.471784 0.554591,-0.957072 1.095081,0 2.541504,4.956711 4.690668,10.011508 5.708774,15.349069 z"
         id="path19253-5"
         sodipodi:nodetypes="ccccccc" /><path
         style="fill:#000000;fill-opacity:1;stroke:none;stroke-width:0.264583;stroke-linecap:square;stroke-linejoin:bevel;stroke-dasharray:none;stroke-opacity:1"
         d="m 127.64445,90.983529 c -0.22646,0.744631 0.12341,0.472181 0.45699,0.228494 5.40615,-11.470784 6.81009,-22.171912 5.17832,-32.28925 -5.50332,-23.311756 -29.48119,-38.335462 -32.62291,-38.213622 -0.65559,-0.03414 -1.373859,-0.551405 -2.183369,-0.05078 l -0.8632,0.558539 c -0.19735,0.209927 -0.34252,0.591289 -0.30466,1.574065 -0.22448,7.346883 -0.67013,14.671649 -2.23416,21.884578 l -1.52329,1.523288 c -0.98802,0.992823 -0.92368,1.392484 -0.96475,2.132605 -0.24848,4.717891 -1.26368,5.772602 -2.08182,7.768772 l 7.46411,-8.225758 c 1.4408,-1.384777 1.34669,-2.891249 1.37096,-4.468315 l 0.0508,-18.787224 c -0.0554,-1.362363 0.33459,-1.282199 1.269409,-0.761644 14.67106,7.641482 29.31899,25.615036 30.8621,40.039932 0.98389,8.410219 -0.36645,17.454988 -3.87451,27.08632 z"
         id="path17771-8"
         sodipodi:nodetypes="ccccccccccccccccc" /><path
         style="fill:#000000;fill-opacity:1;stroke:none;stroke-width:0.264583;stroke-linecap:square;stroke-linejoin:bevel;stroke-dasharray:none;stroke-opacity:1"
         d="M 7.134068,90.838773 C 7.3605365,91.583404 7.0106594,91.310954 6.6770813,91.067267 1.2709304,79.596483 -0.1330082,68.895355 1.4987648,58.778017 7.0020818,35.466261 30.979947,20.442555 34.121664,20.564395 c 0.655591,-0.03414 1.373867,-0.551405 2.183378,-0.05078 l 0.863198,0.558539 c 0.197349,0.209927 0.342523,0.591289 0.304657,1.574065 0.224483,7.346883 0.670131,14.671649 2.234158,21.884578 l 1.523288,1.523288 c 0.988022,0.992823 0.923688,1.392484 0.96475,2.132605 0.248484,4.717891 1.26368,5.772602 2.081827,7.768772 l -7.464113,-8.225758 c -1.440802,-1.384777 -1.346692,-2.891249 -1.37096,-4.468315 L 35.391067,24.474165 C 35.44644,23.111802 35.056477,23.191966 34.12166,23.712521 19.450601,31.354003 4.8026724,49.327557 3.259561,63.752453 2.2756697,72.162672 3.6260092,81.207441 7.134068,90.838773 Z"
         id="path17771"
         sodipodi:nodetypes="ccccccccccccccccc" /><path
         style="fill:#000000;fill-opacity:0.5;stroke:none;stroke-width:0.264583;stroke-linecap:square;stroke-linejoin:bevel;stroke-dasharray:none;stroke-opacity:1"
         d="M 6.7024696,80.429633 C 6.3454655,73.859727 5.8464826,63.420709 14.21736,64.942867 15.879285,47.27253 22.929244,36.337235 31.430521,27.216089 11.52699,42.724657 0.62094689,59.953334 6.7024696,80.429633 Z"
         id="path18521"
         sodipodi:nodetypes="cccc" /><path
         style="fill:#000000;fill-opacity:0.5;stroke:none;stroke-width:0.264583;stroke-linecap:square;stroke-linejoin:bevel;stroke-dasharray:none;stroke-opacity:1"
         d="m 15.510638,61.791222 c 1.522315,-4.928488 7.463962,-5.585871 9.083777,-1.184838 1.801712,-4.203284 4.108689,-8.176903 7.396276,-11.704789 1.905362,-2.482346 1.604782,-3.555442 1.723403,-4.739362 L 33.750004,28.00532 C 33.835588,25.954507 33.090212,26.836494 32.38564,27.574467 21.756165,39.058247 17.522347,50.442095 15.510638,61.791222 Z"
         id="path18523"
         sodipodi:nodetypes="ccccccc" /><path
         style="fill:#000000;fill-opacity:0.5;stroke:none;stroke-width:0.264583;stroke-linecap:square;stroke-linejoin:bevel;stroke-dasharray:none;stroke-opacity:1"
         d="m 25.41353,60.95693 c -0.168174,0.370727 -0.188631,0.672519 0.355434,0.710867 6.166806,-0.705294 11.336328,5.4836 12.69407,14.852062 1.671073,-5.205353 2.844937,-10.311263 5.382287,-15.689871 0.573599,-1.17799 0.526577,-1.918879 -0.126939,-2.691143 -3.299676,-2.731409 -5.669542,-5.710767 -7.971878,-8.708133 -1.062092,-1.310977 -2.555489,-0.369938 -2.843471,-0.02537 -3.153372,3.645257 -5.407447,7.571545 -7.489503,11.551588 z"
         id="path19251"
         sodipodi:nodetypes="cccccccc" /><path
         style="fill:#000000;fill-opacity:0.5;stroke:none;stroke-width:0.264583;stroke-linecap:square;stroke-linejoin:bevel;stroke-dasharray:none;stroke-opacity:1"
         d="m 39.494682,77.122339 c -0.289195,0.85213 -0.07979,1.312503 0.969415,1.113033 5.896492,-2.05037 9.037252,1.391113 11.938163,2.836437 0.996977,0.623602 1.381245,0.195687 0.915559,-0.556517 -3.571857,-5.9053 -4.723598,-12.491413 -7.019282,-18.742022 -0.159451,-0.471784 -0.554591,-0.957072 -1.095081,0 -2.541504,4.956711 -4.690668,10.011508 -5.708774,15.349069 z"
         id="path19253"
         sodipodi:nodetypes="ccccccc" /><path
         id="path21485"
         style="fill:#000000;fill-opacity:1;stroke:none;stroke-width:0.264583;stroke-linecap:square;stroke-linejoin:bevel;stroke-dasharray:none;stroke-opacity:1"
         d="m 85.921887,12.6137 c -0.335527,0.0035 -0.761309,0.266081 -1.188041,0.850594 -3.650975,5.458474 -8.581395,10.325605 -10.699089,16.336471 -4.17546,-1.256657 -8.498794,-1.23265 -12.961482,0 -2.505859,-6.121979 -6.678455,-11.022263 -10.550777,-16.142167 -1.241377,-1.40839 -2.438618,-1.530514 -1.916679,0.660425 0.966555,8.811106 -1.105,16.60282 3.38894,20.361031 0.0677,1.887177 -1.52667,10.129269 -2.843237,9.927042 -0.703745,-0.113622 -0.671272,0.668345 -0.101803,1.269174 1.8817,2.244172 4.260993,3.138446 6.601148,4.138248 3.082877,0.82085 5.664817,2.447286 7.616589,3.605465 2.781174,1.088655 5.602721,1.207924 8.479586,0 2.422279,-1.345323 4.920541,-2.729127 7.514787,-3.859196 2.348057,-0.834442 4.717608,-1.612569 6.60063,-3.656108 0.927735,-1.36634 0.474137,-1.820624 -0.17725,-1.624707 -0.645708,0.352536 -1.5997,-4.565554 -2.615344,-9.748759 4.943354,-4.146567 2.838628,-15.007825 3.495394,-20.836454 C 86.67248,13.09024 86.381688,12.608956 85.921887,12.6137 Z M 59.810303,41.362333 c 2.103217,-0.0016 3.84476,1.896564 4.155302,3.320728 0.281902,0.706594 0.925057,2.321881 -0.761711,2.246891 -1.707812,-0.301831 -3.61866,2.065575 -6.461621,-1.358057 -0.689869,-0.829104 -1.130022,-1.68773 0,-2.729549 1.011916,-1.047818 2.052305,-1.464996 3.01842,-1.479496 0.0166,-2.49e-4 0.03305,-5.04e-4 0.04961,-5.17e-4 z m 15.765962,5.17e-4 c 0.01656,1.2e-5 0.033,2.67e-4 0.04961,5.17e-4 0.966116,0.0145 2.006503,0.431677 3.01842,1.479496 1.130023,1.04182 0.689873,1.900444 0,2.729549 -2.842964,3.423635 -4.75329,1.056226 -6.461104,1.358057 -1.68677,0.07499 -1.043614,-1.540294 -0.761711,-2.246892 0.310542,-1.424162 2.051575,-3.322316 4.154785,-3.320727 z m -10.273274,6.623368 c 0.0091,-1.9e-5 0.01824,2.01e-4 0.02739,5.17e-4 0.195093,0.0067 0.393448,0.09032 0.551905,0.275952 l 0.843876,0.844393 c 1.013964,1.069087 -0.351588,1.898823 -1.079004,1.079004 l -0.831474,-0.856795 c -0.618187,-0.679534 -0.08769,-1.341853 0.487309,-1.343071 z m 4.603853,0.07648 c 0.585279,-0.02025 1.142697,0.652234 0.514697,1.342554 l -0.831473,0.856795 c -0.727418,0.819821 -2.092969,-0.0099 -1.079004,-1.079004 l 0.843876,-0.843876 c 0.158457,-0.185631 0.356811,-0.26972 0.551904,-0.276469 z"
         sodipodi:nodetypes="sccccccccccccccccscccccscscccccsssccccssccccs" /><path
         style="fill:#000000;fill-opacity:1;stroke:none;stroke-width:0.264583;stroke-linecap:square;stroke-linejoin:bevel;stroke-dasharray:none;stroke-opacity:1"
         d="m 53.533243,85.559841 c 1.031322,-1.253383 1.240686,-1.488461 1.956784,0 l 4.47008,8.54521 c 0.395153,0.705215 0.466543,1.28349 -0.08976,1.84907 l -4.416224,3.931515 c -0.395841,0.390804 -0.216375,0.691724 -0.01797,1.005324 l 3.159575,4.72141 c 0.61589,1.21082 0.309745,3.16638 0.07181,4.79321 -0.09895,0.46423 -0.542361,1.52446 -0.780478,1.95591 -0.465462,0.9999 -1.31191,0.58957 -0.694226,-0.32259 0.176525,-0.2754 0.116175,-0.82131 0.32577,-1.54352 0.507256,-2.30733 -0.72421,-1.90978 -1.831118,-1.09509 -2.413399,1.72012 -3.348798,3.80326 -3.033908,6.19349 0.08171,1.78479 -1.090195,1.39219 -1.059178,0.0359 0.01134,-1.01678 -0.434616,-1.75423 -0.161568,-2.80053 0.586328,-1.99007 -1.004639,-1.20048 -1.579787,-0.12566 -0.755387,1.39982 -0.603442,2.11914 -0.736036,3.05186 -0.106967,1.34391 -0.878782,0.73912 -0.825799,0.0898 -0.37177,-3.75372 0.734849,-4.96324 1.777261,-6.28325 l 1.507977,-1.83111 c 1.479053,-1.42775 0.7426,-1.62352 -0.412898,-2.90825 l -3.518617,-4.2367 c -0.57041,-0.73608 -0.967491,-1.201563 -0.323138,-2.836435 1.786765,-4.709125 2.963828,-8.336622 6.211448,-12.189564 z"
         id="path23821"
         sodipodi:nodetypes="cccccccccccccccccccccccc" /><path
         style="fill:#000000;fill-opacity:1;stroke:none;stroke-width:0.264583;stroke-linecap:square;stroke-linejoin:bevel;stroke-dasharray:none;stroke-opacity:1"
         d="m 63.694148,98.521275 c 3.181873,4.603655 4.010825,4.863495 7.827129,0.466757 -2.167484,13.454948 -2.866397,21.417008 -12.925446,26.602218 -9.566178,3.62621 -16.65854,0.11704 -20.939638,-4.19236 -2.72193,-3.08978 -3.554866,-9.23667 -3.229872,-14.9708 0.09214,-3.13793 0.412356,-6.27586 1.549741,-9.413794 0.23086,-0.745473 0.533486,-1.017291 0.933511,-0.646277 0.422566,0.474859 0.815306,0.199775 0.933511,-0.179519 0.159224,-0.716984 0.54998,-0.416092 0.897607,-0.466757 0.679118,0.09181 1.136679,-0.163942 1.292553,-0.718085 0.39469,-1.032143 1.065128,-1.819177 1.75931,-2.585106 0.994529,-0.952289 1.347967,-0.300785 0.897604,0.718085 -0.648602,0.856383 -1.418292,1.733825 -1.005319,2.405586 0.250896,0.552406 -0.08632,0.941448 -0.43085,1.328457 -0.44597,0.676818 -1.626864,3.93225 -0.933511,4.84707 -1.390814,1.878 -3.272764,3.89632 -3.805851,5.52926 -1.018506,7.82301 1.247819,13.83936 11.022607,15.72606 16.724027,1.55117 18.300781,-13.91355 16.156914,-24.450795 z"
         id="path24589"
         sodipodi:nodetypes="cccccccccccccccccc" /><path
         style="fill:#000000;fill-opacity:1;stroke:none;stroke-width:0.264583;stroke-linecap:square;stroke-linejoin:bevel;stroke-dasharray:none;stroke-opacity:1"
         d="m 52.92287,72.885638 c 3.286714,3.824375 11.792308,9.358747 10.412236,4.164893 4.542082,5.617029 4.858168,3.68511 8.329787,0 -1.702343,5.107721 7.676476,-1.474738 10.196808,-3.805851 -4.388269,7.730946 -5.484783,15.118972 -13.466045,23.89032 -0.558847,0.520541 -0.904086,0.77937 -1.624656,0 C 61.074742,91.796261 56.829687,81.340183 52.92287,72.885638 Z"
         id="path26788"
         sodipodi:nodetypes="ccccccc" /><path
         style="fill:#000000;fill-opacity:1;stroke:none;stroke-width:0.264583;stroke-linecap:square;stroke-linejoin:bevel;stroke-dasharray:none;stroke-opacity:1"
         d="m 60.880764,75.402783 c -0.77162,-4.52968 1.736519,-2.138985 3.605118,0 2.743958,2.368246 2.909159,3.080792 5.839272,0 1.942766,-2.097032 4.682767,-4.889556 3.808222,0 4.877156,-2.591156 8.898503,-6.093333 11.678544,-10.916901 0.272045,-0.710868 0.38481,-1.421737 0.05078,-2.132605 l 2.183381,-3.148129 c 0.06371,-0.2047 0.254745,-0.358474 -1.320183,-1.218631 -0.740555,-0.259069 -0.814206,-0.723339 0.203105,-1.523289 1.134186,-0.916165 2.290818,-2.101668 3.757445,-7.007127 0.677286,-2.217469 -0.85065,-2.229716 -2.995448,-1.625101 -5.540587,3.836305 -9.387345,5.22817 -15.791778,7.921359 -3.266252,1.713964 -5.357648,1.416096 -8.530419,0 -5.209932,-2.128285 -10.794028,-3.816379 -14.928228,-7.210232 -0.523587,-0.530281 -4.463424,-2.051435 -4.265208,0 0.838547,4.15279 2.041731,5.473802 3.452789,7.616444 1.346017,1.409047 1.717341,1.512204 0.355433,2.284931 -1.721284,0.710868 -0.432557,1.421737 -0.101552,2.132605 0.788064,0.812192 1.030024,1.74574 1.218631,2.691144 0.151425,0.816167 0.07948,1.721681 0.863195,2.284933 2.034785,3.289986 5.351935,7.016131 10.916901,9.850599 z"
         id="path26810"
         sodipodi:nodetypes="ccccccccccccccccccccc" /></g></g></svg>