<svg xmlns:inkscape="http://www.inkscape.org/namespaces/inkscape" xmlns:sodipodi="http://sodipodi.sourceforge.net/DTD/sodipodi-0.dtd" xmlns="http://www.w3.org/2000/svg" xmlns:svg="http://www.w3.org/2000/svg" width="64" height="64" viewBox="0 0 135.46666 135.46667" version="1.1" id="svg5" xml:space="preserve" inkscape:version="1.2 (dc2aedaf03, 2022-05-15)" sodipodi:docname="Laser_Sight.svg"><sodipodi:namedview id="namedview7" pagecolor="#ffffff" bordercolor="#000000" borderopacity="0.25" inkscape:showpageshadow="2" inkscape:pageopacity="0.0" inkscape:pagecheckerboard="0" inkscape:deskcolor="#d1d1d1" inkscape:document-units="mm" showgrid="false" inkscape:zoom="0.92114198" inkscape:cx="276.28748" inkscape:cy="288.77199" inkscape:window-width="1366" inkscape:window-height="697" inkscape:window-x="-8" inkscape:window-y="-8" inkscape:window-maximized="1" inkscape:current-layer="layer1"/><defs id="defs2"/><g inkscape:label="Layer 1" inkscape:groupmode="layer" id="layer1"><g id="g12071" transform="matrix(3.8253716,0,0,3.8253716,-138.92546,-201.12111)"><g id="g1097" transform="matrix(2.8161004,0,0,2.8161004,-162.8982,-248.33688)" style="fill:#fff;fill-opacity:1"><path style="fill:#fff;fill-opacity:1;stroke-width:0.264583;stroke-linecap:square;stroke-linejoin:bevel" d="m 72.475981,112.74909 -1.136525,-2.6e-4 -0.303268,0.40606 v 4.10019 l 0.487333,0.61574 0.95246,2e-4 z" id="path356" sodipodi:nodetypes="ccccccc"/><path id="path405" style="fill:#fff;fill-opacity:1;stroke:none;stroke-width:0.264583;stroke-linecap:square;stroke-linejoin:bevel;stroke-opacity:1" d="m 78.638277,112.4965 c -0.367431,0.002 -0.739996,0.0758 -1.119922,0.25268 l -4.380963,-2.2e-4 v 5.12196 l 3.590062,3e-5 3.82403,-3.85211 h 2.470325 l -3.67e-4,-1.26984 -3.071299,1.8e-4 c -0.432392,-0.15248 -0.868417,-0.25499 -1.311866,-0.25268 z m -2.51565,1.58474 h 1.052943 c 0.31592,0 0.570329,0.2544 0.570329,0.57032 0,0.31592 -0.254409,0.57015 -0.570329,0.57015 h -1.052943 c -0.31592,0 -0.570329,-0.25423 -0.570329,-0.57015 0,-0.31592 0.254409,-0.57032 0.570329,-0.57032 z m -0.796956,1.50582 h 1.061201 c 0.35736,0 0.645015,0.28766 0.645015,0.64502 0,0.35736 -0.287655,0.64501 -0.645015,0.64501 h -1.061201 c -0.35736,0 -0.645015,-0.28765 -0.645015,-0.64501 0,-0.35736 0.287655,-0.64502 0.645015,-0.64502 z" sodipodi:nodetypes="ccccccccccssssssssssssss"/><path style="fill:#fff;fill-opacity:1;stroke-width:0.264583;stroke-linecap:square;stroke-linejoin:bevel" d="m 77.50418,117.87092 h 1.215899 l 3.330514,-3.4176 h -1.093784 z" id="path456" sodipodi:nodetypes="ccccc"/><path id="path534" style="fill:#ededed;fill-opacity:1;stroke:none;stroke-width:0.264583;stroke-linecap:square;stroke-linejoin:bevel;stroke-opacity:1" d="m 75.76707,108.41267 -0.822851,1.54156 h -0.154593 l -1.024855,2.08458 h 3.789917 c 0.843974,-0.44314 1.707046,-0.40273 2.584855,0 h 2.853887 v -2.29753 l -0.512388,-1.32861 h -1.318946 v 0.54481 c 0.0041,0.42795 -0.617317,0.41283 -0.628386,0 v -0.54481 h -0.975825 v 0.54481 c 0.0022,0.42184 -0.831922,0.39667 -0.827711,0 v -0.54481 h -0.903995 v 0.54481 c -0.009,0.39129 -0.669142,0.38798 -0.667457,-3e-5 v -0.54478 z m -0.09137,2.28338 c 0.24767,1.4e-4 0.448411,0.20088 0.448551,0.44855 1.47e-4,0.24787 -0.200678,0.44893 -0.448551,0.44907 -0.248075,1.5e-4 -0.449216,-0.201 -0.449068,-0.44907 1.4e-4,-0.24787 0.201196,-0.4487 0.449068,-0.44855 z m 5.99794,0 c 0.24767,1.4e-4 0.448411,0.20088 0.448551,0.44855 1.47e-4,0.24787 -0.200678,0.44893 -0.448551,0.44907 -0.248075,1.5e-4 -0.449216,-0.201 -0.449068,-0.44907 1.4e-4,-0.24787 0.201196,-0.4487 0.449068,-0.44855 z" sodipodi:nodetypes="ccccccccccccccccccccccssssssssss"/></g><rect style="fill:#fff;fill-opacity:1;stroke:none;stroke-width:0.300826;stroke-dasharray:none;stroke-opacity:1" id="rect11402" width="3.7017231" height="1.3454165" x="48.819031" y="78.218132" ry="0.67270827"/></g></g></svg>