<svg width="25" height="28" viewBox="0 0 25 28" fill="none" xmlns="http://www.w3.org/2000/svg">
<path d="M0 22.0291V22.1129C0.028469 22.0717 0.057203 22.0305 0.0861996 21.9896L0 22.0291Z" fill="#FDFFFB"/>
<path d="M10.3538 14.609L12.3922 2.03868C12.5526 2.01216 12.7173 1.99837 12.8853 1.99837C14.5421 1.99837 15.8853 3.34151 15.8853 4.99837V12.9984C15.8853 14.6552 14.5421 15.9984 12.8853 15.9984C11.8211 15.9984 10.8864 15.4443 10.3538 14.609Z" fill="#FDFFFB"/>
<path d="M24.8734 8.99837C24.0492 4.1584 19.2957 0.383189 13.4144 0.0260288C15.9271 0.290309 17.8853 2.41566 17.8853 4.99837V12.9984C17.8853 14.3528 17.3467 15.5814 16.4721 16.4818C20.0251 17.3598 23.1073 19.3848 25 22.1535V8.99837H24.8734Z" fill="#FDFFFB"/>
<path d="M0.50863 25.4845C2.05059 21.1544 6.82957 17.9984 12.4861 17.9984C16.4668 17.9984 20.0129 19.5614 22.3021 21.9967C23.6272 23.4064 24.5312 25.1084 24.8544 26.9687C24.9132 27.3069 24.9527 27.6504 24.9722 27.9984H0C0.0194179 27.6504 0.0589947 27.3069 0.117772 26.9687C0.138527 26.8492 0.161676 26.7304 0.187177 26.6123C0.231833 26.4055 0.283697 26.2008 0.342547 25.9984C0.392849 25.8254 0.448265 25.6541 0.50863 25.4845Z" fill="#FDFFFB"/>
<path d="M9.88525 4.99829C9.88525 3.34144 11.2284 1.99829 12.8853 1.99829V1.99829C14.5421 1.99829 15.8853 3.34144 15.8853 4.99829V12.9983C15.8853 14.6551 14.5421 15.9983 12.8853 15.9983V15.9983C11.2284 15.9983 9.88525 14.6551 9.88525 12.9983V4.99829Z" fill="#FDFFFB"/>
<path d="M9.15967 16.3348C8.36719 15.45 7.88525 14.2812 7.88525 13V5C7.88525 2.28583 10.0479 0.0767822 12.7439 0.00195312C12.6628 0.000671387 12.5815 0 12.5 0C6.20276 0 0.993042 3.91156 0.126587 9H0V22.1146C2.01196 19.1971 5.34766 17.1119 9.15967 16.3348Z" fill="#FF8525"/>
</svg>
