<?xml version="1.0" encoding="UTF-8" standalone="no"?>
<!-- Created with Inkscape (http://www.inkscape.org/) -->

<svg
   xmlns:dc="http://purl.org/dc/elements/1.1/"
   xmlns:cc="http://creativecommons.org/ns#"
   xmlns:rdf="http://www.w3.org/1999/02/22-rdf-syntax-ns#"
   xmlns:svg="http://www.w3.org/2000/svg"
   xmlns="http://www.w3.org/2000/svg"
   xmlns:sodipodi="http://sodipodi.sourceforge.net/DTD/sodipodi-0.dtd"
   xmlns:inkscape="http://www.inkscape.org/namespaces/inkscape"
   width="512"
   height="512"
   viewBox="0 0 135.46666 135.46667"
   version="1.1"
   id="svg5"
   inkscape:version="0.92.4 (5da689c313, 2019-01-14)"
   sodipodi:docname="Arc_Snare.svg">
  <metadata
     id="metadata17">
    <rdf:RDF>
      <cc:Work
         rdf:about="">
        <dc:format>image/svg+xml</dc:format>
        <dc:type
           rdf:resource="http://purl.org/dc/dcmitype/StillImage" />
        <dc:title></dc:title>
      </cc:Work>
    </rdf:RDF>
  </metadata>
  <sodipodi:namedview
     id="namedview7"
     pagecolor="#ffffff"
     bordercolor="#666666"
     borderopacity="1.0"
     inkscape:pageshadow="2"
     inkscape:pageopacity="0"
     inkscape:pagecheckerboard="0"
     inkscape:document-units="px"
     showgrid="false"
     units="px"
     inkscape:zoom="0.91223345"
     inkscape:cx="246.67414"
     inkscape:cy="302.41531"
     inkscape:window-width="1920"
     inkscape:window-height="1017"
     inkscape:window-x="-8"
     inkscape:window-y="-8"
     inkscape:window-maximized="1"
     inkscape:current-layer="layer1" />
  <defs
     id="defs2" />
  <g
     inkscape:label="Layer 1"
     inkscape:groupmode="layer"
     id="layer1">
    <g
       id="g2445"
       transform="matrix(1.5910825,0,0,1.5910825,-13.495654,-32.870719)">
      <g
         id="g937"
         transform="matrix(0.62856048,0,0,0.62856048,8.4744453,20.579645)">
        <g
           id="g4037"
           transform="matrix(1.1928323,0,0,1.1928311,-5.6575545,-57.52032)">
          <path
             style="fill:#000000;fill-opacity:1;stroke-width:0.352778"
             d="m 70.492907,126.713 c -3.941604,-0.73166 -9.436277,-2.4535 -12.812639,-4.01506 -2.095157,-0.969 -2.31571,-1.25382 -3.024025,-3.90524 -0.211927,-0.79331 -0.902564,-2.12668 -1.534749,-2.96305 -0.632181,-0.83637 -1.30665,-1.73399 -1.498819,-1.9947 -0.256543,-0.34806 -0.0097,-0.81371 0.928748,-1.75218 l 1.278142,-1.27815 1.821727,1.44 c 2.878324,2.27518 5.542929,2.71624 9.022168,1.49338 1.05822,-0.37193 2.388447,-1.00693 2.956062,-1.41111 1.352949,-0.96338 2.032738,-0.92852 2.295324,0.11771 0.344643,1.37316 2.799705,1.76844 11.151394,1.79541 3.977569,0.0128 7.470069,0.15782 7.761111,0.32216 0.291042,0.16434 2.716685,1.65783 5.390321,3.31889 6.711198,4.16948 6.813138,5.00129 0.867396,7.07821 -7.412228,2.58918 -16.580527,3.24273 -24.602161,1.75373 z m 6.994264,-1.71729 c 0.604072,-0.50345 0.759569,-0.89604 0.589195,-1.48757 -0.508335,-1.76492 -2.110147,-5.75513 -2.389678,-5.95284 -0.569842,-0.40305 -7.757735,-1.42349 -8.007526,-1.13681 -1.644982,1.88793 -3.889033,4.80363 -3.889033,5.05303 0,0.17482 0.175271,0.70254 0.389488,1.1727 0.597175,1.31065 6.392132,2.85512 11.252179,2.99891 0.748774,0.0221 1.557704,-0.23265 2.055375,-0.64742 z m 5.480533,-0.17452 c 0.327148,-0.85254 -0.140229,-1.5875 -1.00952,-1.5875 -0.94132,0 -1.424583,0.93366 -0.844835,1.63222 0.533731,0.6431 1.600281,0.61738 1.854355,-0.0447 z m 5.685613,-0.8989 c 1.35399,-0.19567 3.060552,-0.53515 3.792362,-0.75441 1.231212,-0.36888 1.330561,-0.49734 1.330561,-1.7204 0,-1.19905 -0.151666,-1.41062 -1.63376,-2.27919 -1.470113,-0.86154 -1.765737,-0.91791 -2.951346,-0.56269 -1.896787,0.56829 -2.398307,0.49897 -3.361976,-0.4647 -0.818546,-0.81854 -1.009015,-0.84976 -4.001664,-0.65588 l -3.142209,0.20358 0.815245,1.75962 c 0.740812,1.59897 0.931224,1.76667 2.085551,1.83675 1.327722,0.0806 2.842211,1.19208 3.212035,2.3573 0.236615,0.7455 0.501174,0.76472 3.855201,0.28002 z m 8.765117,-1.88903 c 0.317701,-0.82791 -0.594787,-1.74081 -1.464215,-1.46486 -0.72971,0.2316 -1.034859,1.22138 -0.531682,1.72455 0.424865,0.42487 1.801964,0.24569 1.995897,-0.25969 z m -37.730909,-2.05419 c 0.252811,-0.40079 0.22171,-0.73044 -0.106186,-1.12553 -0.624819,-0.75286 -1.333056,-0.70406 -1.775319,0.12232 -0.27643,0.51651 -0.226921,0.81863 0.204921,1.25047 0.648067,0.64806 1.159394,0.57266 1.676584,-0.24726 z m 28.743564,-2.70208 c 0.799077,-0.5064 0.32483,-1.61636 -0.743282,-1.73965 -0.816649,-0.0943 -0.967123,0.0201 -0.967123,0.73496 0,1.28366 0.659197,1.67087 1.710405,1.00469 z M 68.66635,114.66188 c 0.189724,-0.99515 -0.585152,-1.71447 -1.385488,-1.28614 -0.664306,0.35553 -0.896804,1.39818 -0.418444,1.87654 0.455598,0.4556 1.680975,0.0546 1.803932,-0.5904 z M 55.115892,113.9589 c 0.469914,-0.74497 -0.518319,-1.86438 -1.360576,-1.54117 -0.908011,0.34844 -1.095015,1.33516 -0.355523,1.8759 0.771557,0.56417 1.202048,0.4802 1.716099,-0.33473 z m 45.363128,7.35473 c 0,-0.27992 -2.063752,-1.80918 -4.586114,-3.39835 -2.522361,-1.58917 -4.584043,-2.98733 -4.581517,-3.10702 0.0025,-0.11969 1.470963,-0.58023 3.263194,-1.02341 3.593013,-0.88848 8.923837,-3.32495 10.843317,-4.95596 l 1.23472,-1.04916 -1.71049,-1.46762 h 10.70633 c 0,0.71946 -1.73598,3.77033 -3.21693,5.65357 -2.7394,3.48356 -7.04247,7.28519 -10.34693,9.14119 -1.51816,0.8527 -1.60558,0.86395 -1.60558,0.20676 z M 7.4486818,104.00038 c -0.1301202,-0.19846 0.1063297,-0.94115 0.8129832,-2.21824 2.355707,-4.257311 6.616076,-8.797621 11.017608,-11.741545 2.664374,-1.782043 3.588634,-2.10015 3.588634,-1.235119 l 9.007929,6.225565 c 0.08208,0.132809 -0.998313,0.515938 -2.400873,0.851397 -4.596225,1.09931 -10.753995,3.982178 -12.406731,5.808432 -0.801362,0.87036 -0.727576,1.6677 1.213564,2.30951 z M 68.040195,98.027889 c -1.410893,-1.501824 -3.629583,-2.310864 -6.337254,-2.310864 -2.110927,0 -2.773539,0.169863 -4.816493,1.234723 -2.724333,1.420018 -3.321258,1.508784 -3.576726,0.531876 -2.308917,-2.711206 -14.127797,-1.903487 -18.976537,-1.942985 l -10.20482,-7.014566 c -0.65442,-0.871892 -0.656186,-0.931849 -0.04728,-1.604682 1.417802,-1.566653 9.123385,-3.782381 15.133038,-4.35148 8.456532,-0.800812 18.801949,1.039074 26.032567,4.629775 2.465807,1.224513 2.606812,1.360688 2.976834,2.874906 0.485672,1.987493 0.988017,2.95793 2.49942,4.828423 l 1.195101,1.479042 -1.10189,1.254986 c -1.303895,1.485053 -1.696128,1.540277 -2.775959,0.390849 z m 1.923545,-1.605308 c 0,-0.646546 -0.21228,-0.912088 -0.795327,-0.994882 -0.477054,-0.06774 -0.880389,0.108726 -1.007882,0.440972 -0.351251,0.915341 0.141068,1.67188 1.007882,1.548793 0.583047,-0.08279 0.795327,-0.348337 0.795327,-0.994883 z M 56.355715,96.118536 c 0.462703,-0.864567 -0.33026,-2.022114 -1.165627,-1.701554 -0.81328,0.312085 -1.090126,1.205126 -0.568452,1.833703 0.592642,0.714091 1.31046,0.659389 1.734079,-0.132149 z M 36.269734,94.134018 c 0.620511,-0.74767 0.176207,-1.591993 -0.837746,-1.591993 -0.983945,0 -1.326833,0.596167 -0.862332,1.499306 0.388593,0.755549 1.116993,0.795262 1.700078,0.09269 z m 22.82299,-6.53965 C 56.566176,84.487706 47.251476,83.891418 44.771258,85.662859 l 2.499431,6.706649 7.542995,1.529854 c 1.547699,-1.246591 4.833022,-4.794744 4.27904,-6.304994 z m -14.777427,4.425353 c 0.05738,-0.05387 -0.252064,-0.831508 -0.68766,-1.728094 -0.70946,-1.460285 -0.916156,-1.630157 -1.983552,-1.630157 -1.166923,0 -2.511957,-1.006532 -3.430345,-2.567037 -0.328901,-0.558862 -0.579606,-0.56232 -3.704166,-0.0511 -4.319647,0.706749 -5.071708,1.069739 -5.188026,2.504059 -0.08101,0.998987 0.09725,1.235505 1.652396,2.192397 1.673835,1.029921 1.792459,1.052026 2.980865,0.555479 1.692158,-0.707029 2.123658,-0.65748 3.26912,0.375396 0.945416,0.852492 1.124305,0.882532 3.988422,0.669761 1.649237,-0.12252 3.045563,-0.266834 3.102946,-0.3207 z m 21.062332,-1.594362 c 0,-1.052814 -1.218847,-1.398438 -1.926149,-0.546191 -0.369214,0.444873 -0.369214,0.647508 0,1.092381 0.707302,0.852247 1.926149,0.506623 1.926149,-0.54619 z M 27.951528,88.793145 c 0.247081,-0.643882 -0.351112,-1.542786 -1.026676,-1.542786 -0.243527,0 -0.640402,0.238125 -0.881945,0.529166 -0.350374,0.422175 -0.350374,0.636159 0,1.058334 0.580427,0.699371 1.632547,0.674722 1.908621,-0.04471 z m 13.761138,-2.109696 c 0.686536,-0.263449 0.728283,-1.322058 0.07357,-1.865425 -0.266449,-0.221134 -0.742699,-0.302962 -1.058333,-0.181842 -0.67397,0.258627 -0.772998,1.769479 -0.132909,2.027761 0.242535,0.09786 0.467676,0.190469 0.500314,0.205787 0.03264,0.01532 0.310451,-0.06851 0.617362,-0.186281 z"
             id="path3403"
             sodipodi:nodetypes="sssssccssssssssssssssssssssssssssssscssssssssssssssssssssssssssscsscccssscssccscccssscccssssscssssssssssssssssscccccsssssssssssssssssssssssssssss" />
        </g>
        <g
           id="g2981">
          <circle
             style="fill:#000000;fill-opacity:1;stroke:none;stroke-width:0.670561;stroke-linejoin:round"
             id="path1720"
             cx="67.899071"
             cy="67.642715"
             r="6.6725478" />
          <path
             id="path2572"
             style="fill:#000000;fill-opacity:1;stroke:none;stroke-width:4.53804;stroke-linejoin:round"
             d="m 256.26172,217.61914 a 38.060354,38.060354 0 0 0 -38.06055,38.06055 38.060354,38.060354 0 0 0 38.06055,38.06054 38.060354,38.060354 0 0 0 38.06055,-38.06054 38.060354,38.060354 0 0 0 -38.06055,-38.06055 z m 0.13476,8.14063 a 30.056696,30.056696 0 0 1 30.05664,30.05664 30.056696,30.056696 0 0 1 -30.05664,30.05664 30.056696,30.056696 0 0 1 -30.05664,-30.05664 30.056696,30.056696 0 0 1 30.05664,-30.05664 z"
             transform="scale(0.26458333)" />
        </g>
      </g>
      <path
         style="fill:#000000;fill-opacity:0.5;stroke:none;stroke-width:0.264583px;stroke-linecap:butt;stroke-linejoin:miter;stroke-opacity:1"
         d="m 37.342529,42.653868 3.534849,0.163147 c 10.56638,-6.457306 35.300158,-0.98601 35.36664,22.804321 C 78.600284,38.906739 48.968454,32.55123 37.342529,42.653868 Z"
         id="path1219"
         sodipodi:nodetypes="cccc" />
      <path
         style="fill:#000000;fill-opacity:0.5;stroke:none;stroke-width:0.264583px;stroke-linecap:butt;stroke-linejoin:miter;stroke-opacity:1"
         d="m 23.559551,45.786026 4.076135,-1.051078 C 44.944735,24.456082 78.917523,35.010058 83.096189,60.14685 77.2052,22.636242 32.855571,24.818929 23.559551,45.786026 Z"
         id="path1539"
         sodipodi:nodetypes="cccc" />
      <path
         d="M 74.608443,81.906727 C 57.299394,102.18559 23.906683,91.196561 19.728017,66.059765 25.619008,103.57037 69.388558,101.82275 78.684579,80.855649 Z"
         style="fill:#000000;fill-opacity:0.5;stroke:none;stroke-width:0.0700042px;stroke-linecap:butt;stroke-linejoin:miter;stroke-opacity:1"
         id="path1908"
         sodipodi:nodetypes="cccc" />
      <path
         d="m 65.198288,83.751768 -3.53485,-0.16315 C 51.09706,90.045928 26.363281,84.574638 26.296799,60.784305 23.940534,87.498898 53.572364,93.854408 65.198288,83.751768 Z"
         style="fill:#000000;fill-opacity:0.5;stroke:none;stroke-width:0.0700042px;stroke-linecap:butt;stroke-linejoin:miter;stroke-opacity:1"
         id="path2344" />
    </g>
  </g>
</svg>
