<?xml version="1.0" encoding="UTF-8" standalone="no"?>
<svg
   xmlns:osb="http://www.openswatchbook.org/uri/2009/osb"
   xmlns:dc="http://purl.org/dc/elements/1.1/"
   xmlns:cc="http://creativecommons.org/ns#"
   xmlns:rdf="http://www.w3.org/1999/02/22-rdf-syntax-ns#"
   xmlns:svg="http://www.w3.org/2000/svg"
   xmlns="http://www.w3.org/2000/svg"
   xmlns:sodipodi="http://sodipodi.sourceforge.net/DTD/sodipodi-0.dtd"
   xmlns:inkscape="http://www.inkscape.org/namespaces/inkscape"
   width="512"
   height="512"
   viewBox="0 0 135.46667 135.46667"
   version="1.1"
   id="svg8"
   inkscape:version="0.92.4 (5da689c313, 2019-01-14)"
   sodipodi:docname="Knuckle_Cluster.svg">
  <defs
     id="defs2">
    <linearGradient
       id="linearGradient1099-6-5"
       osb:paint="gradient">
      <stop
         style="stop-color:#273839;stop-opacity:0.5"
         offset="0"
         id="stop1151" />
      <stop
         style="stop-color:#273839;stop-opacity:1"
         offset="1"
         id="stop1153" />
    </linearGradient>
  </defs>
  <sodipodi:namedview
     id="base"
     pagecolor="#ffffff"
     bordercolor="#666666"
     borderopacity="1.0"
     inkscape:pageopacity="0.0"
     inkscape:pageshadow="2"
     inkscape:zoom="0.7"
     inkscape:cx="266.76919"
     inkscape:cy="223.32956"
     inkscape:document-units="px"
     inkscape:current-layer="g1320"
     inkscape:document-rotation="0"
     showgrid="false"
     inkscape:pagecheckerboard="true"
     inkscape:object-nodes="true"
     fit-margin-top="0"
     fit-margin-left="0"
     fit-margin-right="0"
     fit-margin-bottom="0"
     inkscape:window-width="1920"
     inkscape:window-height="1017"
     inkscape:window-x="-8"
     inkscape:window-y="-8"
     inkscape:window-maximized="1"
     units="px" />
  <metadata
     id="metadata5">
    <rdf:RDF>
      <cc:Work
         rdf:about="">
        <dc:format>image/svg+xml</dc:format>
        <dc:type
           rdf:resource="http://purl.org/dc/dcmitype/StillImage" />
        <dc:title></dc:title>
      </cc:Work>
    </rdf:RDF>
  </metadata>
  <g
     inkscape:label="Layer 1"
     inkscape:groupmode="layer"
     id="layer1"
     transform="translate(-59.62574,-110.15787)">
    <path
       style="fill:#000000;stroke-width:0.264583"
       id="path853"
       d="" />
    <path
       style="fill:#000000;stroke-width:0.264583"
       id="path849"
       d="" />
    <g
       id="g1061"
       transform="translate(9.0714285,1.8898814)">
      <g
         id="g1320"
         transform="translate(7.2162774,44.901282)">
        <path
           style="fill:#000000;fill-opacity:1;stroke:none;stroke-width:0.35933366;stroke-opacity:1"
           d="m 126.35887,183.48228 c 0.83065,-1.36812 11.00304,-14.98244 11.11271,-14.87277 -2.11064,4.71024 -3.98113,8.17754 -6.50526,13.12041 -0.89681,0.29082 -5.37486,3.04583 -4.60745,1.75236 z m 30.38877,-17.49337 c 2.31182,3.89729 4.32888,10.27893 7.1822,9.61216 z m -15.64299,-3.90115 c -2.2861,-0.20283 -11.88379,5.15152 -17.33694,7.61766 4.69735,-3.42647 15.77397,-10.28682 14.01208,-11.44131 -0.68396,-1.24411 -13.28194,-0.84143 -20.02672,-0.98041 6.82473,-1.20605 14.25523,-1.11139 20.25565,-5.89406 2.78988,-2.36164 -4.92716,-14.57902 -6.59536,-17.43424 2.02761,2.33698 7.59747,9.45219 9.53913,8.10355 1.22572,-1.22084 0.12085,-8.16545 -0.032,-13.25786 0.49401,4.19407 4.70256,15.7716 7.98897,15.62789 5.83413,-0.56609 11.78772,-7.27079 17.57662,-11.49868 -3.26496,4.36571 -4.99781,8.76743 -6.78689,13.16783 4.8317,-0.23349 8.54549,-1.65587 13.03455,-2.58326 -2.94422,1.62112 -11.11824,6.79813 -11.22555,8.0407 0.18617,1.16804 8.50038,1.45391 13.648,2.00929 -3.72251,0.21219 -16.77555,0.58823 -16.9885,2.37022 -0.47825,1.77838 7.68146,6.14299 12.40548,9.69451 -6.01995,-2.79302 -12.38422,-5.423 -18.03091,-5.72116 -0.36582,3.75699 -0.0957,7.58814 0.38017,11.44053 -1.9287,-2.71772 -3.76065,-5.95668 -6.00382,-7.76599 -1.30195,2.67523 -2.40807,5.52048 -3.47217,8.23733 -0.23635,-2.63136 -0.96493,-9.44008 -2.34176,-9.73254 z m -29.27257,4.04255 c 0.18275,-0.18275 14.62555,-4.46404 14.95979,-4.43454 0.65865,0.0583 -10.35932,5.33012 -11.1053,5.31383 -1.28811,-0.16366 -2.8938,-0.2646 -3.85449,-0.87929 z m -45.295987,-20.05074 55.579597,-1.2561 -48.143015,-41.67105 -0.728698,-3.70784 3.310507,-0.185603 33.689546,5.447283 c 8.44842,1.44029 8.18633,2.50472 -0.12706,1.82635 l -28.982411,-2.22493 c -0.280242,0.0934 43.703351,34.70452 47.536731,37.42626 0.96818,0.68745 3.76818,5.36493 3.76818,6.42319 0,0.74078 -3.58939,1.7202 -6.51184,1.85749 z m 109.051737,1.35627 c 0.52408,0.98484 -4.01715,1.53237 -5.46232,1.65496 1.81268,-0.50381 5.00293,-2.06861 5.46232,-1.65496 z m -48.04327,-9.7153 c -2.19113,-1.94765 -4.31956,-4.48817 -3.80475,-6.13593 0.0925,-0.0926 3.96732,4.50777 6.79533,8.06736 1.211,1.52427 0.0849,0.79692 -2.99058,-1.93143 z m 22.30461,1.31842 2.18562,-14.01397 1.47829,3.84264 z m -24.81072,-27.12961 c -0.1007,1.52589 0.10097,3.70068 -0.72789,4.85098 -0.85793,-1.40301 0.11908,-3.36805 0.72789,-4.85098 z m -0.35178,-1.61729 c -2.13213,0.89071 -3.48988,2.11362 -5.38914,3.55115 0.7552,-1.33811 1.51039,-2.67623 2.26557,-4.01434 -1.47859,0.26307 -2.95415,0.54603 -4.4205,0.87082 1.47753,-1.09469 3.63719,-2.23177 4.11288,-3.63931 0.24697,-1.69857 -2.3057,-3.71334 -5.44103,-6.35866 1.72854,0.53553 4.56346,1.77068 5.18561,1.16262 0.59166,-0.45236 -1.04862,-2.936883 -1.72015,-4.405323 l 3.77299,3.229253 0.47859,-3.794835 c 0.14939,1.077541 0.99723,4.912045 1.74009,4.889475 1.27989,0.0297 1.74919,-3.101139 2.59193,-4.883108 -0.14423,2.226059 -0.31103,4.926278 -0.45525,7.152338 l 4.14382,-1.02071 -2.44226,3.08664 3.61855,0.31036 c -1.03322,0.49331 -3.18934,1.14268 -3.3703,2.10637 -0.0296,0.94525 2.55761,3.42091 4.01294,5.44559 -1.61114,-1.19992 -4.06907,-3.90601 -4.83308,-3.68833 -0.96716,0.44441 0.23803,4.2102 0.35705,6.31531 -0.71853,-1.50502 -2.41361,-7.07243 -4.20831,-6.31531 z m -67.930712,-1.53469 c -0.499944,3.72593 2.216772,-0.48563 3.417202,-6.72996 -1.972685,5.7211 -2.29997,3.79788 -3.417202,6.72996 z m 7.895438,1.01021 c 0.08636,-3.30517 -0.413965,-9.13639 -2.248241,-11.052246 -1.709348,-1.24499 -8.174595,2.348676 -13.072877,5.083206 2.272706,-2.11756 6.940192,-5.861898 6.331522,-7.35083 -0.228981,-1.046465 -4.433343,-0.460216 -7.780371,-0.03001 2.802799,-1.168538 7.650671,-2.284372 7.415864,-3.521414 -0.105703,-1.089557 -4.362522,-1.911003 -6.98566,-2.696007 3.083331,0.147876 9.232141,1.541122 9.888634,0.826853 0.921521,-0.719528 -4.097355,-5.108575 -6.56415,-7.741445 2.211175,1.297166 8.928882,6.874054 10.202535,6.181493 0.420581,-0.16138 1.0728,-4.330721 1.273999,-6.63964 l 2.767521,4.968281 c 1.32095,-1.320658 2.483784,-2.720378 2.733778,-4.576516 l 0.04516,6.684923 11.929501,-2.677773 c -2.542122,0.984638 -8.413327,2.845249 -10.132027,4.907333 -0.757859,1.165401 7.312609,2.091361 10.658105,3.336743 -4.655047,-0.883448 -11.426139,-0.898885 -12.572393,0.800089 -1.427887,1.859936 1.006092,7.27315 2.220028,10.72427 -1.054348,-2.25253 -3.166358,-6.24064 -4.280945,-6.03421 -1.44343,0.36762 -1.300257,5.83404 -1.829973,8.80664 z M 133.41553,98.488152 c 0.71221,0.535696 -2.02697,1.896578 -3.5353,2.921778 0.90191,-0.66282 2.80454,-3.460784 3.5353,-2.921778 z m -17.0103,-0.0542 c -1.20991,-0.80432 -1.43039,-1.07531 -0.87572,-1.076459 0.40769,-8.38e-4 1.20602,0.48356 1.77405,1.076459 1.29421,1.350856 1.13375,1.350856 -0.89833,0 z M 46.532935,93.077768 c 0,0 2.043406,0.01081 3.216032,0.242956 -1.011916,0.108812 -3.481994,0.372747 -3.216032,-0.242969 z m 12.738356,-9.10506 c -0.252153,-1.322591 -3.21896,-6.487113 -1.642852,-5.465615 1.299209,1.577956 1.912308,3.393421 1.837752,5.478429 -0.107204,0.107191 -0.1949,0.101378 -0.1949,-0.01352 z"
           id="path1677"
           inkscape:connector-curvature="0"
           sodipodi:nodetypes="cccccccccccccccccccccccccccccccccccccccccscccccccscccccccccccccccccccccccccccccccccccccccccccccccccccccccccccccccccccccc" />
      </g>
    </g>
  </g>
</svg>
