<?xml version="1.0" encoding="UTF-8" standalone="no"?>
<svg
   xmlns:dc="http://purl.org/dc/elements/1.1/"
   xmlns:cc="http://creativecommons.org/ns#"
   xmlns:rdf="http://www.w3.org/1999/02/22-rdf-syntax-ns#"
   xmlns:svg="http://www.w3.org/2000/svg"
   xmlns="http://www.w3.org/2000/svg"
   xmlns:sodipodi="http://sodipodi.sourceforge.net/DTD/sodipodi-0.dtd"
   xmlns:inkscape="http://www.inkscape.org/namespaces/inkscape"
   width="511.99997"
   height="511.99997"
   viewBox="0 0 135.46666 135.46666"
   version="1.1"
   id="svg8"
   inkscape:version="0.92.4 (5da689c313, 2019-01-14)"
   sodipodi:docname="Beast_of_the_Hunt.svg">
  <defs
     id="defs2" />
  <sodipodi:namedview
     id="base"
     pagecolor="#ffffff"
     bordercolor="#666666"
     borderopacity="1.0"
     inkscape:pageopacity="0.0"
     inkscape:pageshadow="2"
     inkscape:zoom="0.98994949"
     inkscape:cx="-20.473814"
     inkscape:cy="325.80175"
     inkscape:document-units="mm"
     inkscape:current-layer="g1151"
     inkscape:document-rotation="0"
     showgrid="false"
     inkscape:pagecheckerboard="true"
     inkscape:object-nodes="true"
     fit-margin-top="0"
     fit-margin-left="0"
     fit-margin-right="0"
     fit-margin-bottom="0"
     inkscape:window-width="1920"
     inkscape:window-height="1017"
     inkscape:window-x="-8"
     inkscape:window-y="-8"
     inkscape:window-maximized="1"
     units="px" />
  <metadata
     id="metadata5">
    <rdf:RDF>
      <cc:Work
         rdf:about="">
        <dc:format>image/svg+xml</dc:format>
        <dc:type
           rdf:resource="http://purl.org/dc/dcmitype/StillImage" />
        <dc:title></dc:title>
      </cc:Work>
    </rdf:RDF>
  </metadata>
  <g
     inkscape:label="Layer 1"
     inkscape:groupmode="layer"
     id="layer1"
     transform="translate(-59.62574,-110.15787)">
    <path
       style="fill:#000000;stroke-width:0.264583"
       id="path853"
       d="" />
    <path
       style="fill:#000000;stroke-width:0.264583"
       id="path849"
       d="" />
    <g
       id="g1151"
       transform="translate(51.782738,2.078869)">
      <g
         id="g878"
         style="fill:#000000;fill-opacity:1" />
      <g
         id="g934"
         style="fill:#000000;fill-opacity:1;stroke:none"
         transform="matrix(1.2701077,0,0,1.2701083,-22.485879,-46.661079)">
        <path
           style="fill:#000000;fill-opacity:1;stroke:none;stroke-width:0.264583px;stroke-linecap:butt;stroke-linejoin:miter;stroke-opacity:1"
           d="m 69.381809,167.61329 -0.334087,-7.14946 c -5.672281,4.40364 -6.539984,11.07397 -6.882188,12.59507 3.143598,-0.79312 4.822154,-3.61475 7.216275,-5.44561 z"
           id="path866"
           sodipodi:nodetypes="cccc" />
        <path
           style="fill:#000000;fill-opacity:1;stroke:none;stroke-width:0.264583px;stroke-linecap:butt;stroke-linejoin:miter;stroke-opacity:1"
           d="m 69.689355,169.40563 c -0.154811,-0.20885 -0.318116,-0.32144 -0.519718,0 -1.637897,3.63014 -6.244479,6.26811 -6.520087,6.85082 -1.632587,1.60739 -2.106253,7.17231 -3.094681,10.53609 0.832324,4.46832 2.912844,7.93808 4.370351,11.90625 0.301368,0.56245 0.754988,0.7259 1.511903,0.0945 l 8.268229,-7.29966 c 0.937551,-2.23333 -0.763597,-4.49615 -0.68508,-9.61477 l -2.504094,-7.89025 c -0.101219,-1.54351 -0.06524,-3.0995 -0.826823,-4.58298 z"
           id="path868"
           sodipodi:nodetypes="cccccccccc" />
        <path
           style="fill:#000000;fill-opacity:1;stroke:none;stroke-width:0.264583px;stroke-linecap:butt;stroke-linejoin:miter;stroke-opacity:1"
           d="m 54.7321,175.96546 -1.45328,6.01356 c -2.10263,0.47693 -4.016219,1.54089 -5.278572,4.62711 0.509807,-2.09038 0.747099,-4.16562 2.00452,-6.29754 1.306049,-1.56759 3.033549,-2.94787 4.727332,-4.34313 z"
           id="path870"
           sodipodi:nodetypes="ccccc" />
        <path
           style="fill:#000000;fill-opacity:1;stroke:none;stroke-width:0.264583px;stroke-linecap:butt;stroke-linejoin:miter;stroke-opacity:1"
           d="m 51.215769,184.87904 c 0.804861,-0.97261 1.290461,-0.75524 1.606399,0.0945 0.521538,3.00851 1.20606,5.84842 3.62621,7.55952 1.82085,1.59414 3.271825,6.7821 4.430921,10.39322 -1.858879,1.77957 -3.85564,4.30987 -5.579252,5.32869 -1.285003,0.89651 -2.401038,0.70678 -3.374277,-0.40091 l -4.76074,-5.24516 c 0.173805,-3.59524 -0.160264,-7.26303 0.601358,-10.7743 0.584494,-2.43548 1.577145,-4.78651 3.449381,-6.95556 z"
           id="path872"
           sodipodi:nodetypes="ccccccccc" />
        <path
           style="fill:#000000;fill-opacity:1;stroke:none;stroke-width:0.264583px;stroke-linecap:butt;stroke-linejoin:miter;stroke-opacity:1"
           d="m 48.380949,131.65526 3.96875,-2.45684 -0.330729,41.76637 c -2.890063,-7.0932 -1.729483,-14.89085 -1.984375,-22.44234 z"
           id="path858"
           sodipodi:nodetypes="ccccc" />
        <path
           style="fill:#000000;fill-opacity:1;stroke:none;stroke-width:0.264583px;stroke-linecap:butt;stroke-linejoin:miter;stroke-opacity:1"
           d="m 63.783477,125.11155 3.496281,-0.77957 -0.519718,30.28534 c -2.820861,-9.62012 -2.062298,-19.66135 -2.976563,-29.50577 z"
           id="path860"
           sodipodi:nodetypes="cccc" />
        <path
           style="fill:#000000;fill-opacity:1;stroke:none;stroke-width:0.264583px;stroke-linecap:butt;stroke-linejoin:miter;stroke-opacity:1"
           d="m 86.019338,124.81675 4.643808,1.16931 -3.942226,27.79603 c -1.289399,-9.72548 -0.610973,-19.31978 -0.701582,-28.96534 z"
           id="path862"
           sodipodi:nodetypes="cccc" />
        <path
           style="fill:#000000;fill-opacity:1;stroke:none;stroke-width:0.264583px;stroke-linecap:butt;stroke-linejoin:miter;stroke-opacity:1"
           d="m 103.9431,132.35041 3.30746,2.58918 c -0.073,13.98675 0.65182,28.70041 -4.86626,37.72609 1.89843,-12.92415 0.62467,-25.03032 1.5588,-40.31527 z"
           id="path864"
           sodipodi:nodetypes="cccc" />
        <path
           style="fill:#000000;fill-opacity:1;stroke:none;stroke-width:0.264583px;stroke-linecap:butt;stroke-linejoin:miter;stroke-opacity:1"
           d="m 89.557002,175.099 h 1.747867 c -0.557245,-4.43912 0.128844,-7.34627 -2.69308,-14.57579 -0.04559,-0.37437 -0.792048,-0.59094 -0.944941,0 l -1.346541,6.40197 c 2.378664,2.05716 2.337607,5.35688 3.236695,8.17382 z"
           id="path907"
           sodipodi:nodetypes="cccccc" />
        <path
           style="fill:#000000;fill-opacity:1;stroke:none;stroke-width:0.264583px;stroke-linecap:butt;stroke-linejoin:miter;stroke-opacity:1"
           d="m 79.203965,189.99711 c -0.204726,0.77854 -0.899186,0.64393 -0.200451,2.37202 1.50686,2.90238 4.616098,5.34694 7.283093,7.91786 0.735484,0.72115 1.565458,0.75906 2.505652,0 2.747702,-2.45467 3.288735,-5.64489 4.677216,-8.55263 0.599154,-1.31397 0.662039,-3.00532 -0.434313,-5.51243 l -4.977895,-8.78649 -2.305198,-6.94901 c -0.180098,-0.53042 -0.450025,-1.25031 -0.835218,-0.0334 z"
           id="path909"
           sodipodi:nodetypes="cccccccccc" />
        <path
           style="fill:#000000;fill-opacity:1;stroke:none;stroke-width:0.264583px;stroke-linecap:butt;stroke-linejoin:miter;stroke-opacity:1"
           d="m 99.483039,190.21426 c 4.289041,-3.5191 4.962331,-6.91899 5.261871,-10.30657 0.6246,1.63654 1.26324,3.22012 0.36749,10.59055 -2.40544,0.8544 -4.71124,1.53004 -5.629361,-0.28398 z"
           id="path911"
           sodipodi:nodetypes="cccc" />
        <path
           style="fill:#000000;fill-opacity:1;stroke:none;stroke-width:0.264583px;stroke-linecap:butt;stroke-linejoin:miter;stroke-opacity:1"
           d="m 98.17931,192.41494 -5.953125,10.53608 0.09449,2.4096 c 2.01808,1.28114 3.359983,3.41485 4.356032,5.98464 1.578465,1.55183 3.538823,-0.37 4.460063,-1.40316 1.95872,-2.73438 2.0142,-5.82122 2.90656,-8.75308 0.58015,-1.98728 1.32412,-3.89265 1.40316,-6.13049 0.0624,-0.43566 0.0949,-2.00236 -1.11919,-1.80407 -2.34959,0.32069 -4.331103,-0.0948 -6.14799,-0.83952 z"
           id="path913"
           sodipodi:nodetypes="ccccccccc" />
        <path
           style="fill:#000000;fill-opacity:1;stroke:none;stroke-width:0.264583px;stroke-linecap:butt;stroke-linejoin:miter;stroke-opacity:1"
           d="m 59.091933,210.92765 c -0.984451,1.59911 -1.503774,3.15496 -0.584652,4.57699 l 6.965711,9.02035 c 0.98944,1.2637 2.535218,1.6929 4.593696,1.35305 l 9.655112,-3.04019 c 1.334956,-0.41083 2.734527,-0.73982 4.727329,-0.31738 2.362372,0.69736 4.236364,0.85052 5.044712,-0.18375 1.519089,-1.92653 1.425367,-4.3418 2.021226,-6.5481 0.3715,-0.87537 0.544223,-1.89982 -0.08352,-3.52462 -1.307654,-2.56944 -5.04628,-4.81545 -6.046973,-6.09709 l -2.037931,-2.92326 c -0.705753,-0.84095 -1.667324,-0.49742 -1.921,-0.86862 l -2.422128,-4.47677 c -1.407847,-1.89996 -4.507023,-1.61481 -5.896634,-0.23386 l -5.829818,5.84652 c -3.297394,2.79679 -6.116738,4.11414 -8.18513,7.41673 z"
           id="path915"
           sodipodi:nodetypes="cccccccccccccccc" />
      </g>
    </g>
  </g>
</svg>
