<?xml version="1.0" encoding="UTF-8" standalone="no"?>
<svg
   xmlns:osb="http://www.openswatchbook.org/uri/2009/osb"
   xmlns:dc="http://purl.org/dc/elements/1.1/"
   xmlns:cc="http://creativecommons.org/ns#"
   xmlns:rdf="http://www.w3.org/1999/02/22-rdf-syntax-ns#"
   xmlns:svg="http://www.w3.org/2000/svg"
   xmlns="http://www.w3.org/2000/svg"
   xmlns:xlink="http://www.w3.org/1999/xlink"
   xmlns:sodipodi="http://sodipodi.sourceforge.net/DTD/sodipodi-0.dtd"
   xmlns:inkscape="http://www.inkscape.org/namespaces/inkscape"
   width="512"
   height="512"
   viewBox="0 0 135.46667 135.46667"
   version="1.1"
   id="svg8"
   inkscape:version="0.92.4 (5da689c313, 2019-01-14)"
   sodipodi:docname="Into_the_Void.svg">
  <defs
     id="defs2">
    <linearGradient
       inkscape:collect="always"
       id="linearGradient1650">
      <stop
         style="stop-color:#000000;stop-opacity:0.50196081"
         offset="0"
         id="stop1646" />
      <stop
         style="stop-color:#000000;stop-opacity:0;"
         offset="1"
         id="stop1648" />
    </linearGradient>
    <linearGradient
       id="linearGradient1099-6-5"
       osb:paint="gradient">
      <stop
         style="stop-color:#273839;stop-opacity:0.5"
         offset="0"
         id="stop1151" />
      <stop
         style="stop-color:#273839;stop-opacity:1"
         offset="1"
         id="stop1153" />
    </linearGradient>
    <linearGradient
       inkscape:collect="always"
       xlink:href="#linearGradient1650"
       id="linearGradient1656"
       x1="132.06462"
       y1="85.739067"
       x2="103.476"
       y2="180.52888"
       gradientUnits="userSpaceOnUse" />
  </defs>
  <sodipodi:namedview
     id="base"
     pagecolor="#ffffff"
     bordercolor="#666666"
     borderopacity="1.0"
     inkscape:pageopacity="0.0"
     inkscape:pageshadow="2"
     inkscape:zoom="0.98994949"
     inkscape:cx="-74.444353"
     inkscape:cy="177.69942"
     inkscape:document-units="px"
     inkscape:current-layer="g1320"
     inkscape:document-rotation="0"
     showgrid="false"
     inkscape:pagecheckerboard="true"
     inkscape:object-nodes="true"
     fit-margin-top="0"
     fit-margin-left="0"
     fit-margin-right="0"
     fit-margin-bottom="0"
     inkscape:window-width="1920"
     inkscape:window-height="1017"
     inkscape:window-x="-8"
     inkscape:window-y="-8"
     inkscape:window-maximized="1"
     units="px" />
  <metadata
     id="metadata5">
    <rdf:RDF>
      <cc:Work
         rdf:about="">
        <dc:format>image/svg+xml</dc:format>
        <dc:type
           rdf:resource="http://purl.org/dc/dcmitype/StillImage" />
        <dc:title></dc:title>
      </cc:Work>
    </rdf:RDF>
  </metadata>
  <g
     inkscape:label="Layer 1"
     inkscape:groupmode="layer"
     id="layer1"
     transform="translate(-59.62574,-110.15787)">
    <path
       style="fill:#000000;stroke-width:0.264583"
       id="path853"
       d="" />
    <path
       style="fill:#000000;stroke-width:0.264583"
       id="path849"
       d="" />
    <g
       id="g1061"
       transform="translate(9.0714285,1.8898814)">
      <g
         id="g1320"
         transform="translate(7.2162774,44.901282)">
        <g
           id="g1661"
           transform="matrix(1.3287248,0,0,1.3287248,-38.776986,-46.542921)">
          <path
             style="fill:#000024;fill-opacity:1;stroke-width:0.35277799"
             d="m 122.07618,181.82598 c -0.52114,-0.38107 -0.71045,-1.24596 -0.97429,-4.45123 -0.2486,-3.01998 -0.48042,-4.14242 -0.96241,-4.65977 -0.34921,-0.37484 -0.91442,-1.30133 -1.25603,-2.05888 -0.35561,-0.78859 -1.20454,-1.76346 -1.98598,-2.2806 -1.10572,-0.73173 -1.36488,-1.11471 -1.36488,-2.01703 0,-0.85953 -0.36241,-1.46106 -1.5875,-2.63489 -0.96843,-0.92793 -1.5875,-1.83335 -1.5875,-2.32182 0,-0.77023 -2.34303,-4.19253 -4.95309,-7.23461 -0.68691,-0.80061 -1.62355,-2.22004 -2.08143,-3.15429 -1.29493,-2.6422 -3.57961,-6.53837 -4.45343,-7.59463 -0.43548,-0.52641 -0.84968,-1.1308 -0.92045,-1.34311 -0.208506,-0.62551 -1.161743,-0.0539 -1.848309,1.10837 -0.46011,0.77891 -0.744418,0.9721 -1.022025,0.6945 -1.280051,-1.28006 -1.446672,1.35226 -0.37918,5.99042 0.474511,2.06171 1.165338,6.88508 1.219761,8.51638 0.01108,0.33215 -0.215678,1.1259 -0.503908,1.76389 -0.28823,0.63799 -0.634301,1.55686 -0.769041,2.04193 -0.371338,1.33681 -1.582272,2.46945 -2.640158,2.46945 -1.661329,0 -2.905657,-2.04325 -2.878825,-4.72718 0.01803,-1.80244 -1.71414,-7.58505 -2.599577,-8.67838 -0.235702,-0.29104 -0.539507,-0.92604 -0.675122,-1.41111 -0.135615,-0.48507 -0.529022,-1.51694 -0.874232,-2.29305 -0.345215,-0.77612 -1.059819,-2.7208 -1.588016,-4.32153 l -0.960349,-2.91042 h -1.320648 c -2.008967,0 -2.963136,-1.21088 -3.136328,-3.98015 -0.132315,-2.11564 0.09364,-3.00901 1.870907,-7.39693 0.215914,-0.53308 0.03517,-0.61736 -1.323854,-0.61736 -1.260358,0 -1.81254,-0.21537 -2.771771,-1.08107 -2.213807,-1.99794 -7.091069,-4.94073 -7.81026,-4.71247 -0.915861,0.29068 -1.953555,-0.70856 -2.959161,-2.84952 -1.103566,-2.34952 -1.069751,-3.51698 0.134749,-4.6522 1.123366,-1.05875 3.631851,-2.66153 6.525156,-4.16921 1.114981,-0.581 2.027794,-1.24426 2.028472,-1.47391 6.7e-4,-0.22965 0.437796,-0.46777 0.971373,-0.52917 0.533576,-0.0614 0.943951,-0.27037 0.911943,-0.4644 -0.112782,-0.68368 0.686252,-1.23472 1.790412,-1.23472 0.726989,0 1.542877,-0.36432 2.338052,-1.044 0.671771,-0.5742 1.430532,-1.05045 1.686144,-1.05833 0.286188,-0.009 0.386765,-0.26003 0.261783,-0.65382 -0.162917,-0.5133 0.191798,-0.8031 1.79772,-1.46871 3.003793,-1.24501 3.256682,-1.6101 3.034295,-4.380575 -0.254688,-3.17285 0.576287,-5.795378 2.320244,-7.322614 0.99852,-0.874436 1.373872,-1.540466 1.646213,-2.921077 0.348957,-1.769008 0.36818,-1.78951 1.775068,-1.893091 1.781253,-0.131144 3.016846,0.997498 3.062196,2.797142 0.01898,0.752388 0.512325,1.901497 1.345251,3.133265 1.214328,1.795799 1.313547,2.132654 1.292334,4.38758 -0.01263,1.343345 0.125981,2.494321 0.308031,2.557724 0.18206,0.0634 1.46667,0.745006 2.8547,1.514676 2.02371,1.12215 2.71358,1.73272 3.48214,3.08186 1.32264,2.32178 2.22602,5.66124 2.35312,8.69858 0.0456,1.08885 0.2182,1.97972 0.38363,1.97972 0.16544,0 0.19633,0.32916 0.0686,0.73147 -0.1575,0.49625 -0.0233,0.88968 0.4172,1.2235 0.44539,0.33748 0.49827,0.49556 0.16834,0.50326 -0.50199,0.0117 -0.47506,0.3436 0.28708,3.53899 1.25158,5.24744 1.24485,7.70822 -0.0255,9.3232 -0.40153,0.51046 -0.63472,1.17653 -0.5182,1.48017 0.13386,0.34885 -0.20206,0.93871 -0.91262,1.60247 l -1.12447,1.05041 0.66522,2.00313 c 0.36587,1.10172 0.77688,2.24125 0.91336,2.53229 0.13647,0.29104 0.42812,1.20386 0.6481,2.02847 0.21998,0.82462 0.53748,1.49931 0.70555,1.49931 0.16808,0 0.22264,0.31722 0.12125,0.70493 -0.10139,0.38771 0.0504,1.06324 0.33737,1.50118 0.3105,0.47387 0.45369,1.25978 0.35369,1.94115 -0.23706,1.61516 1.06068,4.06846 3.51609,6.64695 3.27578,3.43998 4.85447,5.56609 5.05146,6.8031 0.25205,1.58273 1.10327,3.56936 1.52937,3.56936 0.17515,0 0.41584,0.47625 0.53488,1.05833 0.11904,0.58208 0.31241,1.52501 0.42973,2.0954 0.11732,0.57039 0.5142,1.30937 0.88195,1.64218 0.36775,0.33281 0.66864,0.90115 0.66864,1.263 0,0.36184 0.42828,1.32942 0.95174,2.15018 2.12058,3.32496 3.28159,6.31174 3.28159,8.44211 0,1.23722 -0.12376,1.42817 -1.22339,1.88763 -1.53432,0.64108 -4.08156,0.6608 -4.93302,0.0382 z M 105.8554,125.33022 c -0.1269,-0.67641 -0.75702,-2.38297 -1.40026,-3.79236 -0.64325,-1.40939 -1.36904,-3.03878 -1.61287,-3.62086 -0.40414,-0.96482 -0.46647,-0.99599 -0.70541,-0.35278 -0.14416,0.38806 -0.34373,1.452 -0.44349,2.36432 -0.17546,1.6044 -0.13768,1.68768 1.15296,2.54178 0.92394,0.61144 1.41083,1.24056 1.58299,2.04542 0.46564,2.17687 1.82759,2.95472 1.42608,0.81448 z M 86.252038,118.3051 c 0,-3.16576 -1.017354,-4.44504 -3.534939,-4.44504 -0.801081,0 -3.484281,0.98332 -4.547389,1.66649 -0.07965,0.0512 0.118782,0.38436 0.440972,0.74037 0.322191,0.35602 0.585801,0.89318 0.585801,1.19369 0,0.9374 0.865249,1.39428 1.897365,1.00187 0.831459,-0.31612 0.924857,-0.26986 0.924857,0.45809 0,0.44534 0.575059,1.48154 1.277909,2.30266 l 1.277906,1.49295 0.838761,-1.23435 c 0.632146,-0.93029 0.838757,-1.71281 0.838757,-3.17673 z"
             id="path1629"
             inkscape:connector-curvature="0" />
          <path
             style="fill:url(#linearGradient1656);fill-opacity:1;stroke-width:0.352777"
             d="m 103.47595,180.52888 c 0.52114,-0.38107 0.71045,-1.24596 0.97429,-4.45123 0.2486,-3.01998 0.48042,-4.14242 0.96241,-4.65977 0.34921,-0.37484 0.91442,-1.30133 1.25603,-2.05888 0.35561,-0.78859 1.20454,-1.76346 1.98598,-2.2806 1.10572,-0.73173 1.36488,-1.11471 1.36488,-2.01703 0,-0.85953 0.36241,-1.46106 1.5875,-2.63489 0.96843,-0.92793 1.5875,-1.83335 1.5875,-2.32182 0,-0.77023 2.34303,-4.19253 4.95309,-7.23461 0.68691,-0.80061 1.62355,-2.22004 2.08143,-3.15429 1.29493,-2.6422 3.57961,-6.53837 4.45343,-7.59463 0.43548,-0.52641 0.84968,-1.1308 0.92045,-1.34311 0.2085,-0.62551 1.16174,-0.0539 1.84831,1.10837 0.46011,0.77891 0.74441,0.9721 1.02202,0.6945 1.28005,-1.28006 1.44667,1.35226 0.37918,5.99042 -0.47451,2.06171 -1.16534,6.88508 -1.21976,8.51638 -0.0111,0.33215 0.21568,1.1259 0.50391,1.76389 0.28823,0.63799 0.6343,1.55686 0.76904,2.04193 0.37134,1.33681 1.58227,2.46945 2.64016,2.46945 1.66133,0 2.90565,-2.04325 2.87882,-4.72718 -0.018,-1.80244 1.71414,-7.58505 2.59958,-8.67838 0.2357,-0.29104 0.53951,-0.92604 0.67512,-1.41111 0.13562,-0.48507 0.52902,-1.51694 0.87423,-2.29305 0.34522,-0.77612 1.05982,-2.7208 1.58802,-4.32153 l 0.96035,-2.91042 h 1.32065 c 2.00896,0 2.96313,-1.21088 3.13632,-3.98015 0.13232,-2.11564 -0.0936,-3.00901 -1.8709,-7.39693 -0.21592,-0.53308 -0.0352,-0.61736 1.32385,-0.61736 1.26036,0 1.81254,-0.21537 2.77177,-1.08107 2.21381,-1.99794 7.09107,-4.94073 7.81026,-4.71247 0.91587,0.29068 1.95356,-0.70856 2.95917,-2.84952 1.10356,-2.34952 1.06975,-3.51698 -0.13475,-4.6522 -1.12337,-1.05875 -3.63185,-2.66153 -6.52516,-4.16921 -1.11498,-0.581 -2.02779,-1.24426 -2.02847,-1.47391 -6.6e-4,-0.22965 -0.4378,-0.46777 -0.97137,-0.52917 -0.53358,-0.0614 -0.94396,-0.27037 -0.91195,-0.4644 0.11278,-0.68368 -0.68625,-1.23472 -1.79041,-1.23472 -0.72699,0 -1.54288,-0.36432 -2.33805,-1.044 -0.67177,-0.5742 -1.43054,-1.05045 -1.68615,-1.05833 -0.28619,-0.009 -0.38676,-0.26003 -0.26178,-0.65382 0.16292,-0.5133 -0.1918,-0.8031 -1.79772,-1.46871 -3.00379,-1.24501 -3.25668,-1.6101 -3.0343,-4.380577 0.25469,-3.17285 -0.57628,-5.795378 -2.32024,-7.322614 -0.99852,-0.874436 -1.37387,-1.540466 -1.64621,-2.921077 -0.34896,-1.769008 -0.36818,-1.78951 -1.77507,-1.893091 -1.78125,-0.131144 -3.01685,0.997498 -3.0622,2.797142 -0.019,0.752388 -0.51232,1.901497 -1.34525,3.133265 -1.21432,1.795799 -1.31354,2.132654 -1.29233,4.38758 0.0126,1.343345 -0.12598,2.494321 -0.30803,2.557724 -0.18206,0.0634 -1.46667,0.745006 -2.8547,1.514676 -2.02371,1.122152 -2.71358,1.732722 -3.48214,3.081862 -1.32264,2.32178 -2.22602,5.66124 -2.35312,8.69858 -0.0456,1.08885 -0.2182,1.97972 -0.38363,1.97972 -0.16544,0 -0.19633,0.32916 -0.0686,0.73147 0.1575,0.49625 0.0233,0.88968 -0.4172,1.2235 -0.44539,0.33748 -0.49827,0.49556 -0.16834,0.50326 0.50199,0.0117 0.47506,0.3436 -0.28708,3.53899 -1.25158,5.24744 -1.24485,7.70822 0.0255,9.3232 0.40153,0.51046 0.63472,1.17653 0.5182,1.48017 -0.13386,0.34885 0.20206,0.93871 0.91262,1.60247 l 1.12447,1.05041 -0.66522,2.00313 c -0.36587,1.10172 -0.77688,2.24125 -0.91336,2.53229 -0.13647,0.29104 -0.42812,1.20386 -0.6481,2.02847 -0.21998,0.82462 -0.53748,1.49931 -0.70555,1.49931 -0.16808,0 -0.22264,0.31722 -0.12125,0.70493 0.10139,0.38771 -0.0504,1.06324 -0.33737,1.50118 -0.3105,0.47387 -0.45369,1.25978 -0.35369,1.94115 0.23706,1.61516 -1.06068,4.06846 -3.51609,6.64695 -3.27578,3.43998 -4.85447,5.56609 -5.05146,6.8031 -0.25205,1.58273 -1.10327,3.56936 -1.52937,3.56936 -0.17515,0 -0.41584,0.47625 -0.53488,1.05833 -0.11904,0.58208 -0.31241,1.52501 -0.42973,2.0954 -0.11732,0.57039 -0.51421,1.30937 -0.88196,1.64218 -0.36775,0.33281 -0.66864,0.90115 -0.66864,1.263 0,0.36184 -0.42828,1.32942 -0.95174,2.15018 -2.120575,3.32496 -3.281585,6.31174 -3.281585,8.44211 0,1.23722 0.12376,1.42817 1.22339,1.88763 1.534325,0.64108 4.081555,0.6608 4.933025,0.0382 z m 16.22078,-56.49576 c 0.1269,-0.67641 0.75702,-2.38297 1.40026,-3.79236 0.64325,-1.40939 1.36904,-3.03878 1.61287,-3.62086 0.40414,-0.96482 0.46647,-0.99599 0.70541,-0.35278 0.14416,0.38806 0.34373,1.452 0.44349,2.36432 0.17546,1.6044 0.13768,1.68768 -1.15296,2.54178 -0.92394,0.61144 -1.41083,1.24056 -1.58299,2.04542 -0.46564,2.17687 -1.82759,2.95472 -1.42608,0.81448 z m 19.60336,-7.02512 c 0,-3.16576 1.01735,-4.44504 3.53494,-4.44504 0.80108,0 3.48428,0.98332 4.54739,1.66649 0.0796,0.0512 -0.11878,0.38436 -0.44097,0.74037 -0.32219,0.35602 -0.5858,0.89318 -0.5858,1.19369 0,0.9374 -0.86525,1.39428 -1.89737,1.00187 -0.83146,-0.31612 -0.92486,-0.26986 -0.92486,0.45809 0,0.44534 -0.57506,1.48154 -1.27791,2.30266 l -1.2779,1.49295 -0.83876,-1.23435 c -0.63215,-0.93029 -0.83876,-1.71281 -0.83876,-3.17673 z"
             id="path1629-0"
             inkscape:connector-curvature="0" />
        </g>
      </g>
    </g>
  </g>
</svg>
