<?xml version="1.0" encoding="UTF-8" standalone="no"?>
<svg
   width="512"
   height="512"
   viewBox="0 0 135.46667 135.46667"
   version="1.1"
   id="svg8"
   inkscape:version="1.2.2 (732a01da63, 2022-12-09)"
   sodipodi:docname="Voices_from_the_Void.svg"
   xmlns:inkscape="http://www.inkscape.org/namespaces/inkscape"
   xmlns:sodipodi="http://sodipodi.sourceforge.net/DTD/sodipodi-0.dtd"
   xmlns="http://www.w3.org/2000/svg"
   xmlns:svg="http://www.w3.org/2000/svg"
   xmlns:rdf="http://www.w3.org/1999/02/22-rdf-syntax-ns#"
   xmlns:cc="http://creativecommons.org/ns#"
   xmlns:dc="http://purl.org/dc/elements/1.1/">
  <defs
     id="defs2">
    <linearGradient
       id="linearGradient1099-6-5"
       inkscape:swatch="gradient">
      <stop
         style="stop-color:#273839;stop-opacity:0.5"
         offset="0"
         id="stop1151" />
      <stop
         style="stop-color:#273839;stop-opacity:1"
         offset="1"
         id="stop1153" />
    </linearGradient>
  </defs>
  <sodipodi:namedview
     id="base"
     pagecolor="#ffffff"
     bordercolor="#666666"
     borderopacity="1.0"
     inkscape:pageopacity="0.0"
     inkscape:pageshadow="2"
     inkscape:zoom="0.7"
     inkscape:cx="95"
     inkscape:cy="157.85714"
     inkscape:document-units="px"
     inkscape:current-layer="g1320"
     inkscape:document-rotation="0"
     showgrid="false"
     inkscape:pagecheckerboard="true"
     inkscape:object-nodes="true"
     fit-margin-top="0"
     fit-margin-left="0"
     fit-margin-right="0"
     fit-margin-bottom="0"
     inkscape:window-width="2560"
     inkscape:window-height="1361"
     inkscape:window-x="-9"
     inkscape:window-y="-9"
     inkscape:window-maximized="1"
     units="px"
     inkscape:showpageshadow="2"
     inkscape:deskcolor="#d1d1d1" />
  <metadata
     id="metadata5">
    <rdf:RDF>
      <cc:Work
         rdf:about="">
        <dc:format>image/svg+xml</dc:format>
        <dc:type
           rdf:resource="http://purl.org/dc/dcmitype/StillImage" />
        <dc:title />
      </cc:Work>
    </rdf:RDF>
  </metadata>
  <g
     inkscape:label="Layer 1"
     inkscape:groupmode="layer"
     id="layer1"
     transform="translate(-59.62574,-110.15787)">
    <path
       style="fill:#000000;stroke-width:0.264583"
       id="path853"
       d="" />
    <path
       style="fill:#000000;stroke-width:0.264583"
       id="path849"
       d="" />
    <g
       id="g1061"
       transform="translate(9.0714285,1.8898814)">
      <g
         id="g1320"
         transform="translate(7.2162774,44.901282)">
        <path
           style="fill:#000000;stroke-width:0.415546;fill-opacity:1"
           d="m 52.788258,178.77124 c 7.059535,-4.6635 6.946247,-4.59641 6.190241,-3.66525 -0.865675,1.06624 -10.342372,7.32335 -11.091586,7.32335 -0.349912,0 1.855692,-1.64614 4.901345,-3.6581 z m 116.403122,0.3625 c -2.69574,-1.81258 -5.83634,-4.08395 -6.97909,-5.04753 -3.25559,-2.74513 -3.15238,-2.68396 10.38339,6.15391 2.33855,1.52689 3.05689,2.17627 2.41334,2.18162 -0.50396,0.005 -3.12191,-1.47542 -5.81764,-3.288 z m -22.41432,2.08018 c -0.71868,-0.43821 -2.38751,-2.16724 -3.70852,-3.84225 -1.32101,-1.67501 -3.16871,-3.88696 -4.10597,-4.91544 -3.31939,-3.64241 -5.5232,-6.82476 -5.25343,-7.58603 0.19801,-0.55873 1.81357,1.13864 6.90102,7.25053 8.2067,9.85925 8.2337,9.89341 7.81539,9.8915 -0.18799,-8.2e-4 -0.92982,-0.36009 -1.64849,-0.79831 z m -71.583923,0.10107 c 0.258179,-0.7174 13.837413,-17.12075 14.194736,-17.14688 0.550657,-0.0402 0.331975,1.58629 -0.259532,1.93042 -0.314162,0.18278 -1.713431,1.73477 -3.10949,3.4489 -6.769211,8.31145 -9.074423,10.98357 -9.994622,11.58535 -0.557941,0.36489 -0.925864,0.44554 -0.831092,0.18221 z m -14.78204,-2.6378 c 0.275993,-0.44658 7.501218,-5.34559 10.38109,-7.03884 2.276009,-1.33822 1.570659,-0.7001 -3.581496,3.24006 -4.491075,3.43459 -7.673269,5.21242 -6.799594,3.79878 z m 97.889503,-2.06378 c -1.84819,-1.37034 -3.36035,-2.59685 -3.36035,-2.72556 0,-0.29181 0.32986,-0.0971 4.02293,2.37511 1.64123,1.09867 3.10148,2.18757 3.245,2.41979 0.6116,0.98962 -0.76571,0.26022 -3.90758,-2.06934 z m -52.69137,-2.34963 c -0.96304,-0.34107 -2.2379,-1.21453 -2.833,-1.94104 -2.30716,-2.81663 -5.124703,-7.51327 -5.571333,-9.28703 -0.25735,-1.02203 -0.89791,-2.54619 -1.42346,-3.38703 -2.083416,-3.3332 -4.486207,-9.3807 -6.716338,-16.90399 -3.849797,-12.98723 -6.522962,-20.99137 -7.370336,-22.0686 -0.439395,-0.55861 -1.886135,-1.75397 -3.214976,-2.65639 -3.133848,-2.12815 -4.155459,-3.45454 -4.155459,-5.39516 0,-1.77483 2.716984,-9.54456 3.578578,-10.2336 0.785814,-0.62845 0.754731,-0.75475 -0.669757,-2.721197 -1.072095,-1.47999 -1.246638,-2.08861 -1.246638,-4.347 0,-1.77641 0.24694,-3.06711 0.763234,-3.98922 0.419776,-0.74974 1.000863,-1.80917 1.291301,-2.35429 0.416417,-0.78155 0.605146,-0.86942 0.892588,-0.41554 0.224656,0.35473 0.36696,0.39059 0.370883,0.0934 0.0033,-0.26517 0.737864,-1.407549 1.631924,-2.538617 1.788723,-2.2629 3.607717,-3.004688 7.368024,-3.004688 1.479498,0 1.85767,-0.119159 1.503198,-0.473632 -0.277013,-0.277013 -2.035013,-0.492632 -4.234872,-0.51943 -4.262326,-0.05195 -4.6271,-0.5003 -1.312564,-1.61344 l 2.193176,-0.736545 4.570691,1.268638 c 7.113403,1.974403 9.181776,3.275528 11.720216,7.372624 1.35429,2.18584 2.53902,2.41166 2.18004,0.41555 -0.13359,-0.74279 -0.36295,-2.130645 -0.50971,-3.084105 l -0.26682,-1.733577 1.56214,0.537041 c 1.31119,0.450767 1.83911,1.029589 3.28652,3.603531 0.94842,1.68657 1.98857,3.0665 2.31143,3.0665 0.32288,0 1.36302,-1.37993 2.31144,-3.0665 1.44742,-2.573942 1.97531,-3.152764 3.28653,-3.603531 l 1.56214,-0.537041 -0.26682,1.733577 c -0.14676,0.95346 -0.37612,2.341315 -0.50971,3.084105 -0.35899,1.99611 0.82575,1.77029 2.18003,-0.41555 2.53845,-4.097096 4.60682,-5.398221 11.72022,-7.372624 l 4.57069,-1.268638 2.19318,0.736545 c 3.31454,1.11314 2.94976,1.561541 -1.31257,1.61344 -2.19986,0.02674 -3.95785,0.242417 -4.23487,0.51943 -0.35447,0.354473 0.0237,0.473632 1.5032,0.473632 3.76031,0 5.57931,0.741788 7.36803,3.004688 0.89406,1.131068 1.62841,2.273447 1.63191,2.538617 0.004,0.29713 0.14623,0.26128 0.37088,-0.0934 0.28745,-0.45388 0.47618,-0.36601 0.8926,0.41554 0.29043,0.54512 0.87152,1.60455 1.2913,2.35429 1.3774,2.46009 0.93786,7.62768 -0.82888,9.744887 -0.41549,0.49793 -0.47159,0.88175 -0.18219,1.24664 0.86866,1.09532 3.4365,8.82241 3.4365,10.34107 0,1.88279 -1.57176,3.90139 -4.27662,5.49245 -0.96185,0.56578 -2.1941,1.50543 -2.73836,2.0881 -1.09208,1.16914 -3.30539,7.54131 -6.94849,20.00475 -1.27705,4.36897 -3.11244,9.56577 -4.10929,11.63528 -0.99081,2.05696 -1.93329,4.20742 -2.0944,4.77879 -0.1611,0.57138 -0.53793,1.31935 -0.8374,1.66217 -0.29947,0.34283 -1.0156,2.06659 -1.5914,3.83059 -0.97405,2.98404 -3.31813,7.05168 -5.854,10.15834 -0.62421,0.76471 -1.88245,1.5905 -3.0075,1.97384 -2.47679,0.84393 -8.80907,0.8289 -11.22483,-0.0266 z m 1.26373,-6.65313 c 0.15101,-0.15101 -0.14506,-0.48378 -0.65795,-0.73946 -1.58117,-0.78831 -1.12631,-1.64001 1.13168,-2.11905 l 2.06419,-0.43792 -4.24786,-1.81384 c -2.33634,-0.99762 -4.36317,-1.69854 -4.50407,-1.55764 -0.27912,0.27912 1.43697,3.43722 3.03865,5.59197 0.94094,1.26583 2.46803,1.78328 3.17536,1.07594 z m 12.04528,-1.07594 c 1.60168,-2.15475 3.31778,-5.31285 3.03866,-5.59197 -0.14092,-0.1409 -2.16776,0.56002 -4.5041,1.55764 l -4.24786,1.81384 2.0642,0.43792 c 2.258,0.47904 2.71286,1.33074 1.13167,2.11905 -1.07589,0.53638 -0.80973,1.01403 0.56509,1.01403 0.5871,0 1.33092,-0.51454 1.95234,-1.35051 z m -6.18606,-5.28676 c 0.58455,-0.22225 3.40165,-1.92415 6.26023,-3.782 4.26955,-2.77487 5.19743,-3.55589 5.19743,-4.37471 0,-0.61004 -0.2424,-0.99677 -0.62482,-0.99677 -0.5253,0 -0.61897,-0.84381 -0.58815,-5.29819 0.0202,-2.91404 -0.064,-5.57873 -0.18702,-5.92155 -0.12303,-0.34282 -0.42823,-2.77376 -0.67822,-5.4021 -0.46425,-4.88066 -1.38159,-7.73178 -3.19715,-9.93668 -1.07289,-1.30299 -4.31335,-2.1533 -6.21015,-1.62956 -0.85856,0.23706 -1.93427,0.23706 -2.79283,0 -1.8968,-0.52374 -5.13725,0.32657 -6.21015,1.62956 -1.81555,2.2049 -2.7329,5.05602 -3.19713,9.93668 -0.24999,2.62834 -0.555213,5.05928 -0.678233,5.4021 -0.12303,0.34282 -0.20718,3.00751 -0.18702,5.92155 0.0309,4.45438 -0.0629,5.29819 -0.58816,5.29819 -0.3824,0 -0.62482,0.38673 -0.62482,0.99677 0,0.81893 0.92928,1.60073 5.208403,4.38184 6.69089,4.34857 7.12026,4.52672 9.09779,3.77487 z m -6.13782,-4.09862 c -2.70728,-0.73088 -3.57679,-1.32143 -3.59099,-2.43885 -0.004,-0.27533 0.60867,-0.61599 1.36038,-0.75701 1.75496,-0.32923 14.68293,-0.079 15.05176,0.29131 0.15357,0.15419 0.15725,0.66457 0.008,1.13416 -0.62933,1.98285 -8.18192,3.02504 -12.82938,1.77039 z m -1.93517,-26.88484 c 0,-0.12185 0.45738,-1.12415 1.01638,-2.22731 l 1.01638,-2.00575 h 4.61596 4.61597 l 1.01639,2.00575 c 0.559,1.10316 1.01638,2.10546 1.01638,2.22731 0,0.12188 -2.99192,0.2216 -6.64874,0.2216 -3.6568,0 -6.64872,-0.0997 -6.64872,-0.2216 z m -6.753133,-6.53103 c 1.75156,-1.81227 2.123693,-2.97194 1.63665,-5.10032 -0.61697,-2.6962 -0.16223,-3.70694 2.368283,-5.26387 2.08966,-1.28569 2.31042,-1.58263 3.39923,-4.57262 1.16101,-3.18827 1.82541,-3.78107 1.86101,-1.6605 0.0172,1.02111 0.10826,0.95583 1.04924,-0.75173 l 1.03047,-1.86995 -0.3146,2.70104 c -0.46902,4.02703 -0.2639,6.25225 0.696,7.55059 1.26824,1.71538 1.12278,2.83806 -0.3677,2.83806 -0.9091,0 -1.56091,-0.41984 -2.60701,-1.6792 l -1.39481,-1.67919 -1.22514,1.27877 c -1.46991,1.53424 -1.13639,2.4679 1.11366,3.11775 0.79274,0.22897 2.04913,0.93053 2.79198,1.55905 1.06805,0.90364 1.772,1.14274 3.36459,1.14274 1.59261,0 2.29656,-0.2391 3.3646,-1.14274 0.74284,-0.62852 1.99924,-1.33008 2.79199,-1.55905 2.25005,-0.64985 2.58356,-1.58351 1.11365,-3.11775 l -1.22513,-1.27877 -1.39484,1.67919 c -2.47239,2.97648 -5.23608,1.89983 -2.97469,-1.15886 0.95991,-1.29834 1.16502,-3.52356 0.69599,-7.55059 l -0.31458,-2.70104 1.03046,1.86995 c 0.94096,1.70756 1.03208,1.77284 1.04923,0.75173 0.0356,-2.12057 0.7,-1.52777 1.86102,1.6605 1.08882,2.98999 1.30957,3.28693 3.39925,4.57262 2.53669,1.56073 2.98551,2.56656 2.36165,5.29277 -0.49677,2.17095 0.017,3.58925 1.94986,5.38308 1.29824,1.20483 1.35916,1.2191 1.81668,0.42552 0.92902,-1.61143 3.06207,-3.49745 4.25114,-3.75884 0.66484,-0.14616 2.89175,-1.07599 4.9487,-2.06631 2.05697,-0.99032 4.48791,-1.92538 5.40211,-2.07792 1.93867,-0.32349 3.38876,-1.52014 3.73116,-3.07908 0.13319,-0.60636 -0.21908,-3.23502 -0.7828,-5.8415 -0.75535,-3.49255 -1.00465,-5.8073 -0.94779,-8.800547 0.0734,-3.85999 0.0359,-4.05322 -0.75392,-3.89433 -0.45711,0.092 -1.71282,0.28139 -2.79048,0.42095 -1.87907,0.24334 -1.96903,0.31667 -2.19455,1.78876 -0.82296,5.371587 -1.71897,6.619817 -6.16238,8.584907 -2.11787,0.93663 -2.40597,0.96512 -4.7903,0.47377 -3.26,-0.6718 -4.08969,-1.45867 -4.71129,-4.46815 -0.2763,-1.33772 -0.71645,-2.432217 -0.97814,-2.432217 -0.26166,0 -0.81423,-0.37399 -1.2279,-0.83108 -0.41368,-0.45711 -1.08611,-0.8311 -1.4943,-0.8311 -0.40818,0 -0.85773,-0.187 -0.99898,-0.41555 -0.55642,-0.9003 -1.03886,-0.33537 -1.03886,1.21648 0,1.2625 -0.24456,1.824397 -1.08009,2.481627 -0.99214,0.78043 -1.19517,0.80153 -2.49328,0.25913 -1.22122,-0.51025 -1.60516,-0.51025 -2.82637,0 -1.29811,0.5424 -1.50114,0.5213 -2.49327,-0.25913 -0.83554,-0.65723 -1.0801,-1.219127 -1.0801,-2.481627 0,-1.55185 -0.48244,-2.11678 -1.03886,-1.21648 -0.14124,0.22855 -0.59079,0.41555 -0.99897,0.41555 -0.4082,0 -1.08063,0.37399 -1.49431,0.8311 -0.41367,0.45709 -0.96622,0.83108 -1.2279,0.83108 -0.26167,0 -0.70183,1.094497 -0.97813,2.432217 -0.621613,3.00948 -1.451283,3.79635 -4.711293,4.46815 -2.384324,0.49135 -2.672421,0.46286 -4.790297,-0.47377 -4.443424,-1.96509 -5.339436,-3.21332 -6.162375,-8.584907 -0.225529,-1.47209 -0.315483,-1.54542 -2.194552,-1.78876 -1.077661,-0.13956 -2.333375,-0.32881 -2.790474,-0.42053 -0.793025,-0.15915 -0.831338,0.0561 -0.836458,4.69758 -0.0041,3.656127 -0.243252,5.835807 -0.963115,8.775537 -0.550345,2.24748 -0.844294,4.36862 -0.691036,4.98655 0.429604,1.73211 1.810924,2.88594 3.814674,3.18643 1.008946,0.15129 3.43918,1.09393 5.400519,2.09473 1.961345,1.0008 3.868616,1.82033 4.23839,1.82119 1.171211,0.002 3.374564,1.61513 4.261734,3.11879 0.47075,0.79786 0.98775,1.45065 1.14889,1.45065 0.16114,0 0.88036,-0.60774 1.59826,-1.35053 z m 3.844303,-28.997727 c 0,-0.23593 -0.85678,-1.72946 -1.903973,-3.31899 -2.20343,-3.34462 -5.01091,-5.974268 -7.122169,-6.671046 -1.954744,-0.645127 -7.021166,-0.294035 -8.756823,0.606819 -2.088662,1.084081 -3.876836,4.410057 -2.371013,4.410057 0.342825,0 0.623319,0.25897 0.623319,0.57548 0,0.45047 0.564083,0.53148 2.597162,0.37292 3.151905,-0.2458 7.737168,0.8211 12.570274,2.92483 3.601623,1.56772 4.363223,1.75971 4.363223,1.09993 z m 23.67536,-1.20861 c 5.23401,-2.14626 9.46706,-3.09574 12.55386,-2.81584 1.9025,0.17251 2.41656,0.0949 2.41656,-0.36478 0,-0.32115 0.28049,-0.58393 0.62331,-0.58393 1.50583,0 -0.28235,-3.325976 -2.37101,-4.410057 -1.73566,-0.900854 -6.80207,-1.251946 -8.75683,-0.606819 -2.11125,0.696778 -4.91873,3.326426 -7.12217,6.671046 -1.81655,2.75735 -2.24487,3.74794 -1.62058,3.74794 0.15587,0 2.08045,-0.73691 4.27686,-1.63756 z m -23.25982,-3.76455 c -0.26558,-0.49625 -0.57638,-0.80876 -0.69065,-0.69449 -0.11426,0.11426 0.009,0.61379 0.27511,1.11004 0.26558,0.49625 0.57638,0.80878 0.69064,0.69451 0.11426,-0.11426 -0.009,-0.6138 -0.2751,-1.11006 z m 19.11513,-0.57439 c 0,-0.22854 -0.27456,-0.0525 -0.61011,0.39109 -0.33556,0.44365 -0.61011,0.99362 -0.61011,1.22218 0,0.22855 0.27455,0.0525 0.61011,-0.39109 0.33555,-0.44364 0.61011,-0.99363 0.61011,-1.22218 z M 63.943972,171.77683 c 0.01048,-0.45557 21.979136,-14.87082 22.250045,-14.59991 0.526329,0.52632 -0.55948,1.52963 -3.682544,3.40274 -3.323284,1.99319 -15.644414,9.63589 -17.597496,10.91561 -0.538063,0.35255 -0.974567,0.47925 -0.970005,0.28156 z m 90.788488,-2.14457 c -2.05695,-1.31924 -6.87207,-4.32515 -10.70031,-6.67983 -5.20382,-3.20078 -6.96038,-4.48806 -6.96038,-5.10084 0,-0.54687 0.17283,-0.71464 0.51944,-0.50418 1.93925,1.17758 21.37492,13.99622 21.6915,14.30644 0.24735,0.24238 0.16976,0.38501 -0.20778,0.38194 -0.3314,-0.002 -2.2855,-1.08428 -4.34247,-2.40353 z M 51.884843,165.18262 c 0,-0.30623 17.636207,-9.06782 22.08075,-10.9696 2.139981,-0.9157 4.919351,-2.21181 6.176378,-2.88024 1.257027,-0.66845 2.814663,-1.33881 3.461412,-1.4897 1.078103,-0.25154 1.151688,-0.19524 0.884714,0.67686 -0.16016,0.52316 -0.43593,1.22012 -0.612828,1.54877 -0.176898,0.32865 -6.65238,3.14476 -14.389957,6.258 -18.289527,7.35886 -17.600469,7.09046 -17.600469,6.85591 z m 102.365867,-6.52358 c -12.0107,-4.81803 -14.69094,-6.03784 -15.06353,-6.85558 -1.007,-2.21014 -0.061,-2.35734 3.28669,-0.51149 1.25702,0.69309 4.03725,2.00883 6.17828,2.92387 4.42282,1.89021 21.25794,10.2997 20.62443,10.30234 -0.22854,8.2e-4 -6.99019,-2.63568 -15.02587,-5.85914 z m -77.957054,-9.94675 c 0.59693,-0.59692 4.341468,-1.58137 4.856563,-1.2768 0.211712,0.12518 -0.816764,0.56362 -2.285503,0.97429 -3.215976,0.89921 -3.161337,0.89278 -2.57106,0.30251 z m 67.703324,-0.2273 c -1.10495,-0.33777 -1.90839,-0.71474 -1.78543,-0.83771 0.36339,-0.36339 2.9608,0.25243 3.82614,0.90712 0.97817,0.74007 0.56091,0.72588 -2.04071,-0.0694 z m -94.725948,-6.59968 c 1.918078,-0.83952 30.169027,-1.23301 30.835888,-0.4295 0.676439,0.81507 -4.240803,1.08141 -19.287837,1.04472 -11.436224,-0.0279 -12.732229,-0.097 -11.548051,-0.61522 z m 93.618368,0.28694 c 0,-1.10873 1.52777,-1.21608 15.0526,-1.05755 10.96685,0.12854 14.30972,0.29363 15.37519,0.75933 1.21366,0.53047 -0.36447,0.59877 -14.53315,0.62899 -8.86662,0.019 -15.89464,-0.12734 -15.89464,-0.33077 z m -64.466369,-8.14153 c -0.452421,-0.45241 -13.697211,-5.83334 -26.538188,-10.78163 -3.993177,-1.53877 -5.751956,-2.52476 -5.303501,-2.9732 0.135134,-0.13515 6.198844,1.93761 13.474909,4.60613 7.276065,2.66855 14.317235,5.2296 15.647041,5.69127 1.79702,0.62386 2.52073,1.11004 2.818582,1.89345 0.40824,1.07374 0.348954,2.01178 -0.09884,1.56398 z m 66.128559,-0.97194 c 0,-1.06957 2.27661,-2.10334 13.9208,-6.32118 7.08505,-2.56641 13.79447,-5.02369 14.90979,-5.46064 1.11533,-0.43693 2.11443,-0.70786 2.22024,-0.60206 0.29872,0.29872 -1.8337,1.29661 -6.77818,3.17193 -6.92827,2.62774 -17.77214,6.96962 -20.80409,8.32997 -2.84859,1.27807 -3.46856,1.43572 -3.46856,0.88198 z"
           id="path2503" />
      </g>
    </g>
  </g>
</svg>
