<?xml version="1.0" encoding="UTF-8" standalone="no"?>
<svg
   width="512"
   height="512"
   viewBox="0 0 135.46667 135.46667"
   version="1.1"
   id="svg8"
   inkscape:version="1.2.2 (732a01da63, 2022-12-09)"
   sodipodi:docname="Tracker.svg"
   xmlns:inkscape="http://www.inkscape.org/namespaces/inkscape"
   xmlns:sodipodi="http://sodipodi.sourceforge.net/DTD/sodipodi-0.dtd"
   xmlns="http://www.w3.org/2000/svg"
   xmlns:svg="http://www.w3.org/2000/svg"
   xmlns:rdf="http://www.w3.org/1999/02/22-rdf-syntax-ns#"
   xmlns:cc="http://creativecommons.org/ns#"
   xmlns:dc="http://purl.org/dc/elements/1.1/">
  <defs
     id="defs2">
    <linearGradient
       id="linearGradient1099-6-5"
       inkscape:swatch="gradient">
      <stop
         style="stop-color:#273839;stop-opacity:0.5"
         offset="0"
         id="stop1151" />
      <stop
         style="stop-color:#273839;stop-opacity:1"
         offset="1"
         id="stop1153" />
    </linearGradient>
  </defs>
  <sodipodi:namedview
     id="base"
     pagecolor="#ffffff"
     bordercolor="#666666"
     borderopacity="1.0"
     inkscape:pageopacity="0.0"
     inkscape:pageshadow="2"
     inkscape:zoom="0.7"
     inkscape:cx="95"
     inkscape:cy="157.85714"
     inkscape:document-units="px"
     inkscape:current-layer="g1320"
     inkscape:document-rotation="0"
     showgrid="false"
     inkscape:pagecheckerboard="true"
     inkscape:object-nodes="true"
     fit-margin-top="0"
     fit-margin-left="0"
     fit-margin-right="0"
     fit-margin-bottom="0"
     inkscape:window-width="2560"
     inkscape:window-height="1361"
     inkscape:window-x="-9"
     inkscape:window-y="-9"
     inkscape:window-maximized="1"
     units="px"
     inkscape:showpageshadow="2"
     inkscape:deskcolor="#d1d1d1" />
  <metadata
     id="metadata5">
    <rdf:RDF>
      <cc:Work
         rdf:about="">
        <dc:format>image/svg+xml</dc:format>
        <dc:type
           rdf:resource="http://purl.org/dc/dcmitype/StillImage" />
        <dc:title />
      </cc:Work>
    </rdf:RDF>
  </metadata>
  <g
     inkscape:label="Layer 1"
     inkscape:groupmode="layer"
     id="layer1"
     transform="translate(-59.62574,-110.15787)">
    <path
       style="fill:#000000;stroke-width:0.264583"
       id="path853"
       d="" />
    <path
       style="fill:#000000;stroke-width:0.264583"
       id="path849"
       d="" />
    <g
       id="g1061"
       transform="translate(9.0714285,1.8898814)">
      <g
         id="g1320"
         transform="translate(7.2162774,44.901282)">
        <path
           style="fill:#000000;fill-opacity:1;stroke-width:0.415972"
           d="m 144.49722,188.9037 c -0.78153,-0.33914 -2.93418,-2.06329 -4.78368,-3.83144 -2.78821,-2.66558 -3.83929,-3.38143 -6.1521,-4.18992 -3.85638,-1.34809 -3.92026,-1.46032 -3.31083,-5.81768 0.47245,-3.37799 0.60263,-3.69248 2.0544,-4.96319 0.85247,-0.74617 2.01794,-1.46021 2.5899,-1.58677 0.57196,-0.12654 2.06946,-0.604 3.32777,-1.06099 1.25831,-0.45699 3.13018,-1.12716 4.15972,-1.48926 1.02952,-0.3621 2.61069,-1.19282 3.5137,-1.84604 0.90302,-0.65322 2.14989,-1.18768 2.77083,-1.18768 1.41744,0 2.94323,1.73808 3.91112,4.45527 0.39032,1.09576 1.51534,3.67697 2.50006,5.73603 0.9969,2.08457 2.01183,4.98851 2.29007,6.55242 0.59985,3.37162 0.19964,4.24404 -2.82746,6.16377 -1.52701,0.96841 -7.9744,3.772 -8.50516,3.69839 -0.0646,-0.009 -0.75684,-0.29376 -1.53834,-0.63291 z m -85.251199,-2.51599 c -2.585833,-2.58092 -3.57104,-3.18941 -8.658869,-5.34795 -0.955583,-0.40541 -2.265893,-1.28872 -2.911801,-1.96289 -1.116916,-1.16581 -1.173723,-1.41272 -1.160985,-5.04622 0.01584,-4.5187 0.741284,-7.77512 1.994334,-8.95229 1.443092,-1.35572 5.405736,-1.76853 13.26635,-1.38204 8.544933,0.42013 9.3012,0.74019 8.840544,3.7413 -0.163836,1.06738 -0.337609,5.02926 -0.386165,8.8042 -0.106994,8.31869 -0.29037,8.81016 -4.047179,10.84709 -4.291447,2.32682 -3.858615,2.37057 -6.936229,-0.7012 z m 14.489159,0.74335 c -0.92604,-0.74986 -0.928576,-0.7804 -0.2376,-2.86074 0.384139,-1.15653 0.652814,-2.78015 0.597059,-3.60804 -0.05576,-0.82789 0.07722,-1.67058 0.295509,-1.87266 0.218286,-0.20208 2.226351,-1.04518 4.462367,-1.87358 3.907283,-1.44755 7.373731,-1.96063 7.373731,-1.0914 0,0.22813 0.670296,1.15672 1.489548,2.06353 0.819247,0.90681 1.426378,1.97675 1.349174,2.37764 -0.211571,1.0986 -3.837583,3.69612 -8.05755,5.77207 -4.081378,2.00779 -5.819987,2.26914 -7.272238,1.09318 z m 87.82499,-6.61099 c -0.58302,-0.4721 -1.34996,-1.99386 -1.93525,-3.83987 l -0.96951,-3.05787 2.94594,-2.89955 c 1.62026,-1.59475 3.74724,-3.254 4.72661,-3.68723 0.97938,-0.43322 2.73125,-1.75843 3.89306,-2.94488 2.37171,-2.42205 2.78095,-2.35542 3.2786,0.53378 0.5659,3.28543 -0.11847,6.62961 -2.13486,10.43217 -1.72296,3.24921 -1.99646,3.54824 -4.24365,4.63993 -3.30911,1.60757 -4.39422,1.76826 -5.56094,0.82352 z m -73.316949,-3.38132 c -1.700097,-1.51904 -1.393617,-2.39007 0.969853,-2.75642 2.806402,-0.435 4.595328,-1.0707 6.032798,-2.14372 1.50721,-1.1251 1.79967,-1.20182 1.78578,-0.46848 -0.0182,0.96278 -5.622131,6.55155 -6.569282,6.55155 -0.492377,0 -1.490992,-0.53232 -2.219149,-1.18293 z m -14.392126,-2.60889 c -0.566531,-0.58213 -0.711785,-5.92381 -0.25225,-9.27648 0.252832,-1.84461 0.385798,-2.01275 2.391837,-3.02451 1.942711,-0.97981 12.405733,-6.88758 14.361377,-8.1089 1.508183,-0.94188 1.49505,0.0953 -0.03686,2.91084 -0.831964,1.52907 -2.104063,4.83691 -2.826888,7.35075 -0.722825,2.51384 -1.773228,5.17239 -2.334237,5.90791 -2.045935,2.68236 -9.937899,5.64308 -11.302983,4.24039 z m 82.919795,-5.29891 c -0.12078,-0.19541 -0.7175,-1.73971 -1.32605,-3.43175 -0.60855,-1.69206 -1.36311,-3.44569 -1.67682,-3.89696 -0.31371,-0.45128 -0.57037,-1.15494 -0.57037,-1.5637 0,-0.97967 3.95069,-7.0477 6.30165,-9.67897 1.02205,-1.14391 2.49038,-2.97304 3.26292,-4.06473 0.77256,-1.09167 1.60399,-1.91877 1.84763,-1.838 0.24365,0.0808 0.75152,1.25475 1.12863,2.60883 0.3771,1.35408 1.00812,3.21071 1.40226,4.12585 0.63898,1.48362 0.6608,2.04696 0.20136,5.19964 -0.28339,1.94467 -0.78221,4.19092 -1.1085,4.99166 -0.76587,1.87953 -7.10412,7.88648 -8.33172,7.89622 -0.50126,0.005 -1.01021,-0.15266 -1.13099,-0.34809 z m -30.16709,-2.51669 c -1.29445,-1.8179 -1.03311,-6.89331 0.67227,-13.05619 0.81203,-2.93448 1.64275,-3.52393 3.55936,-2.52556 0.74561,0.38839 1.91669,0.82281 2.6024,0.96538 1.55766,0.32385 1.75753,1.12578 1.82384,7.31789 0.0504,4.70009 -0.2095,5.59481 -1.62466,5.59481 -0.37153,0 -1.59701,0.65515 -2.72327,1.4559 -2.49001,1.77032 -3.19684,1.81096 -4.30994,0.24777 z m 47.8084,-1.93231 c 0,-1.19185 -1.07738,-3.5151 -1.63007,-3.5151 -0.75015,0 -0.76191,-1.19562 -0.0371,-3.77817 l 0.7491,-2.66939 0.92337,2.04113 c 1.12427,2.48526 1.43685,4.57335 1.0604,7.08371 -0.30269,2.01838 -1.06566,2.61825 -1.06566,0.83782 z m -35.23545,-2.06208 c -1.30428,-0.91354 -1.62943,-4.29372 -0.80742,-8.39362 0.60196,-3.00239 0.8005,-3.38702 2.59916,-5.03536 1.07109,-0.98156 2.95037,-2.45037 4.17621,-3.26403 1.22583,-0.81367 3.33938,-2.72184 4.69678,-4.24039 1.35739,-1.51854 2.60321,-2.62577 2.7685,-2.46048 0.16528,0.16528 -8.3e-4,2.1278 -0.36958,4.36115 -0.59778,3.62239 -1.65803,10.41222 -2.21038,14.15525 -0.17937,1.21547 -0.51737,1.51101 -3.19615,2.79472 -2.33786,1.12033 -6.26707,2.7096 -6.69906,2.7096 -0.0348,0 -0.46586,-0.28209 -0.95806,-0.62684 z m -89.886849,-2.5716 c -0.934663,-0.78093 -1.166415,-2.17318 -1.000485,-6.01043 0.07121,-1.64668 0.342449,-2.20095 1.851307,-3.78305 0.972333,-1.01954 2.257718,-2.40115 2.85641,-3.07025 0.598692,-0.6691 2.155575,-1.75642 3.459741,-2.41627 2.482286,-1.25592 6.474971,-1.9574 6.474971,-1.13758 0,0.25105 -0.539538,1.53837 -1.198974,2.86072 -0.756558,1.51711 -1.275988,3.32523 -1.407686,4.90011 -0.115767,1.38431 -0.580349,3.14421 -1.04319,3.95173 -0.458963,0.80075 -1.055877,2.15524 -1.326476,3.00999 -0.270599,0.85477 -0.618731,1.63138 -0.773628,1.72583 -0.154898,0.0944 -1.791107,0.29564 -3.636021,0.4471 -2.885713,0.23691 -3.480358,0.17014 -4.255969,-0.4779 z m 11.95844,0.10058 c -0.638191,-0.63818 -0.463658,-1.78759 0.589704,-3.88354 0.542332,-1.07912 1.124713,-2.43001 1.294184,-3.00197 0.993404,-3.35274 2.597096,-4.89603 7.911059,-7.61311 1.759596,-0.89969 2.747066,-1.08398 6.412865,-1.19685 3.056176,-0.0941 4.381099,0.0106 4.496194,0.35604 0.08976,0.2692 -0.483833,1.48593 -1.274633,2.70382 -0.790794,1.21789 -1.971736,3.19145 -2.624317,4.38568 -0.65258,1.19424 -2.271142,3.66079 -3.596806,5.48124 l -2.410298,3.3099 -5.200801,-0.0724 c -2.86044,-0.0399 -5.379158,-0.25078 -5.597151,-0.46878 z m 29.26687,-0.0771 c -0.150844,-0.39309 0.292657,-1.68553 1.052985,-3.06856 0.722477,-1.31419 1.313596,-2.79093 1.313596,-3.28166 0,-0.63645 0.73397,-1.36663 2.56032,-2.54705 2.96452,-1.91606 3.87507,-2.10604 3.44542,-0.71888 -0.56584,1.82688 -2.38106,5.12195 -3.83834,6.96753 -2.52632,3.19945 -3.993671,4.05665 -4.533981,2.64862 z m 41.051919,-9.57969 c -1.32675,-0.91372 -1.64962,-1.39176 -1.65752,-2.45411 -0.008,-1.1112 3.35697,-7.34834 4.09302,-7.58605 0.42929,-0.13865 0.47885,0.0527 0.20798,0.80313 -0.32232,0.89286 -0.35151,5.30472 -0.056,8.47262 0.14237,1.52651 -0.99353,1.86209 -2.58742,0.76441 z m 36.50404,-0.43871 c -0.37112,-0.41009 -1.16854,-2.11445 -1.77203,-3.78746 -1.0722,-2.97238 -1.08012,-3.06736 -0.34681,-4.15775 0.41274,-0.61373 1.0944,-1.86463 1.51479,-2.77977 0.71323,-1.55255 0.80252,-1.61206 1.33477,-0.88942 1.13645,1.54303 1.37876,9.79634 0.34199,11.64893 -0.37324,0.66695 -0.43982,0.66481 -1.07271,-0.0345 z m -92.633435,-6.74126 c -0.461699,-0.2973 -0.487237,-0.51707 -0.11256,-0.96854 1.175217,-1.41603 8.191145,-4.0551 10.780476,-4.0551 1.253884,0 1.211279,0.85614 -0.09129,1.83433 -0.574099,0.43112 -1.41251,1.38043 -1.863137,2.10955 -0.813743,1.31666 -0.844142,1.32615 -4.467804,1.395 -2.006666,0.0382 -3.917227,-0.10376 -4.245695,-0.31524 z m -11.914441,-0.50056 c -0.188092,-0.30435 -1.144372,-0.39107 -2.728365,-0.24744 -1.341323,0.12163 -2.43877,0.0772 -2.43877,-0.0986 0,-0.3757 4.253004,-2.29256 5.971397,-2.69134 1.425259,-0.33077 4.843861,0.12188 4.843861,0.64136 0,0.20281 -0.233985,0.37395 -0.519964,0.38032 -0.285981,0.006 -1.255262,0.56793 -2.153959,1.2479 -1.74577,1.32092 -2.510355,1.5183 -2.9742,0.76778 z m 82.655356,-0.92404 c -0.72084,-0.86857 1.59403,-5.08569 4.58102,-8.34547 2.37331,-2.59005 3.56193,-3.23926 3.41633,-1.86596 -0.0338,0.31943 -0.29675,1.76635 -0.58418,3.21532 -0.39902,2.01162 -0.7287,2.71318 -1.39431,2.96717 -0.47946,0.18295 -1.67842,1.29045 -2.66438,2.46113 -1.85288,2.20001 -2.55675,2.52899 -3.35448,1.56781 z m -35.40028,-20.4084 c -1.8252,-1.67498 -3.64307,-2.92762 -4.88939,-3.36912 -7.643388,-2.70762 -8.015538,-3.14595 -8.015538,-9.44135 0,-4.47714 0.63107,-7.25347 1.82413,-8.02512 1.836908,-1.188079 6.174438,-1.745383 13.247768,-1.702144 6.955,0.04257 6.96131,0.04339 8.06591,1.148024 1.04676,1.04677 1.08043,1.20496 0.63375,2.97886 -0.33593,1.33409 -0.35996,3.53572 -0.0835,7.64803 0.3591,5.34043 0.18841,7.99104 -0.59637,9.26081 -0.47377,0.76659 -5.88282,4.16833 -6.62799,4.16833 -0.35936,0 -1.96084,-1.19983 -3.55883,-2.66632 z m 15.38113,0.4554 c -0.74557,-0.3834 -1.0091,-0.82319 -0.93102,-1.55375 0.0599,-0.56045 0.22596,-2.39253 0.36902,-4.07128 l 0.26012,-3.0523 3.13575,-1.429 c 5.62424,-2.56305 8.81333,-3.17103 8.81333,-1.68021 0,0.3232 0.65517,1.08735 1.4559,1.69811 0.80075,0.61075 1.45591,1.43732 1.45591,1.83682 0,1.4562 -4.57489,5.02773 -9.8655,7.70183 -2.43602,1.23128 -3.19531,1.32022 -4.69351,0.54978 z m 14.55901,-10.14735 c -1.16313,-0.42768 -2.07986,-1.49391 -2.07986,-2.41905 0,-0.79811 0.34703,-0.98962 2.59451,-1.43179 2.94448,-0.57928 4.33788,-1.20675 5.47839,-2.46701 0.43529,-0.48099 0.94962,-0.87451 1.14294,-0.87451 0.85791,0 0.15184,1.26669 -2.37656,4.26369 -2.57885,3.05679 -3.26414,3.47848 -4.75942,2.92867 z m -15.46877,-2.89034 c -0.75281,-0.8335 -0.96303,-2.76874 -0.83617,-7.69783 l 0.0821,-3.187819 3.43177,-2.066876 c 1.88747,-1.136788 5.58441,-3.49149 8.21543,-5.232666 4.34402,-2.874829 5.82361,-3.618483 5.82361,-2.926969 0,0.134585 -0.57732,1.491695 -1.28291,3.015793 -0.70561,1.524097 -1.53301,3.800623 -1.8387,5.058933 -0.30569,1.258322 -0.84791,3.492976 -1.20491,4.965904 -0.78817,3.25187 -2.47186,5.16401 -6.22366,7.06818 -3.3664,1.70857 -5.25238,2.01545 -6.1665,1.00335 z M 99.613402,95.832341 c -0.77876,-0.828952 -0.90801,-1.445142 -0.90801,-4.328814 0,-3.333653 0.0151,-3.380959 1.767868,-5.559321 3.54325,-4.403419 6.6373,-6.627921 10.08732,-7.252354 2.19556,-0.39739 2.4415,0.19247 1.20573,2.891749 -0.74528,1.627909 -1.13239,3.236515 -1.19377,4.960665 -0.05,1.403354 -0.37531,3.113118 -0.723,3.799467 -0.34768,0.686361 -0.95342,2.230881 -1.34606,3.432275 -0.78879,2.413445 -0.75321,2.394567 -5.25032,2.785438 -2.48345,0.215851 -2.81427,0.149584 -3.639758,-0.729105 z M 111.5804,95.311166 c -0.36762,-0.442952 -0.32887,-0.998512 0.16441,-2.357508 0.35495,-0.97789 1.11567,-3.088287 1.69049,-4.689783 1.17848,-3.283315 2.64394,-4.853893 6.82953,-7.319434 2.35204,-1.385467 2.86776,-1.515926 6.98992,-1.768142 2.44778,-0.149774 4.53577,-0.187046 4.63997,-0.08289 0.10423,0.104235 -0.34805,1.087053 -1.005,2.184116 -0.65695,1.097064 -1.80129,3.280072 -2.54299,4.851135 -1.02393,2.168929 -4.52586,7.856823 -5.76063,9.356524 -0.0678,0.08242 -2.46368,0.207351 -5.32405,0.277639 -4.05794,0.09975 -5.30638,4.6e-4 -5.68165,-0.451701 z m 29.83139,-0.87705 c -0.5294,-0.529406 -0.27173,-1.841214 0.76262,-3.882396 0.57196,-1.128712 1.03992,-2.494948 1.03992,-3.036086 0,-0.71249 0.64552,-1.462135 2.34015,-2.717639 2.79743,-2.072535 3.61508,-2.221942 3.22803,-0.589837 -0.49284,2.078267 -1.37882,3.899258 -3.31172,6.806761 -2.05639,3.09325 -3.32028,4.157923 -4.059,3.419197 z M 108.0617,78.077513 c 1.04277,-1.687242 7.1693,-3.640131 9.46305,-3.016442 l 1.14057,0.310136 -2.14458,1.593678 c -2.07044,1.538578 -2.20356,1.577159 -3.85089,1.11593 -1.22691,-0.343505 -2.03351,-0.353339 -2.87081,-0.03502 -1.45505,0.553214 -2.06655,0.564368 -1.73734,0.03172 z m 17.01124,-0.195582 c -0.64339,-0.470462 -0.48451,-0.682376 1.53639,-2.049295 1.23969,-0.838516 3.44363,-1.894275 4.89763,-2.34613 2.59161,-0.805381 5.05183,-1.078091 5.05183,-0.559992 0,0.143865 -0.60836,0.969894 -1.35191,1.835624 -0.74354,0.86573 -1.63268,1.946888 -1.97585,2.402562 -0.50657,0.672612 -1.26524,0.867393 -4.03222,1.035231 -2.37569,0.144101 -3.62567,0.04775 -4.12587,-0.318 z"
           id="path2487" />
      </g>
    </g>
  </g>
</svg>
