<?xml version="1.0" encoding="UTF-8" standalone="no"?>
<!-- Created with Inkscape (http://www.inkscape.org/) -->

<svg
   xmlns:dc="http://purl.org/dc/elements/1.1/"
   xmlns:cc="http://creativecommons.org/ns#"
   xmlns:rdf="http://www.w3.org/1999/02/22-rdf-syntax-ns#"
   xmlns:svg="http://www.w3.org/2000/svg"
   xmlns="http://www.w3.org/2000/svg"
   xmlns:sodipodi="http://sodipodi.sourceforge.net/DTD/sodipodi-0.dtd"
   xmlns:inkscape="http://www.inkscape.org/namespaces/inkscape"
   width="512"
   height="512"
   viewBox="0 0 135.46666 135.46667"
   version="1.1"
   id="svg5"
   inkscape:version="0.92.4 (5da689c313, 2019-01-14)"
   sodipodi:docname="Dark_Veil.svg">
  <metadata
     id="metadata12">
    <rdf:RDF>
      <cc:Work
         rdf:about="">
        <dc:format>image/svg+xml</dc:format>
        <dc:type
           rdf:resource="http://purl.org/dc/dcmitype/StillImage" />
        <dc:title></dc:title>
      </cc:Work>
    </rdf:RDF>
  </metadata>
  <sodipodi:namedview
     id="namedview7"
     pagecolor="#35b0d0"
     bordercolor="#66669b"
     borderopacity="1"
     inkscape:pageshadow="2"
     inkscape:pageopacity="0.50196078"
     inkscape:pagecheckerboard="true"
     inkscape:document-units="mm"
     showgrid="false"
     units="px"
     inkscape:snap-grids="false"
     inkscape:zoom="2.8284272"
     inkscape:cx="253.26938"
     inkscape:cy="130.38272"
     inkscape:window-width="1920"
     inkscape:window-height="1017"
     inkscape:window-x="-8"
     inkscape:window-y="-8"
     inkscape:window-maximized="1"
     inkscape:current-layer="layer5" />
  <defs
     id="defs2" />
  <g
     inkscape:groupmode="layer"
     id="layer5"
     inkscape:label="Dari Veil 1">
    <path
       id="path12722"
       style="fill:#0a0000;fill-opacity:1;stroke:none;stroke-width:0.99999899px;stroke-linecap:butt;stroke-linejoin:miter;stroke-opacity:1"
       d="m 256.43615,41.5 v 0.769531 C 240.90621,237.31455 227.98464,371.89567 85.105469,433.5 H 141.02539 C 187.1825,396.38059 236.79147,356.69681 256.4674,180.78906 276.14333,356.69681 325.755,396.38059 371.91211,433.5 h 55.91992 C 284.95286,371.89567 272.02859,237.31455 256.49865,42.269531 V 41.5 c -0.0104,0.1308 -0.0208,0.25402 -0.0312,0.384766 -0.0104,-0.130746 -0.0208,-0.253966 -0.0312,-0.384766 z"
       transform="scale(0.26458333)"
       inkscape:connector-curvature="0"
       sodipodi:nodetypes="ccccccccccc" />
    <path
       style="fill:#000000;stroke:none;stroke-width:0.264583px;stroke-linecap:butt;stroke-linejoin:miter;stroke-opacity:1;fill-opacity:0.50185901"
       d="m 46.302083,69.51927 c 1.407503,2.75752 3.003014,5.439836 3.571875,8.532812 0.409429,3.818935 0.119227,7.249186 -1.058334,10.186459 -5.617457,7.921164 -10.39272,12.305119 -15.147395,16.602599 -2.963268,2.54046 -6.055536,4.17792 -9.194271,5.49011 3.3626,-3.73705 7.119144,-7.08016 9.326562,-11.972397 1.229111,-3.373998 0.136808,-6.980138 -0.264583,-10.517187 1.415451,2.271182 3.32133,3.316294 3.770313,8.003645 4.51158,-3.651952 2.571251,-10.384406 2.315104,-16.33802 2.719659,3.574476 3.246296,5.330049 3.836458,10.054166 1.460533,-1.929629 2.907336,-3.886717 3.505729,-7.540625 1.011257,-5.39893 -0.236002,-8.539345 -0.661458,-12.501562 z"
       id="path14220"
       sodipodi:nodetypes="cccccccccccc" />
    <path
       id="path15266"
       style="fill:#0a0000;fill-opacity:1;stroke:none;stroke-width:0.99999899px;stroke-linecap:butt;stroke-linejoin:miter;stroke-opacity:1"
       d="m 256.3125,230.5 0.008,3.86133 c -3.67693,47.18444 -11.68349,87.59301 -28.54492,122.03906 h 17.92969 c 5.76219,-15.5858 9.75889,-31.34438 10.76367,-46.40039 1.00478,15.05601 5.00148,30.81459 10.76367,46.40039 h 17.92969 C 268.31717,321.98801 260.29901,281.64262 256.61719,234.51758 L 256.625,230.5 c -0.0492,0.67944 -0.10923,1.34287 -0.16016,2.01953 -0.0507,-0.67359 -0.10337,-1.34318 -0.15234,-2.01953 z m -32.66211,133.88086 c -3.21954,5.90599 -6.7241,11.62985 -10.53906,17.17578 h 21.8125 c 2.73333,-5.64988 5.31288,-11.39048 7.67578,-17.17578 z m 46.6875,0 c 2.3629,5.7853 4.94245,11.52589 7.67578,17.17578 h 21.8125 c -3.81496,-5.54594 -7.31952,-11.26979 -10.53906,-17.17578 z m -63.83984,26.20703 c -3.84514,4.93992 -7.96475,9.73188 -12.38086,14.37695 h 28.4082 c 2.68633,-4.68173 5.32332,-9.48431 7.86719,-14.37695 z m 76.04687,0 c 2.54387,4.89264 5.18086,9.69522 7.86719,14.37695 h 28.4082 c -4.41611,-4.64507 -8.53572,-9.43703 -12.38086,-14.37695 z m -98.08008,23.86133 c -3.26243,2.99804 -6.66422,5.93093 -10.2135,8.79992 h 37.09228 c 1.85936,-2.91299 3.7229,-5.74555 5.57826,-8.79992 z m 111.55078,0 c 1.85536,3.05439 3.71877,5.88696 5.57813,8.79992 h 37.09375 c -3.54928,-2.86896 -6.95241,-5.80189 -10.21484,-8.79992 z"
       transform="scale(0.26458333)"
       inkscape:connector-curvature="0"
       sodipodi:nodetypes="ccccccccccccccccccccccccccccccccccccccccc" />
    <path
       id="path17305"
       style="fill:#000000;fill-opacity:0.501859;stroke:none;stroke-width:0.99999899px;stroke-linecap:butt;stroke-linejoin:miter;stroke-opacity:1"
       d="m 256.40099,361.56055 v 0.28906 c -10.16579,21.83624 -14.32882,38.45446 -37.9381,71.97851 H 160.6582 l -13.44726,11.95704 -85.736331,-0.42969 -9.566406,5.52344 10.246094,5.91601 h 90.703123 l 8.86133,-8.86133 h 68.39844 l 26.35021,-49.89453 26.35291,49.89453 h 68.39844 l 8.86133,8.86133 h 90.70312 l 10.2461,-5.91601 -9.56641,-5.52344 -85.73633,0.42969 -13.44726,-11.95704 h -57.80469 c -23.60928,-33.52405 -27.77501,-50.14227 -37.9408,-71.97851 v -0.28906 c -0.0228,0.0489 -0.0436,0.0957 -0.0664,0.14453 -0.0228,-0.0488 -0.0436,-0.0956 -0.0664,-0.14453 z"
       transform="scale(0.26458333)"
       inkscape:connector-curvature="0"
       sodipodi:nodetypes="cccccccccccccccccccccccccc" />
    <path
       style="fill:#000000;fill-opacity:0.501859;stroke:none;stroke-width:0.99999899px;stroke-linecap:butt;stroke-linejoin:miter;stroke-opacity:1"
       d="m 256.4674,418.85352 -19.5006,39.23242 h -65.24805 l -7.75781,6.68554 7.99414,6.75586 h 169.02734 l 7.99414,-6.75586 -7.75781,-6.68554 H 275.9707 Z"
       transform="scale(0.26458333)"
       id="path17397"
       inkscape:connector-curvature="0"
       sodipodi:nodetypes="cccccccccc" />
    <path
       style="fill:#000000;fill-opacity:0.50185901;stroke:none;stroke-width:0.264583px;stroke-linecap:butt;stroke-linejoin:miter;stroke-opacity:1"
       d="m 89.412629,69.51927 c -1.407503,2.75752 -3.003014,5.439836 -3.571875,8.532812 -0.409429,3.818935 -0.119227,7.249186 1.058334,10.186459 5.617457,7.921164 10.39272,12.305119 15.147392,16.602599 2.96327,2.54046 6.05554,4.17792 9.19427,5.49011 -3.3626,-3.73705 -7.11914,-7.08016 -9.32656,-11.972397 -1.22911,-3.373998 -0.13681,-6.980138 0.26458,-10.517187 -1.41545,2.271182 -3.321325,3.316294 -3.770308,8.003645 -4.51158,-3.651952 -2.571251,-10.384406 -2.315104,-16.33802 -2.719659,3.574476 -3.246296,5.330049 -3.836458,10.054166 -1.460533,-1.929629 -2.907336,-3.886717 -3.505729,-7.540625 -1.011257,-5.39893 0.236002,-8.539345 0.661458,-12.501562 z"
       id="path14220-6"
       sodipodi:nodetypes="cccccccccccc" />
  </g>
</svg>
