<?xml version="1.0" encoding="UTF-8" standalone="no"?>
<svg
   width="512"
   height="512"
   viewBox="0 0 135.46667 135.46667"
   version="1.1"
   id="svg8"
   inkscape:version="1.2.2 (732a01da63, 2022-12-09)"
   sodipodi:docname="Stim.svg"
   xmlns:inkscape="http://www.inkscape.org/namespaces/inkscape"
   xmlns:sodipodi="http://sodipodi.sourceforge.net/DTD/sodipodi-0.dtd"
   xmlns="http://www.w3.org/2000/svg"
   xmlns:svg="http://www.w3.org/2000/svg"
   xmlns:rdf="http://www.w3.org/1999/02/22-rdf-syntax-ns#"
   xmlns:cc="http://creativecommons.org/ns#"
   xmlns:dc="http://purl.org/dc/elements/1.1/">
  <defs
     id="defs2">
    <linearGradient
       id="linearGradient1099-6-5"
       inkscape:swatch="gradient">
      <stop
         style="stop-color:#273839;stop-opacity:0.5"
         offset="0"
         id="stop1151" />
      <stop
         style="stop-color:#273839;stop-opacity:1"
         offset="1"
         id="stop1153" />
    </linearGradient>
  </defs>
  <sodipodi:namedview
     id="base"
     pagecolor="#ffffff"
     bordercolor="#666666"
     borderopacity="1.0"
     inkscape:pageopacity="0.0"
     inkscape:pageshadow="2"
     inkscape:zoom="0.7"
     inkscape:cx="5"
     inkscape:cy="147.85714"
     inkscape:document-units="px"
     inkscape:current-layer="g1320"
     inkscape:document-rotation="0"
     showgrid="false"
     inkscape:pagecheckerboard="true"
     inkscape:object-nodes="true"
     fit-margin-top="0"
     fit-margin-left="0"
     fit-margin-right="0"
     fit-margin-bottom="0"
     inkscape:window-width="2560"
     inkscape:window-height="1361"
     inkscape:window-x="-9"
     inkscape:window-y="-9"
     inkscape:window-maximized="1"
     units="px"
     inkscape:showpageshadow="2"
     inkscape:deskcolor="#d1d1d1" />
  <metadata
     id="metadata5">
    <rdf:RDF>
      <cc:Work
         rdf:about="">
        <dc:format>image/svg+xml</dc:format>
        <dc:type
           rdf:resource="http://purl.org/dc/dcmitype/StillImage" />
        <dc:title />
      </cc:Work>
    </rdf:RDF>
  </metadata>
  <g
     inkscape:label="Layer 1"
     inkscape:groupmode="layer"
     id="layer1"
     transform="translate(-59.62574,-110.15787)">
    <path
       style="fill:#000000;stroke-width:0.264583"
       id="path853"
       d="" />
    <path
       style="fill:#000000;stroke-width:0.264583"
       id="path849"
       d="" />
    <g
       id="g1061"
       transform="translate(9.0714285,1.8898814)">
      <g
         id="g1320"
         transform="translate(7.2162774,44.901282)">
        <path
           style="fill:#000000;fill-opacity:1;stroke-width:0.370492"
           d="m 150.52659,183.40539 -12.11943,-12.25297 -1.13946,0.39721 c -1.67968,0.58554 -3.67561,0.47972 -4.78311,-0.25358 -0.53655,-0.35525 -1.83309,-1.54609 -2.88122,-2.64629 l -1.90567,-2.00038 -1.00897,0.8804 c -0.55493,0.48422 -1.72477,1.55111 -2.59966,2.37087 l -1.5907,1.49046 -10.0653,-10.18854 c -5.5359,-5.60371 -14.071157,-14.27323 -18.967198,-19.26562 -4.89605,-4.99239 -13.071951,-13.3026 -18.168662,-18.46715 l -9.266745,-9.3901 3.969733,-3.76239 3.969736,-3.76239 -4.432851,-4.60048 c -2.438067,-2.530242 -4.43285,-4.704592 -4.43285,-4.831882 0,-0.12729 0.762134,-0.9747 1.69363,-1.88315 l 1.693629,-1.651735 4.5648,4.816395 4.564798,4.816422 3.936491,-3.826322 c 2.16506,-2.10446 4.05866,-3.77167 4.20798,-3.70492 0.14933,0.0668 4.017891,3.95598 8.596811,8.642712 4.578911,4.68672 12.667588,12.93945 17.974808,18.33938 22.11651,22.50281 29.45902,30.03362 29.45902,30.21451 0,0.10516 -1.09258,1.2133 -2.42797,2.46249 l -2.42796,2.27123 1.79318,1.88412 c 0.98625,1.03627 2.09674,2.25048 2.46776,2.69825 0.83014,1.00188 1.06417,3.79209 0.42189,5.03007 -0.46254,0.89158 -0.10628,1.29431 12.63056,14.2802 7.20859,7.3495 13.10653,13.539 13.10653,13.75445 0,0.23424 -0.94755,0.39172 -2.35709,0.39172 h -2.35709 z M 129.71255,159.5016 c 3.79321,-3.58455 6.89675,-6.63069 6.89675,-6.76921 0,-0.13849 -1.49769,-1.7426 -3.32821,-3.56464 l -3.32822,-3.3128 -1.39557,1.27828 c -0.76755,0.70304 -2.15511,1.9924 -3.08346,2.86523 l -1.68789,1.58697 -0.87172,-0.9279 -0.87172,-0.92792 3.02735,-2.87747 3.02737,-2.87748 -1.15306,-1.2513 -1.15305,-1.25129 -2.84257,2.82589 c -1.5634,1.55423 -3.02144,2.82589 -3.24007,2.82589 -0.21861,0 -0.70503,-0.33985 -1.08092,-0.7552 -0.67382,-0.74455 -0.64052,-0.79839 2.35869,-3.81326 l 3.04216,-3.05806 -1.11691,-1.07006 -1.11691,-1.07007 -1.02135,0.89078 c -0.56174,0.48993 -1.98766,1.81215 -3.1687,2.93825 l -2.14737,2.04745 -0.71572,-0.92623 c -0.39365,-0.50942 -0.71941,-1.03996 -0.72395,-1.17896 -0.004,-0.13905 1.32653,-1.46381 2.95791,-2.94404 l 2.96611,-2.69131 -1.18987,-1.22765 -1.18986,-1.22763 -1.68364,1.58277 c -4.43728,4.17143 -4.30963,4.08355 -5.15968,3.55267 -0.43154,-0.2695 -0.78463,-0.67943 -0.78463,-0.91094 0,-0.23153 1.29139,-1.68339 2.86974,-3.22638 l 2.86974,-2.80541 -1.27521,-1.31567 c -0.70135,-0.72363 -1.41103,-1.31568 -1.57704,-1.31568 -0.16602,0 -1.0086,0.32231 -1.87241,0.71624 -4.655,2.12289 -16.436758,7.0641 -16.843548,7.0641 -0.26011,0 -0.47294,0.10348 -0.47294,0.22993 0,0.33768 28.570098,29.40948 28.901938,29.40948 0.15494,0 3.38524,-2.93282 7.17844,-6.51737 z m 28.4003,-27.95086 -12.39652,-12.19882 -6.6018,6.56873 c -3.63099,3.61281 -6.76426,6.62449 -6.96282,6.6926 -0.70057,0.24037 -3.55129,-2.22856 -7.30554,-6.32715 -3.26365,-3.56298 -3.79755,-4.32349 -3.79755,-5.4094 0,-1.16929 0.91629,-2.16515 12.28338,-13.35005 6.75587,-6.64758 12.40862,-12.086522 12.56165,-12.086522 0.15305,0 5.87923,5.549712 12.72486,12.332692 l 12.4466,12.33269 v 11.84196 c 0,6.51307 -0.12504,11.83298 -0.27787,11.82202 -0.15283,-0.0112 -5.85631,-5.5094 -12.67439,-12.21875 z m 0.18956,-29.10905 c -6.71383,-6.601772 -12.37644,-12.003206 -12.58356,-12.003206 -0.20713,0 -5.72098,5.335094 -12.25302,11.855766 -6.53205,6.52066 -11.99812,11.85576 -12.14683,11.85576 -0.14871,0 -0.27038,-5.34505 -0.27038,-11.87791 V 90.394193 L 133.1371,78.46795 c 7.05458,-6.959916 12.37255,-11.926243 12.77067,-11.926243 0.40083,0 5.63339,4.937243 12.68681,11.970758 l 12.00461,11.970758 0.27324,11.681967 c 0.15064,6.44046 0.13051,11.81607 -0.045,11.98084 -0.17498,0.16438 -5.81129,-5.10258 -12.52512,-11.70434 z M 52.549259,100.6696 C 51.6723,99.776028 51.01238,98.804278 51.082774,98.510128 c 0.157311,-0.65734 18.5005,-18.070154 19.038593,-18.072941 0.212286,-0.0011 1.129255,0.757878 2.037709,1.686632 l 1.651734,1.68862 -1.667217,1.526256 c -0.91697,0.83943 -5.277623,4.997834 -9.690341,9.240903 -4.412717,4.24306 -8.087561,7.714652 -8.16632,7.714652 -0.07877,0 -0.860713,-0.7311 -1.737673,-1.62465 z"
           id="path2342" />
      </g>
    </g>
  </g>
</svg>
