<?xml version="1.0" encoding="UTF-8" standalone="no"?>
<svg
   width="512"
   height="512"
   viewBox="0 0 135.46667 135.46667"
   version="1.1"
   id="svg8"
   inkscape:version="1.2.2 (732a01da63, 2022-12-09)"
   sodipodi:docname="Swift_Mend.svg"
   xmlns:inkscape="http://www.inkscape.org/namespaces/inkscape"
   xmlns:sodipodi="http://sodipodi.sourceforge.net/DTD/sodipodi-0.dtd"
   xmlns="http://www.w3.org/2000/svg"
   xmlns:svg="http://www.w3.org/2000/svg"
   xmlns:rdf="http://www.w3.org/1999/02/22-rdf-syntax-ns#"
   xmlns:cc="http://creativecommons.org/ns#"
   xmlns:dc="http://purl.org/dc/elements/1.1/">
  <defs
     id="defs2">
    <linearGradient
       id="linearGradient1099-6-5"
       inkscape:swatch="gradient">
      <stop
         style="stop-color:#273839;stop-opacity:0.5"
         offset="0"
         id="stop1151" />
      <stop
         style="stop-color:#273839;stop-opacity:1"
         offset="1"
         id="stop1153" />
    </linearGradient>
  </defs>
  <sodipodi:namedview
     id="base"
     pagecolor="#ffffff"
     bordercolor="#666666"
     borderopacity="1.0"
     inkscape:pageopacity="0.0"
     inkscape:pageshadow="2"
     inkscape:zoom="0.49497475"
     inkscape:cx="-91.923881"
     inkscape:cy="247.48737"
     inkscape:document-units="px"
     inkscape:current-layer="g1320"
     inkscape:document-rotation="0"
     showgrid="false"
     inkscape:pagecheckerboard="true"
     inkscape:object-nodes="true"
     fit-margin-top="0"
     fit-margin-left="0"
     fit-margin-right="0"
     fit-margin-bottom="0"
     inkscape:window-width="2560"
     inkscape:window-height="1361"
     inkscape:window-x="-9"
     inkscape:window-y="-9"
     inkscape:window-maximized="1"
     units="px"
     inkscape:showpageshadow="2"
     inkscape:deskcolor="#d1d1d1" />
  <metadata
     id="metadata5">
    <rdf:RDF>
      <cc:Work
         rdf:about="">
        <dc:format>image/svg+xml</dc:format>
        <dc:type
           rdf:resource="http://purl.org/dc/dcmitype/StillImage" />
        <dc:title />
      </cc:Work>
    </rdf:RDF>
  </metadata>
  <g
     inkscape:label="Layer 1"
     inkscape:groupmode="layer"
     id="layer1"
     transform="translate(-59.62574,-110.15787)">
    <path
       style="fill:#000000;stroke-width:0.264583"
       id="path853"
       d="" />
    <path
       style="fill:#000000;stroke-width:0.264583"
       id="path849"
       d="" />
    <g
       id="g1061"
       transform="translate(9.0714285,1.8898814)">
      <g
         id="g1320"
         transform="translate(7.2162774,44.901282)">
        <g
           id="g2455"
           transform="matrix(1.1674641,0,0,1.1674638,-19.063803,-17.720244)"
           style="fill:#000000">
          <path
             style="fill:#000000;fill-opacity:1;stroke-width:0.264583"
             d="m 110.54184,81.403405 c -0.0831,-0.336598 -0.11703,-2.457465 -0.0754,-4.713038 l 0.0757,-4.101042 0.86607,-0.08337 0.86607,-0.08337 -0.0723,4.713579 -0.0723,4.713578 -0.71837,0.08283 c -0.56588,0.06525 -0.75046,-0.04709 -0.86949,-0.529167 z"
             id="path2430" />
          <path
             style="fill:#000000;fill-opacity:1;stroke-width:0.264583"
             d="m 113.12189,90.791142 c -0.57422,-0.1106 -0.59531,-0.217505 -0.59531,-3.01771 v -2.903048 l 2.05052,0.176007 c 1.12778,0.0968 2.13371,0.250597 2.23539,0.341762 0.10168,0.09117 -0.0112,1.386146 -0.25085,2.877735 l -0.43572,2.711979 -1.20436,-0.03603 c -0.6624,-0.01982 -1.47225,-0.08763 -1.79967,-0.150694 z"
             id="path2428" />
          <path
             style="fill:#000000;fill-opacity:1;stroke-width:0.264583"
             d="m 106.94461,90.911721 c -0.2496,-0.642048 -0.87594,-5.555707 -0.72043,-5.651815 0.11888,-0.07348 1.04978,-0.203479 2.06865,-0.288898 l 1.8525,-0.155306 v 2.917932 c 0,2.802345 -0.0236,2.924252 -0.59532,3.07747 -0.5814,0.155811 -2.55432,0.232003 -2.6054,0.100617 z"
             id="path2426" />
          <path
             style="fill:#000000;fill-opacity:1;stroke-width:0.264583"
             d="m 100.06452,89.388034 c -0.467853,-1.456492 -0.775677,-2.723127 -0.68406,-2.814744 0.280696,-0.280698 4.00673,-1.101141 4.18935,-0.922462 0.2709,0.265059 1.01497,5.439718 0.80827,5.621128 -0.22278,0.195522 -2.50442,0.764245 -3.06605,0.764245 -0.26969,0 -0.66948,-0.848654 -1.24751,-2.648167 z"
             id="path2424" />
          <path
             style="fill:#000000;fill-opacity:1;stroke-width:0.264583"
             d="m 119.80262,91.845004 c -0.72761,-0.218718 -1.34043,-0.414002 -1.36183,-0.433965 -0.0796,-0.0743 0.8886,-5.472098 1.0019,-5.585394 0.0991,-0.09905 2.55291,0.436856 3.579,0.781628 0.33893,0.113884 -1.27989,5.511644 -1.67689,5.591367 -0.1206,0.02422 -0.81458,-0.134919 -1.54218,-0.353636 z"
             id="path2422" />
          <path
             style="fill:#000000;fill-opacity:1;stroke-width:0.264583"
             d="m 95.638654,93.801225 c -0.360262,-0.447798 -2.426661,-4.619976 -2.426661,-4.899567 0,-0.248438 2.985696,-1.627997 3.523168,-1.627902 0.269883,4.8e-5 2.198894,5.522916 1.980764,5.67104 -0.04398,0.02987 -0.698283,0.304494 -1.453994,0.610276 -1.029084,0.416397 -1.436598,0.478192 -1.623277,0.246153 z"
             id="path2420" />
          <path
             style="fill:#000000;fill-opacity:1;stroke-width:0.264583"
             d="m 88.899301,94.926945 c -0.844013,-1.167423 -1.599341,-2.291376 -1.678504,-2.497674 -0.09545,-0.248732 0.421497,-0.733785 1.534568,-1.439898 0.923176,-0.585646 1.826135,-1.065943 2.006576,-1.067326 0.280977,-0.0021 2.823607,4.545787 2.840842,5.081343 0.0046,0.14327 -2.964043,2.087464 -3.134823,2.053019 -0.01876,-0.0038 -0.724647,-0.96204 -1.568659,-2.129464 z"
             id="path2418" />
          <path
             style="fill:#000000;fill-opacity:1;stroke-width:0.264583"
             d="m 83.969867,98.272295 -2.178532,-2.189906 1.543143,-1.227378 c 0.848728,-0.675058 1.624327,-1.228262 1.723554,-1.229344 0.22733,-0.0025 3.391461,4.363392 3.391461,4.67954 0,0.128436 -0.517747,0.666302 -1.150546,1.195257 l -1.150549,0.961736 z"
             id="path2416" />
          <path
             style="fill:#000000;fill-opacity:1;stroke-width:0.264583"
             d="m 156.44741,127.49033 v -0.79375 h 5.15938 5.15937 v 0.79375 0.79375 h -5.15937 -5.15938 z"
             id="path2414" />
          <path
             style="fill:#000000;fill-opacity:1;stroke-width:0.264583"
             d="m 56.170325,127.62872 v -0.93214 h 4.779264 4.779264 l -0.08291,0.85989 -0.08291,0.8599 -4.696354,0.0722 -4.696355,0.0722 z"
             id="path2412" />
          <path
             style="fill:#000000;fill-opacity:1;stroke-width:0.264583"
             d="m 105.32156,139.11772 -0.071,-6.09969 -6.163463,-0.0519 -6.163459,-0.0519 -2.64e-4,-5.29167 -2.62e-4,-5.29167 6.229866,-0.0709 6.229872,-0.0709 v -6.34521 -6.34521 h 5.55625 5.55625 v 6.35 6.35 h 6.48777 6.48777 l -0.0716,5.35781 -0.0716,5.35782 -6.35,0.0521 -6.35,0.0521 -0.071,6.09944 -0.071,6.09944 h -5.54649 -5.5465 z"
             id="path2410" />
          <path
             style="fill:#000000;fill-opacity:0.501961;stroke-width:0.264583"
             d="m 87.132312,145.44014 c -9.018826,-12.09046 -7.823017,-28.4155 2.857633,-39.01205 4.300077,-4.26622 9.969601,-7.202335 15.839445,-8.202886 3.38952,-0.577768 9.3671,-0.393057 12.27988,0.379455 2.86684,0.760325 6.06568,2.073791 8.12229,3.335081 1.69422,1.03904 1.77676,1.13725 1.8545,2.20652 0.0447,0.61549 -0.002,1.11907 -0.10491,1.11907 -0.10244,0 -0.83063,-0.42771 -1.61818,-0.95046 -2.2017,-1.4614 -5.51353,-2.91716 -8.42174,-3.7019 -2.36234,-0.637436 -3.09053,-0.711239 -7.00215,-0.70967 -4.76706,0.0019 -6.26343,0.27245 -10.4615,1.8914 -5.495257,2.11919 -10.788093,6.71206 -13.756594,11.93729 -5.357718,9.43081 -4.678773,21.66562 1.676863,30.21758 0.885693,1.19176 1.02172,1.5478 0.914024,2.39232 -0.06959,0.5457 -0.270584,0.99219 -0.446656,0.99219 -0.176072,0 -0.955879,-0.85227 -1.732905,-1.89394 z"
             id="path2408" />
          <path
             style="fill:#000000;fill-opacity:1;stroke-width:0.264583"
             d="m 140.23635,155.06828 c -0.97933,-0.9869 -1.78061,-1.9496 -1.78061,-2.13933 0,-0.18974 0.5824,-1.02019 1.29422,-1.84545 7.94797,-9.21452 10.48965,-23.20533 6.40887,-35.27787 -1.49894,-4.43447 -4.59156,-9.6476 -7.76694,-13.09248 l -1.08862,-1.18101 -2.72238,2.71312 c -1.49731,1.49221 -2.79299,2.6425 -2.87929,2.5562 -0.0863,-0.0863 -0.55365,-3.35451 -1.03855,-7.262668 -1.27177,-10.25027 -1.26153,-10.148742 -1.02374,-10.1455 0.90902,0.01239 17.11159,2.118584 17.23317,2.24016 0.0856,0.08563 -1.12053,1.435874 -2.68035,3.000545 l -2.83603,2.844857 0.95707,0.916673 c 3.17976,3.045543 7.38657,10.015663 9.19593,15.236423 1.76581,5.09512 2.16202,7.70276 2.1459,14.12296 -0.013,5.16207 -0.0786,5.97014 -0.70927,8.73125 -1.56256,6.84096 -4.57562,13.04558 -8.8013,18.12396 -0.9687,1.16417 -1.84366,2.14723 -1.94437,2.18459 -0.10071,0.0374 -0.98438,-0.73954 -1.96371,-1.72643 z"
             id="path2406" />
          <path
             style="fill:#000000;fill-opacity:0.501961;stroke-width:0.264583"
             d="m 107.23881,157.09033 c -3.67408,-0.42532 -8.591259,-2.13432 -11.579421,-4.02451 -0.971987,-0.61483 -1.124479,-0.83643 -1.124479,-1.63402 0,-0.5075 0.128794,-0.92272 0.28621,-0.92272 0.157414,0 0.961086,0.39127 1.785938,0.8695 2.201061,1.27611 4.903952,2.40785 7.452852,3.12062 1.97058,0.55105 2.82209,0.62959 6.87917,0.63449 4.29804,0.005 4.82002,-0.0483 7.27604,-0.7456 7.81537,-2.21893 14.28159,-7.42721 17.79113,-14.33005 1.59795,-3.14297 2.97866,-8.88231 2.97866,-12.3817 0,-5.35351 -2.05305,-11.83796 -5.11456,-16.15402 -0.98416,-1.38745 -1.1362,-1.77275 -1.03344,-2.61897 0.0663,-0.5457 0.25628,-0.99168 0.42226,-0.99106 0.47954,0.002 3.09983,3.72661 4.41159,6.27121 2.14126,4.15368 3.16623,8.52161 3.16623,13.49293 0,14.97347 -11.52923,27.75442 -26.5468,29.42898 -2.85566,0.31842 -4.19518,0.31556 -7.05138,-0.0151 z"
             id="path2404" />
          <path
             style="fill:#000000;fill-opacity:1;stroke-width:0.264583"
             d="m 135.72395,158.99516 c -0.82585,-1.15348 -1.50154,-2.16391 -1.50154,-2.24539 0,-0.25648 1.97062,-1.99269 2.27023,-2.0002 0.39158,-0.01 3.6829,3.35419 3.6829,3.76422 0,0.37371 -2.30463,2.57862 -2.69524,2.57862 -0.14014,0 -0.9305,-0.94376 -1.75635,-2.09725 z"
             id="path2402" />
          <path
             style="fill:#000000;fill-opacity:1;stroke-width:0.264583"
             d="m 131.28326,164.47326 c -0.17593,-0.3315 -0.71768,-1.34176 -1.2039,-2.24504 -0.48622,-0.90327 -0.88403,-1.79819 -0.88403,-1.9887 0,-0.28588 2.57099,-2.05752 2.98585,-2.05752 0.11622,0 2.77302,3.45904 3.18214,4.14303 0.15545,0.25988 -1.03792,1.14869 -3.44274,2.56411 -0.18841,0.11089 -0.44748,-0.0582 -0.63732,-0.41588 z"
             id="path2400" />
          <path
             style="fill:#000000;fill-opacity:1;stroke-width:0.264583"
             d="m 84.21616,164.38256 c -3.856303,-0.48947 -7.402149,-0.8942 -7.879659,-0.8994 -1.575243,-0.0172 -1.308857,-0.63815 1.373969,-3.20295 1.395317,-1.33393 2.536939,-2.54182 2.536939,-2.68421 0,-0.14238 -0.726921,-1.05104 -1.61538,-2.01923 -4.607145,-5.02063 -8.329491,-12.58581 -9.819252,-19.95635 -0.876511,-4.33651 -0.871414,-12.02278 0.01074,-16.19984 1.600668,-7.57926 5.071851,-14.56518 10.012528,-20.150692 l 1.366764,-1.545146 2.006674,1.977753 c 1.10367,1.087765 2.006674,2.141835 2.006674,2.342375 0,0.20054 -0.551672,0.97743 -1.225936,1.72641 -4.470023,4.96539 -7.604793,12.06356 -8.580522,19.42918 -0.386811,2.91998 -0.184016,8.77136 0.404857,11.68162 1.270895,6.28086 4.840396,13.37562 8.829402,17.54937 l 0.952194,0.9963 2.843929,-2.83511 c 1.564161,-1.55931 2.889981,-2.78155 2.946263,-2.71609 0.09696,0.11278 1.183984,8.47322 1.769933,13.61278 0.149315,1.30969 0.338333,2.70867 0.420036,3.10885 0.186537,0.91363 0.626007,0.92496 -8.360156,-0.21562 z"
             id="path2398" />
          <path
             style="fill:#000000;fill-opacity:1;stroke-width:0.264583"
             d="m 125.52552,167.2378 c -0.1332,-0.25125 -0.54453,-1.44415 -0.91406,-2.6509 l -0.67186,-2.19409 1.48399,-0.6563 c 1.16132,-0.51359 1.53426,-0.58305 1.71519,-0.31944 0.17744,0.2585 1.66506,3.20031 2.26856,4.48612 0.10355,0.22062 -0.50693,0.55661 -2.28407,1.25709 -1.27235,0.50152 -1.37043,0.50628 -1.59775,0.0775 z"
             id="path2396" />
          <path
             style="fill:#000000;fill-opacity:1;stroke-width:0.264583"
             d="m 118.87551,169.36572 c -5.3e-4,-0.11191 -0.18237,-1.32145 -0.40397,-2.68787 -0.2216,-1.36641 -0.35821,-2.52909 -0.30357,-2.58373 0.11858,-0.11858 3.01584,-0.885 3.34553,-0.885 0.26771,0 1.98111,4.99516 1.78178,5.1945 -0.12067,0.12066 -1.74049,0.55997 -3.6911,1.00105 -0.40018,0.0905 -0.72808,0.073 -0.72867,-0.0389 z"
             id="path2394" />
          <path
             style="fill:#000000;fill-opacity:1;stroke-width:0.264583"
             d="m 101.0172,169.11672 c -0.87312,-0.20934 -1.67235,-0.46484 -1.776059,-0.56777 -0.181467,-0.18012 1.250329,-4.74365 1.610619,-5.13349 0.15588,-0.16866 2.84285,0.3985 3.09835,0.654 0.20332,0.20332 -0.82562,5.31684 -1.08082,5.37136 -0.14553,0.0311 -0.97896,-0.11476 -1.85209,-0.3241 z"
             id="path2392" />
          <path
             style="fill:#000000;fill-opacity:1;stroke-width:0.264583"
             d="m 112.52658,167.47076 v -2.93872 h 1.56967 c 1.79671,0 1.6784,-0.1664 2.14195,3.01253 0.35366,2.42537 0.28396,2.53336 -1.63946,2.53967 -0.67932,0.002 -1.42347,0.0763 -1.65365,0.16465 -0.36615,0.1405 -0.41851,-0.2071 -0.41851,-2.77813 z"
             id="path2390" />
          <path
             style="fill:#000000;fill-opacity:1;stroke-width:0.264583"
             d="m 107.3672,170.16042 c -0.87312,-0.0556 -1.66486,-0.18395 -1.75942,-0.2851 -0.0946,-0.10115 0.0285,-1.37453 0.27343,-2.82974 l 0.44536,-2.64584 1.71094,0.0915 c 0.94102,0.0503 1.80478,0.17986 1.91948,0.28791 0.11469,0.10805 0.17422,1.37657 0.13229,2.81895 -0.0863,2.97017 0.15225,2.74557 -2.72208,2.56235 z"
             id="path2388" />
          <path
             style="fill:#000000;fill-opacity:1;stroke-width:0.264583"
             d="m 110.46995,177.82735 0.0722,-4.69636 0.8599,-0.0829 0.85989,-0.0829 v 4.77927 4.77926 h -0.93214 -0.93215 z"
             id="path2384" />
        </g>
      </g>
    </g>
  </g>
</svg>
