<?xml version="1.0" encoding="UTF-8" standalone="no"?>
<!-- Created with Inkscape (http://www.inkscape.org/) -->

<svg
   xmlns:dc="http://purl.org/dc/elements/1.1/"
   xmlns:cc="http://creativecommons.org/ns#"
   xmlns:rdf="http://www.w3.org/1999/02/22-rdf-syntax-ns#"
   xmlns:svg="http://www.w3.org/2000/svg"
   xmlns="http://www.w3.org/2000/svg"
   xmlns:sodipodi="http://sodipodi.sourceforge.net/DTD/sodipodi-0.dtd"
   xmlns:inkscape="http://www.inkscape.org/namespaces/inkscape"
   width="512"
   height="512"
   viewBox="0 0 135.46666 135.46667"
   version="1.1"
   id="svg5"
   inkscape:version="0.92.4 (5da689c313, 2019-01-14)"
   sodipodi:docname="Riot_Drill.svg">
  <metadata
     id="metadata29">
    <rdf:RDF>
      <cc:Work
         rdf:about="">
        <dc:format>image/svg+xml</dc:format>
        <dc:type
           rdf:resource="http://purl.org/dc/dcmitype/StillImage" />
        <dc:title></dc:title>
      </cc:Work>
    </rdf:RDF>
  </metadata>
  <sodipodi:namedview
     id="namedview7"
     pagecolor="#ffffff"
     bordercolor="#000000"
     borderopacity="0.25"
     inkscape:pageshadow="2"
     inkscape:pageopacity="0.0"
     inkscape:pagecheckerboard="0"
     inkscape:document-units="px"
     showgrid="false"
     units="px"
     inkscape:zoom="1.2900929"
     inkscape:cx="246.94732"
     inkscape:cy="103.64464"
     inkscape:window-width="1920"
     inkscape:window-height="1017"
     inkscape:window-x="-8"
     inkscape:window-y="-8"
     inkscape:window-maximized="1"
     inkscape:current-layer="layer1" />
  <defs
     id="defs2" />
  <g
     inkscape:label="Layer 1"
     inkscape:groupmode="layer"
     id="layer1">
    <g
       id="g13540"
       transform="matrix(1.1614582,0,0,1.1614584,-9.611246,-10.468166)">
      <path
         style="fill:#000000;fill-opacity:1;stroke:none;stroke-width:0.264583;stroke-opacity:1"
         d="m 74.036979,66.858885 4.460677,11.638778 3.845412,-2.87124 -7.12683,-8.767538 z"
         id="path5654-4" />
      <path
         style="fill:#000000;fill-opacity:1;stroke:none;stroke-width:0.264583;stroke-opacity:1"
         d="m 59.116785,66.858879 -4.460677,11.638778 -3.845412,-2.87124 7.12683,-8.767538 z"
         id="path5654" />
      <path
         style="fill:#000000;fill-opacity:1;stroke:none;stroke-width:0.264583;stroke-opacity:1"
         d="M 62.757107,67.833049 58.398975,78.959106 H 74.754789 L 70.294113,67.679233 c -2.512335,0.450788 -5.024671,0.523269 -7.537006,0.153816 z"
         id="path5845"
         sodipodi:nodetypes="ccccc" />
      <path
         style="fill:#000000;fill-opacity:1;stroke:none;stroke-width:0.26458299;stroke-opacity:1"
         d="M 57.014626,82.701973 H 75.626415 V 93.981845 H 57.014626 Z"
         id="rect6002" />
      <path
         style="fill:#000000;fill-opacity:1;stroke:none;stroke-width:0.264583;stroke-opacity:1"
         d="m 59.167968,61.560791 c 5.075684,1.276368 10.151368,0.963812 15.227052,-0.07251 L 68.159179,11.746582 h -3.552978 z"
         id="path6117"
         sodipodi:nodetypes="ccccc" />
      <path
         style="fill:#000000;fill-opacity:1;stroke:none;stroke-width:0.264583;stroke-opacity:1"
         d="m 79.470701,82.697387 v 10.115111 l 9.28125,-6.670897 v -1.957763 l 6.779665,-11.891602 1.812742,6.308349 6.598392,-0.362548 3.44421,-6.344605 -5.00317,-15.662108 c -0.41539,-1.156178 -0.9153,-1.731057 -2.465335,-1.377686 -2.142201,0.722178 -4.235643,1.582506 -6.090819,3.117919 -1.492187,1.254504 -0.811486,2.453293 -0.507569,3.661743 0.329003,1.350315 0.437276,1.852323 -0.145018,2.791627 l -7.976076,14.248167 z"
         id="path6247"
         sodipodi:nodetypes="ccccccccccccccc" />
      <path
         style="fill:#000000;fill-opacity:1;stroke:none;stroke-width:0.264583;stroke-opacity:1"
         d="m 53.628127,82.52871 v 10.115114 l -9.28125,-6.6709 v -1.957763 l -6.779665,-11.891602 -1.812742,6.308349 -6.598392,-0.362548 -3.44421,-6.344605 5.00317,-15.662108 c 0.41539,-1.156178 0.9153,-1.731057 2.465335,-1.377686 2.142201,0.722178 4.235643,1.582506 6.090819,3.117919 1.492187,1.254504 0.811486,2.453293 0.507569,3.661743 -0.329003,1.350315 -0.437276,1.852323 0.145018,2.791627 l 7.976076,14.248167 z"
         id="path6247-9"
         sodipodi:nodetypes="ccccccccccccccc" />
      <path
         style="fill:#000000;fill-opacity:1;stroke:none;stroke-width:0.264583;stroke-opacity:1"
         d="m 64.723761,107.51074 c 1.648134,2.21685 2.742722,1.9015 4.024291,0 2.186181,-3.86823 0.636852,-6.54948 -1.85806,-6.6709 -2.689737,-0.0307 -4.957299,2.86587 -2.166231,6.6709 z"
         id="path7191"
         sodipodi:nodetypes="cccc" />
      <path
         id="path8047"
         style="fill:#000000;fill-opacity:0.5;stroke:none;stroke-width:0.999999;stroke-opacity:1"
         d="m 208.90039,368.38281 15.11523,54.26172 h 56.00391 l 13.75781,-54.26172 z m 42.4375,5.42774 c 17.17053,0.22317 28.67754,19.92119 11.62695,37.98242 -10.05801,10.40292 -11.71339,10.17577 -21.50976,0 -16.88138,-17.99361 -9.09765,-35.89987 9.88281,-37.98242 z"
         transform="scale(0.26458333)" />
      <path
         style="fill:#000000;fill-opacity:1;stroke:none;stroke-width:0.264583;stroke-opacity:1"
         d="m 108.76465,76.352783 -2.46533,6.018569 c -0.45962,0.628564 -0.51982,0.835367 -1.52693,0.870118 l -6.304129,0.217529 8.918699,37.124741 c 2.12061,-0.35344 -0.20466,0.88265 3.90907,0.58927 2.1071,-0.21048 3.052,-1.84129 2.97936,-4.21476 -0.65457,-13.86358 -1.44623,-27.689089 -5.51074,-40.605467 z"
         id="path9049"
         sodipodi:nodetypes="ccsccccc" />
      <path
         style="fill:#000000;fill-opacity:1;stroke:none;stroke-width:0.264583;stroke-opacity:1"
         d="m 24.420646,76.453624 2.46533,6.018564 c 0.45962,0.62857 0.51982,0.83537 1.52693,0.87012 l 6.304129,0.21753 -8.918699,37.124742 c -2.12061,-0.35344 0.20466,0.88265 -3.90907,0.58927 -2.1071,-0.21048 -3.052,-1.84129 -2.97936,-4.21476 0.65457,-13.86358 1.44623,-27.689092 5.51074,-40.605466 z"
         id="path9049-9"
         sodipodi:nodetypes="ccsccccc" />
      <path
         style="fill:#000000;fill-opacity:1;stroke:none;stroke-width:0.264583;stroke-opacity:1"
         d="m 63.269828,114.43943 c 0.256362,0 6.767925,0 6.767925,0 l -2.409791,6.8192 h -1.948341 z"
         id="path11293" />
      <path
         style="fill:#000000;fill-opacity:0.5;stroke:none;stroke-width:0.264583;stroke-opacity:1"
         d="m 56.296816,107.62024 1.076717,3.89668 c -1.490481,-1.08672 -1.773302,-2.39988 -1.076717,-3.89668 z"
         id="path11408"
         sodipodi:nodetypes="ccc" />
      <path
         style="fill:#000000;fill-opacity:0.5;stroke:none;stroke-width:0.264583;stroke-opacity:1"
         d="m 76.754404,107.36388 c 0.719328,2.16248 1.42987,2.3647 -0.922901,3.99922 z"
         id="path11578"
         sodipodi:nodetypes="ccc" />
      <path
         style="fill:#000000;fill-opacity:0.5;stroke:none;stroke-width:0.264583;stroke-opacity:1"
         d="m 79.497462,97.391443 -1.307439,4.845217 c 1.650993,-1.5683 3.306829,-3.172922 4.691401,-2.743059 0.751925,0.166398 0.803108,-0.23555 1.281806,-0.871628 l 4.281223,-7.51137 z"
         id="path11860"
         sodipodi:nodetypes="cccccc" />
      <path
         style="fill:#000000;fill-opacity:0.5;stroke:none;stroke-width:0.264583;stroke-opacity:1"
         d="m 53.691084,97.363573 1.307439,4.845217 c -1.650993,-1.5683 -3.306829,-3.172922 -4.691401,-2.743059 -0.751925,0.166398 -0.803108,-0.23555 -1.281806,-0.871628 l -4.281223,-7.51137 z"
         id="path11860-4"
         sodipodi:nodetypes="cccccc" />
      <path
         style="fill:#000000;fill-opacity:0.5;stroke:none;stroke-width:0.264583;stroke-opacity:1"
         d="m 74.139525,122.69425 h 20.508856 l -9.16537,-2.45586 12.087884,-12.77197 z"
         id="path12288" />
      <path
         style="fill:#000000;fill-opacity:0.5;stroke:none;stroke-width:0.264583;stroke-opacity:1"
         d="M 58.81348,122.91429 H 38.304624 l 9.16537,-2.45586 -12.087884,-12.77197 z"
         id="path12288-3" />
      <path
         style="fill:#000000;fill-opacity:1;stroke:none;stroke-width:0.264583;stroke-opacity:1"
         d="m 82.806153,101.22363 c -2.465307,1.02725 -4.314127,2.67098 -3.806764,6.6709 l 3.843017,0.0362 c 2.077951,-0.22921 2.280312,-2.03362 1.848998,-2.71911 -1.058209,-1.2577 -1.365575,-2.64054 -1.885251,-3.98799 z"
         id="path12425"
         sodipodi:nodetypes="ccccc" />
      <path
         style="fill:#000000;fill-opacity:1;stroke:none;stroke-width:0.264583;stroke-opacity:1"
         d="m 50.646401,101.22654 c 2.465307,1.02725 4.314127,2.67098 3.806764,6.6709 l -3.843017,0.0362 c -2.077951,-0.22921 -2.280312,-2.03362 -1.848998,-2.71911 1.058209,-1.2577 1.365575,-2.64054 1.885251,-3.98799 z"
         id="path12425-0"
         sodipodi:nodetypes="ccccc" />
      <path
         style="fill:#000000;fill-opacity:0.5;stroke:none;stroke-width:0.264583;stroke-opacity:1"
         d="m 42.812242,20.765219 -4.050498,16.458359 10.664605,26.04625 z"
         id="path12853" />
      <path
         style="fill:#000000;fill-opacity:0.5;stroke:none;stroke-width:0.264583;stroke-opacity:1"
         d="M 90.567732,20.765158 94.61823,37.223517 83.953625,63.269767 Z"
         id="path12853-9" />
    </g>
  </g>
</svg>
