<?xml version="1.0" encoding="UTF-8" standalone="no"?>
<svg
   width="512"
   height="512"
   viewBox="0 0 135.46667 135.46667"
   version="1.1"
   id="svg8"
   inkscape:version="1.2.2 (732a01da63, 2022-12-09)"
   sodipodi:docname="Spark_of_Genius.svg"
   xmlns:inkscape="http://www.inkscape.org/namespaces/inkscape"
   xmlns:sodipodi="http://sodipodi.sourceforge.net/DTD/sodipodi-0.dtd"
   xmlns="http://www.w3.org/2000/svg"
   xmlns:svg="http://www.w3.org/2000/svg"
   xmlns:rdf="http://www.w3.org/1999/02/22-rdf-syntax-ns#"
   xmlns:cc="http://creativecommons.org/ns#"
   xmlns:dc="http://purl.org/dc/elements/1.1/">
  <defs
     id="defs2">
    <linearGradient
       id="linearGradient1099-6-5"
       inkscape:swatch="gradient">
      <stop
         style="stop-color:#273839;stop-opacity:0.5"
         offset="0"
         id="stop1151" />
      <stop
         style="stop-color:#273839;stop-opacity:1"
         offset="1"
         id="stop1153" />
    </linearGradient>
  </defs>
  <sodipodi:namedview
     id="base"
     pagecolor="#ffffff"
     bordercolor="#666666"
     borderopacity="1.0"
     inkscape:pageopacity="0.0"
     inkscape:pageshadow="2"
     inkscape:zoom="0.98994949"
     inkscape:cx="200.51528"
     inkscape:cy="226.77925"
     inkscape:document-units="px"
     inkscape:current-layer="g1320"
     inkscape:document-rotation="0"
     showgrid="false"
     inkscape:pagecheckerboard="true"
     inkscape:object-nodes="true"
     fit-margin-top="0"
     fit-margin-left="0"
     fit-margin-right="0"
     fit-margin-bottom="0"
     inkscape:window-width="2560"
     inkscape:window-height="1361"
     inkscape:window-x="-9"
     inkscape:window-y="-9"
     inkscape:window-maximized="1"
     units="px"
     inkscape:showpageshadow="2"
     inkscape:deskcolor="#d1d1d1" />
  <metadata
     id="metadata5">
    <rdf:RDF>
      <cc:Work
         rdf:about="">
        <dc:format>image/svg+xml</dc:format>
        <dc:type
           rdf:resource="http://purl.org/dc/dcmitype/StillImage" />
        <dc:title />
      </cc:Work>
    </rdf:RDF>
  </metadata>
  <g
     inkscape:label="Layer 1"
     inkscape:groupmode="layer"
     id="layer1"
     transform="translate(-59.62574,-110.15787)">
    <path
       style="fill:#000000;stroke-width:0.264583"
       id="path853"
       d="" />
    <path
       style="fill:#000000;stroke-width:0.264583"
       id="path849"
       d="" />
    <g
       id="g1061"
       transform="translate(9.0714285,1.8898814)">
      <g
         id="g1320"
         transform="translate(7.2162774,44.901282)">
        <g
           id="g2304"
           transform="matrix(1.4791837,0,0,1.4791843,-47.71964,-75.202107)"
           style="fill:#000000">
          <path
             style="fill:#000000;fill-opacity:0.501961;stroke-width:0.264583"
             d="m 137.38064,104.80343 v -4.5699 l 2.19662,-2.185214 c 1.20814,-1.201866 2.27971,-2.102128 2.38125,-2.000582 0.10155,0.101546 0.18463,2.129316 0.18463,4.506156 v 4.32153 h 4.42593 4.42593 l -2.23728,2.24896 -2.23727,2.24895 h -4.56991 -4.5699 z"
             id="path2288" />
          <path
             style="fill:#000000;fill-opacity:0.501961;stroke-width:0.264583"
             d="m 65.943139,107.12438 -2.237276,-2.24896 h 4.419682 4.419682 l 0.07239,-4.52488 0.07239,-4.524879 2.315104,2.289647 2.315104,2.289652 v 4.48419 4.48418 h -4.569904 -4.569904 z"
             id="path2286" />
          <path
             style="fill:#000000;fill-opacity:0.501961;stroke-width:0.264583"
             d="m 102.8003,107.45511 1.11055,-3.24115 11.04646,-0.0691 11.04646,-0.069 -1.64885,3.3102 -1.64885,3.31019 h -10.50816 -10.50817 z"
             id="path2284" />
          <path
             style="fill:#000000;fill-opacity:0.501961;stroke-width:0.264583"
             d="m 98.232879,120.68427 c 0.0058,-0.0364 0.466622,-1.37583 1.024019,-2.97656 l 1.013452,-2.91042 10.1782,-0.0692 10.17821,-0.0692 -1.55633,3.04577 -1.55633,3.04578 h -9.6459 c -5.30524,0 -9.641137,-0.0298 -9.635321,-0.0662 z"
             id="path2282" />
          <path
             style="fill:#000000;fill-opacity:0.501961;stroke-width:0.264583"
             d="m 95.05641,130.07698 c 0.005,-0.10914 0.406834,-1.32953 0.892945,-2.71198 l 0.883838,-2.51354 9.282157,-0.0695 9.28216,-0.0695 -0.33048,0.73098 c -0.18177,0.40204 -0.79808,1.65371 -1.36958,2.7815 l -1.0391,2.05052 h -8.80552 c -4.843039,0 -8.801426,-0.0893 -8.79642,-0.19844 z"
             id="path2280" />
          <path
             style="fill:#000000;fill-opacity:1;stroke-width:0.264583"
             d="m 92.351149,137.48531 c 0.538562,-1.56434 1.074888,-2.99309 1.191837,-3.175 0.245694,-0.38215 10.379804,-0.44752 24.298294,-0.15673 l 8.32819,0.17399 -1.66907,2.80257 c -0.91799,1.54141 -1.66969,2.89187 -1.67046,3.00101 -7.9e-4,0.10914 -7.07912,0.19844 -15.72969,0.19844 H 91.371947 Z"
             id="path2278" />
          <path
             style="fill:#000000;fill-opacity:1;stroke-width:0.264583"
             d="m 105.96809,149.78174 c 0.0712,-0.18559 0.40129,-1.55481 0.7335,-3.04271 l 0.60402,-2.70528 h 6.58585 6.58584 l -0.68345,1.12448 c -0.3759,0.61846 -1.18024,1.98768 -1.78743,3.04271 l -1.10398,1.91823 h -5.53192 c -4.37542,0 -5.50484,-0.0705 -5.40243,-0.33743 z"
             id="path2276" />
          <path
             style="fill:#000000;fill-opacity:1;stroke-width:0.264583"
             d="m 103.77856,159.52829 c 0,-0.38192 0.59654,-3.12368 1.08295,-4.97735 l 0.26036,-0.99219 h 4.7523 c 2.61377,0 4.7523,0.0767 4.7523,0.17033 0,0.0937 -0.79158,1.52243 -1.75906,3.175 l -1.75907,3.00467 h -3.66489 c -3.011,0 -3.66489,-0.0679 -3.66489,-0.38046 z"
             id="path2274" />
          <path
             style="fill:#000000;fill-opacity:1;stroke-width:0.264583"
             d="m 101.39731,169.45464 c 0,-0.246 0.97215,-4.52119 1.22308,-5.3787 0.11883,-0.40607 0.50754,-0.46302 3.16037,-0.46302 1.66368,0 3.02488,0.0496 3.02488,0.11022 0,0.0606 -0.77856,1.42984 -1.73014,3.04271 l -1.73014,2.93249 h -1.97403 c -1.08571,0 -1.97402,-0.10967 -1.97402,-0.2437 z"
             id="path2272" />
          <path
             style="fill:#000000;fill-opacity:1;stroke-width:0.264583"
             d="m 89.555172,169.2077 c -12.387459,-7.44508 -18.884416,-21.49213 -16.470651,-35.61114 1.219263,-7.13192 4.154125,-12.95687 9.120363,-18.10159 3.035447,-3.14454 5.865272,-5.25234 9.485177,-7.06507 2.79568,-1.39998 6.415508,-2.70108 6.706153,-2.41043 0.08019,0.0802 -0.260953,1.36604 -0.758095,2.85746 l -0.903888,2.71167 -2.658949,1.33977 c -2.814748,1.41826 -5.796277,3.55601 -7.748169,5.55543 -1.150688,1.1787 -1.219855,1.20828 -2.825131,1.20828 h -1.645563 l -1.336773,1.99865 c -2.208067,3.30133 -3.923409,7.4289 -4.832136,11.6274 -0.455091,2.10261 -0.455091,10.06822 0,12.17083 0.872011,4.02886 3.099957,9.27333 5.087766,11.97633 0.796434,1.08298 0.873052,1.12055 2.285595,1.12055 1.454409,0 1.471786,0.01 3.562829,1.97674 1.155711,1.08721 3.196392,2.70724 4.534845,3.60007 1.338453,0.89283 2.462178,1.64919 2.497164,1.68079 0.154212,0.13931 -1.450885,4.49371 -1.685245,4.57183 -0.143669,0.0479 -1.230551,-0.49551 -2.415292,-1.20757 z"
             id="path2270" />
          <path
             style="fill:#000000;fill-opacity:1;stroke-width:0.264583"
             d="m 111.45147,173.56265 c 0,-0.16012 0.36098,-1.37465 0.80217,-2.69896 l 0.80217,-2.40783 1.51294,-0.33448 c 2.06941,-0.4575 5.61595,-1.91089 7.73529,-3.16997 2.07504,-1.23276 5.60523,-4.03431 6.80403,-5.39968 0.79873,-0.90969 0.94034,-0.96589 2.4338,-0.96589 h 1.58572 l 1.03228,-1.52136 c 5.36515,-7.90702 6.79292,-18.5318 3.72342,-27.70784 -0.88454,-2.64424 -2.82962,-6.5162 -4.22598,-8.41241 -0.89927,-1.22118 -0.91999,-1.23159 -2.47046,-1.24183 -1.51843,-0.01 -1.60628,-0.0506 -3.04271,-1.40551 -0.81352,-0.76735 -1.92911,-1.75991 -2.4791,-2.20568 l -0.99997,-0.81049 1.06228,-2.31023 c 0.74452,-1.61917 1.16235,-2.25202 1.39684,-2.11565 1.07664,0.6261 3.80272,2.99368 5.53649,4.8084 4.41712,4.62334 7.44222,10.51372 8.86314,17.25801 0.65617,3.11448 0.65674,9.8454 0.001,12.96459 -2.68296,12.76397 -11.58048,22.73883 -23.69713,26.56648 -2.76717,0.87417 -6.37628,1.50263 -6.37628,1.11033 z"
             id="path2268" />
          <path
             style="fill:#000000;fill-opacity:1;stroke-width:0.264583"
             d="m 98.914096,179.79928 c 0.08217,-0.41083 0.466143,-2.04794 0.853282,-3.63802 l 0.703882,-2.89105 1.25678,-0.0806 c 0.7864,-0.0505 1.25677,0.0283 1.25677,0.21036 0,0.30204 -3.947222,7.14632 -4.121418,7.14632 -0.05428,0 -0.03146,-0.33613 0.0507,-0.74697 z"
             id="path2266" />
          <path
             style="fill:#000000;fill-opacity:0.501961;stroke-width:0.264583"
             d="m 139.54315,180.54355 -2.16251,-2.11936 v -4.49522 -4.49522 h 4.5699 4.56991 l 2.23727,2.24896 2.23728,2.24896 h -4.42593 -4.42593 v 4.36562 c 0,2.4011 -0.0984,4.36563 -0.21874,4.36563 -0.12031,0 -1.19187,-0.95371 -2.38125,-2.11937 z"
             id="path2264" />
          <path
             style="fill:#000000;fill-opacity:0.501961;stroke-width:0.264583"
             d="m 72.557722,178.49022 v -4.55855 h -4.425929 -4.42593 l 2.237276,-2.24896 2.237275,-2.24896 h 4.569904 4.569904 v 4.43729 4.43729 l -2.38125,2.37021 -2.38125,2.37022 z"
             id="path2260" />
        </g>
      </g>
    </g>
  </g>
</svg>
