<?xml version="1.0" encoding="UTF-8" standalone="no"?>
<svg
   xmlns:osb="http://www.openswatchbook.org/uri/2009/osb"
   xmlns:dc="http://purl.org/dc/elements/1.1/"
   xmlns:cc="http://creativecommons.org/ns#"
   xmlns:rdf="http://www.w3.org/1999/02/22-rdf-syntax-ns#"
   xmlns:svg="http://www.w3.org/2000/svg"
   xmlns="http://www.w3.org/2000/svg"
   xmlns:sodipodi="http://sodipodi.sourceforge.net/DTD/sodipodi-0.dtd"
   xmlns:inkscape="http://www.inkscape.org/namespaces/inkscape"
   width="512"
   height="512"
   viewBox="0 0 135.46667 135.46667"
   version="1.1"
   id="svg8"
   inkscape:version="0.92.4 (5da689c313, 2019-01-14)"
   sodipodi:docname="Mobile_Minigun_-Sheila-.svg">
  <defs
     id="defs2">
    <linearGradient
       id="linearGradient1099-6-5"
       osb:paint="gradient">
      <stop
         style="stop-color:#273839;stop-opacity:0.5"
         offset="0"
         id="stop1151" />
      <stop
         style="stop-color:#273839;stop-opacity:1"
         offset="1"
         id="stop1153" />
    </linearGradient>
  </defs>
  <sodipodi:namedview
     id="base"
     pagecolor="#ffffff"
     bordercolor="#666666"
     borderopacity="1.0"
     inkscape:pageopacity="0.0"
     inkscape:pageshadow="2"
     inkscape:zoom="0.7"
     inkscape:cx="-216.05781"
     inkscape:cy="251.86039"
     inkscape:document-units="px"
     inkscape:current-layer="g1320"
     inkscape:document-rotation="0"
     showgrid="false"
     inkscape:pagecheckerboard="true"
     inkscape:object-nodes="true"
     fit-margin-top="0"
     fit-margin-left="0"
     fit-margin-right="0"
     fit-margin-bottom="0"
     inkscape:window-width="1920"
     inkscape:window-height="1017"
     inkscape:window-x="-8"
     inkscape:window-y="-8"
     inkscape:window-maximized="1"
     units="px" />
  <metadata
     id="metadata5">
    <rdf:RDF>
      <cc:Work
         rdf:about="">
        <dc:format>image/svg+xml</dc:format>
        <dc:type
           rdf:resource="http://purl.org/dc/dcmitype/StillImage" />
        <dc:title></dc:title>
      </cc:Work>
    </rdf:RDF>
  </metadata>
  <g
     inkscape:label="Layer 1"
     inkscape:groupmode="layer"
     id="layer1"
     transform="translate(-59.62574,-110.15787)">
    <path
       style="fill:#000000;stroke-width:0.264583"
       id="path853"
       d="" />
    <path
       style="fill:#000000;stroke-width:0.264583"
       id="path849"
       d="" />
    <g
       id="g1061"
       transform="translate(9.0714285,1.8898814)">
      <g
         id="g1320"
         transform="translate(7.2162774,44.901282)">
        <g
           id="g1435"
           transform="matrix(1.4422948,0,0,1.4422948,-44.582034,-61.604773)">
          <path
             style="fill:#000000;fill-opacity:0.5;stroke-width:0.26458299"
             d="m 102.02029,163.26356 0.74542,-26.97043 h 3.3968 v 24.87951 h 2.64584 v -24.87951 h 3.22829 v 26.97043 m -22.86303,-35.03161 5.33798,-0.59531 -3.590917,-5.81457 5.289968,0.96487 -1.007256,-5.50095 2.227825,1.59772 v 12.6362 z m 27.87404,-8.73125 3.40243,-2.01069 -0.97099,5.49351 5.09471,-0.90251 -3.20937,5.69826 5.30336,0.48141 -9.65729,3.27856 z m 0,-2.6236 c 0,-1.6644 -0.0165,-1.71394 1.02117,-2.53578 0.58209,-0.46102 1.05834,-0.7695 1.05834,-0.68551 0,0.26676 -1.97038,4.91885 -2.07951,4.91885 -0.0575,0 0,-0.76391 0,-1.69756 z m -20.097686,-1.70164 c -0.378384,-1.24684 -0.308258,-1.59906 0.197125,-0.99011 0.176186,0.21229 0.28245,0.78072 0.23614,1.26317 l 0.04798,0.87718 z"
             id="path1428"
             inkscape:connector-curvature="0"
             sodipodi:nodetypes="ccccccccccccccccccccccccscsssccscc" />
          <path
             style="fill:#000000;fill-opacity:1;stroke-width:0.26458299"
             d="m 101.39999,175.36018 c -6e-5,-2.35306 -0.0867,-3.08223 -0.39687,-3.33969 -0.30613,-0.25406 -0.39688,-0.95724 -0.39688,-3.0751 v -2.74578 h 12.96456 v 6.21776 l 3.00173,-0.083 c 2.19382,-0.0599 3.26054,-0.18461 3.46374,-0.44854 0.52027,-0.67576 1.57235,-0.73218 2.3434,-0.12567 0.80668,0.63453 0.9135,1.44834 0.30428,2.31812 -0.53679,0.76638 -1.96169,0.79827 -2.63083,0.0589 -0.42528,-0.46993 -0.81491,-0.52917 -3.48059,-0.52917 h -3.00173 c -5e-5,1.5875 -2e-5,3.1752 0,4.7627 h -12.17073 z m -6.085381,-9.97624 c 0,-2.19694 0.07834,-0.0884 1.984342,-5.20012 1.932684,-5.18322 1.984375,-5.3844 1.984375,-7.7228 v -2.40095 l 4.762504,-4e-5 v 2.63925 c 0,2.63864 -2.7e-4,2.63999 -1.5875,6.33515 -0.87313,2.03277 -1.5875,3.81924 -1.5875,3.96993 0,0.15069 0.54498,-0.11052 1.21107,-0.58047 1.18718,-0.83759 1.27685,-0.85619 4.54734,-0.94322 4.14368,-0.11026 5.39884,0.0703 6.41116,0.92207 0.59751,0.50277 0.79501,0.89317 0.79501,1.57148 v 0.90252 h -6.50706 c -6.37251,0 -6.51005,-0.0114 -6.65129,-0.55153 -0.31639,-1.20988 -0.59199,0.23823 -0.59593,3.13122 l -0.004,2.97657 h -4.762521 z m 19.765381,4.9929 2e-5,-2.99969 c 1e-5,-2.91284 -0.40165,-3.60606 -3.20787,-9.72478 -0.89492,-1.9513 -0.94715,-2.21815 -0.94715,-4.83895 v -2.75339 h 4.76259 v 2.91064 c 0.14743,2.63827 0.27404,3.0293 2.08328,7.76737 1.89415,4.96042 1.70133,4.36553 1.75313,6.63911 v 2.99971 z m -10.57552,-20.18429 2.53248,-8e-5 v 5.29169 h -2.53248 z m 3.62313,5.29161 0.0193,-5.29169 h 2.24896 v 5.29169 z m -9.108857,-19.04995 c -0.145521,-0.0899 -0.264584,-0.97535 -0.264584,-1.96759 0,-2.4644 0.08692,-2.51766 3.779451,-2.31572 1.63209,0.0893 3.35438,0.2412 3.82732,0.33764 l 0.8599,0.17529 v 3.57188 c -1.04934,0.26247 -2.1048,0.33079 -3.175,0.33079 v 12.43541 h -4.762504 c -0.08819,-4.18923 0.326462,-10.68324 -0.264583,-12.5677 z m 11.906247,0.13231 h -0.94343 c -0.88846,-1e-5 -1.52687,0.0384 -1.79986,-0.33081 v -3.57188 c 0.49977,-0.24092 1.82918,-0.37258 3.8516,-0.49777 2.03331,-0.12586 3.05572,-0.0808 3.63802,0.16042 0.79074,0.32754 0.80992,0.37791 0.80992,2.12716 0,1.34852 -0.0982,1.82934 -0.39687,1.94397 -0.57442,0.59345 -0.39679,12.6043 -0.39679,12.6043 h -4.76259 z m -11.387819,-16.9668 1.862899,0 0,11.146 H 99.537171 Z M 103.7812,99.789194 h 1.85647 v 30.956526 h -1.85647 z m 4.49791,1.025096 h 1.71981 v 29.93143 h -1.71981 z m 4.49792,9.40271 h 2.11678 v 20.52872 h -2.11678 z m -13.239859,4.04352 c 0,-2.04105 -0.02435,-2.0462 0.813809,-4.39171 0.95768,2.32463 0.98247,2.33585 1.04909,4.39171 v 1.93308 H 99.537171 Z M 113.64147,99.4373 c 1.13752,3.4682 1.12876,3.47215 1.25234,6.96671 h -2.11678 c -0.061,-3.46494 -0.0612,-3.46644 0.86444,-6.96671 z m -5.36236,-2.293765 c -0.0491,-3.262103 -0.0548,-3.249491 0.7949,-5.672702 0.82595,2.358709 0.82554,2.349709 0.92491,5.672702 z m -4.8382,-0.957589 c -0.0273,-3.803571 -0.0243,-3.797324 1.1475,-7.069515 1.12127,3.176362 1.1153,3.187317 1.17722,7.069515 z"
             id="path1426"
             inkscape:connector-curvature="0"
             sodipodi:nodetypes="scsccccccccscccscssccscscccscsccccccssscccsccccccccccccccsccccccccccccscscccccccccccccccccccccccccccccccccccccccccc" />
        </g>
      </g>
    </g>
  </g>
</svg>
