<?xml version="1.0" encoding="UTF-8" standalone="no"?>
<svg
   xmlns:osb="http://www.openswatchbook.org/uri/2009/osb"
   xmlns:dc="http://purl.org/dc/elements/1.1/"
   xmlns:cc="http://creativecommons.org/ns#"
   xmlns:rdf="http://www.w3.org/1999/02/22-rdf-syntax-ns#"
   xmlns:svg="http://www.w3.org/2000/svg"
   xmlns="http://www.w3.org/2000/svg"
   xmlns:sodipodi="http://sodipodi.sourceforge.net/DTD/sodipodi-0.dtd"
   xmlns:inkscape="http://www.inkscape.org/namespaces/inkscape"
   width="512"
   height="512"
   viewBox="0 0 135.46667 135.46667"
   version="1.1"
   id="svg8"
   inkscape:version="0.92.4 (5da689c313, 2019-01-14)"
   sodipodi:docname="Modded_Loader.svg">
  <defs
     id="defs2">
    <linearGradient
       id="linearGradient1099-6-5"
       osb:paint="gradient">
      <stop
         style="stop-color:#273839;stop-opacity:0.5"
         offset="0"
         id="stop1151" />
      <stop
         style="stop-color:#273839;stop-opacity:1"
         offset="1"
         id="stop1153" />
    </linearGradient>
  </defs>
  <sodipodi:namedview
     id="base"
     pagecolor="#ffffff"
     bordercolor="#666666"
     borderopacity="1.0"
     inkscape:pageopacity="0.0"
     inkscape:pageshadow="2"
     inkscape:zoom="0.7"
     inkscape:cx="-24.227951"
     inkscape:cy="451.07829"
     inkscape:document-units="px"
     inkscape:current-layer="g1320"
     inkscape:document-rotation="0"
     showgrid="false"
     inkscape:pagecheckerboard="true"
     inkscape:object-nodes="true"
     fit-margin-top="0"
     fit-margin-left="0"
     fit-margin-right="0"
     fit-margin-bottom="0"
     inkscape:window-width="1920"
     inkscape:window-height="1017"
     inkscape:window-x="-8"
     inkscape:window-y="-8"
     inkscape:window-maximized="1"
     units="px" />
  <metadata
     id="metadata5">
    <rdf:RDF>
      <cc:Work
         rdf:about="">
        <dc:format>image/svg+xml</dc:format>
        <dc:type
           rdf:resource="http://purl.org/dc/dcmitype/StillImage" />
        <dc:title></dc:title>
      </cc:Work>
    </rdf:RDF>
  </metadata>
  <g
     inkscape:label="Layer 1"
     inkscape:groupmode="layer"
     id="layer1"
     transform="translate(-59.62574,-110.15787)">
    <path
       style="fill:#000000;stroke-width:0.264583"
       id="path853"
       d="" />
    <path
       style="fill:#000000;stroke-width:0.264583"
       id="path849"
       d="" />
    <g
       id="g1061"
       transform="translate(9.0714285,1.8898814)">
      <g
         id="g1320"
         transform="translate(7.2162774,44.901282)">
        <g
           id="g898">
          <g
             transform="matrix(1.4395287,0,0,1.4395287,-48.258451,-52.65055)"
             id="g1783">
            <path
               inkscape:connector-curvature="0"
               sodipodi:nodetypes="cccccccccccccccccccccccccccccc"
               id="path1779"
               d="m 102.32533,164.93119 1.87429,-2.44718 c 17.76305,0.40623 41.37257,-13.27708 40.19631,-41.08831 l 1.88288,-2.3907 7.53937,2.05799 v 13.30739 l -7.24493,2.04694 c -0.31286,3.82295 -2.24032,8.89758 -4.40586,11.47044 l 3.37783,6.64098 -9.01437,9.23322 -6.94439,-3.18943 c -3.13762,1.97589 -6.49447,3.62293 -10.33,4.55195 l -1.85186,7.36873 H 104.6041 Z M 67.545876,134.10584 v -13.2884 l 7.67337,-2.13455 c 0.839156,-3.80822 2.093924,-7.50561 4.241827,-10.96483 l -3.746375,-6.94695 9.194784,-9.495873 6.072576,3.704733 c 3.351506,-2.338776 6.974542,-4.13449 11.198352,-4.728658 l 1.94841,-7.451812 h 12.8414 l 2.1896,7.62882 -1.53728,2.469579 C 85.787418,92.302437 78.497936,110.84425 77.382446,134.19969 l -2.274549,2.03104 z"
               style="fill:#000000;fill-opacity:0.50196081;stroke-width:0.26458299" />
            <path
               sodipodi:nodetypes="cccccccccccc"
               inkscape:connector-curvature="0"
               id="path1777"
               d="m 82.609852,129.74686 c -0.567273,-0.74127 0.217635,-1.30669 0.833071,-0.73526 0.666194,0.72313 1.022614,-0.0445 0.717346,-0.39044 l 17.562761,-18.76845 c 1.71615,-1.57526 1.61191,-0.40016 3.29632,-1.59671 4.50805,-3.36062 9.75375,-9.691269 12.50669,-10.180337 -0.37746,2.590307 -5.98493,7.482497 -10.39032,12.053377 -0.77592,0.82762 0.44745,1.80785 -0.88735,3.25749 l -18.795574,18.97911 c -0.465191,-0.55202 -0.91,-0.0898 -0.46521,0.33436 0.952011,0.98981 0.02568,1.72285 -0.76938,1.01272 z"
               style="fill:#000000;fill-opacity:1;stroke-width:0.26458299" />
          </g>
          <path
             sodipodi:nodetypes="cccccccccccc"
             inkscape:connector-curvature="0"
             id="path1777-7"
             d="m 78.723337,142.84984 c -0.816606,-1.06708 0.313292,-1.88101 1.19923,-1.05842 0.959005,1.04096 1.472082,-0.0641 1.03264,-0.56205 L 106.2373,114.21165 c 1.26565,-1.25182 2.98186,-1.00127 4.74515,-2.29851 6.48947,-4.83771 14.04081,-13.950865 18.00374,-14.654892 -0.54336,3.728822 -8.61548,10.771272 -14.95717,17.351182 -1.11695,1.19139 -0.13545,3.26392 -1.27736,4.68925 l -27.056766,27.32097 c -0.669656,-0.79465 -1.309971,-0.12927 -0.669683,0.48132 1.370447,1.42486 0.03697,2.4801 -1.107545,1.45784 z"
             style="fill:#000000;fill-opacity:1;stroke-width:0.38087481" />
          <path
             sodipodi:nodetypes="cccccccccccc"
             inkscape:connector-curvature="0"
             id="path1777-7-6"
             d="m 86.67109,151.19683 c -0.816606,-1.06708 0.313292,-1.88101 1.19923,-1.05842 0.959005,1.04096 1.472082,-0.0641 1.03264,-0.56205 l 25.28209,-27.01772 c 1.26565,-1.25182 2.98186,-1.00127 4.74515,-2.29851 6.48947,-4.83771 14.04081,-13.95087 18.00374,-14.65489 -0.54336,3.72882 -8.61548,10.77127 -14.95717,17.35118 -1.11695,1.19139 -0.13545,3.26392 -1.27736,4.68925 l -27.056763,27.32097 c -0.669656,-0.79465 -1.309971,-0.12927 -0.669683,0.48132 1.370447,1.42486 0.03697,2.4801 -1.107545,1.45784 z"
             style="fill:#000000;fill-opacity:1;stroke-width:0.38087481" />
          <path
             sodipodi:nodetypes="cccccccccccc"
             inkscape:connector-curvature="0"
             id="path1777-7-4"
             d="m 94.746001,159.46486 c -0.816602,-1.06708 0.3133,-1.88101 1.19923,-1.05842 0.95901,1.04096 1.47209,-0.0641 1.03264,-0.56205 l 25.282099,-27.01772 c 1.26565,-1.25182 2.50939,-1.00127 4.27268,-2.29851 6.48947,-4.83771 14.04081,-13.95086 18.00374,-14.65489 -0.54336,3.72882 -8.14301,10.77127 -14.4847,17.35118 -1.11695,1.19139 -0.13545,3.26392 -1.27736,4.68925 l -27.05677,27.32097 c -0.66965,-0.79465 -1.30997,-0.12927 -0.66968,0.48132 1.37045,1.42486 0.037,2.4801 -1.107549,1.45784 z"
             style="fill:#000000;fill-opacity:1;stroke-width:0.38087481" />
          <path
             sodipodi:nodetypes="cccccccccccc"
             inkscape:connector-curvature="0"
             id="path1777-7-5"
             d="m 102.73075,168.01658 c -0.8166,-1.06708 0.31329,-1.88101 1.19923,-1.05842 0.95901,1.04096 1.47208,-0.0641 1.03264,-0.56205 l 25.2821,-27.01772 c 1.26565,-1.25182 2.98186,-1.00127 4.74515,-2.29851 6.48947,-4.83771 12.90688,-13.95087 16.86981,-14.65489 -0.54336,3.72882 -7.48155,10.77127 -13.82324,17.35118 -1.11695,1.19139 -0.13545,3.26392 -1.27736,4.68925 l -27.05677,27.32097 c -0.66966,-0.79465 -1.30997,-0.12927 -0.66968,0.48132 1.37044,1.42486 0.037,2.4801 -1.10755,1.45784 z"
             style="fill:#000000;fill-opacity:1;stroke-width:0.38087481" />
        </g>
      </g>
    </g>
  </g>
</svg>
