<?xml version="1.0" encoding="UTF-8" standalone="no"?>
<svg
   xmlns:dc="http://purl.org/dc/elements/1.1/"
   xmlns:cc="http://creativecommons.org/ns#"
   xmlns:rdf="http://www.w3.org/1999/02/22-rdf-syntax-ns#"
   xmlns:svg="http://www.w3.org/2000/svg"
   xmlns="http://www.w3.org/2000/svg"
   xmlns:sodipodi="http://sodipodi.sourceforge.net/DTD/sodipodi-0.dtd"
   xmlns:inkscape="http://www.inkscape.org/namespaces/inkscape"
   width="512"
   height="512"
   viewBox="0 0 135.46667 135.46667"
   version="1.1"
   id="svg8"
   inkscape:version="0.92.4 (5da689c313, 2019-01-14)"
   sodipodi:docname="Exhibit.svg">
  <defs
     id="defs2" />
  <sodipodi:namedview
     id="base"
     pagecolor="#000000"
     bordercolor="#666666"
     borderopacity="1.0"
     inkscape:pageopacity="0"
     inkscape:pageshadow="2"
     inkscape:zoom="0.98994949"
     inkscape:cx="24.760256"
     inkscape:cy="188.08032"
     inkscape:document-units="mm"
     inkscape:current-layer="layer1"
     inkscape:document-rotation="0"
     showgrid="false"
     units="px"
     inkscape:window-width="1920"
     inkscape:window-height="1017"
     inkscape:window-x="-8"
     inkscape:window-y="-8"
     inkscape:window-maximized="1"
     inkscape:pagecheckerboard="true"
     inkscape:object-nodes="false" />
  <metadata
     id="metadata5">
    <rdf:RDF>
      <cc:Work
         rdf:about="">
        <dc:format>image/svg+xml</dc:format>
        <dc:type
           rdf:resource="http://purl.org/dc/dcmitype/StillImage" />
        <dc:title></dc:title>
      </cc:Work>
    </rdf:RDF>
  </metadata>
  <g
     inkscape:label="Layer 1"
     inkscape:groupmode="layer"
     id="layer1">
    <g
       id="g1194"
       transform="matrix(1.60075,0,0,1.60075,-41.517985,-21.924222)">
      <path
         inkscape:connector-curvature="0"
         id="path884"
         d="m 42.711309,55.71369 -2.645834,8.07924 9.236795,24.639323 V 66.4109 l -0.926486,-8.552624 z"
         style="fill:#000000;fill-opacity:1;stroke:none;stroke-width:0.26458332px;stroke-linecap:butt;stroke-linejoin:miter;stroke-opacity:1" />
      <path
         sodipodi:nodetypes="ccccccccccccccc"
         inkscape:connector-curvature="0"
         id="path886"
         d="M 41.152159,86.849478 39.21503,82.549999 28.678944,54.154538 l 0.236233,-0.519719 8.504465,10.583333 3.779763,9.449406 -3.49628,-10.063891 -8.693452,-10.961035 0.472469,-2.740327 11.859003,4.771951 -2.740326,8.929411 7.74851,19.938519 -4.393972,2.69308 -2.031622,-3.96875 z"
         style="fill:#000000;fill-opacity:0.50196078;stroke:none;stroke-width:0.26458332px;stroke-linecap:butt;stroke-linejoin:miter;stroke-opacity:1" />
      <path
         inkscape:connector-curvature="0"
         id="path888"
         d="M 41.493593,87.491786 46.671941,84.418185 49.51168,95.27601 Z"
         style="fill:#000000;fill-opacity:0.50196078;stroke:none;stroke-width:0.26458332px;stroke-linecap:butt;stroke-linejoin:miter;stroke-opacity:1" />
      <path
         inkscape:connector-curvature="0"
         id="path890"
         d="M 51.310267,91.43244 50.932291,79.053718 52.869419,78.108777 Z"
         style="fill:#000000;fill-opacity:0.50196078;stroke:none;stroke-width:0.26458332px;stroke-linecap:butt;stroke-linejoin:miter;stroke-opacity:1" />
      <path
         inkscape:connector-curvature="0"
         id="path892"
         d="m 50.979538,77.872544 1.866257,-0.73233 v -4.653832 l -1.582775,-4.25223 z"
         style="fill:#000000;fill-opacity:0.50196078;stroke:none;stroke-width:0.26458332px;stroke-linecap:butt;stroke-linejoin:miter;stroke-opacity:1" />
      <path
         inkscape:connector-curvature="0"
         id="path894"
         d="m 50.294457,57.816183 0.401598,3.472656 0.999874,-0.577278 z"
         style="fill:#000000;fill-opacity:1;stroke:none;stroke-width:0.26458332px;stroke-linecap:butt;stroke-linejoin:miter;stroke-opacity:1" />
      <path
         sodipodi:nodetypes="ccccc"
         inkscape:connector-curvature="0"
         id="path896"
         d="m 50.743304,62.186531 0.519716,4.795573 c 1.339594,-0.746221 2.747607,-1.355606 4.275857,-1.724515 l -1.559152,-3.850634 c -1.168042,0.05164 -2.257248,0.287238 -3.236421,0.779576 z"
         style="fill:#000000;fill-opacity:1;stroke:none;stroke-width:0.26458332px;stroke-linecap:butt;stroke-linejoin:miter;stroke-opacity:1" />
      <path
         inkscape:connector-curvature="0"
         id="path898"
         d="m 31.135788,47.988801 0.07087,1.133928 14.339472,5.598774 -0.614212,-1.842635 z"
         style="fill:#000000;fill-opacity:0.50196078;stroke:none;stroke-width:0.26458332px;stroke-linecap:butt;stroke-linejoin:miter;stroke-opacity:1" />
      <path
         sodipodi:nodetypes="cccc"
         inkscape:connector-curvature="0"
         id="path900"
         d="m 42.796534,47.835669 -0.534541,2.271791 1.436574,0.768401 c -0.03934,-1.0335 -0.461281,-2.03757 -0.902033,-3.040192 z"
         style="fill:#000000;fill-opacity:0.50196078;stroke:none;stroke-width:0.26458332px;stroke-linecap:butt;stroke-linejoin:miter;stroke-opacity:1" />
      <path
         sodipodi:nodetypes="ccccc"
         inkscape:connector-curvature="0"
         id="path902"
         d="m 45.636272,41.588245 c 2.300393,-2.528611 4.439638,-5.080243 7.14946,-7.550364 l 1.202713,0.968851 c -1.675132,1.085413 -3.003197,2.300977 -4.176088,3.57473 z"
         style="fill:#000000;fill-opacity:0.50196078;stroke:none;stroke-width:0.26458332px;stroke-linecap:butt;stroke-linejoin:miter;stroke-opacity:1" />
      <path
         sodipodi:nodetypes="ccccc"
         inkscape:connector-curvature="0"
         id="path904"
         d="m 39.55589,49.172018 -1.069078,-0.467722 c 2.052265,-5.817224 4.562521,-11.472804 9.788745,-16.169807 h 1.5368 C 43.702603,37.328454 41.453048,43.201004 39.55589,49.172018 Z"
         style="fill:#000000;fill-opacity:0.50196078;stroke:none;stroke-width:0.26458332px;stroke-linecap:butt;stroke-linejoin:miter;stroke-opacity:1" />
      <path
         sodipodi:nodetypes="ccccc"
         inkscape:connector-curvature="0"
         id="path906"
         d="M 35.413211,47.701667 C 36.982408,41.499044 41.535177,34.240621 45.569454,31.031098 L 45.001508,30.630193 C 40.044855,35.487855 36.452833,41.063744 34.878674,47.701667 Z"
         style="fill:#000000;fill-opacity:0.50196078;stroke:none;stroke-width:0.26458332px;stroke-linecap:butt;stroke-linejoin:miter;stroke-opacity:1" />
      <path
         sodipodi:nodetypes="cccccc"
         inkscape:connector-curvature="0"
         id="path884-0"
         d="m 93.982594,56.151776 2.173364,8.315476 -9.898253,24.639324 0.425223,-22.021354 0.926486,-8.552624 z"
         style="fill:#000000;fill-opacity:1;stroke:none;stroke-width:0.26458332px;stroke-linecap:butt;stroke-linejoin:miter;stroke-opacity:1" />
      <path
         sodipodi:nodetypes="ccccccccccccccc"
         inkscape:connector-curvature="0"
         id="path886-8"
         d="m 94.592056,88.113691 1.937129,-4.299479 11.126675,-27.356026 -0.23623,-0.519718 -7.961128,9.591145 -4.913692,9.402159 4.630209,-10.016644 8.646201,-10.299578 -0.23623,-3.968749 -11.859003,4.771951 2.551338,9.496376 -8.882439,19.891271 4.393972,2.69308 2.031622,-3.96875 z"
         style="fill:#000000;fill-opacity:0.50196078;stroke:none;stroke-width:0.26458332px;stroke-linecap:butt;stroke-linejoin:miter;stroke-opacity:1" />
      <path
         inkscape:connector-curvature="0"
         id="path888-7"
         d="M 94.116987,88.555547 88.938639,85.481948 86.0989,96.339771 Z"
         style="fill:#000000;fill-opacity:0.50196078;stroke:none;stroke-width:0.26458332px;stroke-linecap:butt;stroke-linejoin:miter;stroke-opacity:1" />
      <path
         inkscape:connector-curvature="0"
         id="path890-4"
         d="M 84.249708,93.382433 84.627684,81.003709 82.690556,80.058768 Z"
         style="fill:#000000;fill-opacity:0.50196078;stroke:none;stroke-width:0.26458332px;stroke-linecap:butt;stroke-linejoin:miter;stroke-opacity:1" />
      <path
         sodipodi:nodetypes="ccccc"
         inkscape:connector-curvature="0"
         id="path892-4"
         d="M 84.58,79.822535 82.548815,79.090205 82.666933,72.735481 84.58,68.436004 Z"
         style="fill:#000000;fill-opacity:0.50196078;stroke:none;stroke-width:0.26458332px;stroke-linecap:butt;stroke-linejoin:miter;stroke-opacity:1" />
      <path
         inkscape:connector-curvature="0"
         id="path894-8"
         d="m 85.470643,58.04575 -0.401598,3.472656 -0.999874,-0.577278 z"
         style="fill:#000000;fill-opacity:1;stroke:none;stroke-width:0.26458332px;stroke-linecap:butt;stroke-linejoin:miter;stroke-opacity:1" />
      <path
         sodipodi:nodetypes="ccccc"
         inkscape:connector-curvature="0"
         id="path896-2"
         d="M 85.021796,62.416098 84.50208,67.211671 C 83.162486,66.46545 81.754473,65.856065 80.226223,65.487156 l 1.559152,-3.850634 c 1.168042,0.05164 2.257248,0.287238 3.236421,0.779576 z"
         style="fill:#000000;fill-opacity:1;stroke:none;stroke-width:0.26458332px;stroke-linecap:butt;stroke-linejoin:miter;stroke-opacity:1" />
      <path
         sodipodi:nodetypes="ccccc"
         inkscape:connector-curvature="0"
         id="path898-8"
         d="m 104.64659,49.292616 0.0961,0.398937 -14.339471,5.598774 0.447167,-1.107644 z"
         style="fill:#000000;fill-opacity:0.50196078;stroke:none;stroke-width:0.26458332px;stroke-linecap:butt;stroke-linejoin:miter;stroke-opacity:1" />
      <path
         sodipodi:nodetypes="cccccc"
         inkscape:connector-curvature="0"
         id="path986"
         d="m 93.572731,45.697319 0.118115,3.496281 -0.425222,0.236236 0.496094,2.196986 1.441034,-0.472471 c -0.09443,-1.922606 -0.718315,-3.723029 -1.630021,-5.457032 z"
         style="fill:#000000;fill-opacity:0.50196078;stroke:none;stroke-width:0.26458332px;stroke-linecap:butt;stroke-linejoin:miter;stroke-opacity:1" />
      <path
         sodipodi:nodetypes="ccccc"
         inkscape:connector-curvature="0"
         id="path988"
         d="m 82.257068,34.405281 1.748139,-0.803198 c 3.453719,2.546017 5.500137,5.639318 7.890254,8.598958 l -3.212799,-1.842635 c -1.787809,-2.259752 -4.07964,-4.127486 -6.425594,-5.953125 z"
         style="fill:#000000;fill-opacity:0.50196078;stroke:none;stroke-width:0.26458332px;stroke-linecap:butt;stroke-linejoin:miter;stroke-opacity:1" />
      <path
         sodipodi:nodetypes="ccccccccc"
         inkscape:connector-curvature="0"
         id="path990"
         d="m 85.658853,57.320089 c 0.661266,-0.513726 1.301361,-1.061326 2.267858,-1.086683 l 4.252232,-7.795757 -0.54334,-4.535715 -20.457962,-11.150299 v 3.000187 l 16.134858,8.315476 c 2.828852,1.508764 2.731078,3.566957 1.606119,5.994117 z"
         style="fill:#000000;fill-opacity:1;stroke:none;stroke-width:0.26458332px;stroke-linecap:butt;stroke-linejoin:miter;stroke-opacity:1" />
      <path
         sodipodi:nodetypes="ccccc"
         inkscape:connector-curvature="0"
         id="path904-8"
         d="m 97.978548,49.852693 1.069078,-0.467722 C 96.995361,43.567747 93.883749,37.010132 88.657525,32.313129 h -1.5368 c 6.109754,4.793964 8.960665,11.56855 10.857823,17.539564 z"
         style="fill:#000000;fill-opacity:0.50196078;stroke:none;stroke-width:0.26458332px;stroke-linecap:butt;stroke-linejoin:miter;stroke-opacity:1" />
      <path
         sodipodi:nodetypes="ccccc"
         inkscape:connector-curvature="0"
         id="path906-1"
         d="M 102.12123,48.382342 C 100.55203,42.179719 94.729731,33.284269 90.695454,30.074747 L 91.2634,29.673841 c 4.956653,4.857663 9.8182,12.070578 11.39236,18.708501 z"
         style="fill:#000000;fill-opacity:0.50196078;stroke:none;stroke-width:0.26458332px;stroke-linecap:butt;stroke-linejoin:miter;stroke-opacity:1" />
      <path
         inkscape:connector-curvature="0"
         id="path1010"
         d="m 54.456165,77.235316 0.801809,2.672697 -1.069078,-1.069078 z"
         style="fill:#000000;fill-opacity:0.50196078;stroke:none;stroke-width:0.26458332px;stroke-linecap:butt;stroke-linejoin:miter;stroke-opacity:1" />
      <path
         inkscape:connector-curvature="0"
         id="path1010-9"
         d="m 80.674504,78.104051 -0.801809,2.672697 1.069078,-1.069078 z"
         style="fill:#000000;fill-opacity:0.50196078;stroke:none;stroke-width:0.26458332px;stroke-linecap:butt;stroke-linejoin:miter;stroke-opacity:1" />
      <path
         sodipodi:nodetypes="ccccc"
         inkscape:connector-curvature="0"
         id="path1028"
         d="m 54.026971,82.148399 v 1.228423 c 1.758815,0.970837 3.674647,1.62764 5.551525,2.362351 l -2.244233,-1.984375 c -1.190557,-0.315151 -2.236929,-0.990764 -3.307292,-1.606399 z"
         style="fill:#000000;fill-opacity:0.50196078;stroke:none;stroke-width:0.26458332px;stroke-linecap:butt;stroke-linejoin:miter;stroke-opacity:1" />
      <path
         sodipodi:nodetypes="ccccc"
         inkscape:connector-curvature="0"
         id="path1028-9"
         d="m 80.762725,83.050738 v 1.228423 c -1.758815,0.970837 -3.674648,1.62764 -5.551525,2.362351 l 2.244233,-1.984375 c 1.190557,-0.315151 2.236929,-0.990764 3.307292,-1.606399 z"
         style="fill:#000000;fill-opacity:0.50196078;stroke:none;stroke-width:0.26458332px;stroke-linecap:butt;stroke-linejoin:miter;stroke-opacity:1" />
      <path
         sodipodi:nodetypes="ccccc"
         inkscape:connector-curvature="0"
         id="path1045"
         d="m 53.62095,86.857019 v 0.701585 c 3.578923,1.333529 7.364391,2.253967 11.208615,3.056895 L 64.244912,89.947323 C 60.621658,89.326887 57.066257,88.367188 53.62095,86.857019 Z"
         style="fill:#000000;fill-opacity:0.50196078;stroke:none;stroke-width:0.26458332px;stroke-linecap:butt;stroke-linejoin:miter;stroke-opacity:1" />
      <path
         sodipodi:nodetypes="ccccc"
         inkscape:connector-curvature="0"
         id="path1045-1"
         d="m 81.077807,87.654245 v 0.701585 c -3.660986,1.256339 -7.276223,1.895063 -10.874528,2.305199 l 0.584653,-0.668176 c 3.412459,-0.04456 6.846005,-0.974769 10.289875,-2.338608 z"
         style="fill:#000000;fill-opacity:0.50196078;stroke:none;stroke-width:0.26458332px;stroke-linecap:butt;stroke-linejoin:miter;stroke-opacity:1" />
      <path
         sodipodi:nodetypes="ccccccccc"
         inkscape:connector-curvature="0"
         id="path990-1"
         d="M 49.733858,56.351633 C 49.072592,55.837907 48.432497,55.290307 47.466,55.26495 l -3.177362,-7.937498 0.34254,-3.42541 20.150856,-11.150299 v 3.000187 l -16.134858,8.315476 c -2.828852,1.508764 -2.589337,3.637828 -1.464378,6.064988 z"
         style="fill:#000000;fill-opacity:1;stroke:none;stroke-width:0.26458332px;stroke-linecap:butt;stroke-linejoin:miter;stroke-opacity:1" />
      <path
         sodipodi:nodetypes="ccccc"
         inkscape:connector-curvature="0"
         id="path1077"
         d="m 65.598,32.801758 c 1.520054,0.462469 3.051675,0.450671 4.594,0 l -3.42e-4,3.624845 H 65.598 Z"
         style="fill:#000000;fill-opacity:1;stroke:none;stroke-width:0.26458332px;stroke-linecap:butt;stroke-linejoin:miter;stroke-opacity:1" />
      <path
         sodipodi:nodetypes="ccccc"
         inkscape:connector-curvature="0"
         id="path1079"
         d="M 67.886,45.797739 59.267018,50.207667 67.886,69.718361 75.971362,50.207667 Z"
         style="fill:#000000;fill-opacity:1;stroke:none;stroke-width:0.26458332px;stroke-linecap:butt;stroke-linejoin:miter;stroke-opacity:1" />
      <path
         id="path1083"
         transform="scale(0.26458333)"
         d="m 256.4375,158.8418 c -1.72224,0.005 -3.42088,0.64006 -5.66797,1.88867 l -39.64844,20.94922 c -5.90322,3.42421 -4.46886,6.30596 -2.85156,10.64648 l 34.04102,80.51953 14.26562,12.50196 13.13477,-12.50196 35.85937,-79.42187 c 1.06403,-2.79613 0.60657,-7.15041 -2.43554,-9.0918 l -40.88086,-23.60156 c -2.34829,-1.26841 -4.09417,-1.89362 -5.81641,-1.88867 z m 0.13867,11.59961 33.58985,18.42773 -33.58985,81.07227 -35.85742,-80.84961 z"
         style="fill:#000000;fill-opacity:0.50196078;stroke:none;stroke-width:0.99999994px;stroke-linecap:butt;stroke-linejoin:miter;stroke-opacity:1"
         inkscape:connector-curvature="0" />
      <path
         id="path1088"
         transform="scale(0.26458333)"
         d="m 244.64258,141.82227 -61.25,32.94531 -1.07031,7.67969 17.72265,44.28515 c 3.89625,-1.44784 7.62045,-0.63186 9.55274,4.19531 l 5.26757,12.27735 c 2.6787,7.24341 -1.40947,8.26213 -4.24804,9.4375 l 19.94922,46.5918 24.37109,21.7207 25.15234,-21.7207 20.98243,-45.80665 c -3.65335,-2.17831 -5.44927,-4.70928 -3.03711,-9.46289 l 7.5,-14.82226 c 2.73893,-3.22827 4.95031,-2.36489 7.23242,-2.05274 l 19.19726,-44.64257 -1.33984,-7.67969 -61.32422,-32.67188 -3,2.20899 h -19.16016 z m 12.20117,11.12304 c 2.12572,0.10793 4.0358,1.42578 8.06055,3.63086 l 40.09961,23.15235 c 7.4253,4.00626 9.92157,5.40981 4.48242,16.7246 l -36.36719,80.05469 c -10.89558,20.49849 -27.52521,13.2543 -33.83984,0 l -35.73047,-83.76758 c -2.44548,-5.92834 -4.43641,-10.09012 3.91211,-14.5957 l 40.02734,-21.56836 c 4.88886,-2.63681 7.22975,-3.73879 9.35547,-3.63086 z"
         style="fill:#000000;fill-opacity:1;stroke:none;stroke-width:0.99999994px;stroke-linecap:butt;stroke-linejoin:miter;stroke-opacity:1"
         inkscape:connector-curvature="0" />
      <path
         sodipodi:nodetypes="ccccccccccccccc"
         inkscape:connector-curvature="0"
         id="path1091"
         d="m 52.444197,67.312667 1.535528,-0.614 5.551524,13.182 6.142114,5.456905 c 1.658964,1.503197 2.10812,1.555277 3.921504,0 l 6.142112,-5.456905 5.64602,-13.182 1.606399,0.614 -4.70108,12.993099 c -0.410653,1.122013 -0.832943,1.70314 -1.842635,2.669455 l -6.449218,5.622396 c -2.52578,2.013426 -2.832794,1.938771 -5.079056,0 L 58.090215,82.148399 C 57.418616,81.468513 57.131766,80.031536 56.720051,78.9356 Z"
         style="fill:#000000;fill-opacity:1;stroke:none;stroke-width:0.26458332px;stroke-linecap:butt;stroke-linejoin:miter;stroke-opacity:1" />
      <path
         inkscape:connector-curvature="0"
         id="path1093"
         d="m 45.971354,29.775073 16.252975,2.55134 -3.96875,2.740326 z"
         style="fill:#000000;fill-opacity:0.50196078;stroke:none;stroke-width:0.26458332px;stroke-linecap:butt;stroke-linejoin:miter;stroke-opacity:1" />
      <path
         inkscape:connector-curvature="0"
         id="path1093-6"
         d="m 89.964283,29.775533 -16.252976,2.55134 3.96875,2.740326 z"
         style="fill:#000000;fill-opacity:0.50196078;stroke:none;stroke-width:0.26458332px;stroke-linecap:butt;stroke-linejoin:miter;stroke-opacity:1" />
      <path
         sodipodi:nodetypes="ccccccc"
         inkscape:connector-curvature="0"
         id="path1110"
         d="m 47.105284,27.885194 7.559521,1.275667 c -0.337864,-0.737818 1.156533,-1.638505 2.787576,-2.551337 l 8.976619,-5.055432 3.15e-4,-5.24442 -15.119048,9.165922 c 2.733899,3.38489 -0.157322,3.073683 -4.204983,2.4096 z"
         style="fill:#000000;fill-opacity:1;stroke:none;stroke-width:0.26458332px;stroke-linecap:butt;stroke-linejoin:miter;stroke-opacity:1" />
      <path
         inkscape:connector-curvature="0"
         id="path1112"
         d="m 48.499069,26.727639 1.842635,-0.992186 0.448847,1.393787 z"
         style="fill:#000000;fill-opacity:1;stroke:none;stroke-width:0.26458332px;stroke-linecap:butt;stroke-linejoin:miter;stroke-opacity:1" />
      <path
         sodipodi:nodetypes="ccccccc"
         inkscape:connector-curvature="0"
         id="path1110-6"
         d="M 89.044908,27.774903 81.485387,29.05057 C 81.82325,28.312752 80.328854,27.412065 78.697811,26.499233 L 68.327,20.924084 l 9e-5,-5.24442 16.512835,9.685639 c -2.733899,3.38489 0.157322,3.073683 4.204983,2.4096 z"
         style="fill:#000000;fill-opacity:1;stroke:none;stroke-width:0.26458332px;stroke-linecap:butt;stroke-linejoin:miter;stroke-opacity:1" />
      <path
         sodipodi:nodetypes="cccc"
         inkscape:connector-curvature="0"
         id="path1112-3"
         d="M 87.863735,26.546477 86.0211,25.554291 85.572253,26.948078 Z"
         style="fill:#000000;fill-opacity:1;stroke:none;stroke-width:0.26458332px;stroke-linecap:butt;stroke-linejoin:miter;stroke-opacity:1" />
      <path
         sodipodi:nodetypes="cccc"
         inkscape:connector-curvature="0"
         id="path1132"
         d="m 66.429,23.514843 v 7.559824 L 56.601933,29.34985 Z"
         style="fill:#000000;fill-opacity:1;stroke:none;stroke-width:0.26458332px;stroke-linecap:butt;stroke-linejoin:miter;stroke-opacity:1" />
      <path
         sodipodi:nodetypes="cccc"
         inkscape:connector-curvature="0"
         id="path1132-5"
         d="m 68.327,22.961693 v 8.112974 l 11.186544,-1.805496 z"
         style="fill:#000000;fill-opacity:1;stroke:none;stroke-width:0.26458332px;stroke-linecap:butt;stroke-linejoin:miter;stroke-opacity:1" />
    </g>
  </g>
</svg>
