<?xml version="1.0" encoding="UTF-8" standalone="no"?>
<!-- Created with Inkscape (http://www.inkscape.org/) -->

<svg
   width="512"
   height="512"
   viewBox="0 0 135.46667 135.46667"
   version="1.1"
   id="svg7996"
   xml:space="preserve"
   inkscape:version="1.2.2 (732a01da63, 2022-12-09)"
   sodipodi:docname="Spotter's_Lens.svg"
   xmlns:inkscape="http://www.inkscape.org/namespaces/inkscape"
   xmlns:sodipodi="http://sodipodi.sourceforge.net/DTD/sodipodi-0.dtd"
   xmlns="http://www.w3.org/2000/svg"
   xmlns:svg="http://www.w3.org/2000/svg"><sodipodi:namedview
     id="namedview7998"
     pagecolor="#ffffff"
     bordercolor="#000000"
     borderopacity="0.25"
     inkscape:showpageshadow="2"
     inkscape:pageopacity="0.0"
     inkscape:pagecheckerboard="0"
     inkscape:deskcolor="#d1d1d1"
     inkscape:document-units="mm"
     showgrid="false"
     inkscape:zoom="0.46057099"
     inkscape:cx="153.07087"
     inkscape:cy="391.90484"
     inkscape:window-width="2560"
     inkscape:window-height="1361"
     inkscape:window-x="-9"
     inkscape:window-y="-9"
     inkscape:window-maximized="1"
     inkscape:current-layer="layer1" /><defs
     id="defs7993" /><g
     inkscape:label="Layer 1"
     inkscape:groupmode="layer"
     id="layer1"><g
       id="g17539"
       transform="matrix(1.0351612,0,0,1.0357858,-39.820417,-60.094811)"
       style="fill:#000000"><g
         id="g17528"
         style="fill:#000000"><path
           style="fill:#000000;stroke-width:0.529167;stroke-linecap:square;stroke-linejoin:bevel"
           d="m 110.23531,79.667991 c -4.6747,-0.80081 -9.03168,-0.54252 -13.303379,0 l 6.804019,-18.58412 z"
           id="path8129-2"
           sodipodi:nodetypes="cccc" /><path
           style="fill:#000000;stroke-width:0.529167;stroke-linecap:square;stroke-linejoin:bevel"
           d="m 60.119122,117.03934 c -0.80081,4.6747 -0.54252,9.03168 0,13.30338 L 41.535,123.5387 Z"
           id="path8129"
           sodipodi:nodetypes="cccc" /><path
           style="fill:#000000;stroke-width:0.529167;stroke-linecap:square;stroke-linejoin:bevel"
           d="m 97.084256,167.15552 c 4.674704,0.80081 9.031684,0.54252 13.303384,0 l -6.80402,18.58412 z"
           id="path8129-4"
           sodipodi:nodetypes="cccc" /><path
           style="fill:#000000;stroke-width:0.529167;stroke-linecap:square;stroke-linejoin:bevel"
           d="m 147.68185,116.99535 c 0.80081,4.6747 0.54252,9.03168 0,13.30338 l 18.58412,-6.80402 z"
           id="path8129-6"
           sodipodi:nodetypes="cccc" /><path
           id="path8231"
           style="fill:#000000;fill-opacity:1;stroke:none;stroke-width:0.599852;stroke-linecap:square;stroke-linejoin:bevel;stroke-opacity:1"
           d="m 103.89237,85.495557 a 37.91552,37.91552 0 0 0 -37.915519,37.915513 37.91552,37.91552 0 0 0 37.915519,37.91552 37.91552,37.91552 0 0 0 37.91551,-37.91552 37.91552,37.91552 0 0 0 -37.91551,-37.915513 z m -0.0124,4.264856 a 33.854469,33.854469 0 0 1 33.85427,33.854777 33.854469,33.854469 0 0 1 -33.85427,33.85427 33.854469,33.854469 0 0 1 -33.85426,-33.85427 33.854469,33.854469 0 0 1 33.85426,-33.854777 z" /><path
           id="path9377"
           style="fill:#000000;fill-opacity:1;stroke:none;stroke-width:0.644364;stroke-linecap:square;stroke-linejoin:bevel;stroke-opacity:1"
           d="M 103.95438,98.507166 A 25.050825,25.050825 0 0 0 78.903194,123.55783 25.050825,25.050825 0 0 0 103.95438,148.6085 25.050825,25.050825 0 0 0 129.00505,123.55783 25.050825,25.050825 0 0 0 103.95438,98.507166 Z m -0.632,2.752804 h 1.31258 v 0.65629 4.74286 a 16.792721,16.792717 0 0 1 15.89257,16.1985 h 4.87463 0.6563 v 1.31206 h -0.6563 -4.88187 a 16.792721,16.792717 0 0 1 -15.88533,16.02538 v 4.62349 0.65629 h -1.31258 v -0.65629 -4.61729 A 16.792721,16.792717 0 0 1 86.985388,124.16968 H 82.501941 81.84565 v -1.31206 h 0.656291 4.475696 a 16.792721,16.792717 0 0 1 16.344743,-16.2047 v -4.73666 z" /></g><path
         id="path10197"
         style="fill:#000000;fill-opacity:1;stroke:none;stroke-width:0.341095;stroke-linecap:square;stroke-linejoin:bevel;stroke-dasharray:none;stroke-opacity:1"
         d="m 103.32238,108.85175 a 14.024959,14.395255 0 0 0 -13.50719,14.00587 h 6.189286 a 7.7631249,7.7631249 0 0 1 7.317904,-7.34994 z m 1.31258,0.002 v 6.68228 a 7.7631249,7.7631249 0 0 1 6.84919,7.32204 h 6.35879 A 14.024959,14.395255 0 0 0 104.63496,108.8533 Z m -14.793415,15.31638 a 14.024959,14.395255 0 0 0 13.480835,13.42502 v -6.61251 a 7.7631249,7.7631249 0 0 1 -7.285348,-6.81251 z m 21.609535,0 a 7.7631249,7.7631249 0 0 1 -6.81612,6.78563 v 6.62441 a 14.024959,14.395255 0 0 0 13.17077,-13.41004 z" /><path
         id="path10201"
         style="fill:#000000;fill-opacity:1;stroke:none;stroke-width:0.316478;stroke-linecap:square;stroke-linejoin:bevel;stroke-dasharray:none;stroke-opacity:1"
         d="m 103.32238,118.07651 a 5.1774869,5.1774864 0 0 0 -4.559933,4.78111 h 4.559933 z m 1.31258,0.006 v 4.77542 h 4.44159 a 5.1774869,5.1774864 0 0 0 -4.44159,-4.77542 z m -5.799649,6.08748 a 5.1774869,5.1774864 0 0 0 4.487069,4.16874 v -4.16874 z m 5.799649,0 v 4.1584 a 5.1774869,5.1774864 0 0 0 4.35477,-4.1584 z" /></g></g></svg>
