<?xml version="1.0" encoding="UTF-8" standalone="no"?>
<svg
   xmlns:osb="http://www.openswatchbook.org/uri/2009/osb"
   xmlns:dc="http://purl.org/dc/elements/1.1/"
   xmlns:cc="http://creativecommons.org/ns#"
   xmlns:rdf="http://www.w3.org/1999/02/22-rdf-syntax-ns#"
   xmlns:svg="http://www.w3.org/2000/svg"
   xmlns="http://www.w3.org/2000/svg"
   xmlns:sodipodi="http://sodipodi.sourceforge.net/DTD/sodipodi-0.dtd"
   xmlns:inkscape="http://www.inkscape.org/namespaces/inkscape"
   width="512"
   height="512"
   viewBox="0 0 135.46667 135.46667"
   version="1.1"
   id="svg8"
   inkscape:version="0.92.4 (5da689c313, 2019-01-14)"
   sodipodi:docname="Psyche_Out.svg">
  <defs
     id="defs2">
    <linearGradient
       id="linearGradient1099-6-5"
       osb:paint="gradient">
      <stop
         style="stop-color:#273839;stop-opacity:0.5"
         offset="0"
         id="stop1151" />
      <stop
         style="stop-color:#273839;stop-opacity:1"
         offset="1"
         id="stop1153" />
    </linearGradient>
  </defs>
  <sodipodi:namedview
     id="base"
     pagecolor="#ffffff"
     bordercolor="#666666"
     borderopacity="1.0"
     inkscape:pageopacity="0.0"
     inkscape:pageshadow="2"
     inkscape:zoom="0.7"
     inkscape:cx="311.87901"
     inkscape:cy="165.53788"
     inkscape:document-units="px"
     inkscape:current-layer="g1320"
     inkscape:document-rotation="0"
     showgrid="false"
     inkscape:pagecheckerboard="true"
     inkscape:object-nodes="true"
     fit-margin-top="0"
     fit-margin-left="0"
     fit-margin-right="0"
     fit-margin-bottom="0"
     inkscape:window-width="1920"
     inkscape:window-height="1017"
     inkscape:window-x="-8"
     inkscape:window-y="-8"
     inkscape:window-maximized="1"
     units="px" />
  <metadata
     id="metadata5">
    <rdf:RDF>
      <cc:Work
         rdf:about="">
        <dc:format>image/svg+xml</dc:format>
        <dc:type
           rdf:resource="http://purl.org/dc/dcmitype/StillImage" />
        <dc:title></dc:title>
      </cc:Work>
    </rdf:RDF>
  </metadata>
  <g
     inkscape:label="Layer 1"
     inkscape:groupmode="layer"
     id="layer1"
     transform="translate(-59.62574,-110.15787)">
    <path
       style="fill:#000000;stroke-width:0.264583"
       id="path853"
       d="" />
    <path
       style="fill:#000000;stroke-width:0.264583"
       id="path849"
       d="" />
    <g
       id="g1061"
       transform="translate(9.0714285,1.8898814)">
      <g
         id="g1320"
         transform="translate(7.2162774,44.901282)">
        <g
           id="g2025"
           transform="matrix(1.0192723,0,0,1.0192713,-2.140091,-4.8638555)">
          <path
             style="fill:#000003;fill-opacity:1;stroke-width:0.35277799"
             d="m 90.013303,189.57013 c -0.828756,-0.21865 -1.477525,-1.54715 -2.948598,-6.03793 -1.027768,-3.13751 -1.160381,-3.87901 -0.810616,-4.53255 0.529177,-0.98878 0.198931,-1.8873 -0.69366,-1.8873 -0.787336,0 -2.037369,-2.76392 -1.675973,-3.70571 0.245248,-0.6391 2.866478,-1.91945 3.95326,-1.93099 0.401521,-0.004 1.592146,-0.65318 2.645833,-1.44204 1.053691,-0.78885 2.347856,-1.52217 2.875929,-1.62959 1.075584,-0.21879 2.177299,-1.80627 2.556387,-3.68353 0.132179,-0.65455 0.315581,-1.45856 0.407564,-1.7867 0.158408,-0.56512 1.683149,-1.5061 6.757241,-4.17019 1.93685,-1.01692 2.3176,-1.10768 3.03533,-0.72356 0.71807,0.3843 1.06613,0.30069 2.78375,-0.66867 2.33667,-1.31874 2.41684,-1.40908 3.45671,-3.89513 0.44637,-1.06716 1.17894,-2.38903 1.62793,-2.93749 0.44899,-0.54846 0.81635,-1.28476 0.81635,-1.63623 0,-1.09563 1.74147,-6.7116 3.38344,-10.91103 0.86438,-2.21071 1.49902,-4.09205 1.4103,-4.18077 -0.0887,-0.0887 -0.70264,0.25161 -1.36429,0.75628 -0.66165,0.50466 -1.31621,0.91757 -1.45459,0.91757 -0.58858,0 -5.3085,-4.31037 -5.77528,-5.27416 -0.50008,-1.03255 -0.47269,-1.10221 1.31882,-3.35363 1.00623,-1.26455 2.222,-2.60791 2.70171,-2.98524 0.815,-0.64109 0.98573,-0.65236 2.60369,-0.17188 0.95232,0.28281 2.57187,0.90392 3.59899,1.38025 1.3364,0.61976 1.90537,0.74258 2.00069,0.43188 0.0733,-0.23879 0.51432,-1.28214 0.98013,-2.31855 0.46581,-1.03642 1.01507,-2.62392 1.22057,-3.52778 0.2055,-0.90387 0.67081,-2.5562 1.03403,-3.67186 0.61615,-1.8926 0.61999,-2.03045 0.0573,-2.05787 -0.95363,-0.0465 -1.92751,-0.19039 -3.10256,-0.45842 -1.27675,-0.29123 -3.06665,0.78497 -7.14859,4.29819 -1.37191,1.18077 -2.81131,2.31646 -3.19868,2.52377 -0.38736,0.20731 -0.85609,0.9267 -1.04163,1.59864 -0.50374,1.8244 -2.82145,4.50904 -3.69545,4.28048 -0.39798,-0.10407 -1.13924,0.12836 -1.71356,0.53731 -0.81214,0.57829 -1.1143,0.63597 -1.52891,0.29188 -0.2842,-0.23586 -0.51673,-0.72329 -0.51673,-1.08316 0,-0.35986 -0.40435,-1.72857 -0.89856,-3.04156 -0.49421,-1.313 -0.81716,-2.70569 -0.71766,-3.09486 0.0995,-0.38918 1.13886,-1.64446 2.30968,-2.78952 1.94667,-1.90383 2.12876,-2.21095 2.12876,-3.59036 0,-1.89937 1.02178,-2.8025 3.56665,-3.15251 l 1.78946,-0.24611 -0.22476,-1.19804 c -0.2767,-1.47499 0.54852,-3.37671 1.74257,-4.01575 0.55852,-0.29891 1.43455,-0.37388 2.58522,-0.22123 1.57718,0.20922 1.79256,0.15134 2.29598,-0.61697 0.69869,-1.06634 3.46102,-2.43492 4.28017,-2.12058 0.68899,0.26439 4.73199,-0.37072 7.48503,-1.17581 1.65063,-0.48271 1.93311,-0.47935 2.96461,0.0352 1.42749,0.71212 1.34271,0.72466 1.71464,-0.25358 0.45027,-1.18428 6.17338,-3.732063 7.01843,-3.124419 1.6915,1.21629 1.96905,1.016419 2.01818,-1.453324 0.0533,-2.678144 0.37107,-3.375159 2.5764,-5.650969 2.65638,-2.741265 3.19702,-2.978371 6.64266,-2.913243 3.16069,0.05974 3.91387,0.43984 4.95032,2.498201 0.29333,0.582542 0.89145,1.456041 1.32916,1.941111 1.71338,1.898773 1.08539,5.407449 -1.26773,7.083019 -0.83509,0.594621 -1.01976,0.983057 -1.01976,2.144894 0,1.05404 -0.24281,1.67602 -0.94448,2.41945 -0.51947,0.55038 -0.99474,1.36955 -1.05616,1.8204 -0.23156,1.69955 -0.49571,2.24955 -1.38981,2.89378 -0.91964,0.66262 -0.92046,0.66246 -1.71216,-0.33042 l -0.79208,-0.99336 -0.58981,0.90016 c -0.45014,0.68702 -0.50799,1.11534 -0.2443,1.8089 0.25106,0.66034 0.20879,1.18278 -0.15465,1.9113 -0.27508,0.55141 -0.72314,1.87047 -0.99569,2.93124 -0.48378,1.88292 -0.47472,1.95351 0.38222,2.97557 0.48276,0.57579 1.13675,1.06458 1.45331,1.08619 0.31655,0.0216 0.97731,0.0664 1.46835,0.0996 0.6406,0.0433 1.00564,0.3593 1.29227,1.11868 0.4873,1.291 1.50394,1.38752 3.27065,0.31051 1.0403,-0.63418 1.55265,-0.71134 3.43958,-0.51802 1.67349,0.17145 2.22718,0.11661 2.25789,-0.22364 0.0224,-0.24794 0.0776,-0.60955 0.12266,-0.80357 0.0451,-0.19403 0.10614,-0.62694 0.1357,-0.96201 0.0296,-0.33508 0.46618,-0.87948 0.97028,-1.20978 0.75946,-0.49762 1.03795,-0.52472 1.62491,-0.15817 0.60137,0.37557 0.82576,0.33208 1.48572,-0.28791 0.5251,-0.49331 1.46553,-0.80223 2.89802,-0.95195 l 2.12065,-0.22165 0.76874,2.10834 c 1.08736,2.98218 1.01446,4.48512 -0.28959,5.97036 -1.12515,1.28147 -1.27253,1.71236 -0.70556,2.06277 0.19403,0.11991 0.35278,0.59267 0.35278,1.05058 0,0.68847 -0.25947,0.89414 -1.4993,1.1884 -3.16762,0.75182 -7.2298,1.85776 -9.26042,2.52118 -3.78474,1.23651 -6.9609,1.85201 -7.23855,1.40275 -0.18697,-0.30251 -0.92181,-0.29137 -2.9191,0.0442 -2.9139,0.48962 -4.75922,0.15376 -6.44624,-1.17325 -0.80562,-0.6337 -0.83046,-0.63057 -1.25755,0.15843 -0.23963,0.44269 -0.69654,1.76962 -1.01536,2.94873 l -0.57968,2.14384 0.9088,1.05939 c 0.49983,0.58267 1.62317,1.54818 2.49629,2.14558 0.87313,0.5974 3.08587,2.37064 4.91722,3.94052 1.83135,1.56989 3.45853,2.85434 3.61597,2.85434 0.15744,0 0.60644,-0.32019 0.99778,-0.71153 0.66452,-0.66452 0.78116,-0.67552 1.76539,-0.16655 2.91261,1.50617 3.96151,6.34244 2.01387,9.28553 -0.53516,0.80868 -1.19585,1.47033 -1.46821,1.47033 -0.30448,0 -0.84438,1.05296 -1.40188,2.73402 -0.84771,2.5562 -0.87468,2.83958 -0.41456,4.35675 0.4421,1.45778 0.42842,1.76258 -0.13457,2.99861 -0.34467,0.75674 -1.08397,1.96576 -1.64287,2.68671 -0.55891,0.72094 -1.30142,1.71313 -1.65002,2.20486 -0.34861,0.49172 -0.85385,0.89405 -1.12276,0.89405 -0.65538,0 -0.80227,0.70365 -0.86792,4.15745 -0.051,2.68317 0.0377,3.09233 1.08199,4.99193 1.01658,1.84914 1.28154,2.09222 2.49152,2.2857 1.63038,0.26071 2.75516,1.29064 2.75516,2.52283 0,0.49783 0.17425,1.23072 0.38722,1.62866 0.30446,0.56889 0.26407,0.84667 -0.18899,1.29972 -0.4576,0.4576 -1.28162,0.57156 -4.00319,0.55363 -3.76808,-0.0248 -5.71221,-0.64354 -7.61117,-2.42223 -0.92104,-0.86271 -1.06204,-0.89743 -1.61439,-0.39756 -0.54806,0.49599 -0.84469,0.48485 -3.141,-0.11803 -1.39469,-0.36617 -2.77165,-0.86149 -3.05991,-1.10073 -0.79093,-0.65642 -0.63567,-2.38495 0.50948,-5.672 1.57762,-4.52841 2.12029,-5.69666 3.18074,-6.84743 1.35338,-1.46865 1.53748,-2.18568 0.76064,-2.96251 -0.3594,-0.35941 -0.852,-0.71964 -1.09465,-0.80053 -0.61763,-0.20587 0.23937,-11.04932 0.91777,-11.61234 0.25624,-0.21266 1.09767,-0.4714 1.86984,-0.57497 1.50055,-0.20126 1.91956,-0.73147 1.59621,-2.0198 -0.16003,-0.6376 -0.90992,-1.0725 -3.61704,-2.09771 -2.86559,-1.08522 -4.10409,-1.39353 -6.45807,-1.60765 -0.12291,-0.0112 -0.29751,-0.40769 -0.38801,-0.88114 -0.12183,-0.63726 0.23081,-1.34279 1.35786,-2.71675 0.83733,-1.02076 1.45966,-1.9187 1.38294,-1.99541 -0.24797,-0.24797 -3.25758,1.99171 -4.1172,3.06392 -0.4589,0.57239 -1.23123,1.72523 -1.7163,2.56187 -0.48507,0.83664 -2.73293,3.38375 -4.99524,5.66024 -4.01404,4.03922 -4.10919,4.17131 -3.94359,5.47482 0.41112,3.23598 -3.83757,6.73683 -7.72287,6.3635 -2.17458,-0.20895 -3.79941,0.267 -3.79941,1.11294 0,1.10348 -0.86089,1.78951 -2.91285,2.3212 -1.117,0.28943 -2.97779,1.00422 -4.13509,1.58842 -1.15729,0.5842 -2.48618,1.06218 -2.95309,1.06218 -0.89934,0 -3.438431,2.63875 -6.034646,6.2715 -1.313526,1.83795 -1.327337,1.89186 -1.078953,4.2112 0.13838,1.29219 0.479386,2.69707 0.757795,3.12197 0.389053,0.59378 0.41717,0.96627 0.121496,1.60964 -0.34019,0.74024 -0.637469,0.84277 -2.56982,0.88623 -1.201819,0.027 -2.465095,-0.0247 -2.807279,-0.11498 z m 42.374587,-90.734637 7.10732,-20.656148 c 0,-1.113502 0.50301,-1.408008 1.20625,-0.704767 0.30669,0.306684 0.5576,0.623777 0.5576,0.704767 l -7.10732,20.656148 z"
             id="path2021"
             inkscape:connector-curvature="0"
             sodipodi:nodetypes="cccsccccccscccsscscsccccsccccccccccccscccscccccccccccccscccsccccccsccccccscccccccccsccsccccsscccccssccscccccssccscccccccssccccccccccssccssscsscccccccccccc" />
          <path
             style="fill:#00000f;fill-opacity:0.50196081;stroke-width:0.35277799"
             d="m 80.055135,188.63173 c -1.148227,-1.75242 -3.010654,-8.08854 -2.916415,-9.92188 0.08268,-1.60842 0.02297,-1.76709 -0.640101,-1.70092 -0.588442,0.0587 -0.840506,-0.26859 -1.290459,-1.67562 -0.552254,-1.72695 -0.548882,-1.75669 0.272397,-2.40271 1.535345,-1.18084 3.663092,-1.02354 5.100735,-2.14876 0,-0.16323 0.227083,-0.38393 0.504631,-0.49043 0.314801,-0.1208 0.182089,0.28165 -0.352778,1.06982 -1.089101,1.60488 -1.078627,2.66872 0.0556,5.64687 l 4.025879,12.1745 c -1.446399,0.11752 -4.027493,0.48676 -4.759489,-0.55087 z m 51.676925,-3.55489 c -3.06684,-0.84718 -3.2738,-1.06964 -3.09236,-3.32398 0.2074,-2.57693 2.78014,-9.03944 4.17138,-10.47814 1.31814,-1.36311 1.30947,-2.01397 -0.0409,-3.07081 l -1.08059,-0.84569 1.14271,-10.77149 c 0.14507,-0.23472 1.02888,-0.51467 1.96403,-0.62211 1.54315,-0.17728 1.71073,-0.28644 1.81343,-1.18132 0.0955,-0.83243 0.23289,-0.94922 0.88194,-0.74992 1.02264,0.31401 0.99287,0.24639 0.62258,1.41412 -0.6043,1.90569 -1.20524,11.84536 -0.80379,13.29503 0.32229,1.16384 0.24458,1.60821 -0.61693,3.52778 -1.46027,3.25368 -3.19557,8.6328 -3.19557,9.90571 0,0.61303 0.14767,1.62948 0.32815,2.25879 0.16636,1.62336 -1.57148,0.78586 -2.09408,0.64203 z M 80.83336,168.64563 99.905138,124.5137 c 3.683572,4.03031 1.913002,7.24489 6.233992,6.53429 0.66203,-0.16616 0.8845,-0.0395 1.07906,0.61433 1.96533,2.72064 3.9845,4.41043 6.4975,6.82087 -1.32796,5.31869 -3.4088,10.29955 -5.83551,15.16944 l -2.09597,0.20492 c -2.03692,0.19915 -3.98826,1.06202 -10.209862,4.51477 -1.879717,1.04317 -2.722683,2.272 -3.369381,4.91168 -0.211233,0.86222 -0.611066,1.69774 -0.970636,1.72948 -0.537002,0.0474 -1.526406,0.6974 -2.30003,1.41065 -1.030055,1.14223 -6.275152,2.6052 -8.100941,2.2215 z M 78.581239,98.443007 h 0.923328 L 51.659094,168.64562 h -0.923328 z m 5.591367,0 h 1.438595 l -30.17469,70.202613 h -1.438596 z m 5.396681,0 h 2.653692 l -30.17469,70.202613 h -2.653692 z m 6.828008,0 h 2.829689 l -30.17469,70.202613 h -2.829689 z m 6.855785,0 h 3.73381 L 76.812197,168.64562 h -3.733808 z m 16.58947,21.943193 c -0.29425,-0.18701 -0.0484,-0.57238 0.79375,-1.24436 0.67099,-0.53541 1.21999,-0.91101 1.21999,-0.83468 0,0.0763 -0.17428,0.63873 -0.38729,1.24977 -0.38773,1.11226 -0.82799,1.33673 -1.62645,0.82927 z m -8.8345,-21.943193 h 9.22249 l -1.66882,1.058227 c -0.91788,0.582046 -2.09987,1.059216 -2.62671,1.060306 -3.01207,0.006 -6.44385,2.51212 -6.92062,5.05355 -0.13356,0.71196 -0.38142,1.29448 -0.55079,1.29448 -0.16936,0 -0.39484,0.047 -0.70135,0.16468 z m 16.53944,-5.245351 5.4363,-15.23584 h 1.15669 l -5.4363,15.23584 z"
             id="path2019"
             sodipodi:nodetypes="csssccssccccsssccscsssssccccccccssssccccccccccccccccccccccccccccscsccsscccccccccc"
             inkscape:connector-curvature="0" />
        </g>
      </g>
    </g>
  </g>
</svg>
